<svg width="3301" height="1792" xmlns="http://www.w3.org/2000/svg" xmlns:xlink="http://www.w3.org/1999/xlink" overflow="hidden"><defs><clipPath id="clip0"><rect x="-17" y="-9" width="3301" height="1792"/></clipPath></defs><g clip-path="url(#clip0)" transform="translate(17 9)"><path d="M924.5 1778.5 1741.05 1266.5 3267.5 1266.5 2450.95 1778.5Z" stroke="#000000" stroke-width="9.16667" stroke-miterlimit="8" fill="#FFFFFF" fill-rule="evenodd"/><text font-family="Arial,Arial_MSFontService,sans-serif" font-weight="700" font-size="83" transform="matrix(1 0 0 1 33 97)">Ammonia Synthesis:<tspan font-weight="400" font-size="83" x="0" y="99">An example of  Heterogeneous Reaction</tspan><tspan font-weight="400" font-size="83" x="0" y="297">N</tspan><tspan font-weight="400" font-size="55" x="59.5833" y="317">2</tspan><tspan font-weight="400" font-size="83" x="112.865" y="297">(g) + 3H</tspan><tspan font-weight="400" font-size="55" x="413.073" y="317">2</tspan><tspan font-weight="400" font-size="83" x="466.354" y="297">(g)</tspan><tspan font-family="Wingdings,Wingdings_MSFontService,sans-serif" font-weight="400" font-size="83" x="590.104" y="297"></tspan><tspan font-weight="400" font-size="83" x="693.802" y="297">2NH</tspan><tspan font-weight="400" font-size="55" x="858.802" y="317">3</tspan><tspan font-weight="400" font-size="83" x="912.083" y="297">(g)</tspan><tspan font-weight="400" font-size="83" x="0" y="495">This reaction</tspan><tspan font-weight="400" font-size="83" x="495" y="495">occurs</tspan><tspan font-weight="400" font-size="83" x="760.833" y="495">over</tspan><tspan font-weight="400" font-size="83" x="944.167" y="495">Fe</tspan><tspan font-weight="400" font-size="83" x="1040.42" y="495">-</tspan><tspan font-weight="400" font-size="83" x="1067.92" y="495">based</tspan><tspan font-weight="400" font-size="83" x="1315.42" y="495">catalysts</tspan><tspan font-weight="400" font-size="83" x="0" y="594">Here</tspan><tspan font-weight="400" font-size="83" x="201.667" y="594">is</tspan><tspan font-weight="400" font-size="83" x="284.167" y="594">an</tspan><tspan font-weight="400" font-size="83" x="398.75" y="594">illustration</tspan><tspan font-weight="400" font-size="83" x="792.917" y="594">of</tspan><tspan font-weight="400" font-size="83" x="884.583" y="594">Fe</tspan><tspan font-weight="400" font-size="83" x="1003.75" y="594">nanoparticles (grey)</tspan><tspan font-weight="400" font-size="83" x="0" y="693">On</tspan><tspan font-weight="400" font-size="83" x="132.917" y="693">an inert SiO2 surface (white)</tspan><tspan font-weight="400" font-size="83" x="1282.88" y="762">N</tspan><tspan font-weight="400" font-size="55" x="1342.46" y="782">2 </tspan><tspan font-weight="400" font-size="83" x="1388.29" y="762">(g)</tspan><tspan font-weight="400" font-size="83" x="1643.13" y="762">3H</tspan><tspan font-weight="400" font-size="55" x="1748.54" y="782">2 </tspan><tspan font-weight="400" font-size="83" x="1794.38" y="762">(g)</tspan><tspan font-weight="400" font-size="83" x="2799.5" y="762">2NH</tspan><tspan font-weight="400" font-size="55" x="2964.5" y="782">3 </tspan><tspan font-weight="400" font-size="83" x="3010.33" y="762">(g)</tspan><tspan font-family="Wingdings,Wingdings_MSFontService,sans-serif" font-weight="400" font-size="83" x="2255.93" y="767"></tspan></text><path d="M1421.57 940.487 1409.45 947.362 1409.48 947.344 1397.79 954.094 1397.92 954.017 1387.17 960.704 1387.29 960.626 1382.42 963.876 1382.56 963.778 1378.06 967.028 1378.22 966.902 1374.29 970.027 1374.46 969.887 1370.96 972.949 1371.25 972.671 1368.37 975.671 1368.74 975.237 1366.55 978.175 1366.92 977.594 1365.42 980.407 1365.8 979.456 1365.05 982.206 1365.21 980.891 1365.27 983.516 1364.98 982.016 1365.92 984.516 1365.22 983.285 1366.16 984.472 1365.46 983.765 1366.84 984.89 1366.2 984.45 1368.07 985.512 1367.62 985.287 1369.81 986.225 1369.49 986.104 1374.93 987.979 1374.52 987.859 1381.21 989.484 1381.01 989.44 1388.63 990.94 1388.5 990.915 1396.81 992.29 1396.77 992.284 1405.58 993.659 1405.57 993.657 1414.57 995.032 1423.6 996.411 1432.37 997.862 1440.71 999.454 1448.37 1001.26 1455.24 1003.3 1460.92 1005.7 1463.49 1007.18 1465.68 1008.87 1467.6 1010.98 1468.93 1013.52 1469.49 1016.35 1469.28 1019.12 1468.44 1021.81 1467.18 1024.26 1464.01 1028.76 1459.66 1033.46 1454.42 1038.17 1448.59 1042.91 1442.25 1047.79 1435.63 1052.65 1422.36 1062.16 1416.12 1066.66 1416.21 1066.58 1410.46 1070.96 1410.57 1070.87 1405.64 1074.87 1405.88 1074.66 1401.88 1078.41 1402.24 1078.03 1399.43 1081.34 1399.85 1080.76 1398.98 1082.2 1399.37 1081.38 1398.87 1082.75 1399.14 1081.31 1399.08 1083.68 1398.63 1081.57 1399.56 1083.5 1398.37 1081.98 1400.25 1083.54 1399.28 1082.92 1401.91 1084.17 1401.26 1083.92 1404.57 1084.92 1404.21 1084.83 1408.02 1085.64 1407.74 1085.59 1411.93 1086.22 1411.76 1086.2 1416.2 1086.7 1416.16 1086.69 1425.25 1087.63 1429.73 1088.14 1433.99 1088.8 1438.01 1089.62 1441.67 1090.74 1445.02 1092.46 1447.78 1095 1449.33 1098.35 1449.56 1101.84 1448.8 1104.95 1447.58 1107.8 1444.44 1112.92 1440.78 1117.99 1440.83 1117.92 1437.33 1122.98 1437.49 1122.73 1435.99 1125.23 1436.26 1124.72 1435.13 1127.28 1435.36 1126.65 1434.67 1129.15 1434.82 1128.3 1434.63 1130.67 1434.57 1129.48 1435.01 1131.86 1434.6 1130.64 1435.72 1132.89 1434.96 1131.8 1436.96 1133.92 1436.39 1133.41 1439.2 1135.53 1438.68 1135.19 1442.24 1137.19 1442.02 1137.08 1446.09 1139.08 1445.85 1138.97 1450.42 1140.91 1450.3 1140.86 1455.24 1142.8 1455.18 1142.78 1465.45 1146.66 1475.67 1150.63 1480.51 1152.7 1485.1 1154.89 1489.11 1157.27 1492.71 1159.79 1495.73 1162.81 1497.81 1166.41 1498.53 1170.5 1497.85 1174.36 1496.28 1177.83 1494.17 1181.07 1491.55 1184.12 1488.61 1187.06 1482.33 1192.83 1475.81 1198.67 1475.99 1198.49 1470.05 1204.43 1470.4 1204.04 1467.96 1207.1 1468.25 1206.7 1466.31 1209.76 1466.62 1209.19 1465.24 1212.25 1465.55 1211.29 1464.93 1214.35 1465.02 1213.44 1465.02 1216.62 1464.98 1216.01 1465.42 1219.26 1465.33 1218.78 1466.14 1222.1 1466.02 1221.69 1467.21 1225.13 1467.04 1224.71 1470.23 1231.65 1470.06 1231.32 1473.99 1238.32 1473.93 1238.2 1478.18 1245.26 1478.14 1245.2 1482.43 1252.07 1486.46 1259.02 1489.66 1267.45 1481.09 1270.7 1478.03 1262.63 1478.35 1263.3 1474.54 1256.74 1474.61 1256.86 1470.34 1250.02 1466.04 1242.87 1461.98 1235.65 1458.62 1228.33 1457.29 1224.48 1456.37 1220.73 1455.85 1216.93 1455.85 1212.97 1456.67 1208.96 1458.39 1205.14 1460.63 1201.59 1463.39 1198.13 1469.6 1191.92 1476.19 1186.02 1476.15 1186.06 1482.34 1180.38 1482.2 1180.51 1484.95 1177.76 1484.71 1178.01 1487.03 1175.32 1486.66 1175.81 1488.41 1173.12 1488.07 1173.74 1489.26 1171.11 1488.92 1172.21 1489.36 1169.71 1489.36 1171.29 1488.92 1168.79 1489.47 1170.3 1488.1 1167.92 1488.82 1168.87 1486.51 1166.55 1487.12 1167.07 1484 1164.88 1484.29 1165.07 1480.6 1162.88 1480.96 1163.07 1476.65 1161.01 1476.83 1161.09 1472.14 1159.09 1472.28 1159.15 1462.15 1155.21 1462.19 1155.22 1451.92 1151.34 1446.89 1149.37 1442.15 1147.36 1437.86 1145.24 1433.92 1143.03 1430.55 1140.49 1427.83 1137.59 1426.11 1134.16 1425.45 1130.55 1425.72 1127.14 1426.61 1123.9 1427.98 1120.77 1429.71 1117.89 1433.32 1112.67 1436.91 1107.69 1436.72 1107.98 1439.59 1103.29 1439.29 1103.88 1440.22 1101.69 1439.98 1102.42 1440.48 1100.36 1440.36 1101.73 1440.24 1099.79 1440.66 1101.43 1439.84 1099.68 1440.89 1101.12 1439.27 1099.62 1440.28 1100.33 1437.85 1099.08 1438.6 1099.38 1435.53 1098.44 1435.96 1098.55 1432.27 1097.8 1432.49 1097.84 1428.43 1097.22 1428.6 1097.24 1424.23 1096.74 1424.28 1096.75 1415.2 1095.81 1410.66 1095.3 1406.25 1094.64 1402.11 1093.76 1398.28 1092.6 1394.82 1090.95 1391.74 1088.39 1389.89 1084.56 1390 1080.32 1390.91 1077.82 1392.21 1075.68 1395.43 1071.9 1399.74 1067.86 1404.86 1063.71 1410.71 1059.25 1417.02 1054.71 1430.27 1045.21 1430.23 1045.24 1436.79 1040.43 1436.7 1040.49 1442.95 1035.68 1442.86 1035.76 1448.55 1031.13 1448.37 1031.28 1453.37 1026.78 1453.08 1027.07 1457.08 1022.76 1456.69 1023.24 1459.5 1019.24 1459.18 1019.77 1460.12 1017.96 1459.81 1018.7 1460.37 1016.89 1460.18 1017.9 1460.31 1016.27 1460.38 1017.52 1460.07 1015.96 1460.5 1017.18 1459.75 1015.74 1460.42 1016.71 1459.17 1015.33 1459.77 1015.88 1458.14 1014.63 1458.65 1014.97 1456.59 1013.78 1457.09 1014.04 1451.91 1011.85 1452.38 1012.02 1445.88 1010.08 1446.14 1010.15 1438.7 1008.4 1438.89 1008.44 1430.7 1006.88 1430.81 1006.9 1422.13 1005.46 1422.18 1005.47 1413.18 1004.09 1404.18 1002.72 1395.34 1001.34 1386.93 999.948 1379.14 998.415 1372.15 996.715 1366.35 994.716 1363.77 993.613 1361.34 992.232 1359.27 990.544 1357.58 988.404 1356.12 984.509 1356.03 980.44 1357.09 976.547 1358.99 972.976 1361.56 969.534 1364.77 966.183 1368.5 962.916 1372.61 959.658 1377.26 956.296 1382.27 952.959 1393.14 946.193 1404.91 939.397 1417.05 932.513ZM1505.93 1257.96 1497.5 1308.5 1462.12 1271.43Z"/><path d="M1795.56 954.496 1783.43 961.308 1783.5 961.272 1771.81 968.085 1771.9 968.027 1761.15 974.652 1761.29 974.563 1756.42 977.813 1756.52 977.74 1752.02 980.928 1752.22 980.778 1748.29 983.903 1748.49 983.731 1744.99 986.856 1745.25 986.609 1742.37 989.609 1742.71 989.213 1740.52 992.088 1740.92 991.469 1739.42 994.282 1739.8 993.331 1739.05 996.081 1739.21 994.766 1739.27 997.391 1738.98 995.891 1739.92 998.391 1739.22 997.16 1740.16 998.347 1739.46 997.64 1740.84 998.765 1740.2 998.325 1742.07 999.387 1741.62 999.162 1743.81 1000.1 1743.49 999.979 1748.93 1001.85 1748.52 1001.73 1755.21 1003.36 1755.01 1003.32 1762.63 1004.82 1762.5 1004.79 1770.81 1006.17 1770.77 1006.16 1779.58 1007.53 1779.54 1007.53 1788.57 1008.84 1797.61 1010.29 1806.37 1011.74 1814.69 1013.33 1822.35 1015.06 1829.24 1017.12 1834.92 1019.51 1837.49 1020.99 1839.68 1022.68 1841.6 1024.79 1842.93 1027.33 1843.49 1030.16 1843.28 1032.95 1842.44 1035.55 1841.19 1038.06 1837.99 1042.54 1833.65 1047.15 1828.43 1051.85 1822.6 1056.66 1816.23 1061.49 1809.62 1066.28 1796.36 1075.79 1796.39 1075.76 1790.14 1080.33 1790.19 1080.29 1784.44 1084.6 1784.6 1084.48 1779.66 1088.54 1779.86 1088.37 1775.86 1092.06 1776.24 1091.65 1773.43 1094.97 1773.85 1094.38 1772.98 1095.82 1773.37 1095 1772.87 1096.38 1773.14 1094.93 1773.08 1097.31 1772.63 1095.19 1773.56 1097.13 1772.37 1095.6 1774.25 1097.17 1773.28 1096.55 1775.91 1097.8 1775.26 1097.55 1778.57 1098.55 1778.21 1098.45 1782.02 1099.27 1781.74 1099.22 1785.93 1099.84 1785.76 1099.82 1790.2 1100.32 1790.16 1100.32 1799.25 1101.26 1803.7 1101.76 1807.96 1102.35 1812.05 1103.19 1815.66 1104.37 1818.99 1105.99 1821.78 1108.56 1823.33 1111.91 1823.56 1115.4 1822.8 1118.52 1821.58 1121.37 1818.43 1126.43 1814.78 1131.49 1814.83 1131.42 1811.33 1136.48 1811.49 1136.23 1809.99 1138.73 1810.26 1138.22 1809.13 1140.78 1809.35 1140.18 1808.66 1142.62 1808.82 1141.73 1808.63 1144.16 1808.57 1142.96 1809 1145.27 1808.6 1144.08 1809.72 1146.33 1808.96 1145.23 1810.96 1147.36 1810.39 1146.84 1813.2 1148.97 1812.68 1148.63 1816.24 1150.63 1816.02 1150.51 1820.09 1152.51 1819.85 1152.41 1824.42 1154.34 1824.3 1154.3 1829.24 1156.23 1829.18 1156.21 1839.44 1160.09 1849.68 1164.01 1854.54 1166.15 1859.07 1168.32 1863.09 1170.63 1866.71 1173.16 1869.73 1176.18 1871.81 1179.78 1872.53 1183.87 1871.85 1187.74 1870.27 1191.23 1868.17 1194.38 1865.57 1197.48 1862.6 1200.44 1856.32 1206.15 1849.81 1211.98 1849.99 1211.8 1844.05 1217.74 1844.37 1217.39 1841.93 1220.39 1842.25 1219.95 1840.31 1223.01 1840.62 1222.44 1839.24 1225.5 1839.55 1224.54 1838.93 1227.6 1839.02 1226.69 1839.02 1229.81 1838.98 1229.2 1839.42 1232.45 1839.33 1231.99 1840.14 1235.36 1840.01 1234.92 1841.2 1238.29 1841.04 1237.9 1844.23 1244.84 1844.06 1244.5 1847.99 1251.5 1847.92 1251.37 1852.17 1258.37 1852.14 1258.32 1856.43 1265.2 1860.47 1272.15 1863.62 1280.46 1855.04 1283.71 1852.03 1275.75 1852.35 1276.43 1848.54 1269.86 1848.61 1269.99 1844.35 1263.15 1840.04 1256.06 1835.98 1248.83 1832.62 1241.53 1831.29 1237.74 1830.36 1233.91 1829.85 1230.12 1829.85 1226.22 1830.67 1222.21 1832.39 1218.39 1834.65 1214.82 1837.4 1211.43 1843.6 1205.23 1850.19 1199.33 1850.17 1199.36 1856.35 1193.73 1856.2 1193.88 1858.95 1191.13 1858.68 1191.43 1860.99 1188.68 1860.69 1189.08 1862.44 1186.46 1862.07 1187.11 1863.26 1184.49 1862.92 1185.58 1863.36 1183.08 1863.36 1184.67 1862.92 1182.17 1863.47 1183.67 1862.1 1181.3 1862.82 1182.24 1860.51 1179.93 1861.12 1180.44 1858 1178.25 1858.34 1178.47 1854.65 1176.35 1854.96 1176.51 1850.65 1174.45 1850.78 1174.51 1846.09 1172.45 1846.3 1172.53 1836.17 1168.66 1836.19 1168.66 1825.92 1164.78 1820.89 1162.81 1816.15 1160.79 1811.86 1158.68 1807.92 1156.47 1804.55 1153.92 1801.83 1151.03 1800.12 1147.6 1799.45 1144.07 1799.72 1140.57 1800.61 1137.39 1801.98 1134.27 1803.71 1131.39 1807.32 1126.17 1810.91 1121.19 1810.73 1121.46 1813.61 1116.83 1813.29 1117.44 1814.22 1115.26 1813.98 1115.98 1814.48 1113.92 1814.36 1115.3 1814.24 1113.36 1814.66 1114.99 1813.84 1113.24 1814.89 1114.68 1813.27 1113.18 1814.37 1113.93 1811.93 1112.75 1812.51 1112.98 1809.45 1111.98 1809.96 1112.12 1806.27 1111.37 1806.56 1111.41 1802.5 1110.85 1802.6 1110.87 1798.23 1110.37 1798.28 1110.37 1789.2 1109.43 1784.66 1108.92 1780.25 1108.26 1776.11 1107.38 1772.28 1106.22 1768.82 1104.58 1765.74 1102.01 1763.89 1098.18 1764 1093.95 1764.91 1091.44 1766.21 1089.31 1769.44 1085.51 1773.74 1081.54 1778.86 1077.33 1784.71 1072.94 1791 1068.35 1804.27 1058.84 1804.25 1058.85 1810.81 1054.1 1810.73 1054.16 1816.98 1049.41 1816.84 1049.53 1822.52 1044.84 1822.37 1044.97 1827.37 1040.47 1827.1 1040.73 1831.1 1036.48 1830.71 1036.96 1833.52 1033.02 1833.15 1033.64 1834.09 1031.76 1833.82 1032.41 1834.39 1030.66 1834.18 1031.71 1834.31 1030.09 1834.38 1031.34 1834.07 1029.77 1834.5 1030.99 1833.75 1029.56 1834.42 1030.52 1833.17 1029.15 1833.77 1029.7 1832.14 1028.45 1832.65 1028.78 1830.59 1027.6 1831.09 1027.85 1825.91 1025.66 1826.38 1025.83 1819.88 1023.89 1820.17 1023.97 1812.74 1022.28 1812.89 1022.31 1804.7 1020.75 1804.81 1020.77 1796.13 1019.33 1796.15 1019.34 1787.15 1017.9 1787.21 1017.91 1778.19 1016.59 1769.34 1015.21 1760.93 1013.82 1753.14 1012.29 1746.15 1010.59 1740.35 1008.59 1737.77 1007.49 1735.34 1006.11 1733.27 1004.42 1731.58 1002.28 1730.12 998.384 1730.03 994.315 1731.09 990.422 1733 986.83 1735.57 983.455 1738.75 980.137 1742.48 976.805 1746.62 973.52 1751.28 970.222 1756.28 966.891 1767.14 960.194 1778.91 953.334 1791.07 946.504ZM1879.87 1270.95 1871.5 1321.5 1836.08 1284.47Z"/><text font-family="Arial,Arial_MSFontService,sans-serif" font-weight="400" font-size="83" transform="matrix(1 0 0 1 1869.92 1462)">N</text><path d="M1897.5 1483.5 1897.5 1586.63" stroke="#000000" stroke-width="6.875" stroke-miterlimit="8" fill="none" fill-rule="evenodd"/><text font-family="Arial,Arial_MSFontService,sans-serif" font-weight="400" font-size="83" transform="matrix(1 0 0 1 1784.35 1475)">H</text><path d="M1812.5 1495.5 1812.5 1598.63" stroke="#000000" stroke-width="6.875" stroke-miterlimit="8" fill="none" fill-rule="evenodd"/><text font-family="Arial,Arial_MSFontService,sans-serif" font-weight="400" font-size="83" transform="matrix(1 0 0 1 1944.43 1426)">NH</text><path d="M1972.5 1446.5 1972.5 1549.62" stroke="#000000" stroke-width="6.875" stroke-miterlimit="8" fill="none" fill-rule="evenodd"/><text font-family="Arial,Arial_MSFontService,sans-serif" font-weight="400" font-size="83" transform="matrix(1 0 0 1 2132.57 1384)">NH<tspan font-size="55" x="119.167" y="20">3</tspan></text><path d="M2160.5 1404.5 2160.5 1507.63" stroke="#000000" stroke-width="6.875" stroke-miterlimit="8" fill="none" fill-rule="evenodd"/><path d="M2604.67 1361.8 2626.98 1345.49 2626.94 1345.52 2648.44 1329.45 2648.41 1329.48 2658.66 1321.67 2658.61 1321.7 2668.42 1314.02 2668.37 1314.06 2677.55 1306.63 2677.49 1306.68 2686.05 1299.49 2685.96 1299.57 2693.77 1292.64 2693.66 1292.73 2700.66 1286.11 2700.52 1286.25 2706.59 1280 2706.38 1280.22 2711.38 1274.34 2711.13 1274.67 2715 1269.17 2714.71 1269.64 2717.4 1264.64 2717.05 1265.49 2718.42 1260.93 2718.23 1262.32 2718.17 1258.32 2718.54 1260.06 2717.79 1258.31 2718.69 1259.67 2717.25 1258.17 2718.24 1258.95 2716.11 1257.7 2716.87 1258.06 2714.12 1257.06 2714.5 1257.18 2711.25 1256.3 2711.7 1256.4 2707.88 1255.77 2708.09 1255.8 2703.84 1255.3 2704.07 1255.32 2699.38 1255.01 2699.55 1255.02 2689.11 1254.71 2689.32 1254.71 2677.76 1254.9 2677.83 1254.89 2665.51 1255.27 2665.6 1255.27 2652.9 1255.89 2640.19 1256.45 2627.83 1256.96 2616.16 1257.21 2605.55 1257.15 2600.68 1256.89 2596.25 1256.49 2592.12 1255.95 2588.48 1255.11 2585.21 1254.07 2582.19 1252.56 2579.63 1250.22 2578.08 1247 2577.96 1243.55 2578.86 1240.43 2580.38 1237.64 2582.41 1234.94 2584.86 1232.28 2587.68 1229.6 2590.91 1226.83 2594.48 1224.03 2602.56 1218.12 2611.73 1211.99 2621.58 1205.58 2631.97 1198.95 2642.46 1192.21 2642.44 1192.22 2652.81 1185.47 2652.72 1185.53 2662.66 1178.72 2662.55 1178.8 2671.8 1172.05 2671.63 1172.17 2679.82 1165.61 2679.66 1165.75 2683.29 1162.56 2683.1 1162.73 2686.35 1159.54 2686.19 1159.71 2689 1156.65 2688.78 1156.91 2691.16 1153.91 2690.92 1154.23 2692.86 1151.29 2692.57 1151.8 2693.94 1148.99 2693.69 1149.61 2694.57 1146.86 2694.4 1147.63 2694.77 1144.88 2694.73 1145.6 2694.67 1142.85 2694.74 1143.57 2694.24 1140.82 2694.43 1141.54 2692.5 1136.1 2692.89 1136.93 2689.64 1131.56 2689.96 1132.02 2685.78 1126.71 2686.02 1126.99 2681.14 1121.74 2681.3 1121.9 2675.92 1116.65 2676 1116.73 2670.44 1111.54 2664.89 1106.37 2659.58 1101.13 2654.73 1095.88 2650.65 1090.44 2647.55 1084.89 2646.45 1081.72 2645.82 1078.64 2645.65 1075.38 2646.15 1072.21 2647.13 1069.01 2648.84 1065.93 2651.02 1063.06 2653.67 1060.35 2656.71 1057.72 2660.15 1055.22 2663.9 1052.79 2668.03 1050.36 2677.11 1045.63 2687.22 1040.99 2698.09 1036.44 2709.47 1031.98 2721.14 1027.52 2732.92 1023.2 2732.89 1023.21 2744.39 1018.9 2744.34 1018.92 2755.4 1014.6 2755.35 1014.62 2765.72 1010.44 2765.58 1010.5 2775.02 1006.31 2774.83 1006.4 2783.08 1002.28 2782.88 1002.38 2786.44 1000.38 2786.2 1000.53 2789.39 998.465 2789.18 998.606 2791.93 996.606 2791.63 996.846 2793.94 994.846 2793.59 995.178 2795.47 993.178 2795.15 993.563 2796.65 991.563 2796.25 992.186 2798.31 988.248 2797.89 989.449 2798.7 985.511 2798.61 986.583 2798.48 982.646 2798.65 983.731 2797.58 979.918 2797.77 980.46 2796.15 976.585 2796.42 977.122 2794.23 973.372 2794.39 973.635 2791.89 969.947 2792 970.099 2786.65 962.86 2784.09 959.179 2781.83 955.412 2779.99 951.524 2778.84 947.249 2778.93 942.731 2780.41 938.555 2782.78 934.778 2785.59 931.031 2788.88 927.09 2792.65 923.05 2796.81 918.962 2801.78 914.562 2809.08 911.177 2812.93 919.493 2806.24 922.596 2807.35 921.869 2802.98 925.744 2803.15 925.579 2799.15 929.516 2799.28 929.381 2795.66 933.256 2795.83 933.059 2792.71 936.809 2792.85 936.625 2790.23 940.125 2790.44 939.811 2788.44 942.999 2788.88 942.093 2787.82 945.093 2788.08 943.654 2788.02 946.779 2787.86 945.496 2788.74 948.746 2788.46 947.982 2790.02 951.295 2789.81 950.892 2791.87 954.33 2791.7 954.068 2794.14 957.568 2794.06 957.463 2799.43 964.726 2802.07 968.619 2804.49 972.763 2806.34 977.18 2807.63 981.802 2807.79 986.833 2806.73 991.932 2804.2 996.767 2802.33 999.264 2800.12 1001.62 2797.48 1003.91 2794.47 1006.09 2791.06 1008.3 2787.27 1010.43 2778.83 1014.65 2769.23 1018.91 2758.75 1023.14 2747.64 1027.47 2736.09 1031.8 2724.33 1036.12 2724.38 1036.09 2712.76 1040.53 2712.8 1040.52 2701.49 1044.95 2701.58 1044.92 2690.83 1049.42 2690.97 1049.35 2681.04 1053.92 2681.24 1053.81 2672.37 1058.44 2672.57 1058.33 2668.63 1060.64 2668.81 1060.53 2665.25 1062.84 2665.44 1062.71 2662.25 1065.02 2662.56 1064.78 2659.81 1067.16 2660.1 1066.89 2657.78 1069.26 2658.14 1068.84 2656.33 1071.22 2656.7 1070.65 2655.39 1073.03 2655.76 1072.16 2655.01 1074.6 2655.15 1073.96 2654.78 1076.34 2654.83 1075.39 2654.95 1077.83 2654.86 1077.14 2655.36 1079.58 2655.2 1078.99 2656.08 1081.49 2655.75 1080.77 2658.5 1085.71 2658.17 1085.19 2661.92 1090.19 2661.61 1089.83 2666.24 1094.83 2666.1 1094.68 2671.28 1099.8 2671.19 1099.71 2676.69 1104.84 2682.29 1110.06 2687.78 1115.42 2692.86 1120.89 2697.34 1126.57 2700.97 1132.59 2703.19 1138.81 2703.82 1142.29 2703.9 1145.76 2703.43 1149.26 2702.33 1152.71 2700.68 1156.09 2698.47 1159.44 2695.86 1162.73 2692.86 1166 2689.43 1169.36 2685.64 1172.7 2677.29 1179.39 2667.9 1186.24 2657.86 1193.12 2647.43 1199.91 2636.9 1206.68 2626.53 1213.3 2626.56 1213.28 2616.75 1219.66 2616.8 1219.62 2607.74 1225.68 2607.9 1225.57 2599.96 1231.39 2600.07 1231.3 2596.64 1233.99 2596.8 1233.85 2593.73 1236.48 2593.91 1236.32 2591.29 1238.82 2591.5 1238.61 2589.31 1240.98 2589.6 1240.63 2587.92 1242.88 2588.27 1242.32 2587.15 1244.38 2587.53 1243.47 2586.96 1245.4 2587.14 1243.96 2587.21 1245.71 2586.76 1243.89 2587.51 1245.45 2586.47 1244.05 2587.9 1245.37 2586.86 1244.65 2588.99 1245.71 2588.33 1245.45 2591.08 1246.32 2590.72 1246.22 2593.97 1246.97 2593.53 1246.89 2597.35 1247.39 2597.15 1247.37 2601.4 1247.75 2601.24 1247.74 2605.93 1247.99 2605.71 1247.98 2616.15 1248.04 2616.03 1248.04 2627.59 1247.79 2627.5 1247.8 2639.81 1247.3 2639.8 1247.3 2652.48 1246.73 2652.46 1246.73 2665.19 1246.11 2677.58 1245.73 2689.28 1245.54 2699.91 1245.86 2704.8 1246.18 2709.26 1246.71 2713.41 1247.39 2717.07 1248.38 2720.4 1249.59 2723.43 1251.37 2725.89 1253.93 2727.32 1257.28 2727.41 1262.89 2725.69 1268.58 2722.66 1274.23 2718.5 1280.12 2713.27 1286.27 2707.03 1292.7 2699.91 1299.44 2692 1306.47 2683.35 1313.72 2674.11 1321.21 2664.24 1328.94 2653.95 1336.78 2632.41 1352.87 2610.08 1369.2ZM2800 894.715 2850.5 903.438 2813.22 938.6Z"/><path d="M1832 1572.5C1832 1558.97 1840.95 1548 1852 1548 1863.05 1548 1872 1558.97 1872 1572.5 1872 1586.03 1863.05 1597 1852 1597 1840.95 1597 1832 1586.03 1832 1572.5Z" fill="#7F7F7F" fill-rule="evenodd"/><path d="M1874 1574.5C1874 1560.97 1883.18 1550 1894.5 1550 1905.82 1550 1915 1560.97 1915 1574.5 1915 1588.03 1905.82 1599 1894.5 1599 1883.18 1599 1874 1588.03 1874 1574.5Z" fill="#7F7F7F" fill-rule="evenodd"/><path d="M1913 1572.5C1913 1558.97 1921.95 1548 1933 1548 1944.05 1548 1953 1558.97 1953 1572.5 1953 1586.03 1944.05 1597 1933 1597 1921.95 1597 1913 1586.03 1913 1572.5Z" fill="#7F7F7F" fill-rule="evenodd"/><path d="M1956 1574C1956 1560.75 1964.95 1550 1976 1550 1987.05 1550 1996 1560.75 1996 1574 1996 1587.25 1987.05 1598 1976 1598 1964.95 1598 1956 1587.25 1956 1574Z" fill="#7F7F7F" fill-rule="evenodd"/><path d="M1993 1570.5C1993 1556.97 2002.18 1546 2013.5 1546 2024.82 1546 2034 1556.97 2034 1570.5 2034 1584.03 2024.82 1595 2013.5 1595 2002.18 1595 1993 1584.03 1993 1570.5Z" fill="#7F7F7F" fill-rule="evenodd"/><path d="M2036 1571.5C2036 1557.97 2044.95 1547 2056 1547 2067.05 1547 2076 1557.97 2076 1571.5 2076 1585.03 2067.05 1596 2056 1596 2044.95 1596 2036 1585.03 2036 1571.5Z" fill="#7F7F7F" fill-rule="evenodd"/><path d="M2074 1569.5C2074 1555.97 2083.18 1545 2094.5 1545 2105.82 1545 2115 1555.97 2115 1569.5 2115 1583.03 2105.82 1594 2094.5 1594 2083.18 1594 2074 1583.03 2074 1569.5Z" fill="#7F7F7F" fill-rule="evenodd"/><path d="M2117 1571.5C2117 1557.97 2125.95 1547 2137 1547 2148.05 1547 2157 1557.97 2157 1571.5 2157 1585.03 2148.05 1596 2137 1596 2125.95 1596 2117 1585.03 2117 1571.5Z" fill="#7F7F7F" fill-rule="evenodd"/><path d="M1857 1533.5C1857 1519.97 1866.18 1509 1877.5 1509 1888.82 1509 1898 1519.97 1898 1533.5 1898 1547.03 1888.82 1558 1877.5 1558 1866.18 1558 1857 1547.03 1857 1533.5Z" fill="#7F7F7F" fill-rule="evenodd"/><path d="M1900 1534.5C1900 1520.97 1908.95 1510 1920 1510 1931.05 1510 1940 1520.97 1940 1534.5 1940 1548.03 1931.05 1559 1920 1559 1908.95 1559 1900 1548.03 1900 1534.5Z" fill="#7F7F7F" fill-rule="evenodd"/><path d="M1938 1532.5C1938 1518.97 1947.18 1508 1958.5 1508 1969.82 1508 1979 1518.97 1979 1532.5 1979 1546.03 1969.82 1557 1958.5 1557 1947.18 1557 1938 1546.03 1938 1532.5Z" fill="#7F7F7F" fill-rule="evenodd"/><path d="M1981 1534.5C1981 1520.97 1989.95 1510 2001 1510 2012.05 1510 2021 1520.97 2021 1534.5 2021 1548.03 2012.05 1559 2001 1559 1989.95 1559 1981 1548.03 1981 1534.5Z" fill="#7F7F7F" fill-rule="evenodd"/><path d="M2019 1530.5C2019 1516.97 2027.95 1506 2039 1506 2050.05 1506 2059 1516.97 2059 1530.5 2059 1544.03 2050.05 1555 2039 1555 2027.95 1555 2019 1544.03 2019 1530.5Z" fill="#7F7F7F" fill-rule="evenodd"/><path d="M2061 1531.5C2061 1517.97 2070.18 1507 2081.5 1507 2092.82 1507 2102 1517.97 2102 1531.5 2102 1545.03 2092.82 1556 2081.5 1556 2070.18 1556 2061 1545.03 2061 1531.5Z" fill="#7F7F7F" fill-rule="evenodd"/><path d="M2100 1530.5C2100 1516.97 2108.95 1506 2120 1506 2131.05 1506 2140 1516.97 2140 1530.5 2140 1544.03 2131.05 1555 2120 1555 2108.95 1555 2100 1544.03 2100 1530.5Z" fill="#7F7F7F" fill-rule="evenodd"/><path d="M2142 1531.5C2142 1517.97 2151.18 1507 2162.5 1507 2173.82 1507 2183 1517.97 2183 1531.5 2183 1545.03 2173.82 1556 2162.5 1556 2151.18 1556 2142 1545.03 2142 1531.5Z" fill="#7F7F7F" fill-rule="evenodd"/><path d="M1782 1621C1782 1607.75 1790.95 1597 1802 1597 1813.05 1597 1822 1607.75 1822 1621 1822 1634.25 1813.05 1645 1802 1645 1790.95 1645 1782 1634.25 1782 1621Z" fill="#7F7F7F" fill-rule="evenodd"/><path d="M1825 1622.5C1825 1608.97 1833.95 1598 1845 1598 1856.05 1598 1865 1608.97 1865 1622.5 1865 1636.03 1856.05 1647 1845 1647 1833.95 1647 1825 1636.03 1825 1622.5Z" fill="#7F7F7F" fill-rule="evenodd"/><path d="M1863 1620.5C1863 1606.97 1871.95 1596 1883 1596 1894.05 1596 1903 1606.97 1903 1620.5 1903 1634.03 1894.05 1645 1883 1645 1871.95 1645 1863 1634.03 1863 1620.5Z" fill="#7F7F7F" fill-rule="evenodd"/><path d="M1906 1622.5C1906 1608.97 1914.95 1598 1926 1598 1937.05 1598 1946 1608.97 1946 1622.5 1946 1636.03 1937.05 1647 1926 1647 1914.95 1647 1906 1636.03 1906 1622.5Z" fill="#7F7F7F" fill-rule="evenodd"/><path d="M1943 1618.5C1943 1604.97 1952.18 1594 1963.5 1594 1974.82 1594 1984 1604.97 1984 1618.5 1984 1632.03 1974.82 1643 1963.5 1643 1952.18 1643 1943 1632.03 1943 1618.5Z" fill="#7F7F7F" fill-rule="evenodd"/><path d="M1986 1619.5C1986 1605.97 1994.95 1595 2006 1595 2017.05 1595 2026 1605.97 2026 1619.5 2026 1633.03 2017.05 1644 2006 1644 1994.95 1644 1986 1633.03 1986 1619.5Z" fill="#7F7F7F" fill-rule="evenodd"/><path d="M2024 1618C2024 1604.75 2033.18 1594 2044.5 1594 2055.82 1594 2065 1604.75 2065 1618 2065 1631.25 2055.82 1642 2044.5 1642 2033.18 1642 2024 1631.25 2024 1618Z" fill="#7F7F7F" fill-rule="evenodd"/><path d="M2067 1619.5C2067 1605.97 2076.18 1595 2087.5 1595 2098.82 1595 2108 1605.97 2108 1619.5 2108 1633.03 2098.82 1644 2087.5 1644 2076.18 1644 2067 1633.03 2067 1619.5Z" fill="#7F7F7F" fill-rule="evenodd"/><text font-family="Arial,Arial_MSFontService,sans-serif" font-weight="400" font-size="83" transform="matrix(1 0 0 1 2027.11 1489)">NH<tspan font-size="55" x="119.167" y="20">2</tspan></text><path d="M2054.5 1509.5 2054.5 1612.62" stroke="#000000" stroke-width="6.875" stroke-miterlimit="8" fill="none" fill-rule="evenodd"/><text font-family="Arial,Arial_MSFontService,sans-serif" font-weight="400" font-size="83" transform="matrix(1 0 0 1 1281.2 1678)">SiO<tspan font-size="55" x="137.5" y="20">2</tspan></text></g></svg>