<svg width="2020" height="1572" xmlns="http://www.w3.org/2000/svg" xmlns:xlink="http://www.w3.org/1999/xlink" overflow="hidden"><defs><clipPath id="clip0"><rect x="55" y="13" width="2020" height="1572"/></clipPath><clipPath id="clip1"><rect x="55" y="13" width="2013" height="1090"/></clipPath><clipPath id="clip2"><rect x="55" y="13" width="2013" height="1090"/></clipPath><clipPath id="clip3"><rect x="-1100" y="13" width="4291" height="1446"/></clipPath></defs><g clip-path="url(#clip0)" transform="translate(-55 -13)"><g clip-path="url(#clip1)"><g clip-path="url(#clip2)"><g clip-path="url(#clip3)"><path d="M1978.16 2285.43C1745.88 2188.94 1418.92 2360.58 1421.2 2463.89 1422.45 2522.49 1529.22 2540.61 1524.74 2598.74 1518.86 2675.3 1331.77 2666.28 1265.87 2789.44 1221.24 2872.91 1240.62 3001.79 1308.08 3071.38 1400.8 3166.77 1510 3073.81 1738.51 3161.2 1876.97 3214.23 1905.68 3274.63 1991.81 3260.67 2095.44 3243.8 2092.69 3149.98 2208.4 3099.93 2271.15 3072.95 2314.22 3081.81 2627.85 3136.72 2829.14 3171.94 2930.49 3188.81 2962.89 3150.37 3006.11 3099.07 2930.49 3036.55 2961.55 2921.55 2995.83 2794.39 3108.79 2794.15 3156.33 2646.36 3164.57 2620.79 3197.44 2518.57 3148.49 2461.15 3126.76 2435.81 3092.87 2423.73 2950.96 2424.36 2709.98 2425.46 2678.91 2460.91 2605.02 2425.77 2513.79 2382.39 2525.79 2311.63 2427.97 2284.1 2365.92 2266.6 2280.02 2272.25 2245.42 2319.55 2217.03 2357.99 2091.12 2332.34 1978.16 2285.43Z" stroke="#231F20" stroke-width="31.3782" stroke-miterlimit="10" fill="none" transform="matrix(1 0 0 1.00004 -1139.72 -2228.43)"/><path d="M0 518.525 1058.15 518.525" stroke="#231F20" stroke-width="15.6891" stroke-miterlimit="10" fill="none" transform="matrix(1 0 0 1.00004 -1097.36 13.0145)"/><path d="M1195.2 2759.87C1150.64 2776.42 1095.33 2804.58 1061.05 2834.47L1088.04 2759.87 1061.05 2685.27C1095.33 2715.16 1150.64 2743.32 1195.2 2759.87Z" fill="#231F20" transform="matrix(1 0 0 1.00004 -1139.72 -2228.43)"/><path d="M3132.33 518.525 4190.48 518.525" stroke="#231F20" stroke-width="15.6891" stroke-miterlimit="10" fill="none" transform="matrix(1 0 0 1.00004 -1097.36 13.0145)"/><path d="M4327.52 2759.87C4282.97 2776.42 4227.66 2804.58 4193.38 2834.47L4220.37 2759.87 4193.38 2685.27C4227.66 2715.16 4283.12 2743.32 4327.52 2759.87Z" fill="#231F20" transform="matrix(1 0 0 1.00004 -1139.72 -2228.43)"/></g></g></g><rect x="2018" y="492" width="56.9996" height="59.0002" fill="#FFFFFF"/><rect x="429" y="619.25" width="111.75" height="118.75" fill="#FFFFFF"/><path d="M540.75 619.25 578 582 578 700.75 540.75 738Z" fill="#CDCDCD" fill-rule="evenodd"/><path d="M429 619.25 466.25 582 578 582 540.75 619.25Z" fill="#FFFFFF" fill-rule="evenodd"/><path d="M429 619.25 466.25 582 578 582 578 700.75 540.75 738 429 738ZM429 619.25 540.75 619.25 578 582M540.75 619.25 540.75 738" stroke="#000000" stroke-width="8.02083" stroke-miterlimit="8" fill="none" fill-rule="evenodd"/><rect x="847" y="245.25" width="111.75" height="118.75" fill="#FFFFFF"/><path d="M958.75 245.25 996 208 996 326.75 958.75 364Z" fill="#CDCDCD" fill-rule="evenodd"/><path d="M847 245.25 884.25 208 996 208 958.75 245.25Z" fill="#FFFFFF" fill-rule="evenodd"/><path d="M847 245.25 884.25 208 996 208 996 326.75 958.75 364 847 364ZM847 245.25 958.75 245.25 996 208M958.75 245.25 958.75 364" stroke="#000000" stroke-width="8.02083" stroke-miterlimit="8" fill="none" fill-rule="evenodd"/><rect x="1475" y="604.25" width="111.75" height="119.75" fill="#FFFFFF"/><path d="M1586.75 604.25 1624 567 1624 686.75 1586.75 724Z" fill="#CDCDCD" fill-rule="evenodd"/><path d="M1475 604.25 1512.25 567 1624 567 1586.75 604.25Z" fill="#FFFFFF" fill-rule="evenodd"/><path d="M1475 604.25 1512.25 567 1624 567 1624 686.75 1586.75 724 1475 724ZM1475 604.25 1586.75 604.25 1624 567M1586.75 604.25 1586.75 724" stroke="#000000" stroke-width="8.02083" stroke-miterlimit="8" fill="none" fill-rule="evenodd"/><text font-family="Arial,Arial_MSFontService,sans-serif" font-weight="400" font-size="110" transform="matrix(1 0 0 1 298.744 769)">V<tspan font-size="73" x="73.3334" y="27">1</tspan><tspan font-size="110" x="398.845" y="-521">V</tspan><tspan font-size="73" x="472.178" y="-494">2</tspan><tspan font-size="110" x="1036.12" y="-167">V</tspan><tspan font-size="73" x="1109.45" y="-140">3</tspan></text><path d="M601.519 1331.68 627.394 1331.68 626.706 1334.74C624.873 1334.95 623.446 1335.49 622.425 1336.37 621.404 1337.24 620.685 1338.46 620.269 1340.02 619.852 1341.58 619.644 1343.68 619.644 1346.3 619.644 1346.93 619.706 1348.8 619.831 1351.93L621.581 1397.68 621.581 1402.68 622.206 1402.68 649.269 1353.87C650.852 1350.99 652.04 1348.52 652.831 1346.46 653.623 1344.4 654.019 1342.57 654.019 1340.99 654.019 1337.49 651.935 1335.41 647.769 1334.74L648.456 1331.68 674.019 1331.68 673.331 1334.74C672.206 1334.91 671.133 1335.33 670.112 1336.02 669.092 1336.71 667.946 1337.85 666.675 1339.46 665.404 1341.06 663.435 1344.16 660.769 1348.74L620.769 1417.99 612.456 1417.99 608.269 1348.3C608.102 1345.59 607.8 1343.27 607.362 1341.33 606.925 1339.4 606.237 1337.89 605.3 1336.8 604.362 1335.72 602.873 1335.03 600.831 1334.74Z" fill-rule="evenodd"/><text fill="#000000" fill-opacity="0" font-family="Arial,Arial_MSFontService,sans-serif" font-size="86.3125" x="600.831" y="1407.2">𝑉</text><path d="M724.152 1389.24 801.152 1389.24 801.152 1397.55 724.152 1397.55ZM724.152 1363.3 801.152 1363.3 801.152 1371.62 724.152 1371.62Z" fill-rule="evenodd"/><text fill="#000000" fill-opacity="0" font-family="Arial,Arial_MSFontService,sans-serif" font-size="34.25" x="724.152" y="1393.27">=</text><path d="M856.321 1258.24 1007.26 1258.24 1007.26 1295.24 999.008 1295.24C998.05 1286.37 996.112 1279.34 993.196 1274.18 990.279 1269.01 985.862 1266.43 979.946 1266.43L881.321 1266.43 955.883 1367.68 955.883 1375.24 875.383 1484.49 983.821 1484.49C988.612 1484.49 992.279 1482.8 994.821 1479.43 997.362 1476.05 999.55 1468.51 1001.38 1456.8L1010.63 1456.8 1007.45 1502.62 853.758 1502.62 853.758 1496.43 941.321 1377.74 856.321 1264.18Z" fill-rule="evenodd"/><text fill="#000000" fill-opacity="0" font-family="Arial,Arial_MSFontService,sans-serif" font-size="244.375" x="853.758" y="1472.07">෍</text><path d="M1056.25 1331.68 1082.13 1331.68 1081.44 1334.74C1079.61 1334.95 1078.18 1335.49 1077.16 1336.37 1076.14 1337.24 1075.42 1338.46 1075 1340.02 1074.59 1341.58 1074.38 1343.68 1074.38 1346.3 1074.38 1346.93 1074.44 1348.8 1074.57 1351.93L1076.32 1397.68 1076.32 1402.68 1076.94 1402.68 1104 1353.87C1105.59 1350.99 1106.78 1348.52 1107.57 1346.46 1108.36 1344.4 1108.75 1342.57 1108.75 1340.99 1108.75 1337.49 1106.67 1335.41 1102.5 1334.74L1103.19 1331.68 1128.75 1331.68 1128.07 1334.74C1126.94 1334.91 1125.87 1335.33 1124.85 1336.02 1123.83 1336.71 1122.68 1337.85 1121.41 1339.46 1120.14 1341.06 1118.17 1344.16 1115.5 1348.74L1075.5 1417.99 1067.19 1417.99 1063 1348.3C1062.84 1345.59 1062.54 1343.27 1062.1 1341.33 1061.66 1339.4 1060.97 1337.89 1060.04 1336.8 1059.1 1335.72 1057.61 1335.03 1055.57 1334.74Z" fill-rule="evenodd"/><text fill="#000000" fill-opacity="0" font-family="Arial,Arial_MSFontService,sans-serif" font-size="86.3125" x="1055.57" y="1407.2">𝑉</text><path d="M1151.72 1387.95 1154.15 1387.95 1145.92 1424.61 1147.26 1424.61C1149.36 1424.61 1151.72 1423.69 1154.34 1421.86 1156.96 1420.02 1159.05 1418.32 1160.62 1416.75 1162.19 1415.19 1162.97 1413.67 1162.97 1412.22 1162.97 1410.85 1162.02 1410.08 1160.11 1409.91L1160.58 1407.85 1174.18 1407.85 1174.98 1409.91C1172.66 1412.01 1170.19 1414.07 1167.59 1416.08L1157.17 1424.15 1161.29 1439.3C1161.63 1440.59 1161.93 1441.52 1162.19 1442.1 1162.46 1442.67 1162.77 1443.1 1163.12 1443.38 1163.47 1443.66 1163.94 1443.8 1164.52 1443.8 1165.25 1443.8 1166.12 1443.41 1167.13 1442.62 1168.13 1441.84 1169.28 1440.7 1170.57 1439.22L1172.96 1441.57C1170.44 1444.23 1168.36 1446.08 1166.71 1447.11 1165.05 1448.15 1163.46 1448.67 1161.92 1448.67 1160.02 1448.67 1158.5 1448.13 1157.38 1447.05 1156.26 1445.97 1155.38 1444.18 1154.74 1441.66L1151.97 1430.74C1151.69 1429.65 1151.41 1428.89 1151.13 1428.47 1150.85 1428.05 1150.53 1427.77 1150.16 1427.63 1149.8 1427.49 1149.15 1427.42 1148.23 1427.42L1145.33 1427.42 1140.97 1448 1133.7 1448 1144.49 1400C1144.86 1398.38 1145.12 1397.11 1145.27 1396.2 1145.42 1395.29 1145.5 1394.48 1145.5 1393.78 1145.5 1392.61 1145.14 1391.78 1144.43 1391.31 1143.72 1390.83 1142.44 1390.57 1140.59 1390.51L1141.09 1388.33Z" fill-rule="evenodd"/><text fill="#000000" fill-opacity="0" font-family="Arial,Arial_MSFontService,sans-serif" font-size="60.7207" x="1133.7" y="1441.08">𝑘</text><path d="M909.088 1180.12C911.328 1180.12 913.061 1180.85 914.287 1182.32 915.513 1183.79 916.126 1185.72 916.126 1188.11 916.126 1188.78 916.081 1189.43 915.99 1190.07 915.899 1190.7 915.733 1191.32 915.49 1191.93L916.035 1192.15C918.911 1188.13 921.787 1185.12 924.663 1183.12 927.539 1181.12 930.491 1180.12 933.518 1180.12 936.727 1180.12 939.126 1180.95 940.716 1182.6 942.305 1184.24 943.1 1186.67 943.1 1189.88 943.1 1190.16 943.1 1190.42 943.1 1190.68 943.1 1190.94 943.07 1191.2 943.009 1191.47L943.191 1191.47C946.006 1187.63 948.806 1184.77 951.591 1182.91 954.377 1181.05 957.283 1180.12 960.31 1180.12 963.519 1180.12 965.918 1180.98 967.508 1182.71 969.097 1184.43 969.892 1186.86 969.892 1189.97 969.892 1190.91 969.74 1192.18 969.438 1193.77 969.135 1195.36 968.764 1197.1 968.325 1199.01 967.886 1200.92 967.409 1202.89 966.895 1204.94 966.38 1206.98 965.896 1208.91 965.442 1210.73 965.169 1211.91 964.95 1212.87 964.783 1213.61 964.617 1214.35 964.488 1214.97 964.397 1215.47 964.306 1215.97 964.246 1216.4 964.216 1216.77 964.185 1217.13 964.17 1217.52 964.17 1217.95 964.17 1219.1 964.382 1219.93 964.806 1220.44 965.23 1220.96 965.911 1221.22 966.849 1221.22 967.394 1221.22 967.939 1221.11 968.484 1220.9 969.029 1220.69 969.612 1220.35 970.232 1219.9 970.853 1219.45 971.534 1218.86 972.276 1218.15 973.018 1217.44 973.842 1216.58 974.751 1215.59L977.884 1218.58C976.431 1220.1 975.076 1221.4 973.82 1222.49 972.563 1223.58 971.352 1224.48 970.187 1225.19 969.021 1225.9 967.863 1226.43 966.713 1226.78 965.563 1227.13 964.352 1227.3 963.08 1227.3 961.93 1227.3 960.885 1227.09 959.947 1226.67 959.008 1226.24 958.214 1225.66 957.563 1224.92 956.912 1224.18 956.405 1223.3 956.042 1222.28 955.678 1221.27 955.497 1220.16 955.497 1218.95 955.497 1216.46 956.027 1213.27 957.086 1209.36 957.661 1207.4 958.184 1205.51 958.653 1203.71 959.122 1201.91 959.523 1200.24 959.856 1198.72 960.189 1197.19 960.454 1195.82 960.651 1194.63 960.848 1193.43 960.946 1192.44 960.946 1191.65 960.946 1189.78 960.59 1188.4 959.879 1187.52 959.167 1186.64 958.055 1186.21 956.541 1186.21 955.603 1186.21 954.604 1186.45 953.544 1186.93 952.485 1187.42 951.417 1188.09 950.343 1188.95 949.268 1189.82 948.216 1190.84 947.187 1192.02 946.157 1193.2 945.204 1194.48 944.326 1195.85 943.448 1197.23 942.668 1198.68 941.987 1200.19 941.306 1201.71 940.784 1203.23 940.421 1204.78L935.925 1226.48 927.07 1226.48C927.494 1224.55 927.971 1222.47 928.5 1220.24 929.03 1218.02 929.568 1215.77 930.112 1213.5 930.657 1211.23 931.18 1208.99 931.679 1206.78 932.179 1204.57 932.625 1202.5 933.019 1200.58 933.412 1198.66 933.73 1196.93 933.972 1195.4 934.215 1193.87 934.336 1192.65 934.336 1191.75 934.336 1189.84 933.965 1188.44 933.223 1187.54 932.481 1186.65 931.293 1186.21 929.658 1186.21 928.205 1186.21 926.646 1186.75 924.981 1187.84 923.316 1188.93 921.734 1190.36 920.236 1192.13 918.737 1193.9 917.398 1195.9 916.217 1198.13 915.036 1200.35 914.204 1202.6 913.719 1204.87L909.088 1226.48 900.187 1226.48 906.999 1196.88C907.392 1195.24 907.68 1193.82 907.862 1192.61 908.043 1191.4 908.134 1190.4 908.134 1189.61 908.134 1187.4 907.241 1186.3 905.455 1186.3 904.91 1186.3 904.357 1186.41 903.797 1186.64 903.237 1186.86 902.647 1187.2 902.026 1187.66 901.406 1188.11 900.732 1188.69 900.006 1189.38 899.279 1190.08 898.462 1190.9 897.553 1191.84L894.42 1188.88C895.904 1187.37 897.273 1186.06 898.53 1184.96 899.786 1183.85 900.997 1182.94 902.163 1182.23 903.328 1181.52 904.471 1180.99 905.591 1180.64 906.711 1180.29 907.877 1180.12 909.088 1180.12Z" fill-rule="evenodd"/><text fill="#000000" fill-opacity="0" font-family="Arial,Arial_MSFontService,sans-serif" font-size="47.1812" x="894.42" y="1221.4">𝑚</text><path d="M870.696 1518.56 873.966 1518.56 865.974 1553.89 867.245 1553.89C868.396 1553.89 869.637 1553.65 870.969 1553.16 872.301 1552.68 873.625 1552.05 874.942 1551.28 876.259 1550.51 877.523 1549.64 878.734 1548.67 879.945 1547.7 881.012 1546.72 881.935 1545.74 882.859 1544.76 883.593 1543.82 884.138 1542.95 884.683 1542.07 884.955 1541.33 884.955 1540.72 884.955 1540 884.713 1539.4 884.229 1538.95 883.744 1538.5 882.866 1538.19 881.595 1538.04L882.14 1535.14 898.487 1535.14 899.623 1537.95C897.716 1539.59 895.884 1541.1 894.128 1542.49 892.372 1543.89 890.654 1545.22 888.974 1546.51 887.294 1547.8 885.614 1549.06 883.934 1550.3 882.253 1551.54 880.535 1552.83 878.779 1554.16 879.506 1556.46 880.248 1558.8 881.005 1561.18 881.761 1563.56 882.518 1565.91 883.275 1568.24 883.638 1569.48 883.979 1570.55 884.297 1571.44 884.615 1572.33 884.955 1573.06 885.319 1573.62 885.682 1574.18 886.075 1574.6 886.499 1574.87 886.923 1575.14 887.438 1575.28 888.043 1575.28 888.467 1575.28 888.906 1575.2 889.36 1575.05 889.814 1574.9 890.321 1574.63 890.881 1574.23 891.441 1573.84 892.077 1573.3 892.789 1572.62 893.5 1571.94 894.31 1571.09 895.218 1570.06L898.306 1573.01C896.883 1574.46 895.559 1575.72 894.332 1576.78 893.106 1577.84 891.941 1578.71 890.836 1579.39 889.731 1580.07 888.664 1580.57 887.634 1580.89 886.605 1581.2 885.561 1581.36 884.501 1581.36 882.594 1581.36 881.058 1580.89 879.892 1579.93 878.727 1578.98 877.735 1577.62 876.918 1575.85 876.1 1574.08 875.351 1571.93 874.67 1569.42 873.989 1566.91 873.194 1564.11 872.286 1561.02 872.074 1560.29 871.87 1559.71 871.673 1559.27 871.476 1558.83 871.226 1558.5 870.924 1558.27 870.621 1558.05 870.242 1557.9 869.788 1557.84 869.334 1557.78 868.759 1557.75 868.063 1557.75L865.156 1557.75 860.161 1580.55 851.443 1580.55 862.432 1531.78C862.795 1530.17 863.052 1528.91 863.204 1527.98 863.355 1527.06 863.431 1526.24 863.431 1525.51 863.431 1524.93 863.332 1524.43 863.136 1524.01 862.939 1523.59 862.613 1523.25 862.159 1522.99 861.705 1522.73 861.1 1522.54 860.343 1522.42 859.586 1522.3 858.648 1522.22 857.528 1522.19L858.209 1519.11Z" fill-rule="evenodd"/><text fill="#000000" fill-opacity="0" font-family="Arial,Arial_MSFontService,sans-serif" font-size="62.8022" x="851.443" y="1573.51">𝑘</text><path d="M913.318 1560.38 965.63 1560.38 965.63 1567.33 913.318 1567.33ZM913.318 1540.63 965.63 1540.63 965.63 1547.58 913.318 1547.58Z" fill-rule="evenodd"/><text fill="#000000" fill-opacity="0" font-family="Arial,Arial_MSFontService,sans-serif" font-size="26.7012" x="913.318" y="1563.99">=</text><path d="M1004.47 1522.06 1007.24 1522.06C1007.18 1523.72 1007.14 1525.21 1007.11 1526.53 1007.08 1527.85 1007.05 1529.13 1007.04 1530.37 1007.02 1531.61 1007.02 1532.84 1007.02 1534.05L1007.02 1568.56C1007.02 1569.5 1007.05 1570.31 1007.11 1570.99 1007.17 1571.67 1007.27 1572.24 1007.4 1572.71 1007.54 1573.18 1007.72 1573.58 1007.95 1573.92 1008.17 1574.25 1008.44 1574.54 1008.74 1574.78 1009.1 1575.14 1009.59 1575.42 1010.19 1575.62 1010.8 1575.82 1011.57 1575.98 1012.51 1576.12 1013.45 1576.26 1014.58 1576.36 1015.89 1576.44 1017.21 1576.51 1018.79 1576.57 1020.64 1576.6L1020.64 1580.55 984.628 1580.55 984.628 1576.6C986.415 1576.54 987.928 1576.47 989.169 1576.39 990.411 1576.32 991.47 1576.21 992.348 1576.07 993.226 1575.94 993.93 1575.79 994.46 1575.62 994.99 1575.45 995.451 1575.25 995.845 1575.01 996.269 1574.73 996.632 1574.44 996.935 1574.12 997.237 1573.8 997.479 1573.4 997.661 1572.92 997.843 1572.43 997.987 1571.84 998.093 1571.15 998.198 1570.45 998.251 1569.59 998.251 1568.56L998.251 1536C998.251 1534.82 998.024 1533.99 997.57 1533.5 997.116 1533.02 996.465 1532.78 995.618 1532.78 994.679 1532.78 993.287 1533.26 991.44 1534.23 989.593 1535.2 987.202 1536.63 984.265 1538.54 983.872 1537.85 983.508 1537.15 983.175 1536.45 982.842 1535.76 982.494 1535.05 982.131 1534.32 985.885 1532.26 989.601 1530.21 993.279 1528.17 996.957 1526.12 1000.69 1524.09 1004.47 1522.06Z" fill-rule="evenodd"/><text fill="#000000" fill-opacity="0" font-family="Arial,Arial_MSFontService,sans-serif" font-size="58.4883" x="982.131" y="1573.24">1</text></g></svg>