<svg width="451" height="360" xmlns="http://www.w3.org/2000/svg" xmlns:xlink="http://www.w3.org/1999/xlink" xml:space="preserve" overflow="hidden"><defs><clipPath id="clip0"><rect x="189" y="0" width="451" height="360"/></clipPath><linearGradient x1="241.092" y1="51.5444" x2="241.092" y2="170.513" gradientUnits="userSpaceOnUse" spreadMethod="reflect" id="fill1"><stop offset="0" stop-color="#ED7D31"/><stop offset="0.00595238" stop-color="#EC7C32"/><stop offset="0.0119048" stop-color="#EC7C34"/><stop offset="0.0178571" stop-color="#EC7C35"/><stop offset="0.0238095" stop-color="#EC7C37"/><stop offset="0.0297619" stop-color="#EC7C39"/><stop offset="0.0357143" stop-color="#EC7C3A"/><stop offset="0.0416667" stop-color="#EC7C3C"/><stop offset="0.047619" stop-color="#EC7C3D"/><stop offset="0.0535714" stop-color="#EC7C3F"/><stop offset="0.0595238" stop-color="#EC7C40"/><stop offset="0.0654762" stop-color="#EB7C42"/><stop offset="0.0714286" stop-color="#EB7C44"/><stop offset="0.077381" stop-color="#EB7C45"/><stop offset="0.0833333" stop-color="#EB7C47"/><stop offset="0.0892857" stop-color="#EB7C48"/><stop offset="0.0952381" stop-color="#EA7C4A"/><stop offset="0.10119" stop-color="#EA7C4B"/><stop offset="0.107143" stop-color="#EA7C4D"/><stop offset="0.113095" stop-color="#EA7C4E"/><stop offset="0.119048" stop-color="#E97C50"/><stop offset="0.125" stop-color="#E97C51"/><stop offset="0.130952" stop-color="#E97C53"/><stop offset="0.136905" stop-color="#E87C54"/><stop offset="0.142857" stop-color="#E87C55"/><stop offset="0.14881" stop-color="#E87C57"/><stop offset="0.154762" stop-color="#E77C58"/><stop offset="0.160714" stop-color="#E77C5A"/><stop offset="0.166667" stop-color="#E77C5B"/><stop offset="0.172619" stop-color="#E67C5C"/><stop offset="0.178571" stop-color="#E67C5E"/><stop offset="0.184524" stop-color="#E57C5F"/><stop offset="0.190476" stop-color="#E57C61"/><stop offset="0.196429" stop-color="#E57C62"/><stop offset="0.202381" stop-color="#E47C63"/><stop offset="0.208333" stop-color="#E47C65"/><stop offset="0.214286" stop-color="#E37C66"/><stop offset="0.220238" stop-color="#E37C67"/><stop offset="0.22619" stop-color="#E27C69"/><stop offset="0.232143" stop-color="#E27C6A"/><stop offset="0.238095" stop-color="#E17C6B"/><stop offset="0.244048" stop-color="#E07C6D"/><stop offset="0.25" stop-color="#E07C6E"/><stop offset="0.255952" stop-color="#DF7C6F"/><stop offset="0.261905" stop-color="#DF7C70"/><stop offset="0.267857" stop-color="#DE7C72"/><stop offset="0.27381" stop-color="#DE7C73"/><stop offset="0.279762" stop-color="#DD7B74"/><stop offset="0.285714" stop-color="#DC7B75"/><stop offset="0.291667" stop-color="#DC7B76"/><stop offset="0.297619" stop-color="#DB7B78"/><stop offset="0.303571" stop-color="#DA7B79"/><stop offset="0.309524" stop-color="#DA7B7A"/><stop offset="0.315476" stop-color="#D97B7B"/><stop offset="0.321429" stop-color="#D87B7C"/><stop offset="0.327381" stop-color="#D87B7E"/><stop offset="0.333333" stop-color="#D77B7F"/><stop offset="0.339286" stop-color="#D67B80"/><stop offset="0.345238" stop-color="#D57B81"/><stop offset="0.35119" stop-color="#D57B82"/><stop offset="0.357143" stop-color="#D47B83"/><stop offset="0.363095" stop-color="#D37B84"/><stop offset="0.369048" stop-color="#D27B86"/><stop offset="0.375" stop-color="#D27B87"/><stop offset="0.380952" stop-color="#D17B88"/><stop offset="0.386905" stop-color="#D07B89"/><stop offset="0.392857" stop-color="#CF7B8A"/><stop offset="0.39881" stop-color="#CE7B8B"/><stop offset="0.404762" stop-color="#CD7A8C"/><stop offset="0.410714" stop-color="#CD7A8D"/><stop offset="0.416667" stop-color="#CC7A8E"/><stop offset="0.422619" stop-color="#CB7A8F"/><stop offset="0.428571" stop-color="#CA7A90"/><stop offset="0.434524" stop-color="#C97A91"/><stop offset="0.440476" stop-color="#C87A92"/><stop offset="0.446429" stop-color="#C77A93"/><stop offset="0.452381" stop-color="#C67A94"/><stop offset="0.458333" stop-color="#C57A95"/><stop offset="0.464286" stop-color="#C47A96"/><stop offset="0.470238" stop-color="#C37A97"/><stop offset="0.47619" stop-color="#C27A98"/><stop offset="0.482143" stop-color="#C17A99"/><stop offset="0.488095" stop-color="#C07A9A"/><stop offset="0.494048" stop-color="#BF7A9B"/><stop offset="0.5" stop-color="#BE7A9B"/><stop offset="0.505952" stop-color="#BD799C"/><stop offset="0.511905" stop-color="#BC799D"/><stop offset="0.517857" stop-color="#BB799E"/><stop offset="0.52381" stop-color="#BA799F"/><stop offset="0.529762" stop-color="#B979A0"/><stop offset="0.535714" stop-color="#B879A1"/><stop offset="0.541667" stop-color="#B779A1"/><stop offset="0.547619" stop-color="#B679A2"/><stop offset="0.553571" stop-color="#B579A3"/><stop offset="0.559524" stop-color="#B479A4"/><stop offset="0.565476" stop-color="#B279A5"/><stop offset="0.571429" stop-color="#B179A5"/><stop offset="0.577381" stop-color="#B079A6"/><stop offset="0.583333" stop-color="#AF78A7"/><stop offset="0.589286" stop-color="#AE78A8"/><stop offset="0.595238" stop-color="#AD78A9"/><stop offset="0.60119" stop-color="#AB78A9"/><stop offset="0.607143" stop-color="#AA78AA"/><stop offset="0.613095" stop-color="#A978AB"/><stop offset="0.619048" stop-color="#A878AB"/><stop offset="0.625" stop-color="#A678AC"/><stop offset="0.630952" stop-color="#A578AD"/><stop offset="0.636905" stop-color="#A478AE"/><stop offset="0.642857" stop-color="#A378AE"/><stop offset="0.64881" stop-color="#A178AF"/><stop offset="0.654762" stop-color="#A078AF"/><stop offset="0.660714" stop-color="#9F77B0"/><stop offset="0.666667" stop-color="#9D77B1"/><stop offset="0.672619" stop-color="#9C77B1"/><stop offset="0.678571" stop-color="#9B77B2"/><stop offset="0.684524" stop-color="#9977B3"/><stop offset="0.690476" stop-color="#9877B3"/><stop offset="0.696429" stop-color="#9777B4"/><stop offset="0.702381" stop-color="#9577B4"/><stop offset="0.708333" stop-color="#9477B5"/><stop offset="0.714286" stop-color="#9377B5"/><stop offset="0.720238" stop-color="#9177B6"/><stop offset="0.72619" stop-color="#9076B7"/><stop offset="0.732143" stop-color="#8E76B7"/><stop offset="0.738095" stop-color="#8D76B8"/><stop offset="0.744048" stop-color="#8B76B8"/><stop offset="0.75" stop-color="#8A76B9"/><stop offset="0.755952" stop-color="#8876B9"/><stop offset="0.761905" stop-color="#8776BA"/><stop offset="0.767857" stop-color="#8676BA"/><stop offset="0.77381" stop-color="#8476BA"/><stop offset="0.779762" stop-color="#8276BB"/><stop offset="0.785714" stop-color="#8176BB"/><stop offset="0.791667" stop-color="#7F75BC"/><stop offset="0.797619" stop-color="#7E75BC"/><stop offset="0.803571" stop-color="#7C75BD"/><stop offset="0.809524" stop-color="#7B75BD"/><stop offset="0.815476" stop-color="#7975BD"/><stop offset="0.821429" stop-color="#7875BE"/><stop offset="0.827381" stop-color="#7675BE"/><stop offset="0.833333" stop-color="#7475BE"/><stop offset="0.839286" stop-color="#7375BF"/><stop offset="0.845238" stop-color="#7174BF"/><stop offset="0.85119" stop-color="#7074BF"/><stop offset="0.857143" stop-color="#6E74C0"/><stop offset="0.863095" stop-color="#6C74C0"/><stop offset="0.869048" stop-color="#6B74C0"/><stop offset="0.875" stop-color="#6974C1"/><stop offset="0.880952" stop-color="#6774C1"/><stop offset="0.886905" stop-color="#6674C1"/><stop offset="0.892857" stop-color="#6474C1"/><stop offset="0.89881" stop-color="#6273C1"/><stop offset="0.904762" stop-color="#6073C2"/><stop offset="0.910714" stop-color="#5F73C2"/><stop offset="0.916667" stop-color="#5D73C2"/><stop offset="0.922619" stop-color="#5B73C2"/><stop offset="0.928571" stop-color="#5973C2"/><stop offset="0.934524" stop-color="#5873C3"/><stop offset="0.940476" stop-color="#5673C3"/><stop offset="0.946429" stop-color="#5473C3"/><stop offset="0.952381" stop-color="#5272C3"/><stop offset="0.958333" stop-color="#5072C3"/><stop offset="0.964286" stop-color="#4F72C3"/><stop offset="0.970238" stop-color="#4D72C3"/><stop offset="0.97619" stop-color="#4B72C3"/><stop offset="0.982143" stop-color="#4972C3"/><stop offset="0.988095" stop-color="#4772C3"/><stop offset="0.994048" stop-color="#4572C3"/><stop offset="1" stop-color="#4472C4"/></linearGradient><linearGradient x1="390.257" y1="51.5444" x2="390.257" y2="276.553" gradientUnits="userSpaceOnUse" spreadMethod="reflect" id="fill2"><stop offset="0" stop-color="#ED7D31"/><stop offset="0.00806452" stop-color="#EC7D31"/><stop offset="0.016129" stop-color="#EC7E31"/><stop offset="0.0241935" stop-color="#EC7F31"/><stop offset="0.0322581" stop-color="#EC7F32"/><stop offset="0.0403226" stop-color="#EC8032"/><stop offset="0.0483871" stop-color="#EC8132"/><stop offset="0.0564516" stop-color="#EC8133"/><stop offset="0.0645161" stop-color="#EC8233"/><stop offset="0.0725806" stop-color="#EC8333"/><stop offset="0.0806452" stop-color="#EB8434"/><stop offset="0.0887097" stop-color="#EB8434"/><stop offset="0.0967742" stop-color="#EB8534"/><stop offset="0.104839" stop-color="#EB8635"/><stop offset="0.112903" stop-color="#EA8635"/><stop offset="0.120968" stop-color="#EA8735"/><stop offset="0.129032" stop-color="#EA8736"/><stop offset="0.137097" stop-color="#E98836"/><stop offset="0.145161" stop-color="#E98936"/><stop offset="0.153226" stop-color="#E98936"/><stop offset="0.16129" stop-color="#E88A37"/><stop offset="0.169355" stop-color="#E88B37"/><stop offset="0.177419" stop-color="#E88B37"/><stop offset="0.185484" stop-color="#E78C38"/><stop offset="0.193548" stop-color="#E78C38"/><stop offset="0.201613" stop-color="#E68D38"/><stop offset="0.209677" stop-color="#E68E38"/><stop offset="0.217742" stop-color="#E58E39"/><stop offset="0.225806" stop-color="#E58F39"/><stop offset="0.233871" stop-color="#E48F39"/><stop offset="0.241935" stop-color="#E49039"/><stop offset="0.25" stop-color="#E3913A"/><stop offset="0.258065" stop-color="#E3913A"/><stop offset="0.266129" stop-color="#E2923A"/><stop offset="0.274194" stop-color="#E1923A"/><stop offset="0.282258" stop-color="#E1933B"/><stop offset="0.290323" stop-color="#E0933B"/><stop offset="0.298387" stop-color="#E0943B"/><stop offset="0.306452" stop-color="#DF943B"/><stop offset="0.314516" stop-color="#DE953C"/><stop offset="0.322581" stop-color="#DE953C"/><stop offset="0.330645" stop-color="#DD963C"/><stop offset="0.33871" stop-color="#DC963C"/><stop offset="0.346774" stop-color="#DB973D"/><stop offset="0.354839" stop-color="#DB973D"/><stop offset="0.362903" stop-color="#DA983D"/><stop offset="0.370968" stop-color="#D9983D"/><stop offset="0.379032" stop-color="#D8993D"/><stop offset="0.387097" stop-color="#D7993E"/><stop offset="0.395161" stop-color="#D79A3E"/><stop offset="0.403226" stop-color="#D69A3E"/><stop offset="0.41129" stop-color="#D59B3E"/><stop offset="0.419355" stop-color="#D49B3F"/><stop offset="0.427419" stop-color="#D39C3F"/><stop offset="0.435484" stop-color="#D29C3F"/><stop offset="0.443548" stop-color="#D19D3F"/><stop offset="0.451613" stop-color="#D09D3F"/><stop offset="0.459677" stop-color="#CF9D40"/><stop offset="0.467742" stop-color="#CE9E40"/><stop offset="0.475806" stop-color="#CD9E40"/><stop offset="0.483871" stop-color="#CC9F40"/><stop offset="0.491935" stop-color="#CB9F40"/><stop offset="0.5" stop-color="#CA9F41"/><stop offset="0.508065" stop-color="#C9A041"/><stop offset="0.516129" stop-color="#C8A041"/><stop offset="0.524194" stop-color="#C7A141"/><stop offset="0.532258" stop-color="#C6A141"/><stop offset="0.540323" stop-color="#C5A141"/><stop offset="0.548387" stop-color="#C4A242"/><stop offset="0.556452" stop-color="#C3A242"/><stop offset="0.564516" stop-color="#C2A242"/><stop offset="0.572581" stop-color="#C1A342"/><stop offset="0.580645" stop-color="#BFA342"/><stop offset="0.58871" stop-color="#BEA342"/><stop offset="0.596774" stop-color="#BDA442"/><stop offset="0.604839" stop-color="#BCA443"/><stop offset="0.612903" stop-color="#BBA443"/><stop offset="0.620968" stop-color="#B9A543"/><stop offset="0.629032" stop-color="#B8A543"/><stop offset="0.637097" stop-color="#B7A543"/><stop offset="0.645161" stop-color="#B6A643"/><stop offset="0.653226" stop-color="#B4A643"/><stop offset="0.66129" stop-color="#B3A644"/><stop offset="0.669355" stop-color="#B2A644"/><stop offset="0.677419" stop-color="#B0A744"/><stop offset="0.685484" stop-color="#AFA744"/><stop offset="0.693548" stop-color="#AEA744"/><stop offset="0.701613" stop-color="#ACA844"/><stop offset="0.709677" stop-color="#ABA844"/><stop offset="0.717742" stop-color="#A9A844"/><stop offset="0.725806" stop-color="#A8A845"/><stop offset="0.733871" stop-color="#A7A845"/><stop offset="0.741935" stop-color="#A5A945"/><stop offset="0.75" stop-color="#A4A945"/><stop offset="0.758065" stop-color="#A2A945"/><stop offset="0.766129" stop-color="#A1A945"/><stop offset="0.774194" stop-color="#9FAA45"/><stop offset="0.782258" stop-color="#9EAA45"/><stop offset="0.790323" stop-color="#9CAA45"/><stop offset="0.798387" stop-color="#9BAA45"/><stop offset="0.806452" stop-color="#99AA45"/><stop offset="0.814516" stop-color="#97AA46"/><stop offset="0.822581" stop-color="#96AB46"/><stop offset="0.830645" stop-color="#94AB46"/><stop offset="0.83871" stop-color="#93AB46"/><stop offset="0.846774" stop-color="#91AB46"/><stop offset="0.854839" stop-color="#8FAB46"/><stop offset="0.862903" stop-color="#8EAB46"/><stop offset="0.870968" stop-color="#8CAB46"/><stop offset="0.879032" stop-color="#8AAC46"/><stop offset="0.887097" stop-color="#89AC46"/><stop offset="0.895161" stop-color="#87AC46"/><stop offset="0.903226" stop-color="#85AC46"/><stop offset="0.91129" stop-color="#83AC46"/><stop offset="0.919355" stop-color="#82AC46"/><stop offset="0.927419" stop-color="#80AC46"/><stop offset="0.935484" stop-color="#7EAC46"/><stop offset="0.943548" stop-color="#7CAC46"/><stop offset="0.951613" stop-color="#7BAC46"/><stop offset="0.959677" stop-color="#79AC46"/><stop offset="0.967742" stop-color="#77AC46"/><stop offset="0.975806" stop-color="#75AC46"/><stop offset="0.983871" stop-color="#73AC46"/><stop offset="0.991935" stop-color="#71AC46"/><stop offset="1" stop-color="#70AD47"/></linearGradient><linearGradient x1="241.478" y1="157.54" x2="241.478" y2="276.509" gradientUnits="userSpaceOnUse" spreadMethod="reflect" id="fill3"><stop offset="0" stop-color="#4472C4"/><stop offset="0.00806452" stop-color="#4472C3"/><stop offset="0.016129" stop-color="#4573C3"/><stop offset="0.0241935" stop-color="#4574C3"/><stop offset="0.0322581" stop-color="#4675C3"/><stop offset="0.0403226" stop-color="#4776C3"/><stop offset="0.0483871" stop-color="#4777C3"/><stop offset="0.0564516" stop-color="#4878C3"/><stop offset="0.0645161" stop-color="#4978C3"/><stop offset="0.0725806" stop-color="#4979C3"/><stop offset="0.0806452" stop-color="#4A7AC2"/><stop offset="0.0887097" stop-color="#4B7BC2"/><stop offset="0.0967742" stop-color="#4B7CC2"/><stop offset="0.104839" stop-color="#4C7DC2"/><stop offset="0.112903" stop-color="#4C7DC1"/><stop offset="0.120968" stop-color="#4D7EC1"/><stop offset="0.129032" stop-color="#4E7FC1"/><stop offset="0.137097" stop-color="#4E80C0"/><stop offset="0.145161" stop-color="#4F81C0"/><stop offset="0.153226" stop-color="#4F81C0"/><stop offset="0.16129" stop-color="#5082BF"/><stop offset="0.169355" stop-color="#5083BF"/><stop offset="0.177419" stop-color="#5184BF"/><stop offset="0.185484" stop-color="#5284BE"/><stop offset="0.193548" stop-color="#5285BE"/><stop offset="0.201613" stop-color="#5386BD"/><stop offset="0.209677" stop-color="#5387BD"/><stop offset="0.217742" stop-color="#5487BC"/><stop offset="0.225806" stop-color="#5488BC"/><stop offset="0.233871" stop-color="#5589BB"/><stop offset="0.241935" stop-color="#5589BB"/><stop offset="0.25" stop-color="#568ABA"/><stop offset="0.258065" stop-color="#568BBA"/><stop offset="0.266129" stop-color="#578BB9"/><stop offset="0.274194" stop-color="#578CB8"/><stop offset="0.282258" stop-color="#588DB8"/><stop offset="0.290323" stop-color="#588DB7"/><stop offset="0.298387" stop-color="#598EB7"/><stop offset="0.306452" stop-color="#598FB6"/><stop offset="0.314516" stop-color="#5A8FB5"/><stop offset="0.322581" stop-color="#5A90B5"/><stop offset="0.330645" stop-color="#5B91B4"/><stop offset="0.33871" stop-color="#5B91B3"/><stop offset="0.346774" stop-color="#5C92B2"/><stop offset="0.354839" stop-color="#5C93B2"/><stop offset="0.362903" stop-color="#5D93B1"/><stop offset="0.370968" stop-color="#5D94B0"/><stop offset="0.379032" stop-color="#5D94AF"/><stop offset="0.387097" stop-color="#5E95AE"/><stop offset="0.395161" stop-color="#5E96AE"/><stop offset="0.403226" stop-color="#5F96AD"/><stop offset="0.41129" stop-color="#5F97AC"/><stop offset="0.419355" stop-color="#6097AB"/><stop offset="0.427419" stop-color="#6098AA"/><stop offset="0.435484" stop-color="#6098A9"/><stop offset="0.443548" stop-color="#6199A8"/><stop offset="0.451613" stop-color="#6199A7"/><stop offset="0.459677" stop-color="#629AA6"/><stop offset="0.467742" stop-color="#629AA5"/><stop offset="0.475806" stop-color="#629BA4"/><stop offset="0.483871" stop-color="#639BA3"/><stop offset="0.491935" stop-color="#639CA2"/><stop offset="0.5" stop-color="#649CA1"/><stop offset="0.508065" stop-color="#649DA0"/><stop offset="0.516129" stop-color="#649D9F"/><stop offset="0.524194" stop-color="#659E9E"/><stop offset="0.532258" stop-color="#659E9D"/><stop offset="0.540323" stop-color="#659F9C"/><stop offset="0.548387" stop-color="#669F9B"/><stop offset="0.556452" stop-color="#66A09A"/><stop offset="0.564516" stop-color="#66A099"/><stop offset="0.572581" stop-color="#67A198"/><stop offset="0.580645" stop-color="#67A196"/><stop offset="0.58871" stop-color="#67A195"/><stop offset="0.596774" stop-color="#67A294"/><stop offset="0.604839" stop-color="#68A293"/><stop offset="0.612903" stop-color="#68A392"/><stop offset="0.620968" stop-color="#68A390"/><stop offset="0.629032" stop-color="#69A38F"/><stop offset="0.637097" stop-color="#69A48E"/><stop offset="0.645161" stop-color="#69A48D"/><stop offset="0.653226" stop-color="#69A48B"/><stop offset="0.66129" stop-color="#6AA58A"/><stop offset="0.669355" stop-color="#6AA589"/><stop offset="0.677419" stop-color="#6AA587"/><stop offset="0.685484" stop-color="#6AA686"/><stop offset="0.693548" stop-color="#6BA685"/><stop offset="0.701613" stop-color="#6BA683"/><stop offset="0.709677" stop-color="#6BA782"/><stop offset="0.717742" stop-color="#6BA780"/><stop offset="0.725806" stop-color="#6CA77F"/><stop offset="0.733871" stop-color="#6CA87E"/><stop offset="0.741935" stop-color="#6CA87C"/><stop offset="0.75" stop-color="#6CA87B"/><stop offset="0.758065" stop-color="#6CA879"/><stop offset="0.766129" stop-color="#6DA978"/><stop offset="0.774194" stop-color="#6DA976"/><stop offset="0.782258" stop-color="#6DA975"/><stop offset="0.790323" stop-color="#6DA973"/><stop offset="0.798387" stop-color="#6DAA72"/><stop offset="0.806452" stop-color="#6DAA70"/><stop offset="0.814516" stop-color="#6EAA6E"/><stop offset="0.822581" stop-color="#6EAA6D"/><stop offset="0.830645" stop-color="#6EAA6B"/><stop offset="0.83871" stop-color="#6EAB6A"/><stop offset="0.846774" stop-color="#6EAB68"/><stop offset="0.854839" stop-color="#6EAB66"/><stop offset="0.862903" stop-color="#6EAB65"/><stop offset="0.870968" stop-color="#6FAB63"/><stop offset="0.879032" stop-color="#6FAB61"/><stop offset="0.887097" stop-color="#6FAC60"/><stop offset="0.895161" stop-color="#6FAC5E"/><stop offset="0.903226" stop-color="#6FAC5C"/><stop offset="0.91129" stop-color="#6FAC5A"/><stop offset="0.919355" stop-color="#6FAC59"/><stop offset="0.927419" stop-color="#6FAC57"/><stop offset="0.935484" stop-color="#6FAC55"/><stop offset="0.943548" stop-color="#6FAC53"/><stop offset="0.951613" stop-color="#6FAC52"/><stop offset="0.959677" stop-color="#6FAC50"/><stop offset="0.967742" stop-color="#6FAC4E"/><stop offset="0.975806" stop-color="#6FAC4C"/><stop offset="0.983871" stop-color="#6FAC4A"/><stop offset="0.991935" stop-color="#6FAC48"/><stop offset="1" stop-color="#70AD47"/></linearGradient></defs><g clip-path="url(#clip0)" transform="translate(-189 0)"><text fill="#70AD47" font-family="Calibri,Calibri_MSFontService,sans-serif" font-weight="700" font-size="47" transform="matrix(0.3858 0 0 0.385439 557.014 289)">Products<tspan fill="#ED7D31" font-size="47" x="-500.342" y="-552.617">Transition State</tspan><tspan fill="#ED7D31" font-size="47" x="-187.092" y="-552.617">(</tspan><tspan fill="#ED7D31" font-size="47" x="-172.508" y="-552.617">‡</tspan><tspan fill="#ED7D31" font-size="47" x="-149.175" y="-552.617">)</tspan><tspan fill="#4472C4" font-size="47" x="-824.738" y="-282.794">Reactants</tspan></text><path d="M107.345 3.66167 519.379 3.66167 519.379 324.732 107.345 324.732Z" stroke="#000000" stroke-width="1.2848" stroke-miterlimit="8" fill="none" transform="matrix(1.00094 0 0 1 119.556 -3.08351)"/><text font-family="Calibri,Calibri_MSFontService,sans-serif" font-weight="400" font-size="53" transform="matrix(-7.08703e-17 -0.385439 0.3858 -7.0804e-17 214.797 237)">Gibbs<tspan font-size="53" x="134.911" y="2.47828e-14">Free</tspan><tspan font-size="53" x="243.878" y="4.47996e-14">Energ</tspan><tspan font-size="53" x="365.817" y="6.71994e-14">y</tspan></text><text font-family="Calibri,Calibri_MSFontService,sans-serif" font-weight="400" font-size="53" transform="matrix(0.3858 0 0 0.385439 348.84 342)">Reaction Coordinate</text><path d="M120.064 164.004 197.322 164.004" stroke="#000000" stroke-width="0.963597" stroke-miterlimit="8" fill="none" fill-rule="evenodd" transform="matrix(1.00094 0 0 1 119.556 -3.08351)"/><path d="M432.655 271.927 509.913 271.927" stroke="#000000" stroke-width="0.963597" stroke-miterlimit="8" fill="none" fill-rule="evenodd" transform="matrix(1.00094 0 0 1 119.556 -3.08351)"/><path d="M241.092 58.0086 390.068 58.0086" stroke="#000000" stroke-width="0.963597" stroke-miterlimit="8" fill="none" fill-rule="evenodd" transform="matrix(1.00094 0 0 1 119.556 -3.08351)"/><path d="M0 0 43.7138 106.04" stroke="#000000" stroke-width="0.963597" stroke-miterlimit="8" stroke-dasharray="0.963597 0.963597" fill="none" fill-rule="evenodd" transform="matrix(-1.00094 0 0 1 361.033 54.9251)"/><path d="M390.257 57.6231 432.775 271.225" stroke="#000000" stroke-width="0.963597" stroke-miterlimit="8" stroke-dasharray="0.963597 0.963597" fill="none" fill-rule="evenodd" transform="matrix(1.00094 0 0 1 119.556 -3.08351)"/><path d="M241.654 63.7901 241.654 64.9145 240.53 64.9145 240.53 63.7901ZM241.654 66.0384 241.654 67.1627 240.53 67.1627 240.53 66.0384ZM241.654 68.2871 241.654 69.411 240.53 69.411 240.53 68.2871ZM241.654 70.5353 241.654 71.6597 240.53 71.6597 240.53 70.5353ZM241.654 72.7836 241.654 73.9079 240.53 73.9079 240.53 72.7836ZM241.654 75.0322 241.654 76.1562 240.53 76.1562 240.53 75.0322ZM241.654 77.2805 241.654 78.4048 240.53 78.4048 240.53 77.2805ZM241.654 79.5288 241.654 80.6531 240.53 80.6531 240.53 79.5288ZM241.654 81.7774 241.654 82.9014 240.53 82.9014 240.53 81.7774ZM241.654 84.0257 241.654 85.15 240.53 85.15 240.53 84.0257ZM241.654 86.274 241.654 87.3983 240.53 87.3983 240.53 86.274ZM241.654 88.5226 241.654 89.6466 240.53 89.6466 240.53 88.5226ZM241.654 90.7709 241.654 91.8952 240.53 91.8952 240.53 90.7709ZM241.654 93.0191 241.654 94.1435 240.53 94.1435 240.53 93.0191ZM241.654 95.2678 241.654 96.3917 240.53 96.3917 240.53 95.2678ZM241.654 97.5161 241.654 98.6404 240.53 98.6404 240.53 97.5161ZM241.654 99.7643 241.654 100.889 240.53 100.889 240.53 99.7643ZM241.654 102.013 241.654 103.137 240.53 103.137 240.53 102.013ZM241.654 104.261 241.654 105.386 240.53 105.386 240.53 104.261ZM241.654 106.51 241.654 107.634 240.53 107.634 240.53 106.51ZM241.654 108.758 241.654 109.882 240.53 109.882 240.53 108.758ZM241.654 111.006 241.654 112.131 240.53 112.131 240.53 111.006ZM241.654 113.255 241.654 114.379 240.53 114.379 240.53 113.255ZM241.654 115.503 241.654 116.627 240.53 116.627 240.53 115.503ZM241.654 117.752 241.654 118.876 240.53 118.876 240.53 117.752ZM241.654 120 241.654 121.124 240.53 121.124 240.53 120ZM241.654 122.249 241.654 123.372 240.53 123.372 240.53 122.249ZM241.654 124.497 241.654 125.621 240.53 125.621 240.53 124.497ZM241.654 126.745 241.654 127.869 240.53 127.869 240.53 126.745ZM241.654 128.994 241.654 130.118 240.53 130.118 240.53 128.994ZM241.654 131.242 241.654 132.366 240.53 132.366 240.53 131.242ZM241.654 133.49 241.654 134.615 240.53 134.615 240.53 133.49ZM241.654 135.739 241.654 136.863 240.53 136.863 240.53 135.739ZM241.654 137.987 241.654 139.111 240.53 139.111 240.53 137.987ZM241.654 140.235 241.654 141.36 240.53 141.36 240.53 140.235ZM241.654 142.484 241.654 143.608 240.53 143.608 240.53 142.484ZM241.654 144.732 241.654 145.857 240.53 145.857 240.53 144.732ZM241.654 146.981 241.654 148.105 240.53 148.105 240.53 146.981ZM241.654 149.229 241.654 150.353 240.53 150.353 240.53 149.229ZM241.654 151.478 241.654 152.602 240.53 152.602 240.53 151.478ZM241.654 153.726 241.654 154.85 240.53 154.85 240.53 153.726ZM241.654 155.974 241.654 157.098 240.53 157.098 240.53 155.974ZM241.654 158.223 241.654 158.267 240.53 158.267 240.53 158.223ZM237.88 64.4327 241.092 58.0086 244.304 64.4327ZM244.304 157.625 241.092 164.049 237.88 157.625Z" fill="url(#fill1)" transform="matrix(1.00094 0 0 1 119.556 -3.08351)"/><text fill="#ED7D31" font-family="Symbol,Symbol_MSFontService,sans-serif" font-weight="700" font-size="47" transform="matrix(0.3858 0 0 0.385439 366.004 123)">D<tspan font-family="Calibri,Calibri_MSFontService,sans-serif" font-size="47" x="28.5417" y="0">G</tspan><tspan font-family="Calibri,Calibri_MSFontService,sans-serif" font-size="31" x="58.3333" y="10.3778">f</tspan><tspan font-family="Calibri,Calibri_MSFontService,sans-serif" font-size="31" x="68.1249" y="-15.5667">‡</tspan></text><path d="M390.82 63.7901 390.82 64.9145 389.694 64.9145 389.694 63.7901ZM390.82 66.0384 390.82 67.1627 389.694 67.1627 389.694 66.0384ZM390.82 68.2871 390.82 69.411 389.694 69.411 389.694 68.2871ZM390.82 70.5353 390.82 71.6597 389.694 71.6597 389.694 70.5353ZM390.82 72.7836 390.82 73.9079 389.694 73.9079 389.694 72.7836ZM390.82 75.0322 390.82 76.1562 389.694 76.1562 389.694 75.0322ZM390.82 77.2805 390.82 78.4048 389.694 78.4048 389.694 77.2805ZM390.82 79.5288 390.82 80.6531 389.694 80.6531 389.694 79.5288ZM390.82 81.7774 390.82 82.9014 389.694 82.9014 389.694 81.7774ZM390.82 84.0257 390.82 85.15 389.694 85.15 389.694 84.0257ZM390.82 86.274 390.82 87.3983 389.694 87.3983 389.694 86.274ZM390.82 88.5226 390.82 89.6466 389.694 89.6466 389.694 88.5226ZM390.82 90.7709 390.82 91.8952 389.694 91.8952 389.694 90.7709ZM390.82 93.0191 390.82 94.1435 389.694 94.1435 389.694 93.0191ZM390.82 95.2678 390.82 96.3917 389.694 96.3917 389.694 95.2678ZM390.82 97.5161 390.82 98.6404 389.694 98.6404 389.694 97.5161ZM390.82 99.7643 390.82 100.889 389.694 100.889 389.694 99.7643ZM390.82 102.013 390.82 103.137 389.694 103.137 389.694 102.013ZM390.82 104.261 390.82 105.386 389.694 105.386 389.694 104.261ZM390.82 106.51 390.82 107.634 389.694 107.634 389.694 106.51ZM390.82 108.758 390.82 109.882 389.694 109.882 389.694 108.758ZM390.82 111.006 390.82 112.131 389.694 112.131 389.694 111.006ZM390.82 113.255 390.82 114.379 389.694 114.379 389.694 113.255ZM390.82 115.503 390.82 116.627 389.694 116.627 389.694 115.503ZM390.82 117.752 390.82 118.876 389.694 118.876 389.694 117.752ZM390.82 120 390.82 121.124 389.694 121.124 389.694 120ZM390.82 122.249 390.82 123.372 389.694 123.372 389.694 122.249ZM390.82 124.497 390.82 125.621 389.694 125.621 389.694 124.497ZM390.82 126.745 390.82 127.869 389.694 127.869 389.694 126.745ZM390.82 128.994 390.82 130.118 389.694 130.118 389.694 128.994ZM390.82 131.242 390.82 132.366 389.694 132.366 389.694 131.242ZM390.82 133.49 390.82 134.615 389.694 134.615 389.694 133.49ZM390.82 135.739 390.82 136.863 389.694 136.863 389.694 135.739ZM390.82 137.987 390.82 139.111 389.694 139.111 389.694 137.987ZM390.82 140.235 390.82 141.36 389.694 141.36 389.694 140.235ZM390.82 142.484 390.82 143.608 389.694 143.608 389.694 142.484ZM390.82 144.732 390.82 145.857 389.694 145.857 389.694 144.732ZM390.82 146.981 390.82 148.105 389.694 148.105 389.694 146.981ZM390.82 149.229 390.82 150.353 389.694 150.353 389.694 149.229ZM390.82 151.478 390.82 152.602 389.694 152.602 389.694 151.478ZM390.82 153.726 390.82 154.85 389.694 154.85 389.694 153.726ZM390.82 155.974 390.82 157.098 389.694 157.098 389.694 155.974ZM390.82 158.223 390.82 159.347 389.694 159.347 389.694 158.223ZM390.82 160.471 390.82 161.595 389.694 161.595 389.694 160.471ZM390.82 162.72 390.82 163.844 389.694 163.844 389.694 162.72ZM390.82 164.968 390.82 166.092 389.694 166.092 389.694 164.968ZM390.82 167.216 390.82 168.34 389.694 168.34 389.694 167.216ZM390.82 169.465 390.82 170.589 389.694 170.589 389.694 169.465ZM390.82 171.713 390.82 172.837 389.694 172.837 389.694 171.713ZM390.82 173.961 390.82 175.086 389.694 175.086 389.694 173.961ZM390.82 176.21 390.82 177.334 389.694 177.334 389.694 176.21ZM390.82 178.458 390.82 179.583 389.694 179.583 389.694 178.458ZM390.82 180.707 390.82 181.831 389.694 181.831 389.694 180.707ZM390.82 182.955 390.82 184.079 389.694 184.079 389.694 182.955ZM390.82 185.203 390.82 186.328 389.694 186.328 389.694 185.203ZM390.82 187.452 390.82 188.576 389.694 188.576 389.694 187.452ZM390.82 189.7 390.82 190.824 389.694 190.824 389.694 189.7ZM390.82 191.949 390.82 193.073 389.694 193.073 389.694 191.949ZM390.82 194.197 390.82 195.321 389.694 195.321 389.694 194.197ZM390.82 196.446 390.82 197.569 389.694 197.569 389.694 196.446ZM390.82 198.694 390.82 199.818 389.694 199.818 389.694 198.694ZM390.82 200.942 390.82 202.066 389.694 202.066 389.694 200.942ZM390.82 203.191 390.82 204.315 389.694 204.315 389.694 203.191ZM390.82 205.439 390.82 206.563 389.694 206.563 389.694 205.439ZM390.82 207.687 390.82 208.812 389.694 208.812 389.694 207.687ZM390.82 209.936 390.82 211.06 389.694 211.06 389.694 209.936ZM390.82 212.184 390.82 213.308 389.694 213.308 389.694 212.184ZM390.82 214.432 390.82 215.557 389.694 215.557 389.694 214.432ZM390.82 216.681 390.82 217.805 389.694 217.805 389.694 216.681ZM390.82 218.929 390.82 220.054 389.694 220.054 389.694 218.929ZM390.82 221.178 390.82 222.302 389.694 222.302 389.694 221.178ZM390.82 223.426 390.82 224.55 389.694 224.55 389.694 223.426ZM390.82 225.675 390.82 226.799 389.694 226.799 389.694 225.675ZM390.82 227.923 390.82 229.047 389.694 229.047 389.694 227.923ZM390.82 230.171 390.82 231.295 389.694 231.295 389.694 230.171ZM390.82 232.42 390.82 233.544 389.694 233.544 389.694 232.42ZM390.82 234.668 390.82 235.792 389.694 235.792 389.694 234.668ZM390.82 236.917 390.82 238.041 389.694 238.041 389.694 236.917ZM390.82 239.165 390.82 240.289 389.694 240.289 389.694 239.165ZM390.82 241.413 390.82 242.537 389.694 242.537 389.694 241.413ZM390.82 243.662 390.82 244.786 389.694 244.786 389.694 243.662ZM390.82 245.91 390.82 247.034 389.694 247.034 389.694 245.91ZM390.82 248.158 390.82 249.283 389.694 249.283 389.694 248.158ZM390.82 250.407 390.82 251.531 389.694 251.531 389.694 250.407ZM390.82 252.655 390.82 253.78 389.694 253.78 389.694 252.655ZM390.82 254.904 390.82 256.028 389.694 256.028 389.694 254.904ZM390.82 257.152 390.82 258.276 389.694 258.276 389.694 257.152ZM390.82 259.4 390.82 260.525 389.694 260.525 389.694 259.4ZM390.82 261.649 390.82 262.773 389.694 262.773 389.694 261.649ZM390.82 263.897 390.82 264.307 389.694 264.307 389.694 263.897ZM387.046 64.4327 390.257 58.0086 393.468 64.4327ZM393.468 263.665 390.257 270.089 387.046 263.665Z" fill="url(#fill2)" transform="matrix(1.00094 0 0 1 119.556 -3.08351)"/><text fill="#ED7D31" font-family="Symbol,Symbol_MSFontService,sans-serif" font-weight="700" font-size="47" transform="matrix(0.3858 0 0 0.385439 471.837 123)">D<tspan font-family="Calibri,Calibri_MSFontService,sans-serif" font-size="47" x="28.5416" y="0">G</tspan><tspan font-family="Calibri,Calibri_MSFontService,sans-serif" font-size="31" x="58.3333" y="10.3778">r</tspan><tspan font-family="Calibri,Calibri_MSFontService,sans-serif" font-size="31" x="69.375" y="-15.5667">‡</tspan></text><path d="M242.039 169.786 242.039 170.91 240.916 170.91 240.916 169.786ZM242.039 172.034 242.039 173.158 240.916 173.158 240.916 172.034ZM242.039 174.283 242.039 175.407 240.916 175.407 240.916 174.283ZM242.039 176.531 242.039 177.655 240.916 177.655 240.916 176.531ZM242.039 178.779 242.039 179.904 240.916 179.904 240.916 178.779ZM242.039 181.028 242.039 182.152 240.916 182.152 240.916 181.028ZM242.039 183.276 242.039 184.401 240.916 184.401 240.916 183.276ZM242.039 185.525 242.039 186.649 240.916 186.649 240.916 185.525ZM242.039 187.773 242.039 188.897 240.916 188.897 240.916 187.773ZM242.039 190.021 242.039 191.146 240.916 191.146 240.916 190.021ZM242.039 192.27 242.039 193.394 240.916 193.394 240.916 192.27ZM242.039 194.518 242.039 195.642 240.916 195.642 240.916 194.518ZM242.039 196.767 242.039 197.891 240.916 197.891 240.916 196.767ZM242.039 199.015 242.039 200.139 240.916 200.139 240.916 199.015ZM242.039 201.264 242.039 202.387 240.916 202.387 240.916 201.264ZM242.039 203.512 242.039 204.636 240.916 204.636 240.916 203.512ZM242.039 205.76 242.039 206.884 240.916 206.884 240.916 205.76ZM242.039 208.009 242.039 209.133 240.916 209.133 240.916 208.009ZM242.039 210.257 242.039 211.381 240.916 211.381 240.916 210.257ZM242.039 212.505 242.039 213.63 240.916 213.63 240.916 212.505ZM242.039 214.754 242.039 215.878 240.916 215.878 240.916 214.754ZM242.039 217.002 242.039 218.126 240.916 218.126 240.916 217.002ZM242.039 219.25 242.039 220.375 240.916 220.375 240.916 219.25ZM242.039 221.499 242.039 222.623 240.916 222.623 240.916 221.499ZM242.039 223.747 242.039 224.872 240.916 224.872 240.916 223.747ZM242.039 225.996 242.039 227.12 240.916 227.12 240.916 225.996ZM242.039 228.244 242.039 229.368 240.916 229.368 240.916 228.244ZM242.039 230.493 242.039 231.617 240.916 231.617 240.916 230.493ZM242.039 232.741 242.039 233.865 240.916 233.865 240.916 232.741ZM242.039 234.989 242.039 236.113 240.916 236.113 240.916 234.989ZM242.039 237.238 242.039 238.362 240.916 238.362 240.916 237.238ZM242.039 239.486 242.039 240.61 240.916 240.61 240.916 239.486ZM242.039 241.735 242.039 242.859 240.916 242.859 240.916 241.735ZM242.039 243.983 242.039 245.107 240.916 245.107 240.916 243.983ZM242.039 246.231 242.039 247.355 240.916 247.355 240.916 246.231ZM242.039 248.48 242.039 249.604 240.916 249.604 240.916 248.48ZM242.039 250.728 242.039 251.852 240.916 251.852 240.916 250.728ZM242.039 252.976 242.039 254.101 240.916 254.101 240.916 252.976ZM242.039 255.225 242.039 256.349 240.916 256.349 240.916 255.225ZM242.039 257.473 242.039 258.598 240.916 258.598 240.916 257.473ZM242.039 259.721 242.039 260.846 240.916 260.846 240.916 259.721ZM242.039 261.97 242.039 263.094 240.916 263.094 240.916 261.97ZM242.039 264.218 242.039 264.263 240.916 264.263 240.916 264.218ZM238.266 170.428 241.478 164.004 244.689 170.428ZM244.689 263.621 241.478 270.045 238.266 263.621Z" fill="url(#fill3)" transform="matrix(1.00094 0 0 1 119.556 -3.08351)"/><path d="M197.537 164.004 410.481 164.004" stroke="#000000" stroke-width="0.321199" stroke-miterlimit="8" stroke-dasharray="0.321199 0.321199" fill="none" fill-rule="evenodd" transform="matrix(1.00094 0 0 1 119.556 -3.08351)"/><text fill="#4472C4" font-family="Symbol,Symbol_MSFontService,sans-serif" font-weight="700" font-size="47" transform="matrix(0.3858 0 0 0.385439 314.476 219)">D<tspan font-family="Calibri,Calibri_MSFontService,sans-serif" font-size="47" x="28.5416" y="0">G</tspan><tspan font-family="Calibri,Calibri_MSFontService,sans-serif" font-size="31" x="58.3333" y="12.9722">rxn</tspan></text><path d="M120.064 270.385 432.528 272.017" stroke="#000000" stroke-width="0.321199" stroke-miterlimit="8" stroke-dasharray="0.321199 0.321199" fill="none" fill-rule="evenodd" transform="matrix(1.00094 0 0 1 119.556 -3.08351)"/></g></svg>