<svg width="4290" height="1089" xmlns="http://www.w3.org/2000/svg" xmlns:xlink="http://www.w3.org/1999/xlink" overflow="hidden"><defs><clipPath id="clip0"><rect x="45" y="0" width="4290" height="1089"/></clipPath></defs><g clip-path="url(#clip0)" transform="translate(-45 0)"><path d="M1978.25 2285.53C1745.96 2189.04 1418.99 2360.69 1421.26 2464 1422.52 2522.61 1529.29 2540.73 1524.81 2598.86 1518.93 2675.43 1331.83 2666.4 1265.93 2789.57 1221.29 2873.04 1240.67 3001.93 1308.14 3071.51 1400.86 3166.91 1510.07 3073.95 1738.59 3161.34 1877.05 3214.37 1905.76 3274.78 1991.9 3260.81 2095.53 3243.95 2092.78 3150.12 2208.5 3100.07 2271.26 3073.08 2314.32 3081.95 2627.96 3136.86 2829.26 3172.09 2930.62 3188.95 2963.02 3150.51 3006.24 3099.21 2930.62 3036.68 2961.69 2921.68 2995.97 2794.51 3108.93 2794.28 3156.47 2646.48 3164.71 2620.9 3197.58 2518.68 3148.63 2461.26 3126.9 2435.92 3093.01 2423.84 2951.09 2424.47 2710.1 2425.56 2679.03 2461.02 2605.13 2425.88 2513.9 2382.5 2525.9 2311.74 2428.08 2284.2 2366.02 2266.71 2280.12 2272.35 2245.52 2319.66 2217.13 2358.1 2091.22 2332.45 1978.25 2285.53Z" stroke="#231F20" stroke-width="31.3796" stroke-miterlimit="10" fill="none" transform="matrix(1.00004 0 0 1 4.87522 -2241.43)"/><path d="M0 518.548 1058.2 518.548" stroke="#231F20" stroke-width="15.6898" stroke-miterlimit="10" fill="none" transform="matrix(1.00004 0 0 1 47.2393 0.0144566)"/><path d="M1195.25 2759.99C1150.69 2776.55 1095.38 2804.71 1061.1 2834.6L1088.09 2759.99 1061.1 2685.39C1095.38 2715.28 1150.69 2743.44 1195.25 2759.99Z" fill="#231F20" transform="matrix(1.00004 0 0 1 4.87522 -2241.43)"/><path d="M3132.47 518.548 4190.67 518.548" stroke="#231F20" stroke-width="15.6898" stroke-miterlimit="10" fill="none" transform="matrix(1.00004 0 0 1 47.2393 0.0144566)"/><path d="M4327.72 2759.99C4283.16 2776.55 4227.85 2804.71 4193.57 2834.6L4220.56 2759.99 4193.57 2685.39C4227.85 2715.28 4283.32 2743.44 4327.72 2759.99Z" fill="#231F20" transform="matrix(1.00004 0 0 1 4.87522 -2241.43)"/><path d="M388.067 344.861 452.81 344.861 447.857 366.897 440.967 366.897C440.775 363.212 440.476 360.306 440.069 358.176 439.663 356.047 439.088 354.515 438.347 353.582 437.605 352.649 436.708 352.015 435.655 351.68 434.602 351.345 433.023 351.178 430.918 351.178L408.81 351.178 400.269 390.225 413.691 390.225C415.797 390.225 417.543 389.938 418.931 389.363 420.319 388.789 421.611 387.748 422.807 386.241 424.003 384.734 425.487 382.162 427.257 378.525L433.789 378.525 426.826 408.815 420.51 408.815C420.51 403.982 420.354 400.955 420.043 399.735 419.732 398.515 419.134 397.678 418.249 397.223 417.364 396.768 415.605 396.541 412.973 396.541L398.905 396.541 393.235 421.95C392.23 426.448 391.727 430.181 391.727 433.148 391.727 434.631 391.967 435.791 392.445 436.629 392.924 437.466 393.641 438.076 394.598 438.459 395.555 438.842 397.206 439.129 399.551 439.32L398.761 442.837 369.261 442.837 370.051 439.32C371.869 439.033 373.233 438.567 374.142 437.921 375.051 437.275 375.817 436.378 376.439 435.229 377.061 434.081 377.635 432.681 378.161 431.03 378.688 429.379 379.477 426.185 380.53 421.448L392.732 366.179C393.785 361.394 394.311 357.614 394.311 354.838 394.311 352.494 393.761 350.867 392.66 349.958 391.56 349.048 389.765 348.522 387.277 348.379Z" fill-rule="evenodd"/><text fill="#000000" fill-opacity="0" font-family="Arial,Arial_MSFontService,sans-serif" font-size="97.9761" x="369.261" y="430.59">𝐹</text><path d="M479.236 432.663 481.964 432.663 472.01 479.653C470.99 484.502 469.602 488.402 467.847 491.353 466.093 494.304 463.812 496.521 461.005 498.004 458.197 499.488 454.848 500.229 450.956 500.229 449.361 500.229 448.005 500.07 446.888 499.751L447.989 495.54C448.659 495.795 449.871 495.923 451.626 495.923 453.157 495.923 454.457 495.691 455.526 495.229 456.594 494.766 457.591 494.001 458.516 492.932 459.441 491.863 460.295 490.372 461.076 488.458 461.858 486.544 462.584 484.071 463.254 481.041L471.006 446.588C471.739 443.334 472.106 440.941 472.106 439.41 472.106 437.974 471.763 437.001 471.077 436.491 470.391 435.981 469.044 435.693 467.034 435.63L467.56 433.093ZM477.944 414.336 486.414 414.336 484.213 423.619 475.743 423.619Z" fill-rule="evenodd"/><text fill="#000000" fill-opacity="0" font-family="Arial,Arial_MSFontService,sans-serif" font-size="85.8936" x="446.888" y="489.493">𝑗</text><text font-family="Arial,Arial_MSFontService,sans-serif" font-weight="400" font-size="98" transform="matrix(1 0 0 1 491.99 479)">,f</text><path d="M3715.1 344.861 3779.85 344.861 3774.89 366.897 3768 366.897C3767.81 363.212 3767.51 360.306 3767.11 358.176 3766.7 356.047 3766.13 354.515 3765.38 353.582 3764.64 352.649 3763.75 352.015 3762.69 351.68 3761.64 351.345 3760.06 351.178 3757.96 351.178L3735.85 351.178 3727.31 390.225 3740.73 390.225C3742.83 390.225 3744.58 389.938 3745.97 389.363 3747.36 388.789 3748.65 387.748 3749.84 386.241 3751.04 384.734 3752.52 382.162 3754.29 378.525L3760.83 378.525 3753.86 408.815 3747.55 408.815C3747.55 403.982 3747.39 400.955 3747.08 399.735 3746.77 398.515 3746.17 397.678 3745.29 397.223 3744.4 396.768 3742.64 396.541 3740.01 396.541L3725.94 396.541 3720.27 421.95C3719.27 426.448 3718.76 430.181 3718.76 433.148 3718.76 434.631 3719 435.791 3719.48 436.629 3719.96 437.466 3720.68 438.076 3721.64 438.459 3722.59 438.842 3724.24 439.129 3726.59 439.32L3725.8 442.837 3696.3 442.837 3697.09 439.32C3698.91 439.033 3700.27 438.567 3701.18 437.921 3702.09 437.275 3702.85 436.378 3703.48 435.229 3704.1 434.081 3704.67 432.681 3705.2 431.03 3705.73 429.379 3706.51 426.185 3707.57 421.448L3719.77 366.179C3720.82 361.394 3721.35 357.614 3721.35 354.838 3721.35 352.494 3720.8 350.867 3719.7 349.958 3718.6 349.048 3716.8 348.522 3714.31 348.379Z" fill-rule="evenodd"/><text fill="#000000" fill-opacity="0" font-family="Arial,Arial_MSFontService,sans-serif" font-size="97.9761" x="3696.3" y="430.59">𝐹</text><path d="M3806.27 432.663 3809 432.663 3799.05 479.653C3798.03 484.502 3796.64 488.402 3794.89 491.353 3793.13 494.304 3790.85 496.521 3788.04 498.004 3785.23 499.488 3781.89 500.229 3777.99 500.229 3776.4 500.229 3775.04 500.07 3773.93 499.751L3775.03 495.54C3775.7 495.795 3776.91 495.923 3778.66 495.923 3780.19 495.923 3781.49 495.691 3782.56 495.229 3783.63 494.766 3784.63 494.001 3785.55 492.932 3786.48 491.863 3787.33 490.372 3788.11 488.458 3788.9 486.544 3789.62 484.071 3790.29 481.041L3798.04 446.588C3798.78 443.334 3799.14 440.941 3799.14 439.41 3799.14 437.974 3798.8 437.001 3798.11 436.491 3797.43 435.981 3796.08 435.693 3794.07 435.63L3794.6 433.093ZM3804.98 414.336 3813.45 414.336 3811.25 423.619 3802.78 423.619Z" fill-rule="evenodd"/><text fill="#000000" fill-opacity="0" font-family="Arial,Arial_MSFontService,sans-serif" font-size="85.8936" x="3773.93" y="489.493">𝑗</text><path d="M2669.55 597.041C2674.09 597.041 2678.26 597.316 2682.04 597.866 2685.82 598.416 2689.96 599.409 2694.46 600.845L2690.08 620.153 2683.19 620.153C2682.76 614.172 2681.44 609.877 2679.24 607.269 2677.04 604.661 2673.45 603.357 2668.47 603.357 2664.45 603.357 2660.7 604.386 2657.2 606.443 2653.71 608.501 2650.4 611.576 2647.26 615.667 2644.13 619.758 2641.3 624.914 2638.79 631.135 2636.28 637.356 2634.33 643.839 2632.94 650.587 2631.55 657.334 2630.86 663.674 2630.86 669.608 2630.86 677.072 2632.14 682.516 2634.7 685.937 2637.26 689.358 2641.27 691.069 2646.72 691.069 2648.69 691.069 2650.7 690.842 2652.75 690.387 2654.81 689.932 2656.74 689.155 2658.53 688.054 2660.33 686.954 2661.92 685.47 2663.3 683.604 2664.69 681.738 2665.7 679.393 2666.32 676.57L2667.11 673.196C2668.16 668.698 2668.69 664.846 2668.69 661.64 2668.69 659.391 2668.13 657.824 2667 656.939 2665.88 656.054 2664.09 655.539 2661.65 655.396L2662.44 651.879 2691.15 651.879 2690.36 655.396C2688.55 655.778 2687.23 656.209 2686.42 656.688 2685.6 657.166 2684.87 657.896 2684.23 658.877 2683.58 659.858 2682.95 661.353 2682.33 663.363 2681.7 665.373 2680.89 668.674 2679.89 673.268L2674.93 695.806 2669.26 697.385 2665.53 691.715C2660.55 694.06 2656.63 695.579 2653.76 696.273 2650.89 696.967 2647.97 697.314 2645 697.314 2636.01 697.314 2629.16 694.73 2624.47 689.562 2619.78 684.394 2617.44 676.833 2617.44 666.88 2617.44 659.75 2618.64 651.747 2621.03 642.87 2623.42 633.994 2626.9 626.063 2631.47 619.076 2636.04 612.09 2641.57 606.671 2648.05 602.819 2654.54 598.967 2661.7 597.041 2669.55 597.041Z" fill-rule="evenodd"/><text fill="#000000" fill-opacity="0" font-family="Arial,Arial_MSFontService,sans-serif" font-size="100.345" x="2617.44" y="684.842">𝐺</text><path d="M2724.68 685.99 2727.41 685.99 2717.45 732.981C2716.43 737.83 2715.05 741.73 2713.29 744.68 2711.54 747.631 2709.26 749.848 2706.45 751.332 2703.64 752.815 2700.29 753.557 2696.4 753.557 2694.8 753.557 2693.45 753.397 2692.33 753.078L2693.43 748.867C2694.1 749.123 2695.31 749.25 2697.07 749.25 2698.6 749.25 2699.9 749.019 2700.97 748.556 2702.04 748.094 2703.03 747.328 2703.96 746.26 2704.89 745.191 2705.74 743.699 2706.52 741.785 2707.3 739.871 2708.03 737.399 2708.7 734.368L2716.45 699.915C2717.18 696.661 2717.55 694.269 2717.55 692.738 2717.55 691.302 2717.21 690.329 2716.52 689.819 2715.84 689.308 2714.49 689.021 2712.48 688.957L2713 686.421ZM2723.39 667.663 2731.86 667.663 2729.66 676.947 2721.19 676.947Z" fill-rule="evenodd"/><text fill="#000000" fill-opacity="0" font-family="Arial,Arial_MSFontService,sans-serif" font-size="85.8936" x="2692.33" y="742.82">𝑗</text><path d="M1790.33 199.87C1785.45 199.87 1781.07 201.844 1777.19 205.791 1773.32 209.739 1770.26 215.063 1768.04 221.762 1765.81 228.461 1764.7 235.136 1764.7 241.788 1764.7 246.764 1765.38 250.485 1766.75 252.949 1768.11 255.414 1770.4 256.646 1773.6 256.646 1775.09 256.646 1776.59 256.323 1778.12 255.677 1779.66 255.031 1781.25 253.99 1782.9 252.554 1784.55 251.119 1786.18 249.372 1787.78 247.315 1789.38 245.257 1790.85 243.187 1792.19 241.106 1793.53 239.024 1794.78 236.56 1795.93 233.713 1797.07 230.866 1798.05 227.432 1798.87 223.413L1799.51 220.326C1800.23 216.881 1800.59 213.627 1800.59 210.565 1800.59 206.832 1799.8 204.117 1798.22 202.418 1796.64 200.719 1794.01 199.87 1790.33 199.87ZM1852.21 166.063 1875.11 166.063 1894.06 221.977C1896.79 230.016 1898.89 236.811 1900.38 242.362L1901.17 242.362C1901.55 239.443 1902.42 234.586 1903.79 227.791 1905.15 220.996 1906.41 215.063 1907.55 209.99L1912.58 187.381C1913.63 182.643 1914.16 178.791 1914.16 175.824 1914.16 173.575 1913.6 172.008 1912.47 171.123 1911.35 170.238 1909.56 169.723 1907.12 169.58L1907.91 166.063 1933.04 166.063 1932.25 169.58C1930.43 169.963 1929.12 170.393 1928.33 170.872 1927.54 171.35 1926.84 172.068 1926.22 173.025 1925.59 173.982 1924.95 175.478 1924.28 177.511 1923.61 179.545 1922.77 182.859 1921.77 187.452L1904.9 264.039 1895.14 264.039 1874.18 202.454C1871.64 195.085 1869.42 187.739 1867.5 180.418L1866.57 180.418C1866.28 182.859 1865.49 187.512 1864.2 194.379 1862.91 201.246 1861.55 207.957 1860.11 214.512L1853.79 243.152C1852.79 247.697 1852.29 251.43 1852.29 254.349 1852.29 256.502 1852.82 258.021 1853.9 258.907 1854.98 259.792 1856.78 260.33 1859.32 260.522L1858.53 264.039 1833.41 264.039 1834.2 260.522C1836.02 260.235 1837.38 259.768 1838.29 259.122 1839.2 258.476 1839.96 257.579 1840.59 256.43 1841.21 255.282 1841.78 253.882 1842.31 252.231 1842.84 250.581 1843.62 247.386 1844.68 242.649L1856.88 187.381C1857.36 185.323 1857.74 183.361 1858.03 181.495 1858.32 179.629 1858.46 177.738 1858.46 175.824 1858.46 173.575 1857.9 172.008 1856.77 171.123 1855.65 170.238 1853.87 169.723 1851.42 169.58ZM1820.4 161.397 1824.64 161.397 1806.76 240.855C1805.71 245.544 1805.18 249.085 1805.18 251.478 1805.18 253.392 1805.5 254.78 1806.12 255.641 1806.74 256.502 1807.72 256.933 1809.06 256.933 1810.5 256.933 1812.03 256.347 1813.65 255.174 1815.28 254.002 1817.58 251.765 1820.54 248.463L1824.64 252.483C1820.23 257.124 1816.53 260.402 1813.51 262.316 1810.5 264.23 1807.24 265.187 1803.75 265.187 1800.78 265.187 1798.41 264.206 1796.64 262.244 1794.87 260.282 1793.99 257.675 1793.99 254.421 1793.99 251.789 1794.54 248.989 1795.64 246.023L1794.7 245.736C1790.11 252.435 1785.76 257.34 1781.64 260.45 1777.53 263.56 1773.17 265.115 1768.58 265.115 1763.31 265.115 1759.23 263.13 1756.34 259.158 1753.44 255.186 1752 249.612 1752 242.434 1752 234.203 1753.61 226.296 1756.84 218.711 1760.07 211.127 1764.51 205.145 1770.16 200.767 1775.8 196.389 1782.1 194.199 1789.03 194.199 1791.95 194.199 1794.65 194.499 1797.11 195.097 1799.57 195.695 1802.1 196.736 1804.68 198.219L1808.41 181.638C1808.8 180.059 1809.13 178.313 1809.42 176.399 1809.71 174.485 1809.85 172.81 1809.85 171.374 1809.85 169.939 1809.59 168.85 1809.06 168.108 1808.53 167.367 1807.78 166.828 1806.8 166.493 1805.82 166.158 1804.06 165.919 1801.52 165.776L1802.39 162.043Z" fill-rule="evenodd"/><text fill="#000000" fill-opacity="0" font-family="Arial,Arial_MSFontService,sans-serif" font-size="103.79" x="1752" y="252.213">𝑑𝑁</text><path d="M1961.65 253.864 1964.38 253.864 1954.43 300.854C1953.41 305.703 1952.02 309.603 1950.26 312.554 1948.51 315.505 1946.23 317.722 1943.42 319.205 1940.61 320.689 1937.26 321.431 1933.37 321.431 1931.78 321.431 1930.42 321.271 1929.3 320.952L1930.41 316.741C1931.08 316.996 1932.29 317.124 1934.04 317.124 1935.57 317.124 1936.87 316.893 1937.94 316.43 1939.01 315.967 1940.01 315.202 1940.93 314.133 1941.86 313.064 1942.71 311.573 1943.49 309.659 1944.27 307.745 1945 305.273 1945.67 302.242L1953.42 267.789C1954.16 264.535 1954.52 262.142 1954.52 260.611 1954.52 259.176 1954.18 258.203 1953.49 257.692 1952.81 257.182 1951.46 256.895 1949.45 256.831L1949.98 254.295ZM1960.36 235.537 1968.83 235.537 1966.63 244.82 1958.16 244.82Z" fill-rule="evenodd"/><text fill="#000000" fill-opacity="0" font-family="Arial,Arial_MSFontService,sans-serif" font-size="85.8936" x="1929.3" y="310.694">𝑗</text><path d="M1832.17 408.984C1827.29 408.984 1822.91 410.958 1819.04 414.906 1815.16 418.854 1812.11 424.177 1809.89 430.876 1807.66 437.576 1806.55 444.251 1806.55 450.902 1806.55 455.879 1807.23 459.599 1808.59 462.064 1809.96 464.528 1812.24 465.76 1815.45 465.76 1816.93 465.76 1818.44 465.437 1819.97 464.791 1821.5 464.145 1823.09 463.105 1824.74 461.669 1826.39 460.233 1828.02 458.487 1829.62 456.429 1831.23 454.372 1832.7 452.302 1834.04 450.22 1835.38 448.139 1836.62 445.675 1837.77 442.827 1838.92 439.98 1839.9 436.547 1840.71 432.527L1841.36 429.441C1842.08 425.996 1842.44 422.742 1842.44 419.679 1842.44 415.947 1841.65 413.231 1840.07 411.533 1838.49 409.834 1835.86 408.984 1832.17 408.984ZM1899.37 386.805 1909.28 386.805 1905.33 404.534 1927.15 404.534 1925.57 411.784 1903.75 411.784 1897.36 439.633C1896.12 445.041 1895.33 448.928 1894.99 451.297 1894.66 453.666 1894.49 455.568 1894.49 457.003 1894.49 462.937 1896.96 465.904 1901.88 465.904 1903.99 465.904 1906.23 465.102 1908.59 463.499 1910.96 461.896 1913.77 459.157 1917.03 455.281L1921.19 459.587C1917.03 464.612 1913.02 468.32 1909.17 470.713 1905.32 473.105 1901.29 474.302 1897.07 474.302 1887.07 474.302 1882.07 469.253 1882.07 459.157 1882.07 455.951 1882.48 452.577 1883.29 449.036L1891.76 411.784 1879.7 411.784 1880.78 406.831C1883.6 406.783 1885.75 406.568 1887.21 406.185 1888.66 405.802 1889.89 405.276 1890.87 404.606 1891.85 403.936 1892.74 402.979 1893.56 401.735 1894.37 400.491 1895.16 398.9 1895.93 396.962 1896.69 395.024 1897.84 391.638 1899.37 386.805ZM1862.25 370.512 1866.48 370.512 1848.61 449.969C1847.56 454.659 1847.03 458.2 1847.03 460.592 1847.03 462.506 1847.34 463.894 1847.96 464.755 1848.59 465.617 1849.57 466.047 1850.91 466.047 1852.34 466.047 1853.87 465.461 1855.5 464.289 1857.13 463.116 1859.42 460.879 1862.39 457.578L1866.48 461.597C1862.08 466.239 1858.37 469.517 1855.36 471.431 1852.34 473.345 1849.09 474.302 1845.59 474.302 1842.63 474.302 1840.26 473.321 1838.49 471.359 1836.72 469.397 1835.83 466.789 1835.83 463.535 1835.83 460.903 1836.38 458.104 1837.48 455.137L1836.55 454.85C1831.96 461.549 1827.6 466.454 1823.49 469.564 1819.37 472.675 1815.02 474.23 1810.42 474.23 1805.16 474.23 1801.08 472.244 1798.19 468.272 1795.29 464.301 1793.84 458.726 1793.84 451.548 1793.84 443.318 1795.46 435.41 1798.69 427.826 1801.92 420.241 1806.36 414.26 1812 409.882 1817.65 405.503 1823.94 403.314 1830.88 403.314 1833.8 403.314 1836.49 403.613 1838.96 404.211 1841.42 404.809 1843.94 405.85 1846.53 407.334L1850.26 390.753C1850.64 389.174 1850.98 387.427 1851.27 385.513 1851.55 383.599 1851.7 381.924 1851.7 380.489 1851.7 379.053 1851.43 377.965 1850.91 377.223 1850.38 376.481 1849.63 375.943 1848.65 375.608 1847.66 375.273 1845.91 375.034 1843.37 374.89L1844.23 371.158Z" fill-rule="evenodd"/><text fill="#000000" fill-opacity="0" font-family="Arial,Arial_MSFontService,sans-serif" font-size="103.79" x="1793.84" y="461.328">𝑑𝑡</text><path d="M1744.25 328.037 1801.75 328.037 1859.25 328.037 1916.75 328.037 1974.25 328.037 1974.25 338.037 1916.75 338.037 1859.25 338.037 1801.75 338.037 1744.25 338.037Z" fill-rule="evenodd"/></g></svg>