<svg width="2348" height="1333" xmlns="http://www.w3.org/2000/svg" xmlns:xlink="http://www.w3.org/1999/xlink" overflow="hidden"><defs><clipPath id="clip0"><rect x="225" y="470" width="2348" height="1333"/></clipPath></defs><g clip-path="url(#clip0)" transform="translate(-225 -470)"><path d="M1936.75 885C1911.76 885 1891.5 803.964 1891.5 703.999 1891.5 604.035 1911.76 522.999 1936.75 522.999 1961.74 522.999 1982 604.035 1982 703.999 1982 803.964 1961.74 885 1936.75 885L761.25 885C736.259 885 716 803.964 716 703.999 716 604.035 736.259 522.999 761.25 522.999L1936.75 523" stroke="#000000" stroke-width="13.75" stroke-miterlimit="8" fill="none" fill-rule="evenodd"/><path d="M882.5 885.5C865.379 885.5 851.5 804.463 851.5 704.5 851.5 604.536 865.379 523.5 882.5 523.5 899.621 523.5 913.5 604.536 913.5 704.5 913.5 804.463 899.621 885.5 882.5 885.5L820.5 885.5C803.379 885.5 789.5 804.463 789.5 704.5 789.5 604.536 803.379 523.5 820.5 523.5L882.5 523.5" stroke="#000000" stroke-width="4.58333" stroke-miterlimit="8" fill="none" fill-rule="evenodd"/><path d="M1078.5 880.5C1061.38 880.5 1047.5 799.463 1047.5 699.5 1047.5 599.536 1061.38 518.5 1078.5 518.5 1095.62 518.5 1109.5 599.536 1109.5 699.5 1109.5 799.463 1095.62 880.5 1078.5 880.5L1016.5 880.5C999.38 880.5 985.5 799.463 985.5 699.5 985.5 599.536 999.38 518.5 1016.5 518.5L1078.5 518.5" stroke="#000000" stroke-width="4.58333" stroke-miterlimit="8" fill="none" fill-rule="evenodd"/><path d="M1315.5 886.5C1298.38 886.5 1284.5 805.687 1284.5 706 1284.5 606.312 1298.38 525.5 1315.5 525.5 1332.62 525.5 1346.5 606.312 1346.5 706 1346.5 805.687 1332.62 886.5 1315.5 886.5L1253.5 886.5C1236.38 886.5 1222.5 805.687 1222.5 706 1222.5 606.312 1236.38 525.5 1253.5 525.5L1315.5 525.5" stroke="#000000" stroke-width="4.58333" stroke-miterlimit="8" fill="none" fill-rule="evenodd"/><path d="M1529.5 885.5C1512.38 885.5 1498.5 804.464 1498.5 704.5 1498.5 604.536 1512.38 523.5 1529.5 523.5 1546.62 523.5 1560.5 604.536 1560.5 704.5 1560.5 804.464 1546.62 885.5 1529.5 885.5L1467.5 885.5C1450.38 885.5 1436.5 804.464 1436.5 704.5 1436.5 604.536 1450.38 523.5 1467.5 523.5L1529.5 523.5" stroke="#000000" stroke-width="4.58333" stroke-miterlimit="8" fill="none" fill-rule="evenodd"/><path d="M796.147 963.891 775.684 1017.6 813.066 1017.6ZM794.268 952.021 802.217 952.021 824.883 1022.76 824.883 1026.2 766.177 1026.2 766.177 1022.76Z" fill-rule="evenodd"/><text fill="#000000" fill-opacity="0" font-family="Arial,Arial_MSFontService,sans-serif" font-size="74.1748" x="766.177" y="1016.92">Δ</text><path d="M834.443 952.88 856.68 952.88 856.089 955.512C854.513 955.691 853.287 956.156 852.41 956.908 851.532 957.66 850.915 958.708 850.557 960.05 850.199 961.393 850.02 963.192 850.02 965.448 850.02 965.985 850.073 967.597 850.181 970.282L851.685 1009.6 851.685 1013.9 852.222 1013.9 875.479 971.947C876.839 969.477 877.86 967.355 878.54 965.583 879.22 963.81 879.561 962.243 879.561 960.883 879.561 957.875 877.77 956.085 874.189 955.512L874.78 952.88 896.748 952.88 896.157 955.512C895.19 955.655 894.268 956.022 893.391 956.613 892.514 957.204 891.529 958.188 890.437 959.567 889.345 960.945 887.653 963.604 885.361 967.543L850.986 1027.05 843.843 1027.05 840.244 967.167C840.101 964.84 839.841 962.843 839.465 961.178 839.089 959.513 838.499 958.215 837.693 957.284 836.887 956.353 835.607 955.762 833.853 955.512Z" fill-rule="evenodd"/><text fill="#000000" fill-opacity="0" font-family="Arial,Arial_MSFontService,sans-serif" font-size="74.1748" x="833.853" y="1017.78">𝑉</text><path d="M920.526 1003.97 922.487 1003.97C922.344 1006.25 922.273 1009.41 922.273 1013.45L922.273 1043.89C922.273 1045.27 922.35 1046.31 922.505 1047.01 922.659 1047.71 922.932 1048.28 923.324 1048.72 923.717 1049.16 924.281 1049.5 925.018 1049.75 925.754 1050 926.681 1050.19 927.798 1050.32 928.915 1050.45 930.388 1050.54 932.218 1050.59L932.218 1053.19 905.876 1053.19 905.876 1050.59C908.514 1050.47 910.397 1050.31 911.526 1050.11 912.655 1049.91 913.516 1049.6 914.11 1049.2 914.704 1048.8 915.138 1048.22 915.411 1047.49 915.685 1046.75 915.821 1045.55 915.821 1043.89L915.821 1014.98C915.821 1014.03 915.655 1013.33 915.322 1012.9 914.99 1012.46 914.502 1012.24 913.861 1012.24 913.1 1012.24 912.019 1012.63 910.617 1013.41 909.215 1014.2 907.48 1015.28 905.413 1016.66L903.845 1013.91Z" fill-rule="evenodd"/><text fill="#000000" fill-opacity="0" font-family="Arial,Arial_MSFontService,sans-serif" font-size="49.2251" x="903.845" y="1047.04">1</text><path d="M1006.28 963.891 985.813 1017.6 1023.2 1017.6ZM1004.4 952.021 1012.35 952.021 1035.01 1022.76 1035.01 1026.2 976.306 1026.2 976.306 1022.76Z" fill-rule="evenodd"/><text fill="#000000" fill-opacity="0" font-family="Arial,Arial_MSFontService,sans-serif" font-size="74.1748" x="976.306" y="1016.92">Δ</text><path d="M1044.57 952.88 1066.81 952.88 1066.22 955.512C1064.64 955.691 1063.42 956.156 1062.54 956.908 1061.66 957.66 1061.04 958.708 1060.69 960.05 1060.33 961.393 1060.15 963.192 1060.15 965.448 1060.15 965.985 1060.2 967.597 1060.31 970.282L1061.81 1009.6 1061.81 1013.9 1062.35 1013.9 1085.61 971.947C1086.97 969.477 1087.99 967.355 1088.67 965.583 1089.35 963.81 1089.69 962.243 1089.69 960.883 1089.69 957.875 1087.9 956.085 1084.32 955.512L1084.91 952.88 1106.88 952.88 1106.29 955.512C1105.32 955.655 1104.4 956.022 1103.52 956.613 1102.64 957.204 1101.66 958.188 1100.57 959.567 1099.47 960.945 1097.78 963.604 1095.49 967.543L1061.12 1027.05 1053.97 1027.05 1050.37 967.167C1050.23 964.84 1049.97 962.843 1049.59 961.178 1049.22 959.513 1048.63 958.215 1047.82 957.284 1047.02 956.353 1045.74 955.762 1043.98 955.512Z" fill-rule="evenodd"/><text fill="#000000" fill-opacity="0" font-family="Arial,Arial_MSFontService,sans-serif" font-size="74.1748" x="1043.98" y="1017.78">𝑉</text><path d="M1128.12 1003.97C1132.54 1003.97 1135.88 1004.93 1138.14 1006.87 1140.4 1008.81 1141.53 1011.62 1141.53 1015.3 1141.53 1016.56 1141.4 1017.72 1141.15 1018.78 1140.9 1019.83 1140.51 1020.88 1139.98 1021.91 1139.44 1022.95 1138.72 1024.06 1137.82 1025.25 1136.92 1026.43 1135.92 1027.64 1134.83 1028.86 1133.73 1030.09 1131.84 1032.13 1129.16 1034.98 1124.64 1039.75 1121.33 1043.92 1119.21 1047.49L1132.65 1047.49C1133.82 1047.49 1134.75 1047.42 1135.47 1047.27 1136.18 1047.13 1136.75 1046.89 1137.18 1046.56 1137.61 1046.23 1137.94 1045.79 1138.19 1045.26 1138.44 1044.73 1138.76 1043.9 1139.14 1042.78L1142.17 1042.78 1141.56 1053.19 1112.23 1053.19 1112.23 1051.48C1113.25 1048.99 1114.63 1046.43 1116.36 1043.82 1118.1 1041.2 1120.56 1038.13 1123.74 1034.58 1126.5 1031.54 1128.48 1029.24 1129.69 1027.67 1131.02 1025.96 1132.02 1024.48 1132.67 1023.23 1133.32 1021.98 1133.79 1020.81 1134.08 1019.7 1134.36 1018.6 1134.51 1017.49 1134.51 1016.37 1134.51 1014.59 1134.22 1013.01 1133.65 1011.65 1133.08 1010.28 1132.21 1009.21 1131.03 1008.42 1129.85 1007.64 1128.37 1007.25 1126.59 1007.25 1122.15 1007.25 1119.15 1009.72 1117.61 1014.66L1113.3 1014.66 1113.3 1007.82C1116.17 1006.46 1118.86 1005.48 1121.37 1004.88 1123.88 1004.27 1126.13 1003.97 1128.12 1003.97Z" fill-rule="evenodd"/><text fill="#000000" fill-opacity="0" font-family="Arial,Arial_MSFontService,sans-serif" font-size="49.2251" x="1112.23" y="1047.04">2</text><path d="M1231.31 963.891 1210.85 1017.6 1248.23 1017.6ZM1229.43 952.021 1237.38 952.021 1260.05 1022.76 1260.05 1026.2 1201.34 1026.2 1201.34 1022.76Z" fill-rule="evenodd"/><text fill="#000000" fill-opacity="0" font-family="Arial,Arial_MSFontService,sans-serif" font-size="74.1748" x="1201.34" y="1016.92">Δ</text><path d="M1269.61 952.88 1291.84 952.88 1291.25 955.512C1289.68 955.691 1288.45 956.156 1287.57 956.908 1286.7 957.66 1286.08 958.708 1285.72 960.05 1285.36 961.393 1285.18 963.192 1285.18 965.448 1285.18 965.985 1285.24 967.597 1285.34 970.282L1286.85 1009.6 1286.85 1013.9 1287.39 1013.9 1310.64 971.947C1312 969.477 1313.02 967.355 1313.7 965.583 1314.38 963.81 1314.72 962.243 1314.72 960.883 1314.72 957.875 1312.93 956.085 1309.35 955.512L1309.94 952.88 1331.91 952.88 1331.32 955.512C1330.35 955.655 1329.43 956.022 1328.55 956.613 1327.68 957.204 1326.69 958.188 1325.6 959.567 1324.51 960.945 1322.82 963.604 1320.53 967.543L1286.15 1027.05 1279.01 1027.05 1275.41 967.167C1275.26 964.84 1275.01 962.843 1274.63 961.178 1274.25 959.513 1273.66 958.215 1272.86 957.284 1272.05 956.353 1270.77 955.762 1269.02 955.512Z" fill-rule="evenodd"/><text fill="#000000" fill-opacity="0" font-family="Arial,Arial_MSFontService,sans-serif" font-size="74.1748" x="1269.02" y="1017.78">𝑉</text><path d="M1353.02 1003.97C1355.7 1003.97 1358.05 1004.38 1360.07 1005.21 1362.09 1006.05 1363.64 1007.24 1364.71 1008.8 1365.78 1010.35 1366.31 1012.21 1366.31 1014.37 1366.31 1016.39 1365.91 1018.17 1365.1 1019.7 1364.29 1021.24 1363.16 1022.57 1361.7 1023.71 1360.23 1024.85 1358.34 1025.97 1356.01 1027.06L1356.01 1027.38C1357.46 1027.65 1358.86 1028.09 1360.2 1028.72 1361.54 1029.35 1362.74 1030.16 1363.78 1031.16 1364.83 1032.16 1365.66 1033.35 1366.29 1034.75 1366.92 1036.14 1367.24 1037.72 1367.24 1039.5 1367.24 1042.26 1366.64 1044.71 1365.44 1046.85 1364.24 1048.99 1362.4 1050.67 1359.93 1051.91 1357.46 1053.14 1354.45 1053.76 1350.91 1053.76 1348.87 1053.76 1346.67 1053.53 1344.3 1053.07 1341.94 1052.6 1339.77 1051.99 1337.8 1051.23L1337.8 1043.67 1342.07 1043.67C1342.91 1046.15 1344 1047.94 1345.37 1049.06 1346.74 1050.17 1348.6 1050.73 1350.95 1050.73 1354.04 1050.73 1356.37 1049.89 1357.95 1048.2 1359.53 1046.51 1360.32 1044.02 1360.32 1040.72 1360.32 1037.25 1359.28 1034.6 1357.19 1032.77 1355.1 1030.94 1352.03 1030.02 1347.99 1030.02L1344.78 1030.02 1344.78 1026.89C1347.99 1026.7 1350.69 1026.08 1352.89 1025.03 1355.09 1023.99 1356.72 1022.64 1357.79 1021 1358.86 1019.36 1359.4 1017.52 1359.4 1015.48 1359.4 1012.84 1358.7 1010.81 1357.29 1009.38 1355.89 1007.96 1353.85 1007.25 1351.16 1007.25 1348.93 1007.25 1347.11 1007.85 1345.71 1009.06 1344.31 1010.28 1343.27 1012.13 1342.61 1014.62L1338.33 1014.62 1338.33 1007.85C1341.09 1006.54 1343.67 1005.57 1346.07 1004.93 1348.47 1004.29 1350.78 1003.97 1353.02 1003.97Z" fill-rule="evenodd"/><text fill="#000000" fill-opacity="0" font-family="Arial,Arial_MSFontService,sans-serif" font-size="49.7954" x="1337.8" y="1047.54">3</text><path d="M1469.94 967.209 1449.47 1020.92 1486.86 1020.92ZM1468.06 955.339 1476.01 955.339 1498.67 1026.08 1498.67 1029.51 1439.97 1029.51 1439.97 1026.08Z" fill-rule="evenodd"/><text fill="#000000" fill-opacity="0" font-family="Arial,Arial_MSFontService,sans-serif" font-size="74.1748" x="1439.97" y="1020.24">Δ</text><path d="M1508.23 956.198 1530.47 956.198 1529.88 958.83C1528.3 959.009 1527.08 959.474 1526.2 960.226 1525.32 960.978 1524.7 962.026 1524.35 963.368 1523.99 964.711 1523.81 966.51 1523.81 968.766 1523.81 969.303 1523.86 970.915 1523.97 973.6L1525.47 1012.92 1525.47 1017.21 1526.01 1017.21 1549.27 975.265C1550.63 972.795 1551.65 970.673 1552.33 968.901 1553.01 967.128 1553.35 965.561 1553.35 964.201 1553.35 961.193 1551.56 959.403 1547.98 958.83L1548.57 956.198 1570.54 956.198 1569.95 958.83C1568.98 958.973 1568.06 959.34 1567.18 959.931 1566.3 960.522 1565.32 961.506 1564.23 962.885 1563.13 964.263 1561.44 966.922 1559.15 970.861L1524.78 1030.37 1517.63 1030.37 1514.03 970.485C1513.89 968.158 1513.63 966.161 1513.25 964.496 1512.88 962.831 1512.29 961.533 1511.48 960.602 1510.68 959.671 1509.4 959.08 1507.64 958.83Z" fill-rule="evenodd"/><text fill="#000000" fill-opacity="0" font-family="Arial,Arial_MSFontService,sans-serif" font-size="74.1748" x="1507.64" y="1021.1">𝑉</text><path d="M1589.86 1005.54 1591.93 1005.54 1584.94 1036.66 1586.08 1036.66C1587.86 1036.66 1589.87 1035.88 1592.09 1034.32 1594.31 1032.76 1596.09 1031.32 1597.42 1029.99 1598.75 1028.66 1599.41 1027.38 1599.41 1026.14 1599.41 1024.98 1598.6 1024.32 1596.99 1024.18L1597.38 1022.43 1608.93 1022.43 1609.61 1024.18C1607.63 1025.96 1605.54 1027.71 1603.33 1029.42L1594.49 1036.26 1597.99 1049.13C1598.27 1050.22 1598.53 1051.01 1598.75 1051.5 1598.98 1051.99 1599.24 1052.35 1599.54 1052.59 1599.83 1052.83 1600.23 1052.94 1600.73 1052.94 1601.35 1052.94 1602.09 1052.61 1602.94 1051.95 1603.8 1051.28 1604.77 1050.32 1605.86 1049.06L1607.9 1051.06C1605.76 1053.31 1603.99 1054.88 1602.58 1055.76 1601.18 1056.64 1599.83 1057.08 1598.52 1057.08 1596.91 1057.08 1595.62 1056.62 1594.67 1055.71 1593.72 1054.79 1592.97 1053.27 1592.43 1051.13L1590.07 1041.86C1589.84 1040.93 1589.6 1040.29 1589.36 1039.93 1589.12 1039.58 1588.85 1039.34 1588.54 1039.22 1588.23 1039.1 1587.69 1039.04 1586.9 1039.04L1584.44 1039.04 1580.73 1056.51 1574.57 1056.51 1583.73 1015.77C1584.04 1014.39 1584.26 1013.31 1584.39 1012.54 1584.52 1011.77 1584.58 1011.09 1584.58 1010.49 1584.58 1009.49 1584.28 1008.79 1583.68 1008.39 1583.07 1007.99 1581.98 1007.76 1580.41 1007.71L1580.84 1005.86Z" fill-rule="evenodd"/><text fill="#000000" fill-opacity="0" font-family="Arial,Arial_MSFontService,sans-serif" font-size="51.542" x="1574.57" y="1050.64">𝑘</text><path d="M0 0 433.323 519.521" stroke="#000000" stroke-width="4.58333" stroke-miterlimit="8" stroke-dasharray="13.75 4.58333" fill="none" fill-rule="evenodd" transform="matrix(-1 0 0 1 1222.82 885.5)"/><path d="M1346.5 885.5 1664.45 1405.02" stroke="#000000" stroke-width="4.58333" stroke-miterlimit="8" stroke-dasharray="13.75 4.58333" fill="none" fill-rule="evenodd"/><path d="M1648.25 1761.5C1598.41 1761.5 1558 1680.69 1558 1581 1558 1481.31 1598.41 1400.5 1648.25 1400.5 1698.09 1400.5 1738.5 1481.31 1738.5 1581 1738.5 1680.69 1698.09 1761.5 1648.25 1761.5L806.75 1761.5C756.906 1761.5 716.5 1680.69 716.5 1581 716.5 1481.31 756.906 1400.5 806.75 1400.5L1648.25 1400.5" stroke="#000000" stroke-width="4.58333" stroke-miterlimit="8" fill="none" fill-rule="evenodd"/><path d="M1153.16 1544.15 1132.69 1597.86 1170.08 1597.86ZM1151.28 1532.28 1159.23 1532.28 1181.89 1603.01 1181.89 1606.45 1123.19 1606.45 1123.19 1603.01Z" fill-rule="evenodd"/><text fill="#000000" fill-opacity="0" font-family="Arial,Arial_MSFontService,sans-serif" font-size="74.1748" x="1123.19" y="1597.18">Δ</text><path d="M1191.45 1533.13 1213.69 1533.13 1213.1 1535.77C1211.52 1535.95 1210.3 1536.41 1209.42 1537.16 1208.54 1537.91 1207.92 1538.96 1207.57 1540.3 1207.21 1541.65 1207.03 1543.45 1207.03 1545.7 1207.03 1546.24 1207.08 1547.85 1207.19 1550.54L1208.69 1589.85 1208.69 1594.15 1209.23 1594.15 1232.49 1552.2C1233.85 1549.73 1234.87 1547.61 1235.55 1545.84 1236.23 1544.06 1236.57 1542.5 1236.57 1541.14 1236.57 1538.13 1234.78 1536.34 1231.2 1535.77L1231.79 1533.13 1253.76 1533.13 1253.17 1535.77C1252.2 1535.91 1251.28 1536.28 1250.4 1536.87 1249.52 1537.46 1248.54 1538.44 1247.45 1539.82 1246.35 1541.2 1244.66 1543.86 1242.37 1547.8L1208 1607.31 1200.85 1607.31 1197.25 1547.42C1197.11 1545.09 1196.85 1543.1 1196.48 1541.43 1196.1 1539.77 1195.51 1538.47 1194.7 1537.54 1193.9 1536.61 1192.62 1536.02 1190.86 1535.77Z" fill-rule="evenodd"/><text fill="#000000" fill-opacity="0" font-family="Arial,Arial_MSFontService,sans-serif" font-size="74.1748" x="1190.86" y="1598.04">𝑉</text><path d="M249.5 694.917 675.441 694.917 675.441 704.084 249.5 704.083ZM670.857 676.584 716.691 699.5 670.857 722.417Z"/><path d="M3.04324e-06-4.58333 502.279-4.583 502.279 4.58367-3.04324e-06 4.58333ZM497.695-22.9163 543.529 0.000360892 497.695 22.917Z" transform="matrix(1 0 0 -1 1982.5 704.5)"/><path d="M366.552 511.252 431.295 511.252 426.342 533.287 419.452 533.287C419.26 529.603 418.961 526.696 418.554 524.566 418.148 522.437 417.573 520.906 416.832 519.973 416.09 519.039 415.193 518.405 414.14 518.07 413.087 517.735 411.508 517.568 409.403 517.568L387.295 517.568 378.754 556.615 392.176 556.615C394.282 556.615 396.028 556.328 397.416 555.754 398.804 555.179 400.096 554.139 401.292 552.631 402.488 551.124 403.972 548.552 405.742 544.915L412.274 544.915 405.311 575.205 398.995 575.205C398.995 570.372 398.84 567.346 398.528 566.125 398.217 564.905 397.619 564.068 396.734 563.613 395.849 563.159 394.09 562.931 391.458 562.931L377.39 562.931 371.72 588.34C370.715 592.839 370.212 596.571 370.212 599.538 370.212 601.021 370.452 602.182 370.93 603.019 371.409 603.856 372.126 604.466 373.083 604.849 374.04 605.232 375.691 605.519 378.036 605.711L377.246 609.228 347.746 609.228 348.536 605.711C350.354 605.423 351.718 604.957 352.627 604.311 353.536 603.665 354.302 602.768 354.924 601.619 355.546 600.471 356.12 599.071 356.646 597.42 357.173 595.769 357.962 592.575 359.015 587.838L371.217 532.569C372.27 527.784 372.796 524.004 372.796 521.229 372.796 518.884 372.246 517.257 371.145 516.348 370.045 515.439 368.25 514.912 365.762 514.769Z" fill-rule="evenodd"/><text fill="#000000" fill-opacity="0" font-family="Arial,Arial_MSFontService,sans-serif" font-size="97.9761" x="347.746" y="596.981">𝐹</text><path d="M457.721 599.053 460.449 599.053 450.496 646.043C449.475 650.892 448.087 654.792 446.332 657.743 444.578 660.694 442.297 662.911 439.49 664.394 436.682 665.878 433.333 666.619 429.441 666.619 427.846 666.619 426.49 666.46 425.373 666.141L426.474 661.93C427.144 662.185 428.356 662.313 430.111 662.313 431.642 662.313 432.942 662.081 434.011 661.619 435.079 661.156 436.076 660.391 437.001 659.322 437.927 658.253 438.78 656.762 439.561 654.848 440.343 652.934 441.069 650.461 441.739 647.431L449.491 612.978C450.224 609.724 450.591 607.331 450.591 605.8 450.591 604.365 450.248 603.392 449.562 602.881 448.877 602.371 447.529 602.084 445.519 602.02L446.045 599.484ZM456.429 580.726 464.899 580.726 462.698 590.009 454.228 590.009Z" fill-rule="evenodd"/><text fill="#000000" fill-opacity="0" font-family="Arial,Arial_MSFontService,sans-serif" font-size="85.8936" x="425.373" y="655.883">𝑗</text><text font-family="Arial,Arial_MSFontService,sans-serif" font-weight="400" font-size="98" transform="matrix(1 0 0 1 470.476 645)">,f</text><path d="M2178.57 511.252 2243.31 511.252 2238.36 533.287 2231.47 533.287C2231.28 529.603 2230.98 526.696 2230.57 524.566 2230.16 522.437 2229.59 520.906 2228.85 519.973 2228.11 519.039 2227.21 518.405 2226.16 518.07 2225.1 517.735 2223.52 517.568 2221.42 517.568L2199.31 517.568 2190.77 556.615 2204.19 556.615C2206.3 556.615 2208.04 556.328 2209.43 555.754 2210.82 555.179 2212.11 554.139 2213.31 552.631 2214.5 551.124 2215.99 548.552 2217.76 544.915L2224.29 544.915 2217.33 575.205 2211.01 575.205C2211.01 570.372 2210.86 567.346 2210.54 566.125 2210.23 564.905 2209.64 564.068 2208.75 563.613 2207.86 563.159 2206.11 562.931 2203.47 562.931L2189.41 562.931 2183.74 588.34C2182.73 592.839 2182.23 596.571 2182.23 599.538 2182.23 601.021 2182.47 602.182 2182.95 603.019 2183.42 603.856 2184.14 604.466 2185.1 604.849 2186.06 605.232 2187.71 605.519 2190.05 605.711L2189.26 609.228 2159.76 609.228 2160.55 605.711C2162.37 605.423 2163.73 604.957 2164.64 604.311 2165.55 603.665 2166.32 602.768 2166.94 601.619 2167.56 600.471 2168.14 599.071 2168.66 597.42 2169.19 595.769 2169.98 592.575 2171.03 587.838L2183.23 532.569C2184.29 527.784 2184.81 524.004 2184.81 521.229 2184.81 518.884 2184.26 517.257 2183.16 516.348 2182.06 515.439 2180.27 514.912 2177.78 514.769Z" fill-rule="evenodd"/><text fill="#000000" fill-opacity="0" font-family="Arial,Arial_MSFontService,sans-serif" font-size="97.9761" x="2159.76" y="596.981">𝐹</text><path d="M2269.74 599.053 2272.46 599.053 2262.51 646.043C2261.49 650.892 2260.1 654.792 2258.35 657.743 2256.59 660.694 2254.31 662.911 2251.51 664.394 2248.7 665.878 2245.35 666.619 2241.46 666.619 2239.86 666.619 2238.51 666.46 2237.39 666.141L2238.49 661.93C2239.16 662.185 2240.37 662.313 2242.13 662.313 2243.66 662.313 2244.96 662.081 2246.03 661.619 2247.09 661.156 2248.09 660.391 2249.02 659.322 2249.94 658.253 2250.8 656.762 2251.58 654.848 2252.36 652.934 2253.08 650.461 2253.75 647.431L2261.51 612.978C2262.24 609.724 2262.61 607.331 2262.61 605.8 2262.61 604.365 2262.26 603.392 2261.58 602.881 2260.89 602.371 2259.54 602.084 2257.53 602.02L2258.06 599.484ZM2268.44 580.726 2276.91 580.726 2274.71 590.009 2266.24 590.009Z" fill-rule="evenodd"/><text fill="#000000" fill-opacity="0" font-family="Arial,Arial_MSFontService,sans-serif" font-size="85.8936" x="2237.39" y="655.883">𝑗</text><path d="M225.5 1578.06 651.441 1578.06 651.441 1584.94 225.5 1584.94ZM646.857 1558.58 692.691 1581.5 646.857 1604.42Z"/><path d="M1738.5 1564.06 2164.44 1564.06 2164.44 1570.94 1738.5 1570.94ZM2159.86 1544.58 2205.69 1567.5 2159.86 1590.42Z"/><path d="M378.72 1630.09 443.464 1630.09 438.511 1652.13 431.62 1652.13C431.429 1648.44 431.13 1645.53 430.723 1643.4 430.316 1641.28 429.742 1639.74 429 1638.81 428.259 1637.88 427.362 1637.24 426.309 1636.91 425.256 1636.57 423.677 1636.41 421.572 1636.41L399.464 1636.41 390.923 1675.45 404.345 1675.45C406.45 1675.45 408.197 1675.17 409.585 1674.59 410.972 1674.02 412.264 1672.98 413.461 1671.47 414.657 1669.96 416.14 1667.39 417.911 1663.75L424.443 1663.75 417.48 1694.04 411.164 1694.04C411.164 1689.21 411.008 1686.18 410.697 1684.96 410.386 1683.74 409.788 1682.91 408.903 1682.45 408.018 1682 406.259 1681.77 403.627 1681.77L389.559 1681.77 383.888 1707.18C382.884 1711.68 382.381 1715.41 382.381 1718.38 382.381 1719.86 382.62 1721.02 383.099 1721.86 383.577 1722.69 384.295 1723.3 385.252 1723.69 386.209 1724.07 387.86 1724.36 390.205 1724.55L389.415 1728.07 359.915 1728.07 360.704 1724.55C362.523 1724.26 363.886 1723.8 364.796 1723.15 365.705 1722.5 366.47 1721.61 367.092 1720.46 367.715 1719.31 368.289 1717.91 368.815 1716.26 369.342 1714.61 370.131 1711.41 371.184 1706.68L383.386 1651.41C384.439 1646.62 384.965 1642.84 384.965 1640.07 384.965 1637.72 384.415 1636.1 383.314 1635.19 382.214 1634.28 380.419 1633.75 377.931 1633.61Z" fill-rule="evenodd"/><text fill="#000000" fill-opacity="0" font-family="Arial,Arial_MSFontService,sans-serif" font-size="97.9761" x="359.915" y="1715.82">𝐹</text><path d="M469.89 1717.89 472.617 1717.89 462.664 1764.88C461.643 1769.73 460.256 1773.63 458.501 1776.58 456.747 1779.53 454.466 1781.75 451.658 1783.23 448.851 1784.72 445.502 1785.46 441.61 1785.46 440.015 1785.46 438.659 1785.3 437.542 1784.98L438.643 1780.77C439.313 1781.02 440.525 1781.15 442.28 1781.15 443.811 1781.15 445.111 1780.92 446.179 1780.46 447.248 1779.99 448.245 1779.23 449.17 1778.16 450.095 1777.09 450.949 1775.6 451.73 1773.69 452.512 1771.77 453.238 1769.3 453.907 1766.27L461.659 1731.82C462.393 1728.56 462.76 1726.17 462.76 1724.64 462.76 1723.2 462.417 1722.23 461.731 1721.72 461.045 1721.21 459.697 1720.92 457.688 1720.86L458.214 1718.32ZM468.598 1699.56 477.068 1699.56 474.866 1708.85 466.397 1708.85Z" fill-rule="evenodd"/><text fill="#000000" fill-opacity="0" font-family="Arial,Arial_MSFontService,sans-serif" font-size="85.8936" x="437.542" y="1774.72">𝑗</text><path d="M500.373 1619.3 511.427 1619.3 511.427 1752.88 500.373 1752.88Z" fill-rule="evenodd"/><text fill="#000000" fill-opacity="0" font-family="Arial,Arial_MSFontService,sans-serif" font-size="133.578" x="500.373" y="1736.18">ȁ</text><path d="M534.123 1698.75 553.933 1698.75 553.407 1701.1C552.003 1701.25 550.911 1701.67 550.129 1702.34 549.348 1703.01 548.797 1703.94 548.478 1705.14 548.159 1706.33 548 1707.94 548 1709.95 548 1710.43 548.048 1711.86 548.143 1714.25L549.483 1749.28 549.483 1753.11 549.962 1753.11 570.681 1715.74C571.894 1713.54 572.803 1711.65 573.409 1710.07 574.015 1708.49 574.318 1707.09 574.318 1705.88 574.318 1703.2 572.723 1701.61 569.533 1701.1L570.059 1698.75 589.631 1698.75 589.104 1701.1C588.243 1701.22 587.421 1701.55 586.64 1702.08 585.858 1702.6 584.981 1703.48 584.008 1704.71 583.035 1705.94 581.528 1708.3 579.486 1711.81L548.861 1764.83 542.497 1764.83 539.291 1711.48C539.163 1709.41 538.932 1707.63 538.597 1706.14 538.262 1704.66 537.736 1703.5 537.018 1702.67 536.3 1701.84 535.16 1701.32 533.596 1701.1Z" fill-rule="evenodd"/><text fill="#000000" fill-opacity="0" font-family="Arial,Arial_MSFontService,sans-serif" font-size="66.083" x="533.596" y="1756.57">𝑉</text><path d="M1825.82 1630.09 1890.56 1630.09 1885.61 1652.13 1878.72 1652.13C1878.53 1648.44 1878.23 1645.53 1877.82 1643.4 1877.41 1641.28 1876.84 1639.74 1876.1 1638.81 1875.36 1637.88 1874.46 1637.24 1873.41 1636.91 1872.35 1636.57 1870.77 1636.41 1868.67 1636.41L1846.56 1636.41 1838.02 1675.45 1851.44 1675.45C1853.55 1675.45 1855.29 1675.17 1856.68 1674.59 1858.07 1674.02 1859.36 1672.98 1860.56 1671.47 1861.75 1669.96 1863.24 1667.39 1865.01 1663.75L1871.54 1663.75 1864.58 1694.04 1858.26 1694.04C1858.26 1689.21 1858.11 1686.18 1857.79 1684.96 1857.48 1683.74 1856.88 1682.91 1856 1682.45 1855.11 1682 1853.36 1681.77 1850.72 1681.77L1836.66 1681.77 1830.99 1707.18C1829.98 1711.68 1829.48 1715.41 1829.48 1718.38 1829.48 1719.86 1829.72 1721.02 1830.2 1721.86 1830.67 1722.69 1831.39 1723.3 1832.35 1723.69 1833.31 1724.07 1834.96 1724.36 1837.3 1724.55L1836.51 1728.07 1807.01 1728.07 1807.8 1724.55C1809.62 1724.26 1810.98 1723.8 1811.89 1723.15 1812.8 1722.5 1813.57 1721.61 1814.19 1720.46 1814.81 1719.31 1815.39 1717.91 1815.91 1716.26 1816.44 1714.61 1817.23 1711.41 1818.28 1706.68L1830.48 1651.41C1831.54 1646.62 1832.06 1642.84 1832.06 1640.07 1832.06 1637.72 1831.51 1636.1 1830.41 1635.19 1829.31 1634.28 1827.52 1633.75 1825.03 1633.61Z" fill-rule="evenodd"/><text fill="#000000" fill-opacity="0" font-family="Arial,Arial_MSFontService,sans-serif" font-size="97.9761" x="1807.01" y="1715.82">𝐹</text><path d="M1916.99 1717.89 1919.71 1717.89 1909.76 1764.88C1908.74 1769.73 1907.35 1773.63 1905.6 1776.58 1903.84 1779.53 1901.56 1781.75 1898.76 1783.23 1895.95 1784.72 1892.6 1785.46 1888.71 1785.46 1887.11 1785.46 1885.76 1785.3 1884.64 1784.98L1885.74 1780.77C1886.41 1781.02 1887.62 1781.15 1889.38 1781.15 1890.91 1781.15 1892.21 1780.92 1893.28 1780.46 1894.34 1779.99 1895.34 1779.23 1896.27 1778.16 1897.19 1777.09 1898.05 1775.6 1898.83 1773.69 1899.61 1771.77 1900.33 1769.3 1901 1766.27L1908.76 1731.82C1909.49 1728.56 1909.86 1726.17 1909.86 1724.64 1909.86 1723.2 1909.51 1722.23 1908.83 1721.72 1908.14 1721.21 1906.79 1720.92 1904.78 1720.86L1905.31 1718.32ZM1915.69 1699.56 1924.16 1699.56 1921.96 1708.85 1913.49 1708.85Z" fill-rule="evenodd"/><text fill="#000000" fill-opacity="0" font-family="Arial,Arial_MSFontService,sans-serif" font-size="85.8936" x="1884.64" y="1774.72">𝑗</text><path d="M1947.47 1619.3 1958.52 1619.3 1958.52 1752.88 1947.47 1752.88Z" fill-rule="evenodd"/><text fill="#000000" fill-opacity="0" font-family="Arial,Arial_MSFontService,sans-serif" font-size="133.578" x="1947.47" y="1736.18">ȁ</text><path d="M1981.22 1698.75 2001.03 1698.75 2000.5 1701.1C1999.1 1701.25 1998.01 1701.67 1997.23 1702.34 1996.44 1703.01 1995.89 1703.94 1995.58 1705.14 1995.26 1706.33 1995.1 1707.94 1995.1 1709.95 1995.1 1710.43 1995.14 1711.86 1995.24 1714.25L1996.58 1749.28 1996.58 1753.11 1997.06 1753.11 2017.78 1715.74C2018.99 1713.54 2019.9 1711.65 2020.51 1710.07 2021.11 1708.49 2021.41 1707.09 2021.41 1705.88 2021.41 1703.2 2019.82 1701.61 2016.63 1701.1L2017.16 1698.75 2036.73 1698.75 2036.2 1701.1C2035.34 1701.22 2034.52 1701.55 2033.74 1702.08 2032.96 1702.6 2032.08 1703.48 2031.1 1704.71 2030.13 1705.94 2028.62 1708.3 2026.58 1711.81L1995.96 1764.83 1989.59 1764.83 1986.39 1711.48C1986.26 1709.41 1986.03 1707.63 1985.69 1706.14 1985.36 1704.66 1984.83 1703.5 1984.11 1702.67 1983.4 1701.84 1982.26 1701.32 1980.69 1701.1Z" fill-rule="evenodd"/><text fill="#000000" fill-opacity="0" font-family="Arial,Arial_MSFontService,sans-serif" font-size="66.083" x="1980.69" y="1756.57">𝑉</text><path d="M2107.9 1741.31 2114.69 1741.31 2114.69 1768.87 2140.77 1768.87 2140.77 1775.23 2114.69 1775.23 2114.69 1802.8 2107.9 1802.8 2107.9 1775.23 2081.82 1775.23 2081.82 1768.87 2107.9 1768.87Z" fill-rule="evenodd"/><text fill="#000000" fill-opacity="0" font-family="Arial,Arial_MSFontService,sans-serif" font-size="61.4893" x="2081.82" y="1795.11">+</text><path d="M2209.75 1708.56 2191.52 1756.41 2224.82 1756.41ZM2208.08 1697.98 2215.16 1697.98 2235.35 1761.01 2235.35 1764.07 2183.05 1764.07 2183.05 1761.01Z" fill-rule="evenodd"/><text fill="#000000" fill-opacity="0" font-family="Arial,Arial_MSFontService,sans-serif" font-size="66.083" x="2183.05" y="1755.81">Δ</text><path d="M2244.12 1698.75 2263.93 1698.75 2263.4 1701.1C2262 1701.25 2260.91 1701.67 2260.13 1702.34 2259.34 1703.01 2258.79 1703.94 2258.48 1705.14 2258.16 1706.33 2258 1707.94 2258 1709.95 2258 1710.43 2258.04 1711.86 2258.14 1714.25L2259.48 1749.28 2259.48 1753.11 2259.96 1753.11 2280.68 1715.74C2281.89 1713.54 2282.8 1711.65 2283.41 1710.07 2284.01 1708.49 2284.31 1707.09 2284.31 1705.88 2284.31 1703.2 2282.72 1701.61 2279.53 1701.1L2280.06 1698.75 2299.63 1698.75 2299.1 1701.1C2298.24 1701.22 2297.42 1701.55 2296.64 1702.08 2295.86 1702.6 2294.98 1703.48 2294 1704.71 2293.03 1705.94 2291.52 1708.3 2289.48 1711.81L2258.86 1764.83 2252.49 1764.83 2249.29 1711.48C2249.16 1709.41 2248.93 1707.63 2248.59 1706.14 2248.26 1704.66 2247.73 1703.5 2247.01 1702.67 2246.3 1701.84 2245.16 1701.32 2243.59 1701.1Z" fill-rule="evenodd"/><text fill="#000000" fill-opacity="0" font-family="Arial,Arial_MSFontService,sans-serif" font-size="66.083" x="2243.59" y="1756.57">𝑉</text></g></svg>