<svg width="2935" height="595" xmlns="http://www.w3.org/2000/svg" xmlns:xlink="http://www.w3.org/1999/xlink" overflow="hidden"><defs><clipPath id="clip0"><rect x="416" y="480" width="2935" height="595"/></clipPath></defs><g clip-path="url(#clip0)" transform="translate(-416 -480)"><path d="M1643.75 850C1618.76 850 1598.5 768.964 1598.5 669 1598.5 569.036 1618.76 487.999 1643.75 487.999 1668.74 487.999 1689 569.036 1689 669 1689 768.964 1668.74 850 1643.75 850L468.25 850C443.259 850 423 768.964 423 669 423 569.036 443.259 487.999 468.25 487.999L1643.75 488" stroke="#000000" stroke-width="13.75" stroke-miterlimit="8" fill="none" fill-rule="evenodd"/><path d="M579.5 669.5C579.5 569.536 703.741 488.5 857 488.5 1010.26 488.5 1134.5 569.536 1134.5 669.5 1134.5 769.464 1010.26 850.5 857 850.5 703.741 850.5 579.5 769.464 579.5 669.5Z" stroke="#00B050" stroke-width="11.4583" stroke-miterlimit="8" fill="none" fill-rule="evenodd"/><path d="M842.25 492.5C817.811 492.5 797.999 571.746 797.999 669.5 797.999 767.255 817.811 846.5 842.25 846.5L469.75 846.5C445.311 846.5 425.499 767.255 425.499 669.5 425.499 571.746 445.311 492.5 469.75 492.5Z" fill="#FFFFFF" fill-rule="evenodd"/><path d="M842.25 492.5C866.688 492.5 886.5 571.746 886.5 669.5 886.5 767.255 866.688 846.5 842.25 846.5 817.811 846.5 797.999 767.255 797.999 669.5 797.999 571.746 817.811 492.5 842.25 492.5Z" fill="#FFFFFF" fill-rule="evenodd"/><path d="M842.25 846.5C817.811 846.5 797.999 767.255 797.999 669.5 797.999 571.746 817.811 492.5 842.25 492.5 866.688 492.5 886.5 571.746 886.5 669.5 886.5 767.255 866.688 846.5 842.25 846.5L469.75 846.5C445.311 846.5 425.499 767.255 425.499 669.5 425.499 571.746 445.311 492.5 469.75 492.5L842.25 492.5" stroke="#FFFFFF" stroke-width="4.58333" stroke-miterlimit="8" fill="none" fill-rule="evenodd"/><path d="M3298.88 852.928C3273.97 852.928 3253.77 772.131 3253.77 672.463 3253.77 572.795 3273.97 491.999 3298.88 491.999 3323.8 491.999 3344 572.795 3344 672.463 3344 772.131 3323.8 852.928 3298.88 852.928L2124.12 852.928C2099.2 852.928 2079 772.131 2079 672.463 2079 572.795 2099.2 491.999 2124.12 491.999L3298.88 492" stroke="#000000" stroke-width="13.75" stroke-miterlimit="8" fill="none" fill-rule="evenodd"/><path d="M2566.5 492.5 2566.5 854.097" stroke="#00B050" stroke-width="11.4583" stroke-miterlimit="8" fill="none" fill-rule="evenodd"/><text font-family="Arial,Arial_MSFontService,sans-serif" font-weight="400" font-size="83" transform="matrix(1 0 0 1 531.51 1006)">Laminar Flow Velocity Profile<tspan font-size="83" x="1626.95" y="0">Turbulent Flow Velocity Profile</tspan></text></g></svg>