<svg width="2785" height="884" xmlns="http://www.w3.org/2000/svg" xmlns:xlink="http://www.w3.org/1999/xlink" overflow="hidden"><defs><clipPath id="clip0"><rect x="522" y="1006" width="2785" height="884"/></clipPath></defs><g clip-path="url(#clip0)" transform="translate(-522 -1006)"><rect x="528" y="1133" width="724" height="485" fill="#E2F0D9"/><rect x="528.5" y="1012.5" width="724" height="606" stroke="#000000" stroke-width="12.6042" stroke-miterlimit="8" fill="none"/><text font-family="Arial,Arial_MSFontService,sans-serif" font-weight="400" font-size="110" transform="matrix(1 0 0 1 724.684 1769)">At t = 0<tspan font-size="110" x="2002.92" y="29">At t = </tspan><tspan font-family="Symbol,Symbol_MSFontService,sans-serif" font-size="110" x="2292.25" y="29">D</tspan>t</text><path d="M1564.5 1294.92 2158.92 1294.92 2158.92 1304.08 1564.5 1304.08ZM2154.34 1276.58 2200.17 1299.5 2154.34 1322.42Z"/><text font-family="Symbol,Symbol_MSFontService,sans-serif" font-weight="400" font-size="110" transform="matrix(1 0 0 1 1829.2 1256)">D<tspan font-family="Arial,Arial_MSFontService,sans-serif" font-size="110" x="67.0313" y="0">t</tspan><tspan font-family="Arial,Arial_MSFontService,sans-serif" font-size="83" x="-1198.87" y="16">N</tspan><tspan font-family="Arial,Arial_MSFontService,sans-serif" font-size="55" x="-1139.29" y="36">A0 </tspan><tspan font-family="Arial,Arial_MSFontService,sans-serif" font-size="83" x="-1056.79" y="16">= 10 moles</tspan><tspan font-family="Arial,Arial_MSFontService,sans-serif" font-size="83" x="-1198.87" y="192">N</tspan><tspan font-family="Arial,Arial_MSFontService,sans-serif" font-size="55" x="-1139.29" y="212">B0 </tspan><tspan font-family="Arial,Arial_MSFontService,sans-serif" font-size="83" x="-1056.79" y="192">= 0   moles</tspan></text><rect x="2575" y="1133" width="725" height="485" fill="#FFF2CC"/><rect x="2575.5" y="1012.5" width="725" height="606" stroke="#000000" stroke-width="12.6042" stroke-miterlimit="8" fill="none"/><text font-family="Arial,Arial_MSFontService,sans-serif" font-weight="400" font-size="83" transform="matrix(1 0 0 1 2665.45 1272)">N<tspan font-size="55" x="59.5833" y="20">A0 </tspan><tspan font-size="83" x="142.083" y="0">&lt; 10 moles</tspan><tspan font-size="83" x="0" y="195">N</tspan><tspan font-size="55" x="59.5833" y="215">B0 </tspan><tspan font-size="83" x="142.083" y="195">&gt; 0   moles</tspan></text></g></svg>