<svg width="654" height="1105" xmlns="http://www.w3.org/2000/svg" xmlns:xlink="http://www.w3.org/1999/xlink" overflow="hidden"><defs><clipPath id="clip0"><rect x="1562" y="586" width="654" height="1105"/></clipPath></defs><g clip-path="url(#clip0)" transform="translate(-1562 -586)"><rect x="1573.5" y="1144.5" width="632" height="540" stroke="#2F528F" stroke-width="4.58333" stroke-miterlimit="8" fill="#B4C7E7"/><path d="M1791.02 904.572C1793.61 933.028 1839.53 954.9 1908.45 960.505L1904.95 921.947 1988.9 974.56 1914.62 1028.45 1911.12 989.892C1842.19 984.287 1796.27 962.415 1793.69 933.959Z" fill-rule="evenodd"/><path d="M1977.07 844.19C1886.99 852.364 1811.49 883.571 1796.3 918.908 1771.48 881.609 1834.06 837.237 1936.06 819.799 1948.63 817.651 1961.47 815.977 1974.4 814.803Z" fill-rule="evenodd"/><path d="M1791.02 904.572C1793.61 933.028 1839.53 954.9 1908.45 960.505L1904.95 921.947 1988.9 974.56 1914.62 1028.45 1911.12 989.892C1842.19 984.287 1796.27 962.415 1793.69 933.959L1791.02 904.572C1787.39 864.514 1869.49 824.323 1974.4 814.803L1977.07 844.19C1886.99 852.364 1811.49 883.571 1796.3 918.908" stroke="#000000" stroke-width="4.58333" stroke-miterlimit="8" fill="none" fill-rule="evenodd"/><rect x="1569" y="1052" width="640" height="632" stroke="#000000" stroke-width="13.75" stroke-miterlimit="8" fill="none"/><path d="M1882.5 586.5 1882.5 1546.14" stroke="#000000" stroke-width="9.16667" stroke-miterlimit="8" fill="none" fill-rule="evenodd"/><path d="M1883.5 1511.17C1883.5 1501.96 1890.96 1494.5 1900.17 1494.5L1971.83 1494.5C1981.04 1494.5 1988.5 1501.96 1988.5 1511.17L1988.5 1577.83C1988.5 1587.04 1981.04 1594.5 1971.83 1594.5L1900.17 1594.5C1890.96 1594.5 1883.5 1587.04 1883.5 1577.83Z" stroke="#000000" stroke-width="9.16667" stroke-miterlimit="8" fill="none" fill-rule="evenodd"/><path d="M1777.5 1513.83C1777.5 1504.81 1784.81 1497.5 1793.83 1497.5L1866.17 1497.5C1875.19 1497.5 1882.5 1504.81 1882.5 1513.83L1882.5 1579.17C1882.5 1588.19 1875.19 1595.5 1866.17 1595.5L1793.83 1595.5C1784.81 1595.5 1777.5 1588.19 1777.5 1579.17Z" stroke="#000000" stroke-width="9.16667" stroke-miterlimit="8" fill="none" fill-rule="evenodd"/><path d="M1883.5 1288.17C1883.5 1278.96 1890.96 1271.5 1900.17 1271.5L1971.83 1271.5C1981.04 1271.5 1988.5 1278.96 1988.5 1288.17L1988.5 1354.83C1988.5 1364.04 1981.04 1371.5 1971.83 1371.5L1900.17 1371.5C1890.96 1371.5 1883.5 1364.04 1883.5 1354.83Z" stroke="#000000" stroke-width="9.16667" stroke-miterlimit="8" fill="none" fill-rule="evenodd"/><path d="M1777.5 1290.83C1777.5 1281.81 1784.81 1274.5 1793.83 1274.5L1866.17 1274.5C1875.19 1274.5 1882.5 1281.81 1882.5 1290.83L1882.5 1356.17C1882.5 1365.19 1875.19 1372.5 1866.17 1372.5L1793.83 1372.5C1784.81 1372.5 1777.5 1365.19 1777.5 1356.17Z" stroke="#000000" stroke-width="9.16667" stroke-miterlimit="8" fill="none" fill-rule="evenodd"/></g></svg>