<svg width="2086" height="1989" xmlns="http://www.w3.org/2000/svg" xmlns:xlink="http://www.w3.org/1999/xlink" overflow="hidden"><defs><clipPath id="clip0"><rect x="811" y="140" width="2086" height="1989"/></clipPath></defs><g clip-path="url(#clip0)" transform="translate(-811 -140)"><rect x="1566.5" y="698.5" width="632" height="540" stroke="#2F528F" stroke-width="4.58333" stroke-miterlimit="8" fill="#B4C7E7"/><path d="M1784 458.534C1786.59 486.989 1832.51 508.862 1901.43 514.467L1897.93 475.908 1981.88 528.522 1907.6 582.413 1904.1 543.854C1835.17 538.249 1789.25 516.376 1786.67 487.921Z" fill-rule="evenodd"/><path d="M1970.05 398.152C1879.97 406.326 1804.47 437.533 1789.28 472.87 1764.46 435.571 1827.04 391.198 1929.04 373.761 1941.61 371.612 1954.45 369.938 1967.38 368.765Z" fill-rule="evenodd"/><path d="M1784 458.534C1786.59 486.989 1832.51 508.862 1901.43 514.467L1897.93 475.908 1981.88 528.522 1907.6 582.413 1904.1 543.854C1835.17 538.249 1789.25 516.376 1786.67 487.921L1784 458.534C1780.37 418.476 1862.47 378.285 1967.38 368.765L1970.05 398.152C1879.97 406.326 1804.47 437.533 1789.28 472.87" stroke="#000000" stroke-width="4.58333" stroke-miterlimit="8" fill="none" fill-rule="evenodd"/><rect x="1562" y="606" width="640" height="632" stroke="#000000" stroke-width="13.75" stroke-miterlimit="8" fill="none"/><path d="M1875.5 140.5 1875.5 1100.14" stroke="#000000" stroke-width="9.16667" stroke-miterlimit="8" fill="none" fill-rule="evenodd"/><path d="M1876.5 1065.17C1876.5 1055.96 1883.96 1048.5 1893.17 1048.5L1964.83 1048.5C1974.04 1048.5 1981.5 1055.96 1981.5 1065.17L1981.5 1131.83C1981.5 1141.04 1974.04 1148.5 1964.83 1148.5L1893.17 1148.5C1883.96 1148.5 1876.5 1141.04 1876.5 1131.83Z" stroke="#000000" stroke-width="9.16667" stroke-miterlimit="8" fill="none" fill-rule="evenodd"/><path d="M1770.5 1067.83C1770.5 1058.81 1777.81 1051.5 1786.83 1051.5L1859.17 1051.5C1868.19 1051.5 1875.5 1058.81 1875.5 1067.83L1875.5 1133.17C1875.5 1142.19 1868.19 1149.5 1859.17 1149.5L1786.83 1149.5C1777.81 1149.5 1770.5 1142.19 1770.5 1133.17Z" stroke="#000000" stroke-width="9.16667" stroke-miterlimit="8" fill="none" fill-rule="evenodd"/><path d="M1876.5 842.167C1876.5 832.962 1883.96 825.5 1893.17 825.5L1964.83 825.5C1974.04 825.5 1981.5 832.962 1981.5 842.167L1981.5 908.833C1981.5 918.038 1974.04 925.5 1964.83 925.5L1893.17 925.5C1883.96 925.5 1876.5 918.038 1876.5 908.833Z" stroke="#000000" stroke-width="9.16667" stroke-miterlimit="8" fill="none" fill-rule="evenodd"/><path d="M1770.5 844.834C1770.5 835.813 1777.81 828.5 1786.83 828.5L1859.17 828.5C1868.19 828.5 1875.5 835.813 1875.5 844.834L1875.5 910.167C1875.5 919.187 1868.19 926.5 1859.17 926.5L1786.83 926.5C1777.81 926.5 1770.5 919.187 1770.5 910.167Z" stroke="#000000" stroke-width="9.16667" stroke-miterlimit="8" fill="none" fill-rule="evenodd"/><path d="M811.5 364.917 1658.64 364.917 1658.64 558.497 1649.47 558.497 1649.47 369.5 1654.05 374.083 811.5 374.083ZM1676.97 553.914 1654.05 599.747 1631.14 553.914Z"/><path d="M2202.5 1143.92 2809.43 1143.92 2809.43 1153.08 2202.5 1153.08ZM2804.85 1125.58 2850.68 1148.5 2804.85 1171.42Z"/><path d="M1072.11 181.252 1136.86 181.252 1131.9 203.287 1125.01 203.287C1124.82 199.603 1124.52 196.696 1124.12 194.566 1123.71 192.437 1123.13 190.906 1122.39 189.973 1121.65 189.039 1120.75 188.405 1119.7 188.07 1118.65 187.735 1117.07 187.568 1114.96 187.568L1092.86 187.568 1084.32 226.615 1097.74 226.615C1099.84 226.615 1101.59 226.328 1102.98 225.754 1104.36 225.179 1105.66 224.139 1106.85 222.631 1108.05 221.124 1109.53 218.552 1111.3 214.915L1117.84 214.915 1110.87 245.205 1104.56 245.205C1104.56 240.372 1104.4 237.346 1104.09 236.125 1103.78 234.905 1103.18 234.068 1102.3 233.613 1101.41 233.159 1099.65 232.931 1097.02 232.931L1082.95 232.931 1077.28 258.34C1076.28 262.839 1075.77 266.571 1075.77 269.538 1075.77 271.021 1076.01 272.182 1076.49 273.019 1076.97 273.856 1077.69 274.466 1078.64 274.849 1079.6 275.232 1081.25 275.519 1083.6 275.711L1082.81 279.228 1053.31 279.228 1054.1 275.711C1055.92 275.423 1057.28 274.957 1058.19 274.311 1059.1 273.665 1059.86 272.768 1060.48 271.619 1061.11 270.471 1061.68 269.071 1062.21 267.42 1062.73 265.769 1063.52 262.575 1064.58 257.838L1076.78 202.569C1077.83 197.784 1078.36 194.004 1078.36 191.229 1078.36 188.884 1077.81 187.257 1076.71 186.348 1075.61 185.439 1073.81 184.912 1071.32 184.769Z" fill-rule="evenodd"/><text fill="#000000" fill-opacity="0" font-family="Arial,Arial_MSFontService,sans-serif" font-size="97.9761" x="1053.31" y="266.981">𝐹</text><path d="M1163.28 269.053 1166.01 269.053 1156.06 316.043C1155.04 320.892 1153.65 324.792 1151.89 327.743 1150.14 330.694 1147.86 332.911 1145.05 334.394 1142.24 335.878 1138.89 336.619 1135 336.619 1133.41 336.619 1132.05 336.46 1130.93 336.141L1132.04 331.93C1132.71 332.185 1133.92 332.313 1135.67 332.313 1137.2 332.313 1138.5 332.081 1139.57 331.619 1140.64 331.156 1141.64 330.391 1142.56 329.322 1143.49 328.253 1144.34 326.762 1145.12 324.848 1145.9 322.934 1146.63 320.462 1147.3 317.431L1155.05 282.978C1155.79 279.724 1156.15 277.331 1156.15 275.8 1156.15 274.365 1155.81 273.392 1155.12 272.881 1154.44 272.371 1153.09 272.084 1151.08 272.02L1151.61 269.484ZM1161.99 250.726 1170.46 250.726 1168.26 260.009 1159.79 260.009Z" fill-rule="evenodd"/><text fill="#000000" fill-opacity="0" font-family="Arial,Arial_MSFontService,sans-serif" font-size="85.8936" x="1130.93" y="325.883">𝑗</text><text font-family="Arial,Arial_MSFontService,sans-serif" font-weight="400" font-size="98" transform="matrix(1 0 0 1 1176.04 315)">,f</text><path d="M2469.58 973.244 2534.32 973.244 2529.37 995.279 2522.48 995.279C2522.28 991.595 2521.99 988.688 2521.58 986.558 2521.17 984.429 2520.6 982.898 2519.86 981.965 2519.11 981.031 2518.22 980.397 2517.16 980.062 2516.11 979.728 2514.53 979.56 2512.43 979.56L2490.32 979.56 2481.78 1018.61 2495.2 1018.61C2497.31 1018.61 2499.05 1018.32 2500.44 1017.75 2501.83 1017.17 2503.12 1016.13 2504.32 1014.62 2505.51 1013.12 2507 1010.54 2508.77 1006.91L2515.3 1006.91 2508.34 1037.2 2502.02 1037.2C2502.02 1032.36 2501.86 1029.34 2501.55 1028.12 2501.24 1026.9 2500.64 1026.06 2499.76 1025.61 2498.87 1025.15 2497.11 1024.92 2494.48 1024.92L2480.41 1024.92 2474.74 1050.33C2473.74 1054.83 2473.24 1058.56 2473.24 1061.53 2473.24 1063.01 2473.48 1064.17 2473.95 1065.01 2474.43 1065.85 2475.15 1066.46 2476.11 1066.84 2477.06 1067.22 2478.72 1067.51 2481.06 1067.7L2480.27 1071.22 2450.77 1071.22 2451.56 1067.7C2453.38 1067.42 2454.74 1066.95 2455.65 1066.3 2456.56 1065.66 2457.33 1064.76 2457.95 1063.61 2458.57 1062.46 2459.14 1061.06 2459.67 1059.41 2460.2 1057.76 2460.99 1054.57 2462.04 1049.83L2474.24 994.562C2475.29 989.776 2475.82 985.996 2475.82 983.221 2475.82 980.876 2475.27 979.249 2474.17 978.34 2473.07 977.431 2471.27 976.904 2468.79 976.761Z" fill-rule="evenodd"/><text fill="#000000" fill-opacity="0" font-family="Arial,Arial_MSFontService,sans-serif" font-size="97.9761" x="2450.77" y="1058.97">𝐹</text><path d="M2560.75 1061.05 2563.47 1061.05 2553.52 1108.04C2552.5 1112.88 2551.11 1116.78 2549.36 1119.73 2547.6 1122.69 2545.32 1124.9 2542.51 1126.39 2539.71 1127.87 2536.36 1128.61 2532.46 1128.61 2530.87 1128.61 2529.51 1128.45 2528.4 1128.13L2529.5 1123.92C2530.17 1124.18 2531.38 1124.3 2533.13 1124.3 2534.67 1124.3 2535.97 1124.07 2537.03 1123.61 2538.1 1123.15 2539.1 1122.38 2540.03 1121.31 2540.95 1120.25 2541.8 1118.75 2542.59 1116.84 2543.37 1114.93 2544.09 1112.45 2544.76 1109.42L2552.51 1074.97C2553.25 1071.72 2553.62 1069.32 2553.62 1067.79 2553.62 1066.36 2553.27 1065.38 2552.59 1064.87 2551.9 1064.36 2550.55 1064.08 2548.54 1064.01L2549.07 1061.48ZM2559.45 1042.72 2567.92 1042.72 2565.72 1052 2557.25 1052Z" fill-rule="evenodd"/><text fill="#000000" fill-opacity="0" font-family="Arial,Arial_MSFontService,sans-serif" font-size="85.8936" x="2528.4" y="1117.87">𝑗</text><path d="M1109.29 422.303C1104.13 422.303 1099.3 424.145 1094.83 427.83 1090.36 431.514 1086.43 436.778 1083.06 443.621 1079.69 450.463 1077.07 457.976 1075.2 466.159 1073.33 474.341 1072.4 481.567 1072.4 487.836 1072.4 502.622 1077.78 510.015 1088.55 510.015 1095.2 510.015 1101.3 506.916 1106.85 500.72 1112.4 494.523 1116.88 485.945 1120.28 474.987 1123.67 464.029 1125.37 453.789 1125.37 444.267 1125.37 437.137 1124.06 431.694 1121.42 427.937 1118.79 424.181 1114.75 422.303 1109.29 422.303ZM1110.08 415.986C1119.32 415.986 1126.44 418.666 1131.44 424.025 1136.44 429.385 1138.94 437.137 1138.94 447.281 1138.94 453.981 1137.88 461.469 1135.78 469.748 1133.67 478.026 1130.78 485.335 1127.09 491.676 1123.41 498.016 1119.14 503.124 1114.28 507 1109.43 510.876 1104.15 513.556 1098.46 515.039 1099.56 518.532 1100.58 521.415 1101.54 523.688 1102.5 525.961 1103.42 527.804 1104.31 529.215 1105.19 530.627 1106.06 531.68 1106.92 532.373 1107.79 533.067 1108.65 533.534 1109.51 533.773 1110.37 534.012 1111.38 534.132 1112.52 534.132 1114.34 534.132 1116.18 533.606 1118.05 532.553 1119.92 531.5 1122 529.682 1124.3 527.098L1128.03 531.117C1124.2 535.28 1120.63 538.223 1117.33 539.946 1114.03 541.669 1110.63 542.53 1107.14 542.53 1103.17 542.53 1099.93 541.645 1097.41 539.874 1094.9 538.104 1092.72 535.28 1090.88 531.404 1089.04 527.528 1087.26 522.456 1085.54 516.188 1076.87 515.709 1070.27 512.838 1065.72 507.574 1061.18 502.311 1058.91 494.894 1058.91 485.323 1058.91 478.146 1060.11 470.035 1062.53 460.991 1064.95 451.947 1068.44 443.968 1073.01 437.053 1077.58 430.138 1083.04 424.899 1089.38 421.334 1095.72 417.769 1102.62 415.986 1110.08 415.986Z" fill-rule="evenodd"/><text fill="#000000" fill-opacity="0" font-family="Arial,Arial_MSFontService,sans-serif" font-size="126.543" x="1058.91" y="526.712">𝑄</text><text font-family="Arial,Arial_MSFontService,sans-serif" font-weight="400" font-size="98" transform="matrix(1 0 0 1 1152.64 551)">f</text><path d="M1059.21 640.025 1134.14 640.025 1128.54 665.291 1121.65 665.291C1121.65 660.649 1121.53 657.168 1121.29 654.847 1121.05 652.526 1120.6 650.756 1119.93 649.536 1119.26 648.315 1118.43 647.478 1117.45 647.023 1116.47 646.569 1114.74 646.342 1112.25 646.342L1101.63 646.342 1086.05 717.114C1085.62 718.98 1085.32 720.464 1085.15 721.564 1084.99 722.665 1084.84 723.825 1084.72 725.045 1084.6 726.266 1084.54 727.354 1084.54 728.311 1084.54 729.795 1084.78 730.955 1085.26 731.793 1085.74 732.63 1086.46 733.24 1087.41 733.623 1088.37 734.006 1090.02 734.293 1092.37 734.484L1091.58 738.001 1061.36 738.001 1062.15 734.484C1064.06 734.197 1065.47 733.814 1066.38 733.336 1067.29 732.857 1068.09 732.116 1068.79 731.111 1069.48 730.106 1070.18 728.527 1070.87 726.373 1071.56 724.22 1072.39 720.966 1073.35 716.612L1088.71 646.342 1079.59 646.342C1076.62 646.342 1074.26 646.772 1072.48 647.634 1070.71 648.495 1068.94 650.098 1067.17 652.443 1065.4 654.787 1063.25 658.711 1060.71 664.214L1053.82 664.214Z" fill-rule="evenodd"/><text fill="#000000" fill-opacity="0" font-family="Arial,Arial_MSFontService,sans-serif" font-size="97.9761" x="1053.82" y="725.754">𝑇</text><text font-family="Arial,Arial_MSFontService,sans-serif" font-weight="400" font-size="98" transform="matrix(1 0 0 1 1139.11 774)">f</text><path d="M1101.77 860.648C1098.8 860.648 1095.69 860.72 1092.44 860.863L1082.68 904.36 1090.14 904.36C1095.93 904.36 1100.61 903.762 1104.17 902.566 1107.74 901.369 1110.66 899.515 1112.93 897.003 1115.2 894.491 1116.96 891.512 1118.21 888.067 1119.45 884.621 1120.07 880.841 1120.07 876.726 1120.07 871.175 1118.66 867.108 1115.84 864.524 1113.02 861.94 1108.33 860.648 1101.77 860.648ZM1071.7 854.331 1103.35 854.331C1109.04 854.331 1113.72 854.774 1117.38 855.659 1121.04 856.544 1124.06 857.908 1126.43 859.751 1128.79 861.593 1130.56 863.926 1131.74 866.749 1132.91 869.572 1133.5 872.85 1133.5 876.582 1133.5 883.76 1131.8 889.981 1128.4 895.244 1125 900.508 1120.4 904.384 1114.58 906.872 1108.77 909.361 1101.79 910.605 1093.66 910.605 1088.78 910.605 1084.71 910.509 1081.46 910.318L1076.86 931.42C1076.43 933.382 1076.13 934.889 1075.97 935.942 1075.8 936.995 1075.66 938.131 1075.54 939.352 1075.42 940.572 1075.36 941.66 1075.36 942.617 1075.36 944.101 1075.6 945.261 1076.07 946.099 1076.55 946.936 1077.27 947.546 1078.23 947.929 1079.18 948.312 1080.83 948.599 1083.18 948.79L1082.39 952.307 1052.89 952.307 1053.68 948.79C1055.5 948.503 1056.86 948.037 1057.77 947.391 1058.68 946.745 1059.45 945.847 1060.07 944.699 1060.69 943.551 1061.26 942.151 1061.79 940.5 1062.32 938.849 1063.11 935.655 1064.16 930.918L1076.36 875.649C1077.41 870.864 1077.94 867.084 1077.94 864.308 1077.94 861.964 1077.39 860.337 1076.29 859.428 1075.19 858.518 1073.39 857.992 1070.91 857.848Z" fill-rule="evenodd"/><text fill="#000000" fill-opacity="0" font-family="Arial,Arial_MSFontService,sans-serif" font-size="97.9761" x="1052.89" y="940.06">𝑃</text><text font-family="Arial,Arial_MSFontService,sans-serif" font-weight="400" font-size="98" transform="matrix(1 0 0 1 1143.47 988)">f</text><path d="M1109.88 1020.6C1114.24 1020.6 1118.27 1020.86 1121.98 1021.39 1125.68 1021.92 1129.81 1022.87 1134.36 1024.26L1130.05 1043.71 1123.16 1043.71C1122.78 1037.83 1121.5 1033.58 1119.32 1030.97 1117.14 1028.37 1113.64 1027.06 1108.8 1027.06 1102.2 1027.06 1096.06 1030.36 1090.39 1036.97 1084.72 1043.57 1080.24 1052.29 1076.94 1063.13 1073.63 1073.97 1071.98 1084.03 1071.98 1093.31 1071.98 1100.59 1073.27 1105.94 1075.86 1109.39 1078.44 1112.84 1082.41 1114.56 1087.77 1114.56 1091.36 1114.56 1094.5 1114.02 1097.18 1112.94 1099.86 1111.87 1102.37 1110.05 1104.71 1107.49 1107.06 1104.93 1109.38 1101.35 1111.68 1096.76L1118.57 1096.76 1114.19 1117.14C1105.24 1119.63 1095.86 1120.87 1086.05 1120.87 1077.05 1120.87 1070.21 1118.29 1065.52 1113.12 1060.83 1107.95 1058.49 1100.39 1058.49 1090.44 1058.49 1083.41 1059.74 1075.3 1062.26 1066.11 1064.77 1056.92 1068.32 1048.86 1072.92 1041.92 1077.51 1034.98 1082.94 1029.69 1089.21 1026.06 1095.48 1022.42 1102.37 1020.6 1109.88 1020.6Z" fill-rule="evenodd"/><text fill="#000000" fill-opacity="0" font-family="Arial,Arial_MSFontService,sans-serif" font-size="100.273" x="1058.49" y="1108.34">𝐶</text><path d="M1161.15 1109.55 1163.87 1109.55 1153.92 1156.54C1152.9 1161.39 1151.51 1165.29 1149.76 1168.24 1148 1171.19 1145.72 1173.41 1142.91 1174.89 1140.11 1176.38 1136.76 1177.12 1132.87 1177.12 1131.27 1177.12 1129.91 1176.96 1128.8 1176.64L1129.9 1172.43C1130.57 1172.68 1131.78 1172.81 1133.54 1172.81 1135.07 1172.81 1136.37 1172.58 1137.44 1172.12 1138.5 1171.65 1139.5 1170.89 1140.43 1169.82 1141.35 1168.75 1142.2 1167.26 1142.99 1165.35 1143.77 1163.43 1144.49 1160.96 1145.16 1157.93L1152.92 1123.48C1153.65 1120.22 1154.02 1117.83 1154.02 1116.3 1154.02 1114.86 1153.67 1113.89 1152.99 1113.38 1152.3 1112.87 1150.95 1112.58 1148.94 1112.52L1149.47 1109.98ZM1159.85 1091.22 1168.32 1091.22 1166.12 1100.51 1157.65 1100.51Z" fill-rule="evenodd"/><text fill="#000000" fill-opacity="0" font-family="Arial,Arial_MSFontService,sans-serif" font-size="85.8936" x="1128.8" y="1166.38">𝑗</text><text font-family="Arial,Arial_MSFontService,sans-serif" font-weight="400" font-size="98" transform="matrix(1 0 0 1 1173.9 1156)">,f</text><path d="M1081.42 1223.58C1083.81 1223.58 1085.7 1224.11 1087.09 1225.16 1088.48 1226.21 1089.59 1228.02 1090.43 1230.58 1091.26 1233.14 1091.87 1236.63 1092.26 1241.06 1092.64 1245.49 1093 1252.27 1093.33 1261.41L1117.74 1224.73 1132.52 1224.73 1131.74 1228.18C1130.44 1229.47 1128.97 1231.03 1127.32 1232.88 1125.67 1234.72 1124.25 1236.35 1123.05 1237.76 1121.85 1239.17 1119.46 1242.1 1115.87 1246.55L1094.48 1273.32C1095.1 1281.7 1095.73 1288.41 1096.35 1293.46 1096.97 1298.5 1097.59 1302.25 1098.22 1304.69 1098.84 1307.13 1099.48 1308.97 1100.15 1310.22 1100.82 1311.46 1101.54 1312.27 1102.31 1312.66 1103.07 1313.04 1103.93 1313.23 1104.89 1313.23 1106.04 1313.23 1107.35 1312.74 1108.84 1311.76 1110.32 1310.78 1111.9 1309.33 1113.58 1307.42L1117.59 1311.44C1114.44 1314.74 1111.39 1317.24 1108.44 1318.94 1105.5 1320.64 1102.55 1321.49 1099.58 1321.49 1097.19 1321.49 1095.32 1321.05 1093.98 1320.19 1092.64 1319.33 1091.56 1317.97 1090.75 1316.1 1089.65 1313.42 1088.84 1309.09 1088.31 1303.11 1087.93 1298.52 1087.62 1290.76 1087.38 1279.85L1071.51 1302.54C1066.92 1309.09 1063.04 1315.1 1059.89 1320.55L1044.88 1320.55 1045.6 1317.11C1049.53 1313.18 1054.93 1306.94 1061.82 1298.37L1086.23 1267.87C1085.27 1258.68 1084.42 1251.75 1083.68 1247.09 1082.94 1242.42 1082.17 1239.03 1081.38 1236.9 1080.59 1234.77 1079.77 1233.39 1078.91 1232.77 1078.05 1232.15 1076.99 1231.84 1075.75 1231.84 1074.7 1231.84 1073.39 1232.33 1071.84 1233.31 1070.28 1234.29 1068.69 1235.74 1067.06 1237.65L1063.04 1233.63C1066.68 1230.04 1069.85 1227.47 1072.55 1225.91 1075.26 1224.36 1078.21 1223.58 1081.42 1223.58Z" fill-rule="evenodd"/><text fill="#000000" fill-opacity="0" font-family="Arial,Arial_MSFontService,sans-serif" font-size="97.9043" x="1044.88" y="1309.25">𝜒</text><path d="M1158.24 1283.17 1160.97 1283.17 1151.02 1330.16C1150 1335.01 1148.61 1338.91 1146.85 1341.86 1145.1 1344.81 1142.82 1347.03 1140.01 1348.52 1137.2 1350 1133.85 1350.74 1129.96 1350.74 1128.37 1350.74 1127.01 1350.58 1125.89 1350.26L1127 1346.05C1127.67 1346.31 1128.88 1346.43 1130.63 1346.43 1132.16 1346.43 1133.46 1346.2 1134.53 1345.74 1135.6 1345.28 1136.6 1344.51 1137.52 1343.44 1138.45 1342.37 1139.3 1340.88 1140.08 1338.97 1140.86 1337.06 1141.59 1334.58 1142.26 1331.55L1150.01 1297.1C1150.75 1293.85 1151.11 1291.45 1151.11 1289.92 1151.11 1288.49 1150.77 1287.51 1150.08 1287 1149.4 1286.49 1148.05 1286.2 1146.04 1286.14L1146.57 1283.6ZM1156.95 1264.85 1165.42 1264.85 1163.22 1274.13 1154.75 1274.13Z" fill-rule="evenodd"/><text fill="#000000" fill-opacity="0" font-family="Arial,Arial_MSFontService,sans-serif" font-size="85.8936" x="1125.89" y="1340">𝑗</text><text font-family="Arial,Arial_MSFontService,sans-serif" font-weight="400" font-size="98" transform="matrix(1 0 0 1 1171 1329)">,f</text><path d="M2509.92 1200.54C2504.75 1200.54 2499.93 1202.38 2495.45 1206.07 2490.98 1209.75 2487.05 1215.02 2483.68 1221.86 2480.31 1228.7 2477.69 1236.21 2475.82 1244.4 2473.95 1252.58 2473.02 1259.8 2473.02 1266.07 2473.02 1280.86 2478.41 1288.25 2489.17 1288.25 2495.82 1288.25 2501.92 1285.15 2507.47 1278.96 2513.03 1272.76 2517.5 1264.18 2520.9 1253.23 2524.29 1242.27 2525.99 1232.03 2525.99 1222.5 2525.99 1215.37 2524.68 1209.93 2522.05 1206.18 2519.41 1202.42 2515.37 1200.54 2509.92 1200.54ZM2510.7 1194.22C2519.94 1194.22 2527.06 1196.9 2532.06 1202.26 2537.06 1207.62 2539.56 1215.37 2539.56 1225.52 2539.56 1232.22 2538.51 1239.71 2536.4 1247.99 2534.3 1256.26 2531.4 1263.57 2527.72 1269.91 2524.03 1276.25 2519.76 1281.36 2514.9 1285.24 2510.05 1289.11 2504.77 1291.79 2499.08 1293.28 2500.18 1296.77 2501.21 1299.65 2502.16 1301.93 2503.12 1304.2 2504.04 1306.04 2504.93 1307.45 2505.81 1308.86 2506.69 1309.92 2507.55 1310.61 2508.41 1311.31 2509.27 1311.77 2510.13 1312.01 2510.99 1312.25 2512 1312.37 2513.15 1312.37 2514.96 1312.37 2516.81 1311.84 2518.67 1310.79 2520.54 1309.74 2522.62 1307.92 2524.92 1305.34L2528.65 1309.36C2524.82 1313.52 2521.26 1316.46 2517.95 1318.18 2514.65 1319.91 2511.26 1320.77 2507.76 1320.77 2503.79 1320.77 2500.55 1319.88 2498.04 1318.11 2495.52 1316.34 2493.35 1313.52 2491.5 1309.64 2489.66 1305.77 2487.88 1300.69 2486.16 1294.43 2477.5 1293.95 2470.89 1291.08 2466.35 1285.81 2461.8 1280.55 2459.53 1273.13 2459.53 1263.56 2459.53 1256.38 2460.74 1248.27 2463.15 1239.23 2465.57 1230.18 2469.06 1222.21 2473.63 1215.29 2478.2 1208.38 2483.66 1203.14 2490 1199.57 2496.34 1196.01 2503.24 1194.22 2510.7 1194.22Z" fill-rule="evenodd"/><text fill="#000000" fill-opacity="0" font-family="Arial,Arial_MSFontService,sans-serif" font-size="126.543" x="2459.53" y="1304.95">𝑄</text><path d="M2459.78 1418.26 2534.72 1418.26 2529.12 1443.53 2522.23 1443.53C2522.23 1438.89 2522.11 1435.41 2521.87 1433.09 2521.63 1430.76 2521.18 1428.99 2520.51 1427.77 2519.84 1426.55 2519.01 1425.72 2518.03 1425.26 2517.05 1424.81 2515.31 1424.58 2512.83 1424.58L2502.2 1424.58 2486.63 1495.35C2486.2 1497.22 2485.9 1498.7 2485.73 1499.8 2485.56 1500.9 2485.42 1502.06 2485.3 1503.28 2485.18 1504.5 2485.12 1505.59 2485.12 1506.55 2485.12 1508.03 2485.36 1509.19 2485.84 1510.03 2486.32 1510.87 2487.03 1511.48 2487.99 1511.86 2488.95 1512.24 2490.6 1512.53 2492.94 1512.72L2492.15 1516.24 2461.94 1516.24 2462.72 1512.72C2464.64 1512.44 2466.05 1512.05 2466.96 1511.57 2467.87 1511.1 2468.67 1510.35 2469.36 1509.35 2470.06 1508.34 2470.75 1506.76 2471.45 1504.61 2472.14 1502.46 2472.97 1499.2 2473.92 1494.85L2489.28 1424.58 2480.17 1424.58C2477.2 1424.58 2474.83 1425.01 2473.06 1425.87 2471.29 1426.73 2469.52 1428.34 2467.75 1430.68 2465.98 1433.03 2463.83 1436.95 2461.29 1442.45L2454.4 1442.45Z" fill-rule="evenodd"/><text fill="#000000" fill-opacity="0" font-family="Arial,Arial_MSFontService,sans-serif" font-size="97.9761" x="2454.4" y="1503.99">𝑇</text><path d="M2502.46 1638.89C2499.49 1638.89 2496.38 1638.96 2493.13 1639.1L2483.37 1682.6 2490.83 1682.6C2496.62 1682.6 2501.3 1682 2504.87 1680.8 2508.43 1679.61 2511.35 1677.75 2513.62 1675.24 2515.9 1672.73 2517.65 1669.75 2518.9 1666.3 2520.14 1662.86 2520.76 1659.08 2520.76 1654.96 2520.76 1649.41 2519.35 1645.35 2516.53 1642.76 2513.71 1640.18 2509.02 1638.89 2502.46 1638.89ZM2472.39 1632.57 2504.04 1632.57C2509.73 1632.57 2514.41 1633.01 2518.07 1633.9 2521.73 1634.78 2524.75 1636.15 2527.12 1637.99 2529.48 1639.83 2531.26 1642.16 2532.43 1644.99 2533.6 1647.81 2534.19 1651.09 2534.19 1654.82 2534.19 1662 2532.49 1668.22 2529.09 1673.48 2525.69 1678.75 2521.09 1682.62 2515.27 1685.11 2509.46 1687.6 2502.48 1688.84 2494.35 1688.84 2489.47 1688.84 2485.4 1688.75 2482.15 1688.56L2477.55 1709.66C2477.12 1711.62 2476.82 1713.13 2476.66 1714.18 2476.49 1715.23 2476.35 1716.37 2476.23 1717.59 2476.11 1718.81 2476.05 1719.9 2476.05 1720.86 2476.05 1722.34 2476.29 1723.5 2476.76 1724.34 2477.24 1725.17 2477.96 1725.78 2478.92 1726.17 2479.87 1726.55 2481.53 1726.84 2483.87 1727.03L2483.08 1730.55 2453.58 1730.55 2454.37 1727.03C2456.19 1726.74 2457.55 1726.27 2458.46 1725.63 2459.37 1724.98 2460.14 1724.09 2460.76 1722.94 2461.38 1721.79 2461.95 1720.39 2462.48 1718.74 2463.01 1717.09 2463.8 1713.89 2464.85 1709.16L2477.05 1653.89C2478.1 1649.1 2478.63 1645.32 2478.63 1642.55 2478.63 1640.2 2478.08 1638.57 2476.98 1637.67 2475.88 1636.76 2474.08 1636.23 2471.6 1636.09Z" fill-rule="evenodd"/><text fill="#000000" fill-opacity="0" font-family="Arial,Arial_MSFontService,sans-serif" font-size="97.9761" x="2453.58" y="1718.3">𝑃</text><path d="M2510.55 1798.84C2514.9 1798.84 2518.93 1799.1 2522.64 1799.63 2526.35 1800.16 2530.48 1801.11 2535.02 1802.5L2530.72 1821.95 2523.83 1821.95C2523.44 1816.07 2522.16 1811.82 2519.99 1809.21 2517.81 1806.6 2514.3 1805.3 2509.47 1805.3 2502.87 1805.3 2496.73 1808.6 2491.06 1815.2 2485.39 1821.81 2480.9 1830.53 2477.6 1841.37 2474.3 1852.21 2472.65 1862.27 2472.65 1871.55 2472.65 1878.82 2473.94 1884.18 2476.53 1887.63 2479.11 1891.07 2483.08 1892.8 2488.44 1892.8 2492.03 1892.8 2495.16 1892.26 2497.84 1891.18 2500.52 1890.1 2503.04 1888.29 2505.38 1885.73 2507.73 1883.17 2510.05 1879.59 2512.34 1875L2519.23 1875 2514.86 1895.38C2505.91 1897.87 2496.53 1899.11 2486.72 1899.11 2477.72 1899.11 2470.88 1896.53 2466.19 1891.36 2461.5 1886.19 2459.16 1878.63 2459.16 1868.68 2459.16 1861.64 2460.41 1853.53 2462.92 1844.35 2465.44 1835.16 2468.99 1827.1 2473.58 1820.16 2478.18 1813.22 2483.61 1807.93 2489.88 1804.29 2496.15 1800.66 2503.04 1798.84 2510.55 1798.84Z" fill-rule="evenodd"/><text fill="#000000" fill-opacity="0" font-family="Arial,Arial_MSFontService,sans-serif" font-size="100.273" x="2459.16" y="1886.58">𝐶</text><path d="M2561.81 1887.79 2564.54 1887.79 2554.59 1934.78C2553.57 1939.63 2552.18 1943.53 2550.43 1946.48 2548.67 1949.43 2546.39 1951.65 2543.58 1953.13 2540.77 1954.61 2537.43 1955.36 2533.53 1955.36 2531.94 1955.36 2530.58 1955.2 2529.47 1954.88L2530.57 1950.67C2531.24 1950.92 2532.45 1951.05 2534.2 1951.05 2535.73 1951.05 2537.03 1950.82 2538.1 1950.36 2539.17 1949.89 2540.17 1949.13 2541.09 1948.06 2542.02 1946.99 2542.87 1945.5 2543.65 1943.58 2544.44 1941.67 2545.16 1939.2 2545.83 1936.17L2553.58 1901.71C2554.32 1898.46 2554.68 1896.07 2554.68 1894.54 2554.68 1893.1 2554.34 1892.13 2553.66 1891.62 2552.97 1891.11 2551.62 1890.82 2549.61 1890.76L2550.14 1888.22ZM2560.52 1869.46 2568.99 1869.46 2566.79 1878.75 2558.32 1878.75Z" fill-rule="evenodd"/><text fill="#000000" fill-opacity="0" font-family="Arial,Arial_MSFontService,sans-serif" font-size="85.8936" x="2529.47" y="1944.62">𝑗</text><path d="M2482.09 2001.82C2484.48 2001.82 2486.37 2002.35 2487.76 2003.4 2489.15 2004.45 2490.26 2006.26 2491.09 2008.82 2491.93 2011.38 2492.54 2014.87 2492.93 2019.3 2493.31 2023.72 2493.67 2030.51 2494 2039.65L2518.41 2002.97 2533.19 2002.97 2532.4 2006.41C2531.11 2007.71 2529.64 2009.27 2527.99 2011.11 2526.34 2012.96 2524.91 2014.58 2523.72 2016 2522.52 2017.41 2520.13 2020.34 2516.54 2024.79L2495.15 2051.56C2495.77 2059.94 2496.39 2066.65 2497.02 2071.69 2497.64 2076.74 2498.26 2080.49 2498.88 2082.93 2499.5 2085.37 2500.15 2087.21 2500.82 2088.45 2501.49 2089.7 2502.21 2090.51 2502.97 2090.9 2503.74 2091.28 2504.6 2091.47 2505.56 2091.47 2506.71 2091.47 2508.02 2090.98 2509.51 2090 2510.99 2089.02 2512.57 2087.57 2514.24 2085.66L2518.26 2089.67C2515.1 2092.98 2512.05 2095.48 2509.11 2097.18 2506.17 2098.87 2503.21 2099.72 2500.25 2099.72 2497.85 2099.72 2495.99 2099.29 2494.65 2098.43 2493.31 2097.57 2492.23 2096.21 2491.42 2094.34 2490.32 2091.66 2489.5 2087.33 2488.98 2081.35 2488.59 2076.75 2488.28 2069 2488.04 2058.09L2472.18 2080.77C2467.59 2087.33 2463.71 2093.34 2460.55 2098.79L2445.55 2098.79 2446.27 2095.35C2450.19 2091.42 2455.6 2085.18 2462.49 2076.61L2486.9 2046.11C2485.94 2036.92 2485.09 2029.99 2484.35 2025.33 2483.61 2020.66 2482.84 2017.26 2482.05 2015.13 2481.26 2013 2480.44 2011.63 2479.57 2011.01 2478.71 2010.38 2477.66 2010.07 2476.42 2010.07 2475.36 2010.07 2474.06 2010.56 2472.5 2011.55 2470.95 2012.53 2469.36 2013.97 2467.73 2015.89L2463.71 2011.87C2467.35 2008.28 2470.52 2005.71 2473.22 2004.15 2475.93 2002.6 2478.88 2001.82 2482.09 2001.82Z" fill-rule="evenodd"/><text fill="#000000" fill-opacity="0" font-family="Arial,Arial_MSFontService,sans-serif" font-size="97.9043" x="2445.55" y="2087.49">𝜒</text><path d="M2558.91 2061.41 2561.64 2061.41 2551.68 2108.4C2550.66 2113.25 2549.28 2117.15 2547.52 2120.1 2545.77 2123.05 2543.49 2125.27 2540.68 2126.75 2537.87 2128.24 2534.52 2128.98 2530.63 2128.98 2529.03 2128.98 2527.68 2128.82 2526.56 2128.5L2527.66 2124.29C2528.33 2124.54 2529.54 2124.67 2531.3 2124.67 2532.83 2124.67 2534.13 2124.44 2535.2 2123.98 2536.27 2123.52 2537.27 2122.75 2538.19 2121.68 2539.12 2120.61 2539.97 2119.12 2540.75 2117.21 2541.53 2115.29 2542.26 2112.82 2542.93 2109.79L2550.68 2075.34C2551.41 2072.08 2551.78 2069.69 2551.78 2068.16 2551.78 2066.72 2551.44 2065.75 2550.75 2065.24 2550.07 2064.73 2548.72 2064.44 2546.71 2064.38L2547.23 2061.84ZM2557.62 2043.09 2566.09 2043.09 2563.89 2052.37 2555.42 2052.37Z" fill-rule="evenodd"/><text fill="#000000" fill-opacity="0" font-family="Arial,Arial_MSFontService,sans-serif" font-size="85.8936" x="2526.56" y="2118.24">𝑗</text></g></svg>