<svg width="3336" height="1954" xmlns="http://www.w3.org/2000/svg" xmlns:xlink="http://www.w3.org/1999/xlink" overflow="hidden"><defs><clipPath id="clip0"><rect x="108" y="474" width="3336" height="1954"/></clipPath></defs><g clip-path="url(#clip0)" transform="translate(-108 -474)"><path d="M130.079 758.264 205.014 758.264 199.415 783.529 192.525 783.529C192.525 778.888 192.405 775.406 192.166 773.086 191.927 770.765 191.472 768.994 190.802 767.774 190.132 766.554 189.307 765.716 188.326 765.262 187.345 764.807 185.61 764.58 183.122 764.58L172.499 764.58 156.923 835.352C156.493 837.219 156.194 838.702 156.026 839.803 155.859 840.903 155.715 842.064 155.595 843.284 155.476 844.504 155.416 845.593 155.416 846.55 155.416 848.033 155.655 849.194 156.134 850.031 156.612 850.868 157.33 851.478 158.287 851.861 159.244 852.244 160.895 852.531 163.24 852.723L162.45 856.24 132.232 856.24 133.021 852.723C134.935 852.435 136.347 852.053 137.256 851.574 138.165 851.096 138.967 850.354 139.661 849.349 140.355 848.344 141.049 846.765 141.742 844.612 142.436 842.458 143.262 839.205 144.219 834.85L159.579 764.58 150.463 764.58C147.497 764.58 145.128 765.011 143.357 765.872 141.587 766.733 139.816 768.336 138.046 770.681 136.275 773.026 134.122 776.95 131.586 782.453L124.695 782.453Z" fill-rule="evenodd"/><text fill="#000000" fill-opacity="0" font-family="Arial,Arial_MSFontService,sans-serif" font-size="97.9761" x="124.695" y="843.993">ğ‘‡</text><path d="M172.757 978.886C169.79 978.886 166.68 978.958 163.426 979.102L153.664 1022.6 161.129 1022.6C166.919 1022.6 171.597 1022 175.162 1020.8 178.727 1019.61 181.646 1017.75 183.918 1015.24 186.191 1012.73 187.95 1009.75 189.194 1006.31 190.438 1002.86 191.06 999.08 191.06 994.964 191.06 989.414 189.649 985.346 186.825 982.762 184.002 980.178 179.313 978.886 172.757 978.886ZM142.682 972.57 174.336 972.57C180.031 972.57 184.708 973.012 188.369 973.898 192.029 974.783 195.044 976.147 197.413 977.989 199.781 979.831 201.552 982.164 202.724 984.987 203.896 987.811 204.483 991.088 204.483 994.821 204.483 1002 202.784 1008.22 199.386 1013.48 195.989 1018.75 191.383 1022.62 185.569 1025.11 179.755 1027.6 172.781 1028.84 164.646 1028.84 159.765 1028.84 155.698 1028.75 152.444 1028.56L147.85 1049.66C147.42 1051.62 147.121 1053.13 146.953 1054.18 146.786 1055.23 146.642 1056.37 146.522 1057.59 146.403 1058.81 146.343 1059.9 146.343 1060.86 146.343 1062.34 146.582 1063.5 147.061 1064.34 147.539 1065.17 148.257 1065.78 149.214 1066.17 150.171 1066.55 151.822 1066.84 154.167 1067.03L153.377 1070.55 123.877 1070.55 124.666 1067.03C126.485 1066.74 127.848 1066.28 128.758 1065.63 129.667 1064.98 130.432 1064.09 131.054 1062.94 131.677 1061.79 132.251 1060.39 132.777 1058.74 133.303 1057.09 134.093 1053.89 135.146 1049.16L147.348 993.888C148.401 989.103 148.927 985.322 148.927 982.547 148.927 980.202 148.377 978.575 147.276 977.666 146.176 976.757 144.381 976.23 141.893 976.087Z" fill-rule="evenodd"/><text fill="#000000" fill-opacity="0" font-family="Arial,Arial_MSFontService,sans-serif" font-size="97.9761" x="123.877" y="1058.3">ğ‘ƒ</text><path d="M180.845 1138.84C185.199 1138.84 189.231 1139.1 192.939 1139.63 196.648 1140.16 200.775 1141.11 205.321 1142.5L201.014 1161.95 194.124 1161.95C193.741 1156.07 192.461 1151.82 190.284 1149.21 188.106 1146.6 184.601 1145.3 179.768 1145.3 173.165 1145.3 167.028 1148.6 161.357 1155.2 155.687 1161.81 151.201 1170.53 147.899 1181.37 144.597 1192.21 142.947 1202.27 142.947 1211.55 142.947 1218.82 144.239 1224.18 146.823 1227.63 149.407 1231.07 153.378 1232.8 158.738 1232.8 162.326 1232.8 165.461 1232.26 168.14 1231.18 170.82 1230.1 173.332 1228.29 175.677 1225.73 178.022 1223.17 180.343 1219.59 182.639 1215L189.53 1215 185.152 1235.38C176.203 1237.87 166.825 1239.11 157.015 1239.11 148.019 1239.11 141.176 1236.53 136.487 1231.36 131.797 1226.19 129.452 1218.63 129.452 1208.68 129.452 1201.64 130.709 1193.53 133.221 1184.35 135.733 1175.16 139.286 1167.1 143.88 1160.16 148.473 1153.22 153.905 1147.93 160.173 1144.29 166.442 1140.66 173.332 1138.84 180.845 1138.84Z" fill-rule="evenodd"/><text fill="#000000" fill-opacity="0" font-family="Arial,Arial_MSFontService,sans-serif" font-size="100.273" x="129.452" y="1226.58">ğ¶</text><path d="M232.11 1227.79 234.838 1227.79 224.885 1274.78C223.864 1279.63 222.476 1283.53 220.721 1286.48 218.967 1289.43 216.686 1291.65 213.879 1293.13 211.071 1294.61 207.722 1295.36 203.83 1295.36 202.235 1295.36 200.879 1295.2 199.762 1294.88L200.863 1290.67C201.533 1290.92 202.745 1291.05 204.5 1291.05 206.031 1291.05 207.331 1290.82 208.4 1290.36 209.468 1289.89 210.465 1289.13 211.39 1288.06 212.316 1286.99 213.169 1285.5 213.95 1283.58 214.732 1281.67 215.458 1279.2 216.128 1276.17L223.88 1241.71C224.613 1238.46 224.98 1236.07 224.98 1234.54 224.98 1233.1 224.637 1232.13 223.951 1231.62 223.266 1231.11 221.918 1230.82 219.908 1230.76L220.434 1228.22ZM230.818 1209.46 239.288 1209.46 237.087 1218.75 228.617 1218.75Z" fill-rule="evenodd"/><text fill="#000000" fill-opacity="0" font-family="Arial,Arial_MSFontService,sans-serif" font-size="85.8936" x="199.762" y="1284.62">ğ‘—</text><path d="M152.383 1341.82C154.776 1341.82 156.666 1342.35 158.054 1343.4 159.441 1344.45 160.554 1346.26 161.391 1348.82 162.229 1351.38 162.839 1354.87 163.222 1359.3 163.605 1363.72 163.963 1370.51 164.298 1379.65L188.703 1342.97 203.489 1342.97 202.699 1346.41C201.407 1347.71 199.936 1349.27 198.285 1351.11 196.634 1352.96 195.21 1354.58 194.014 1356 192.818 1357.41 190.425 1360.34 186.836 1364.79L165.447 1391.56C166.069 1399.94 166.691 1406.65 167.313 1411.7 167.935 1416.74 168.557 1420.49 169.179 1422.93 169.801 1425.37 170.447 1427.21 171.117 1428.46 171.787 1429.7 172.505 1430.51 173.271 1430.9 174.036 1431.28 174.897 1431.47 175.855 1431.47 177.003 1431.47 178.319 1430.98 179.802 1430 181.286 1429.02 182.865 1427.57 184.54 1425.66L188.559 1429.68C185.401 1432.98 182.35 1435.48 179.408 1437.18 176.465 1438.87 173.51 1439.72 170.543 1439.72 168.15 1439.72 166.284 1439.29 164.944 1438.43 163.605 1437.57 162.528 1436.21 161.714 1434.34 160.614 1431.66 159.8 1427.33 159.274 1421.35 158.891 1416.76 158.58 1409 158.341 1398.09L142.478 1420.77C137.884 1427.33 134.008 1433.34 130.85 1438.79L115.849 1438.79 116.566 1435.35C120.49 1431.42 125.897 1425.18 132.788 1416.61L157.192 1386.11C156.235 1376.92 155.386 1369.99 154.644 1365.33 153.903 1360.66 153.137 1357.26 152.347 1355.13 151.558 1353.01 150.732 1351.63 149.871 1351.01 149.01 1350.39 147.957 1350.07 146.713 1350.07 145.66 1350.07 144.356 1350.56 142.801 1351.55 141.246 1352.53 139.655 1353.97 138.028 1355.89L134.008 1351.87C137.645 1348.28 140.815 1345.71 143.519 1344.15 146.222 1342.6 149.177 1341.82 152.383 1341.82Z" fill-rule="evenodd"/><text fill="#000000" fill-opacity="0" font-family="Arial,Arial_MSFontService,sans-serif" font-size="97.9043" x="115.849" y="1427.49">ğœ’</text><path d="M229.206 1401.41 231.934 1401.41 221.981 1448.4C220.96 1453.25 219.572 1457.15 217.818 1460.1 216.063 1463.05 213.782 1465.27 210.975 1466.75 208.168 1468.24 204.818 1468.98 200.926 1468.98 199.331 1468.98 197.975 1468.82 196.859 1468.5L197.959 1464.29C198.629 1464.54 199.841 1464.67 201.596 1464.67 203.127 1464.67 204.427 1464.44 205.496 1463.98 206.565 1463.52 207.562 1462.75 208.487 1461.68 209.412 1460.61 210.265 1459.12 211.047 1457.21 211.828 1455.29 212.554 1452.82 213.224 1449.79L220.976 1415.34C221.71 1412.08 222.077 1409.69 222.077 1408.16 222.077 1406.72 221.734 1405.75 221.048 1405.24 220.362 1404.73 219.014 1404.44 217.004 1404.38L217.531 1401.84ZM227.914 1383.09 236.384 1383.09 234.183 1392.37 225.713 1392.37Z" fill-rule="evenodd"/><text fill="#000000" fill-opacity="0" font-family="Arial,Arial_MSFontService,sans-serif" font-size="85.8936" x="196.859" y="1458.24">ğ‘—</text><path d="M383.5 474.5 383.5 1831.35" stroke="#000000" stroke-width="9.16667" stroke-miterlimit="8" fill="none" fill-rule="evenodd"/><path d="M386.5 1831.5 3352.99 1831.5" stroke="#000000" stroke-width="9.16667" stroke-miterlimit="8" fill="none" fill-rule="evenodd"/><path d="M386.5 772.5 1351.93 772.5" stroke="#000000" stroke-width="9.16667" stroke-miterlimit="8" fill="none" fill-rule="evenodd"/><path d="M493.742 613.751 568.678 613.751 563.079 639.016 556.188 639.016C556.188 634.375 556.069 630.894 555.83 628.573 555.59 626.252 555.136 624.482 554.466 623.261 553.796 622.041 552.97 621.204 551.99 620.749 551.009 620.294 549.274 620.067 546.786 620.067L536.163 620.067 520.587 690.84C520.156 692.706 519.857 694.189 519.69 695.29 519.522 696.39 519.379 697.551 519.259 698.771 519.139 699.991 519.08 701.08 519.08 702.037 519.08 703.52 519.319 704.681 519.797 705.518 520.276 706.356 520.994 706.966 521.951 707.348 522.908 707.731 524.559 708.018 526.903 708.21L526.114 711.727 495.896 711.727 496.685 708.21C498.599 707.923 500.011 707.54 500.92 707.061 501.829 706.583 502.631 705.841 503.324 704.836 504.018 703.831 504.712 702.252 505.406 700.099 506.1 697.946 506.925 694.692 507.882 690.337L523.243 620.067 514.127 620.067C511.16 620.067 508.792 620.498 507.021 621.359 505.25 622.221 503.48 623.824 501.709 626.168 499.939 628.513 497.786 632.437 495.25 637.94L488.359 637.94Z" fill-rule="evenodd"/><text fill="#000000" fill-opacity="0" font-family="Arial,Arial_MSFontService,sans-serif" font-size="97.9761" x="488.359" y="699.48">ğ‘‡</text><text font-family="Arial,Arial_MSFontService,sans-serif" font-weight="400" font-size="98" transform="matrix(1 0 0 1 573.649 748)">f</text><path d="M722.947 610.779C719.981 610.779 716.87 610.851 713.616 610.994L703.855 654.491 711.32 654.491C717.11 654.491 721.787 653.893 725.352 652.697 728.917 651.501 731.836 649.646 734.109 647.134 736.382 644.622 738.14 641.643 739.384 638.198 740.629 634.753 741.251 630.972 741.251 626.857 741.251 621.306 739.839 617.239 737.016 614.655 734.193 612.071 729.503 610.779 722.947 610.779ZM692.873 604.462 724.527 604.462C730.221 604.462 734.898 604.905 738.559 605.79 742.22 606.676 745.234 608.039 747.603 609.882 749.972 611.724 751.742 614.057 752.914 616.88 754.087 619.703 754.673 622.981 754.673 626.713 754.673 633.891 752.974 640.112 749.577 645.376 746.179 650.639 741.574 654.515 735.76 657.003 729.946 659.492 722.971 660.736 714.837 660.736 709.956 660.736 705.888 660.64 702.634 660.449L698.041 681.551C697.61 683.513 697.311 685.021 697.143 686.073 696.976 687.126 696.832 688.263 696.713 689.483 696.593 690.703 696.533 691.792 696.533 692.749 696.533 694.232 696.773 695.392 697.251 696.23 697.73 697.067 698.447 697.677 699.404 698.06 700.362 698.443 702.012 698.73 704.357 698.921L703.568 702.439 674.067 702.439 674.857 698.921C676.675 698.634 678.039 698.168 678.948 697.522 679.857 696.876 680.623 695.979 681.245 694.83 681.867 693.682 682.441 692.282 682.967 690.631 683.494 688.98 684.283 685.786 685.336 681.049L697.538 625.78C698.591 620.995 699.117 617.215 699.117 614.44 699.117 612.095 698.567 610.468 697.466 609.559 696.366 608.649 694.571 608.123 692.083 607.98Z" fill-rule="evenodd"/><text fill="#000000" fill-opacity="0" font-family="Arial,Arial_MSFontService,sans-serif" font-size="97.9761" x="674.067" y="690.192">ğ‘ƒ</text><text font-family="Arial,Arial_MSFontService,sans-serif" font-weight="400" font-size="98" transform="matrix(1 0 0 1 764.644 738)">f</text><path d="M910.656 603.314C915.01 603.314 919.042 603.577 922.75 604.104 926.459 604.63 930.586 605.587 935.132 606.975L930.825 626.426 923.934 626.426C923.552 620.541 922.272 616.294 920.094 613.686 917.917 611.078 914.412 609.774 909.579 609.774 902.975 609.774 896.839 613.076 891.168 619.679 885.498 626.283 881.012 635.004 877.71 645.842 874.408 656.68 872.757 666.741 872.757 676.024 872.757 683.298 874.049 688.657 876.633 692.103 879.217 695.548 883.189 697.271 888.548 697.271 892.137 697.271 895.271 696.732 897.951 695.656 900.631 694.579 903.143 692.761 905.488 690.201 907.832 687.64 910.153 684.064 912.45 679.47L919.341 679.47 914.962 699.855C906.014 702.343 896.635 703.587 886.826 703.587 877.829 703.587 870.987 701.003 866.297 695.835 861.608 690.667 859.263 683.107 859.263 673.153 859.263 666.119 860.519 658.008 863.031 648.821 865.544 639.633 869.097 631.57 873.69 624.632 878.284 617.693 883.715 612.406 889.984 608.769 896.252 605.132 903.143 603.314 910.656 603.314Z" fill-rule="evenodd"/><text fill="#000000" fill-opacity="0" font-family="Arial,Arial_MSFontService,sans-serif" font-size="100.273" x="859.263" y="691.053">ğ¶</text><path d="M961.921 692.264 964.648 692.264 954.695 739.254C953.674 744.103 952.287 748.003 950.532 750.954 948.778 753.905 946.497 756.122 943.689 757.605 940.882 759.089 937.532 759.83 933.641 759.83 932.045 759.83 930.69 759.671 929.573 759.352L930.674 755.141C931.344 755.396 932.556 755.524 934.31 755.524 935.842 755.524 937.142 755.292 938.21 754.83 939.279 754.367 940.276 753.602 941.201 752.533 942.126 751.464 942.98 749.973 943.761 748.059 944.543 746.145 945.268 743.672 945.938 740.642L953.69 706.189C954.424 702.935 954.791 700.542 954.791 699.011 954.791 697.575 954.448 696.602 953.762 696.092 953.076 695.582 951.728 695.294 949.719 695.231L950.245 692.695ZM960.629 673.937 969.099 673.937 966.897 683.22 958.428 683.22Z" fill-rule="evenodd"/><text fill="#000000" fill-opacity="0" font-family="Arial,Arial_MSFontService,sans-serif" font-size="85.8936" x="929.573" y="749.094">ğ‘—</text><text font-family="Arial,Arial_MSFontService,sans-serif" font-weight="400" font-size="98" transform="matrix(1 0 0 1 974.675 738)">,f</text><path d="M1121.06 611.606C1123.46 611.606 1125.35 612.133 1126.74 613.186 1128.12 614.238 1129.24 616.045 1130.07 618.605 1130.91 621.165 1131.52 624.658 1131.9 629.084 1132.29 633.51 1132.64 640.293 1132.98 649.433L1157.38 612.755 1172.17 612.755 1171.38 616.2C1170.09 617.492 1168.62 619.059 1166.97 620.902 1165.32 622.744 1163.89 624.371 1162.7 625.782 1161.5 627.194 1159.11 630.125 1155.52 634.575L1134.13 661.348C1134.75 669.722 1135.37 676.433 1135.99 681.482 1136.62 686.53 1137.24 690.274 1137.86 692.715 1138.48 695.155 1139.13 696.998 1139.8 698.242 1140.47 699.486 1141.19 700.299 1141.95 700.682 1142.72 701.065 1143.58 701.256 1144.54 701.256 1145.68 701.256 1147 700.766 1148.48 699.785 1149.97 698.804 1151.55 697.356 1153.22 695.442L1157.24 699.462C1154.08 702.764 1151.03 705.264 1148.09 706.963 1145.15 708.661 1142.19 709.511 1139.22 709.511 1136.83 709.511 1134.97 709.08 1133.63 708.219 1132.29 707.357 1131.21 705.994 1130.4 704.127 1129.3 701.448 1128.48 697.117 1127.96 691.136 1127.57 686.542 1127.26 678.79 1127.02 667.88L1111.16 690.562C1106.57 697.117 1102.69 703.123 1099.53 708.578L1084.53 708.578 1085.25 705.132C1089.17 701.208 1094.58 694.964 1101.47 686.398L1125.87 655.893C1124.92 646.706 1124.07 639.779 1123.33 635.114 1122.58 630.448 1121.82 627.051 1121.03 624.921 1120.24 622.792 1119.41 621.416 1118.55 620.794 1117.69 620.172 1116.64 619.861 1115.39 619.861 1114.34 619.861 1113.04 620.351 1111.48 621.332 1109.93 622.313 1108.34 623.761 1106.71 625.675L1102.69 621.655C1106.33 618.066 1109.5 615.494 1112.2 613.939 1114.9 612.384 1117.86 611.606 1121.06 611.606Z" fill-rule="evenodd"/><text fill="#000000" fill-opacity="0" font-family="Arial,Arial_MSFontService,sans-serif" font-size="97.9043" x="1084.53" y="697.273">ğœ’</text><path d="M1197.89 671.199 1200.62 671.199 1190.66 718.19C1189.64 723.039 1188.25 726.938 1186.5 729.889 1184.74 732.84 1182.46 735.057 1179.66 736.541 1176.85 738.024 1173.5 738.766 1169.61 738.766 1168.01 738.766 1166.66 738.606 1165.54 738.287L1166.64 734.076C1167.31 734.331 1168.52 734.459 1170.28 734.459 1171.81 734.459 1173.11 734.228 1174.18 733.765 1175.25 733.303 1176.24 732.537 1177.17 731.468 1178.09 730.4 1178.95 728.908 1179.73 726.994 1180.51 725.08 1181.24 722.608 1181.91 719.577L1189.66 685.124C1190.39 681.87 1190.76 679.478 1190.76 677.946 1190.76 676.511 1190.41 675.538 1189.73 675.027 1189.04 674.517 1187.7 674.23 1185.69 674.166L1186.21 671.63ZM1196.6 652.872 1205.07 652.872 1202.86 662.155 1194.39 662.155Z" fill-rule="evenodd"/><text fill="#000000" fill-opacity="0" font-family="Arial,Arial_MSFontService,sans-serif" font-size="85.8936" x="1165.54" y="728.029">ğ‘—</text><text font-family="Arial,Arial_MSFontService,sans-serif" font-weight="400" font-size="98" transform="matrix(1 0 0 1 1210.64 717)">,f<tspan font-size="128" x="-827.841" y="1252">Upstream</tspan></text><path d="M1352 771 1352 1827.7" stroke="#FF0000" stroke-width="5.72917" stroke-miterlimit="8" stroke-dasharray="17.1875 5.72917" fill="none" fill-rule="evenodd"/><text font-family="Arial,Arial_MSFontService,sans-serif" font-weight="400" font-size="128" transform="matrix(1 0 0 1 1752.95 1969)">Inside<tspan font-size="128" x="-632.118" y="0">Entrance</tspan></text><path d="M1352.5 1358.5 3353.56 1359.67" stroke="#000000" stroke-width="9.16667" stroke-miterlimit="8" fill="none" fill-rule="evenodd"/><path d="M2376 786 2376 1842.7" stroke="#FF0000" stroke-width="5.72917" stroke-miterlimit="8" stroke-dasharray="17.1875 5.72917" fill="none" fill-rule="evenodd"/><text font-family="Arial,Arial_MSFontService,sans-serif" font-weight="400" font-size="128" transform="matrix(1 0 0 1 2279.18 1969)">Exit</text><path d="M2602.28 1191.7 2677.22 1191.7 2671.62 1216.97 2664.73 1216.97C2664.73 1212.33 2664.61 1208.84 2664.37 1206.52 2664.13 1204.2 2663.68 1202.43 2663.01 1201.21 2662.34 1199.99 2661.51 1199.15 2660.53 1198.7 2659.55 1198.25 2657.81 1198.02 2655.33 1198.02L2644.7 1198.02 2629.13 1268.79C2628.7 1270.66 2628.4 1272.14 2628.23 1273.24 2628.06 1274.34 2627.92 1275.5 2627.8 1276.72 2627.68 1277.94 2627.62 1279.03 2627.62 1279.99 2627.62 1281.47 2627.86 1282.63 2628.34 1283.47 2628.82 1284.31 2629.53 1284.92 2630.49 1285.3 2631.45 1285.68 2633.1 1285.97 2635.44 1286.16L2634.65 1289.68 2604.44 1289.68 2605.22 1286.16C2607.14 1285.87 2608.55 1285.49 2609.46 1285.01 2610.37 1284.53 2611.17 1283.79 2611.86 1282.79 2612.56 1281.78 2613.25 1280.2 2613.95 1278.05 2614.64 1275.9 2615.46 1272.64 2616.42 1268.29L2631.78 1198.02 2622.67 1198.02C2619.7 1198.02 2617.33 1198.45 2615.56 1199.31 2613.79 1200.17 2612.02 1201.77 2610.25 1204.12 2608.48 1206.46 2606.33 1210.39 2603.79 1215.89L2596.9 1215.89Z" fill-rule="evenodd"/><text fill="#000000" fill-opacity="0" font-family="Arial,Arial_MSFontService,sans-serif" font-size="97.9761" x="2596.9" y="1277.43">ğ‘‡</text><path d="M2831.6 1188.73C2828.63 1188.73 2825.52 1188.8 2822.27 1188.95L2812.51 1232.44 2819.97 1232.44C2825.76 1232.44 2830.44 1231.84 2834.01 1230.65 2837.57 1229.45 2840.49 1227.6 2842.76 1225.09 2845.04 1222.57 2846.79 1219.59 2848.04 1216.15 2849.28 1212.7 2849.9 1208.92 2849.9 1204.81 2849.9 1199.26 2848.49 1195.19 2845.67 1192.61 2842.85 1190.02 2838.16 1188.73 2831.6 1188.73ZM2801.53 1182.41 2833.18 1182.41C2838.88 1182.41 2843.55 1182.86 2847.21 1183.74 2850.87 1184.63 2853.89 1185.99 2856.26 1187.83 2858.63 1189.68 2860.4 1192.01 2861.57 1194.83 2862.74 1197.65 2863.33 1200.93 2863.33 1204.66 2863.33 1211.84 2861.63 1218.06 2858.23 1223.33 2854.83 1228.59 2850.23 1232.47 2844.41 1234.95 2838.6 1237.44 2831.63 1238.69 2823.49 1238.69 2818.61 1238.69 2814.54 1238.59 2811.29 1238.4L2806.69 1259.5C2806.26 1261.46 2805.97 1262.97 2805.8 1264.02 2805.63 1265.08 2805.49 1266.21 2805.37 1267.43 2805.25 1268.65 2805.19 1269.74 2805.19 1270.7 2805.19 1272.18 2805.43 1273.34 2805.91 1274.18 2806.38 1275.02 2807.1 1275.63 2808.06 1276.01 2809.02 1276.39 2810.67 1276.68 2813.01 1276.87L2812.22 1280.39 2782.72 1280.39 2783.51 1276.87C2785.33 1276.59 2786.69 1276.12 2787.6 1275.47 2788.51 1274.83 2789.28 1273.93 2789.9 1272.78 2790.52 1271.63 2791.1 1270.23 2791.62 1268.58 2792.15 1266.93 2792.94 1263.74 2793.99 1259L2806.19 1203.73C2807.25 1198.95 2807.77 1195.17 2807.77 1192.39 2807.77 1190.05 2807.22 1188.42 2806.12 1187.51 2805.02 1186.6 2803.23 1186.07 2800.74 1185.93Z" fill-rule="evenodd"/><text fill="#000000" fill-opacity="0" font-family="Arial,Arial_MSFontService,sans-serif" font-size="97.9761" x="2782.72" y="1268.14">ğ‘ƒ</text><path d="M3019.29 1181.27C3023.64 1181.27 3027.67 1181.53 3031.38 1182.05 3035.09 1182.58 3039.22 1183.54 3043.76 1184.93L3039.46 1204.38 3032.57 1204.38C3032.18 1198.49 3030.9 1194.24 3028.73 1191.64 3026.55 1189.03 3023.04 1187.73 3018.21 1187.73 3011.61 1187.73 3005.47 1191.03 2999.8 1197.63 2994.13 1204.23 2989.64 1212.95 2986.34 1223.79 2983.04 1234.63 2981.39 1244.69 2981.39 1253.98 2981.39 1261.25 2982.68 1266.61 2985.26 1270.05 2987.85 1273.5 2991.82 1275.22 2997.18 1275.22 3000.77 1275.22 3003.9 1274.68 3006.58 1273.61 3009.26 1272.53 3011.77 1270.71 3014.12 1268.15 3016.46 1265.59 3018.78 1262.01 3021.08 1257.42L3027.97 1257.42 3023.59 1277.81C3014.65 1280.29 3005.27 1281.54 2995.46 1281.54 2986.46 1281.54 2979.62 1278.95 2974.93 1273.79 2970.24 1268.62 2967.89 1261.06 2967.89 1251.1 2967.89 1244.07 2969.15 1235.96 2971.66 1226.77 2974.17 1217.58 2977.73 1209.52 2982.32 1202.58 2986.92 1195.64 2992.35 1190.36 2998.61 1186.72 3004.88 1183.08 3011.77 1181.27 3019.29 1181.27Z" fill-rule="evenodd"/><text fill="#000000" fill-opacity="0" font-family="Arial,Arial_MSFontService,sans-serif" font-size="100.273" x="2967.89" y="1269">ğ¶</text><path d="M3070.55 1270.21 3073.28 1270.21 3063.33 1317.21C3062.31 1322.05 3060.92 1325.95 3059.16 1328.9 3057.41 1331.86 3055.13 1334.07 3052.32 1335.56 3049.51 1337.04 3046.16 1337.78 3042.27 1337.78 3040.68 1337.78 3039.32 1337.62 3038.2 1337.3L3039.3 1333.09C3039.97 1333.35 3041.19 1333.47 3042.94 1333.47 3044.47 1333.47 3045.77 1333.24 3046.84 1332.78 3047.91 1332.32 3048.91 1331.55 3049.83 1330.48 3050.76 1329.42 3051.61 1327.92 3052.39 1326.01 3053.17 1324.1 3053.9 1321.62 3054.57 1318.59L3062.32 1284.14C3063.06 1280.89 3063.42 1278.49 3063.42 1276.96 3063.42 1275.53 3063.08 1274.55 3062.39 1274.04 3061.71 1273.53 3060.36 1273.25 3058.35 1273.18L3058.88 1270.65ZM3069.26 1251.89 3077.73 1251.89 3075.53 1261.17 3067.06 1261.17Z" fill-rule="evenodd"/><text fill="#000000" fill-opacity="0" font-family="Arial,Arial_MSFontService,sans-serif" font-size="85.8936" x="3038.2" y="1327.04">ğ‘—</text><path d="M3229.7 1189.56C3232.09 1189.56 3233.98 1190.08 3235.37 1191.14 3236.75 1192.19 3237.87 1194 3238.7 1196.56 3239.54 1199.12 3240.15 1202.61 3240.53 1207.04 3240.92 1211.46 3241.28 1218.24 3241.61 1227.38L3266.02 1190.71 3280.8 1190.71 3280.01 1194.15C3278.72 1195.44 3277.25 1197.01 3275.6 1198.85 3273.95 1200.69 3272.52 1202.32 3271.33 1203.73 3270.13 1205.15 3267.74 1208.08 3264.15 1212.53L3242.76 1239.3C3243.38 1247.67 3244 1254.38 3244.63 1259.43 3245.25 1264.48 3245.87 1268.23 3246.49 1270.67 3247.11 1273.11 3247.76 1274.95 3248.43 1276.19 3249.1 1277.44 3249.82 1278.25 3250.58 1278.63 3251.35 1279.02 3252.21 1279.21 3253.17 1279.21 3254.32 1279.21 3255.63 1278.72 3257.11 1277.74 3258.6 1276.76 3260.18 1275.31 3261.85 1273.39L3265.87 1277.41C3262.71 1280.71 3259.66 1283.21 3256.72 1284.91 3253.78 1286.61 3250.82 1287.46 3247.86 1287.46 3245.46 1287.46 3243.6 1287.03 3242.26 1286.17 3240.92 1285.31 3239.84 1283.94 3239.03 1282.08 3237.93 1279.4 3237.11 1275.07 3236.59 1269.09 3236.2 1264.49 3235.89 1256.74 3235.65 1245.83L3219.79 1268.51C3215.2 1275.07 3211.32 1281.07 3208.16 1286.53L3193.16 1286.53 3193.88 1283.08C3197.8 1279.16 3203.21 1272.91 3210.1 1264.35L3234.51 1233.84C3233.55 1224.66 3232.7 1217.73 3231.96 1213.06 3231.22 1208.4 3230.45 1205 3229.66 1202.87 3228.87 1200.74 3228.05 1199.37 3227.18 1198.74 3226.32 1198.12 3225.27 1197.81 3224.03 1197.81 3222.97 1197.81 3221.67 1198.3 3220.11 1199.28 3218.56 1200.26 3216.97 1201.71 3215.34 1203.63L3211.32 1199.61C3214.96 1196.02 3218.13 1193.45 3220.83 1191.89 3223.54 1190.34 3226.49 1189.56 3229.7 1189.56Z" fill-rule="evenodd"/><text fill="#000000" fill-opacity="0" font-family="Arial,Arial_MSFontService,sans-serif" font-size="97.9043" x="3193.16" y="1275.22">ğœ’</text><path d="M3306.52 1249.15 3309.25 1249.15 3299.29 1296.14C3298.27 1300.99 3296.89 1304.89 3295.13 1307.84 3293.38 1310.79 3291.09 1313.01 3288.29 1314.49 3285.48 1315.98 3282.13 1316.72 3278.24 1316.72 3276.64 1316.72 3275.29 1316.56 3274.17 1316.24L3275.27 1312.03C3275.94 1312.28 3277.15 1312.41 3278.91 1312.41 3280.44 1312.41 3281.74 1312.18 3282.81 1311.72 3283.88 1311.25 3284.87 1310.49 3285.8 1309.42 3286.72 1308.35 3287.58 1306.86 3288.36 1304.95 3289.14 1303.03 3289.87 1300.56 3290.54 1297.53L3298.29 1263.08C3299.02 1259.82 3299.39 1257.43 3299.39 1255.9 3299.39 1254.46 3299.05 1253.49 3298.36 1252.98 3297.67 1252.47 3296.33 1252.18 3294.32 1252.12L3294.84 1249.58ZM3305.23 1230.82 3313.7 1230.82 3311.5 1240.11 3303.03 1240.11Z" fill-rule="evenodd"/><text fill="#000000" fill-opacity="0" font-family="Arial,Arial_MSFontService,sans-serif" font-size="85.8936" x="3274.17" y="1305.98">ğ‘—</text><path d="M1475.85 1190.64 1550.79 1190.64 1545.19 1215.91 1538.3 1215.91C1538.3 1211.26 1538.18 1207.78 1537.94 1205.46 1537.7 1203.14 1537.24 1201.37 1536.57 1200.15 1535.9 1198.93 1535.08 1198.09 1534.1 1197.64 1533.12 1197.18 1531.38 1196.96 1528.89 1196.96L1518.27 1196.96 1502.7 1267.73C1502.26 1269.6 1501.97 1271.08 1501.8 1272.18 1501.63 1273.28 1501.49 1274.44 1501.37 1275.66 1501.25 1276.88 1501.19 1277.97 1501.19 1278.93 1501.19 1280.41 1501.43 1281.57 1501.91 1282.41 1502.38 1283.25 1503.1 1283.86 1504.06 1284.24 1505.02 1284.62 1506.67 1284.91 1509.01 1285.1L1508.22 1288.62 1478 1288.62 1478.79 1285.1C1480.71 1284.81 1482.12 1284.43 1483.03 1283.95 1483.94 1283.47 1484.74 1282.73 1485.43 1281.73 1486.13 1280.72 1486.82 1279.14 1487.51 1276.99 1488.21 1274.84 1489.03 1271.58 1489.99 1267.23L1505.35 1196.96 1496.24 1196.96C1493.27 1196.96 1490.9 1197.39 1489.13 1198.25 1487.36 1199.11 1485.59 1200.71 1483.82 1203.06 1482.05 1205.4 1479.89 1209.33 1477.36 1214.83L1470.47 1214.83Z" fill-rule="evenodd"/><text fill="#000000" fill-opacity="0" font-family="Arial,Arial_MSFontService,sans-serif" font-size="97.9761" x="1470.47" y="1276.37">ğ‘‡</text><path d="M1705.17 1187.67C1702.2 1187.67 1699.09 1187.74 1695.84 1187.88L1686.08 1231.38 1693.54 1231.38C1699.33 1231.38 1704.01 1230.78 1707.57 1229.59 1711.14 1228.39 1714.06 1226.54 1716.33 1224.02 1718.6 1221.51 1720.36 1218.53 1721.61 1215.09 1722.85 1211.64 1723.47 1207.86 1723.47 1203.75 1723.47 1198.2 1722.06 1194.13 1719.24 1191.54 1716.42 1188.96 1711.73 1187.67 1705.17 1187.67ZM1675.1 1181.35 1706.75 1181.35C1712.44 1181.35 1717.12 1181.8 1720.78 1182.68 1724.44 1183.57 1727.46 1184.93 1729.83 1186.77 1732.19 1188.61 1733.96 1190.95 1735.14 1193.77 1736.31 1196.59 1736.9 1199.87 1736.9 1203.6 1736.9 1210.78 1735.2 1217 1731.8 1222.27 1728.4 1227.53 1723.8 1231.41 1717.98 1233.89 1712.17 1236.38 1705.19 1237.63 1697.06 1237.63 1692.18 1237.63 1688.11 1237.53 1684.86 1237.34L1680.26 1258.44C1679.83 1260.4 1679.53 1261.91 1679.37 1262.96 1679.2 1264.02 1679.06 1265.15 1678.94 1266.37 1678.82 1267.59 1678.76 1268.68 1678.76 1269.64 1678.76 1271.12 1679 1272.28 1679.47 1273.12 1679.95 1273.96 1680.67 1274.57 1681.63 1274.95 1682.58 1275.33 1684.24 1275.62 1686.58 1275.81L1685.79 1279.33 1656.29 1279.33 1657.08 1275.81C1658.9 1275.52 1660.26 1275.06 1661.17 1274.41 1662.08 1273.77 1662.85 1272.87 1663.47 1271.72 1664.09 1270.57 1664.66 1269.17 1665.19 1267.52 1665.72 1265.87 1666.51 1262.68 1667.56 1257.94L1679.76 1202.67C1680.81 1197.89 1681.34 1194.1 1681.34 1191.33 1681.34 1188.98 1680.79 1187.36 1679.69 1186.45 1678.59 1185.54 1676.79 1185.01 1674.31 1184.87Z" fill-rule="evenodd"/><text fill="#000000" fill-opacity="0" font-family="Arial,Arial_MSFontService,sans-serif" font-size="97.9761" x="1656.29" y="1267.08">ğ‘ƒ</text><path d="M2005.2 1180.2C2009.55 1180.2 2013.58 1180.47 2017.29 1180.99 2021 1181.52 2025.13 1182.48 2029.67 1183.86L2025.37 1203.32 2018.48 1203.32C2018.09 1197.43 2016.81 1193.18 2014.64 1190.58 2012.46 1187.97 2008.95 1186.66 2004.12 1186.66 1997.52 1186.66 1991.38 1189.97 1985.71 1196.57 1980.04 1203.17 1975.55 1211.89 1972.25 1222.73 1968.95 1233.57 1967.3 1243.63 1967.3 1252.91 1967.3 1260.19 1968.59 1265.55 1971.18 1268.99 1973.76 1272.44 1977.73 1274.16 1983.09 1274.16 1986.68 1274.16 1989.81 1273.62 1992.49 1272.55 1995.17 1271.47 1997.69 1269.65 2000.03 1267.09 2002.37 1264.53 2004.7 1260.95 2006.99 1256.36L2013.88 1256.36 2009.5 1276.74C2000.56 1279.23 1991.18 1280.48 1981.37 1280.48 1972.37 1280.48 1965.53 1277.89 1960.84 1272.73 1956.15 1267.56 1953.81 1260 1953.81 1250.04 1953.81 1243.01 1955.06 1234.9 1957.57 1225.71 1960.09 1216.52 1963.64 1208.46 1968.23 1201.52 1972.83 1194.58 1978.26 1189.3 1984.53 1185.66 1990.79 1182.02 1997.69 1180.2 2005.2 1180.2Z" fill-rule="evenodd"/><text fill="#000000" fill-opacity="0" font-family="Arial,Arial_MSFontService,sans-serif" font-size="100.273" x="1953.81" y="1267.94">ğ¶</text><path d="M2056.46 1269.15 2059.19 1269.15 2049.24 1316.14C2048.22 1320.99 2046.83 1324.89 2045.07 1327.84 2043.32 1330.79 2041.04 1333.01 2038.23 1334.5 2035.42 1335.98 2032.07 1336.72 2028.18 1336.72 2026.59 1336.72 2025.23 1336.56 2024.12 1336.24L2025.22 1332.03C2025.89 1332.29 2027.1 1332.41 2028.85 1332.41 2030.38 1332.41 2031.68 1332.18 2032.75 1331.72 2033.82 1331.26 2034.82 1330.49 2035.74 1329.42 2036.67 1328.35 2037.52 1326.86 2038.3 1324.95 2039.08 1323.03 2039.81 1320.56 2040.48 1317.53L2048.23 1283.08C2048.97 1279.82 2049.33 1277.43 2049.33 1275.9 2049.33 1274.47 2048.99 1273.49 2048.3 1272.98 2047.62 1272.47 2046.27 1272.18 2044.26 1272.12L2044.79 1269.58ZM2055.17 1250.83 2063.64 1250.83 2061.44 1260.11 2052.97 1260.11Z" fill-rule="evenodd"/><text fill="#000000" fill-opacity="0" font-family="Arial,Arial_MSFontService,sans-serif" font-size="85.8936" x="2024.12" y="1325.98">ğ‘—</text><path d="M2215.61 1188.5C2218 1188.5 2219.89 1189.02 2221.28 1190.08 2222.66 1191.13 2223.78 1192.93 2224.61 1195.49 2225.45 1198.05 2226.06 1201.55 2226.45 1205.97 2226.83 1210.4 2227.19 1217.18 2227.52 1226.32L2251.93 1189.64 2266.71 1189.64 2265.92 1193.09C2264.63 1194.38 2263.16 1195.95 2261.51 1197.79 2259.86 1199.63 2258.43 1201.26 2257.24 1202.67 2256.04 1204.08 2253.65 1207.02 2250.06 1211.47L2228.67 1238.24C2229.29 1246.61 2229.91 1253.32 2230.54 1258.37 2231.16 1263.42 2231.78 1267.16 2232.4 1269.6 2233.02 1272.05 2233.67 1273.89 2234.34 1275.13 2235.01 1276.38 2235.73 1277.19 2236.49 1277.57 2237.26 1277.95 2238.12 1278.15 2239.08 1278.15 2240.23 1278.15 2241.54 1277.66 2243.03 1276.67 2244.51 1275.69 2246.09 1274.25 2247.76 1272.33L2251.78 1276.35C2248.62 1279.65 2245.57 1282.15 2242.63 1283.85 2239.69 1285.55 2236.73 1286.4 2233.77 1286.4 2231.37 1286.4 2229.51 1285.97 2228.17 1285.11 2226.83 1284.25 2225.75 1282.88 2224.94 1281.02 2223.84 1278.34 2223.02 1274.01 2222.5 1268.03 2222.11 1263.43 2221.8 1255.68 2221.56 1244.77L2205.7 1267.45C2201.11 1274.01 2197.23 1280.01 2194.07 1285.47L2179.07 1285.47 2179.79 1282.02C2183.71 1278.1 2189.12 1271.85 2196.01 1263.29L2220.42 1232.78C2219.46 1223.6 2218.61 1216.67 2217.87 1212 2217.13 1207.34 2216.36 1203.94 2215.57 1201.81 2214.78 1199.68 2213.96 1198.31 2213.09 1197.68 2212.23 1197.06 2211.18 1196.75 2209.94 1196.75 2208.88 1196.75 2207.58 1197.24 2206.02 1198.22 2204.47 1199.2 2202.88 1200.65 2201.25 1202.56L2197.23 1198.55C2200.87 1194.96 2204.04 1192.38 2206.74 1190.83 2209.45 1189.27 2212.4 1188.5 2215.61 1188.5Z" fill-rule="evenodd"/><text fill="#000000" fill-opacity="0" font-family="Arial,Arial_MSFontService,sans-serif" font-size="97.9043" x="2179.07" y="1274.16">ğœ’</text><path d="M2292.43 1248.09 2295.16 1248.09 2285.2 1295.08C2284.18 1299.93 2282.8 1303.83 2281.04 1306.78 2279.29 1309.73 2277.01 1311.95 2274.2 1313.43 2271.39 1314.91 2268.04 1315.66 2264.15 1315.66 2262.55 1315.66 2261.2 1315.5 2260.08 1315.18L2261.18 1310.97C2261.85 1311.22 2263.06 1311.35 2264.82 1311.35 2266.35 1311.35 2267.65 1311.12 2268.72 1310.66 2269.79 1310.19 2270.79 1309.43 2271.71 1308.36 2272.64 1307.29 2273.49 1305.8 2274.27 1303.88 2275.05 1301.97 2275.78 1299.5 2276.45 1296.47L2284.2 1262.01C2284.93 1258.76 2285.3 1256.37 2285.3 1254.84 2285.3 1253.4 2284.96 1252.43 2284.27 1251.92 2283.59 1251.41 2282.24 1251.12 2280.23 1251.06L2280.75 1248.52ZM2291.14 1229.76 2299.61 1229.76 2297.41 1239.05 2288.94 1239.05Z" fill-rule="evenodd"/><text fill="#000000" fill-opacity="0" font-family="Arial,Arial_MSFontService,sans-serif" font-size="85.8936" x="2260.08" y="1304.92">ğ‘—</text><text font-family="Arial,Arial_MSFontService,sans-serif" font-weight="400" font-size="128" transform="matrix(1 0 0 1 2644.68 1969)">Downstream<tspan font-size="128" x="-1450.34" y="353">Relative Position in Reactor</tspan></text><path d="M0 0 1023.93 0.000360892" stroke="#FF0000" stroke-width="5.72917" stroke-miterlimit="8" stroke-dasharray="17.1875 5.72917" fill="none" fill-rule="evenodd" transform="matrix(-1 0 0 1 2375.93 771)"/><path d="M1773.7 1013.81C1776.28 1042.26 1822.21 1064.14 1891.13 1069.74L1887.63 1031.18 1971.58 1083.8 1897.3 1137.69 1893.8 1099.13C1824.87 1093.52 1778.95 1071.65 1776.37 1043.19Z" fill-rule="evenodd"/><path d="M1959.75 953.426C1869.67 961.599 1794.17 992.806 1778.97 1028.14 1754.16 990.845 1816.74 946.472 1918.74 929.035 1931.3 926.886 1944.15 925.212 1957.08 924.039Z" fill-rule="evenodd"/><path d="M1773.7 1013.81C1776.28 1042.26 1822.21 1064.14 1891.13 1069.74L1887.63 1031.18 1971.58 1083.8 1897.3 1137.69 1893.8 1099.13C1824.87 1093.52 1778.95 1071.65 1776.37 1043.19L1773.7 1013.81C1770.07 973.749 1852.17 933.559 1957.08 924.039L1959.75 953.426C1869.67 961.599 1794.17 992.806 1778.97 1028.14" stroke="#000000" stroke-width="4.58333" stroke-miterlimit="8" fill="none" fill-rule="evenodd"/><path d="M1865.5 696.5 1865.5 1656.14" stroke="#000000" stroke-width="9.16667" stroke-miterlimit="8" fill="none" fill-rule="evenodd"/><path d="M1866.5 1621C1866.5 1611.89 1873.89 1604.5 1883 1604.5L1955 1604.5C1964.11 1604.5 1971.5 1611.89 1971.5 1621L1971.5 1687C1971.5 1696.11 1964.11 1703.5 1955 1703.5L1883 1703.5C1873.89 1703.5 1866.5 1696.11 1866.5 1687Z" stroke="#000000" stroke-width="9.16667" stroke-miterlimit="8" fill="none" fill-rule="evenodd"/><path d="M1759.5 1622.83C1759.5 1613.81 1766.81 1606.5 1775.83 1606.5L1849.17 1606.5C1858.19 1606.5 1865.5 1613.81 1865.5 1622.83L1865.5 1688.17C1865.5 1697.19 1858.19 1704.5 1849.17 1704.5L1775.83 1704.5C1766.81 1704.5 1759.5 1697.19 1759.5 1688.17Z" stroke="#000000" stroke-width="9.16667" stroke-miterlimit="8" fill="none" fill-rule="evenodd"/><path d="M1866.5 1398C1866.5 1388.89 1873.89 1381.5 1883 1381.5L1955 1381.5C1964.11 1381.5 1971.5 1388.89 1971.5 1398L1971.5 1464C1971.5 1473.11 1964.11 1480.5 1955 1480.5L1883 1480.5C1873.89 1480.5 1866.5 1473.11 1866.5 1464Z" stroke="#000000" stroke-width="9.16667" stroke-miterlimit="8" fill="none" fill-rule="evenodd"/><path d="M1759.5 1399.83C1759.5 1390.81 1766.81 1383.5 1775.83 1383.5L1849.17 1383.5C1858.19 1383.5 1865.5 1390.81 1865.5 1399.83L1865.5 1465.17C1865.5 1474.19 1858.19 1481.5 1849.17 1481.5L1775.83 1481.5C1766.81 1481.5 1759.5 1474.19 1759.5 1465.17Z" stroke="#000000" stroke-width="9.16667" stroke-miterlimit="8" fill="none" fill-rule="evenodd"/></g></svg>