<svg width="2086" height="1105" xmlns="http://www.w3.org/2000/svg" xmlns:xlink="http://www.w3.org/1999/xlink" overflow="hidden"><defs><clipPath id="clip0"><rect x="818" y="586" width="2086" height="1105"/></clipPath></defs><g clip-path="url(#clip0)" transform="translate(-818 -586)"><rect x="1573.5" y="1144.5" width="632" height="540" stroke="#2F528F" stroke-width="4.58333" stroke-miterlimit="8" fill="#B4C7E7"/><path d="M1791.02 904.572C1793.61 933.028 1839.53 954.9 1908.45 960.505L1904.95 921.947 1988.9 974.56 1914.62 1028.45 1911.12 989.892C1842.19 984.287 1796.27 962.415 1793.69 933.959Z" fill-rule="evenodd"/><path d="M1977.07 844.19C1886.99 852.364 1811.49 883.571 1796.3 918.908 1771.48 881.609 1834.06 837.237 1936.06 819.799 1948.63 817.651 1961.47 815.977 1974.4 814.803Z" fill-rule="evenodd"/><path d="M1791.02 904.572C1793.61 933.028 1839.53 954.9 1908.45 960.505L1904.95 921.947 1988.9 974.56 1914.62 1028.45 1911.12 989.892C1842.19 984.287 1796.27 962.415 1793.69 933.959L1791.02 904.572C1787.39 864.514 1869.49 824.323 1974.4 814.803L1977.07 844.19C1886.99 852.364 1811.49 883.571 1796.3 918.908" stroke="#000000" stroke-width="4.58333" stroke-miterlimit="8" fill="none" fill-rule="evenodd"/><rect x="1569" y="1052" width="640" height="632" stroke="#000000" stroke-width="13.75" stroke-miterlimit="8" fill="none"/><path d="M1882.5 586.5 1882.5 1546.14" stroke="#000000" stroke-width="9.16667" stroke-miterlimit="8" fill="none" fill-rule="evenodd"/><path d="M1883.5 1511.17C1883.5 1501.96 1890.96 1494.5 1900.17 1494.5L1971.83 1494.5C1981.04 1494.5 1988.5 1501.96 1988.5 1511.17L1988.5 1577.83C1988.5 1587.04 1981.04 1594.5 1971.83 1594.5L1900.17 1594.5C1890.96 1594.5 1883.5 1587.04 1883.5 1577.83Z" stroke="#000000" stroke-width="9.16667" stroke-miterlimit="8" fill="none" fill-rule="evenodd"/><path d="M1777.5 1513.83C1777.5 1504.81 1784.81 1497.5 1793.83 1497.5L1866.17 1497.5C1875.19 1497.5 1882.5 1504.81 1882.5 1513.83L1882.5 1579.17C1882.5 1588.19 1875.19 1595.5 1866.17 1595.5L1793.83 1595.5C1784.81 1595.5 1777.5 1588.19 1777.5 1579.17Z" stroke="#000000" stroke-width="9.16667" stroke-miterlimit="8" fill="none" fill-rule="evenodd"/><path d="M1883.5 1288.17C1883.5 1278.96 1890.96 1271.5 1900.17 1271.5L1971.83 1271.5C1981.04 1271.5 1988.5 1278.96 1988.5 1288.17L1988.5 1354.83C1988.5 1364.04 1981.04 1371.5 1971.83 1371.5L1900.17 1371.5C1890.96 1371.5 1883.5 1364.04 1883.5 1354.83Z" stroke="#000000" stroke-width="9.16667" stroke-miterlimit="8" fill="none" fill-rule="evenodd"/><path d="M1777.5 1290.83C1777.5 1281.81 1784.81 1274.5 1793.83 1274.5L1866.17 1274.5C1875.19 1274.5 1882.5 1281.81 1882.5 1290.83L1882.5 1356.17C1882.5 1365.19 1875.19 1372.5 1866.17 1372.5L1793.83 1372.5C1784.81 1372.5 1777.5 1365.19 1777.5 1356.17Z" stroke="#000000" stroke-width="9.16667" stroke-miterlimit="8" fill="none" fill-rule="evenodd"/><path d="M818.5 810.917 1665.64 810.917 1665.64 1004.5 1656.47 1004.5 1656.47 815.5 1661.05 820.083 818.5 820.083ZM1683.97 999.913 1661.05 1045.75 1638.14 999.913Z"/><path d="M2209.5 1589.92 2816.43 1589.92 2816.43 1599.08 2209.5 1599.08ZM2811.85 1571.58 2857.68 1594.5 2811.85 1617.42Z"/><path d="M1079.13 627.29 1143.88 627.29 1138.92 649.326 1132.03 649.326C1131.84 645.641 1131.54 642.734 1131.14 640.605 1130.73 638.475 1130.16 636.944 1129.41 636.011 1128.67 635.078 1127.78 634.444 1126.72 634.109 1125.67 633.774 1124.09 633.606 1121.99 633.606L1099.88 633.606 1091.34 672.653 1104.76 672.653C1106.86 672.653 1108.61 672.366 1110 671.792 1111.39 671.218 1112.68 670.177 1113.87 668.67 1115.07 667.162 1116.55 664.59 1118.32 660.954L1124.86 660.954 1117.89 691.244 1111.58 691.244C1111.58 686.411 1111.42 683.384 1111.11 682.164 1110.8 680.944 1110.2 680.106 1109.32 679.652 1108.43 679.197 1106.67 678.97 1104.04 678.97L1089.97 678.97 1084.3 704.379C1083.3 708.877 1082.79 712.609 1082.79 715.576 1082.79 717.06 1083.03 718.22 1083.51 719.057 1083.99 719.895 1084.71 720.505 1085.67 720.888 1086.62 721.271 1088.27 721.558 1090.62 721.749L1089.83 725.266 1060.33 725.266 1061.12 721.749C1062.94 721.462 1064.3 720.995 1065.21 720.349 1066.12 719.703 1066.88 718.806 1067.51 717.658 1068.13 716.509 1068.7 715.11 1069.23 713.459 1069.76 711.808 1070.54 708.614 1071.6 703.876L1083.8 648.608C1084.85 643.823 1085.38 640.042 1085.38 637.267 1085.38 634.922 1084.83 633.295 1083.73 632.386 1082.63 631.477 1080.83 630.951 1078.34 630.807Z" fill-rule="evenodd"/><text fill="#000000" fill-opacity="0" font-family="Arial,Arial_MSFontService,sans-serif" font-size="97.9761" x="1060.33" y="713.019">𝐹</text><path d="M1170.3 715.091 1173.03 715.091 1163.08 762.082C1162.06 766.931 1160.67 770.831 1158.91 773.781 1157.16 776.732 1154.88 778.949 1152.07 780.433 1149.26 781.916 1145.92 782.658 1142.02 782.658 1140.43 782.658 1139.07 782.498 1137.96 782.179L1139.06 777.968C1139.73 778.224 1140.94 778.351 1142.69 778.351 1144.22 778.351 1145.52 778.12 1146.59 777.657 1147.66 777.195 1148.66 776.429 1149.58 775.36 1150.51 774.292 1151.36 772.8 1152.14 770.886 1152.93 768.972 1153.65 766.5 1154.32 763.469L1162.07 729.016C1162.81 725.762 1163.17 723.37 1163.17 721.839 1163.17 720.403 1162.83 719.43 1162.14 718.92 1161.46 718.409 1160.11 718.122 1158.1 718.058L1158.63 715.522ZM1169.01 696.764 1177.48 696.764 1175.28 706.047 1166.81 706.047Z" fill-rule="evenodd"/><text fill="#000000" fill-opacity="0" font-family="Arial,Arial_MSFontService,sans-serif" font-size="85.8936" x="1137.96" y="771.921">𝑗</text><text font-family="Arial,Arial_MSFontService,sans-serif" font-weight="400" font-size="98" transform="matrix(1 0 0 1 1183.06 761)">,f</text><path d="M2476.6 1419.28 2541.34 1419.28 2536.39 1441.32 2529.5 1441.32C2529.31 1437.63 2529.01 1434.73 2528.6 1432.6 2528.19 1430.47 2527.62 1428.94 2526.88 1428 2526.14 1427.07 2525.24 1426.44 2524.19 1426.1 2523.13 1425.77 2521.55 1425.6 2519.45 1425.6L2497.34 1425.6 2488.8 1464.65 2502.22 1464.65C2504.33 1464.65 2506.07 1464.36 2507.46 1463.78 2508.85 1463.21 2510.14 1462.17 2511.34 1460.66 2512.53 1459.15 2514.02 1456.58 2515.79 1452.95L2522.32 1452.95 2515.36 1483.24 2509.04 1483.24C2509.04 1478.4 2508.88 1475.38 2508.57 1474.16 2508.26 1472.94 2507.66 1472.1 2506.78 1471.64 2505.89 1471.19 2504.14 1470.96 2501.5 1470.96L2487.44 1470.96 2481.76 1496.37C2480.76 1500.87 2480.26 1504.6 2480.26 1507.57 2480.26 1509.05 2480.5 1510.21 2480.98 1511.05 2481.45 1511.89 2482.17 1512.5 2483.13 1512.88 2484.09 1513.26 2485.74 1513.55 2488.08 1513.74L2487.29 1517.26 2457.79 1517.26 2458.58 1513.74C2460.4 1513.45 2461.76 1512.99 2462.67 1512.34 2463.58 1511.7 2464.35 1510.8 2464.97 1509.65 2465.59 1508.5 2466.17 1507.1 2466.69 1505.45 2467.22 1503.8 2468.01 1500.61 2469.06 1495.87L2481.26 1440.6C2482.32 1435.81 2482.84 1432.03 2482.84 1429.26 2482.84 1426.91 2482.29 1425.29 2481.19 1424.38 2480.09 1423.47 2478.3 1422.94 2475.81 1422.8Z" fill-rule="evenodd"/><text fill="#000000" fill-opacity="0" font-family="Arial,Arial_MSFontService,sans-serif" font-size="97.9761" x="2457.79" y="1505.01">𝐹</text><path d="M2567.77 1507.08 2570.49 1507.08 2560.54 1554.07C2559.52 1558.92 2558.13 1562.82 2556.38 1565.77 2554.62 1568.72 2552.34 1570.94 2549.53 1572.42 2546.73 1573.91 2543.38 1574.65 2539.49 1574.65 2537.89 1574.65 2536.54 1574.49 2535.42 1574.17L2536.52 1569.96C2537.19 1570.22 2538.4 1570.34 2540.16 1570.34 2541.69 1570.34 2542.99 1570.11 2544.06 1569.65 2545.12 1569.19 2546.12 1568.42 2547.05 1567.35 2547.97 1566.28 2548.83 1564.79 2549.61 1562.88 2550.39 1560.96 2551.11 1558.49 2551.78 1555.46L2559.54 1521.01C2560.27 1517.75 2560.64 1515.36 2560.64 1513.83 2560.64 1512.39 2560.29 1511.42 2559.61 1510.91 2558.92 1510.4 2557.57 1510.11 2555.56 1510.05L2556.09 1507.51ZM2566.47 1488.76 2574.94 1488.76 2572.74 1498.04 2564.27 1498.04Z" fill-rule="evenodd"/><text fill="#000000" fill-opacity="0" font-family="Arial,Arial_MSFontService,sans-serif" font-size="85.8936" x="2535.42" y="1563.91">𝑗</text></g></svg>