<svg width="3211" height="2567" xmlns="http://www.w3.org/2000/svg" xmlns:xlink="http://www.w3.org/1999/xlink" xml:space="preserve" overflow="hidden"><defs><linearGradient x1="1719" y1="366.881" x2="1719" y2="1215.69" gradientUnits="userSpaceOnUse" spreadMethod="reflect" id="fill0"><stop offset="0" stop-color="#ED7D31"/><stop offset="0.00595238" stop-color="#EC7C32"/><stop offset="0.0119048" stop-color="#EC7C34"/><stop offset="0.0178571" stop-color="#EC7C35"/><stop offset="0.0238095" stop-color="#EC7C37"/><stop offset="0.0297619" stop-color="#EC7C39"/><stop offset="0.0357143" stop-color="#EC7C3A"/><stop offset="0.0416667" stop-color="#EC7C3C"/><stop offset="0.047619" stop-color="#EC7C3D"/><stop offset="0.0535714" stop-color="#EC7C3F"/><stop offset="0.0595238" stop-color="#EC7C40"/><stop offset="0.0654762" stop-color="#EB7C42"/><stop offset="0.0714286" stop-color="#EB7C44"/><stop offset="0.077381" stop-color="#EB7C45"/><stop offset="0.0833333" stop-color="#EB7C47"/><stop offset="0.0892857" stop-color="#EB7C48"/><stop offset="0.0952381" stop-color="#EA7C4A"/><stop offset="0.10119" stop-color="#EA7C4B"/><stop offset="0.107143" stop-color="#EA7C4D"/><stop offset="0.113095" stop-color="#EA7C4E"/><stop offset="0.119048" stop-color="#E97C50"/><stop offset="0.125" stop-color="#E97C51"/><stop offset="0.130952" stop-color="#E97C53"/><stop offset="0.136905" stop-color="#E87C54"/><stop offset="0.142857" stop-color="#E87C55"/><stop offset="0.14881" stop-color="#E87C57"/><stop offset="0.154762" stop-color="#E77C58"/><stop offset="0.160714" stop-color="#E77C5A"/><stop offset="0.166667" stop-color="#E77C5B"/><stop offset="0.172619" stop-color="#E67C5C"/><stop offset="0.178571" stop-color="#E67C5E"/><stop offset="0.184524" stop-color="#E57C5F"/><stop offset="0.190476" stop-color="#E57C61"/><stop offset="0.196429" stop-color="#E57C62"/><stop offset="0.202381" stop-color="#E47C63"/><stop offset="0.208333" stop-color="#E47C65"/><stop offset="0.214286" stop-color="#E37C66"/><stop offset="0.220238" stop-color="#E37C67"/><stop offset="0.22619" stop-color="#E27C69"/><stop offset="0.232143" stop-color="#E27C6A"/><stop offset="0.238095" stop-color="#E17C6B"/><stop offset="0.244048" stop-color="#E07C6D"/><stop offset="0.25" stop-color="#E07C6E"/><stop offset="0.255952" stop-color="#DF7C6F"/><stop offset="0.261905" stop-color="#DF7C70"/><stop offset="0.267857" stop-color="#DE7C72"/><stop offset="0.27381" stop-color="#DE7C73"/><stop offset="0.279762" stop-color="#DD7B74"/><stop offset="0.285714" stop-color="#DC7B75"/><stop offset="0.291667" stop-color="#DC7B76"/><stop offset="0.297619" stop-color="#DB7B78"/><stop offset="0.303571" stop-color="#DA7B79"/><stop offset="0.309524" stop-color="#DA7B7A"/><stop offset="0.315476" stop-color="#D97B7B"/><stop offset="0.321429" stop-color="#D87B7C"/><stop offset="0.327381" stop-color="#D87B7E"/><stop offset="0.333333" stop-color="#D77B7F"/><stop offset="0.339286" stop-color="#D67B80"/><stop offset="0.345238" stop-color="#D57B81"/><stop offset="0.35119" stop-color="#D57B82"/><stop offset="0.357143" stop-color="#D47B83"/><stop offset="0.363095" stop-color="#D37B84"/><stop offset="0.369048" stop-color="#D27B86"/><stop offset="0.375" stop-color="#D27B87"/><stop offset="0.380952" stop-color="#D17B88"/><stop offset="0.386905" stop-color="#D07B89"/><stop offset="0.392857" stop-color="#CF7B8A"/><stop offset="0.39881" stop-color="#CE7B8B"/><stop offset="0.404762" stop-color="#CD7A8C"/><stop offset="0.410714" stop-color="#CD7A8D"/><stop offset="0.416667" stop-color="#CC7A8E"/><stop offset="0.422619" stop-color="#CB7A8F"/><stop offset="0.428571" stop-color="#CA7A90"/><stop offset="0.434524" stop-color="#C97A91"/><stop offset="0.440476" stop-color="#C87A92"/><stop offset="0.446429" stop-color="#C77A93"/><stop offset="0.452381" stop-color="#C67A94"/><stop offset="0.458333" stop-color="#C57A95"/><stop offset="0.464286" stop-color="#C47A96"/><stop offset="0.470238" stop-color="#C37A97"/><stop offset="0.47619" stop-color="#C27A98"/><stop offset="0.482143" stop-color="#C17A99"/><stop offset="0.488095" stop-color="#C07A9A"/><stop offset="0.494048" stop-color="#BF7A9B"/><stop offset="0.5" stop-color="#BE7A9B"/><stop offset="0.505952" stop-color="#BD799C"/><stop offset="0.511905" stop-color="#BC799D"/><stop offset="0.517857" stop-color="#BB799E"/><stop offset="0.52381" stop-color="#BA799F"/><stop offset="0.529762" stop-color="#B979A0"/><stop offset="0.535714" stop-color="#B879A1"/><stop offset="0.541667" stop-color="#B779A1"/><stop offset="0.547619" stop-color="#B679A2"/><stop offset="0.553571" stop-color="#B579A3"/><stop offset="0.559524" stop-color="#B479A4"/><stop offset="0.565476" stop-color="#B279A5"/><stop offset="0.571429" stop-color="#B179A5"/><stop offset="0.577381" stop-color="#B079A6"/><stop offset="0.583333" stop-color="#AF78A7"/><stop offset="0.589286" stop-color="#AE78A8"/><stop offset="0.595238" stop-color="#AD78A9"/><stop offset="0.60119" stop-color="#AB78A9"/><stop offset="0.607143" stop-color="#AA78AA"/><stop offset="0.613095" stop-color="#A978AB"/><stop offset="0.619048" stop-color="#A878AB"/><stop offset="0.625" stop-color="#A678AC"/><stop offset="0.630952" stop-color="#A578AD"/><stop offset="0.636905" stop-color="#A478AE"/><stop offset="0.642857" stop-color="#A378AE"/><stop offset="0.64881" stop-color="#A178AF"/><stop offset="0.654762" stop-color="#A078AF"/><stop offset="0.660714" stop-color="#9F77B0"/><stop offset="0.666667" stop-color="#9D77B1"/><stop offset="0.672619" stop-color="#9C77B1"/><stop offset="0.678571" stop-color="#9B77B2"/><stop offset="0.684524" stop-color="#9977B3"/><stop offset="0.690476" stop-color="#9877B3"/><stop offset="0.696429" stop-color="#9777B4"/><stop offset="0.702381" stop-color="#9577B4"/><stop offset="0.708333" stop-color="#9477B5"/><stop offset="0.714286" stop-color="#9377B5"/><stop offset="0.720238" stop-color="#9177B6"/><stop offset="0.72619" stop-color="#9076B7"/><stop offset="0.732143" stop-color="#8E76B7"/><stop offset="0.738095" stop-color="#8D76B8"/><stop offset="0.744048" stop-color="#8B76B8"/><stop offset="0.75" stop-color="#8A76B9"/><stop offset="0.755952" stop-color="#8876B9"/><stop offset="0.761905" stop-color="#8776BA"/><stop offset="0.767857" stop-color="#8676BA"/><stop offset="0.77381" stop-color="#8476BA"/><stop offset="0.779762" stop-color="#8276BB"/><stop offset="0.785714" stop-color="#8176BB"/><stop offset="0.791667" stop-color="#7F75BC"/><stop offset="0.797619" stop-color="#7E75BC"/><stop offset="0.803571" stop-color="#7C75BD"/><stop offset="0.809524" stop-color="#7B75BD"/><stop offset="0.815476" stop-color="#7975BD"/><stop offset="0.821429" stop-color="#7875BE"/><stop offset="0.827381" stop-color="#7675BE"/><stop offset="0.833333" stop-color="#7475BE"/><stop offset="0.839286" stop-color="#7375BF"/><stop offset="0.845238" stop-color="#7174BF"/><stop offset="0.85119" stop-color="#7074BF"/><stop offset="0.857143" stop-color="#6E74C0"/><stop offset="0.863095" stop-color="#6C74C0"/><stop offset="0.869048" stop-color="#6B74C0"/><stop offset="0.875" stop-color="#6974C1"/><stop offset="0.880952" stop-color="#6774C1"/><stop offset="0.886905" stop-color="#6674C1"/><stop offset="0.892857" stop-color="#6474C1"/><stop offset="0.89881" stop-color="#6273C1"/><stop offset="0.904762" stop-color="#6073C2"/><stop offset="0.910714" stop-color="#5F73C2"/><stop offset="0.916667" stop-color="#5D73C2"/><stop offset="0.922619" stop-color="#5B73C2"/><stop offset="0.928571" stop-color="#5973C2"/><stop offset="0.934524" stop-color="#5873C3"/><stop offset="0.940476" stop-color="#5673C3"/><stop offset="0.946429" stop-color="#5473C3"/><stop offset="0.952381" stop-color="#5272C3"/><stop offset="0.958333" stop-color="#5072C3"/><stop offset="0.964286" stop-color="#4F72C3"/><stop offset="0.970238" stop-color="#4D72C3"/><stop offset="0.97619" stop-color="#4B72C3"/><stop offset="0.982143" stop-color="#4972C3"/><stop offset="0.988095" stop-color="#4772C3"/><stop offset="0.994048" stop-color="#4572C3"/><stop offset="1" stop-color="#4472C4"/></linearGradient><linearGradient x1="2782" y1="366.881" x2="2782" y2="1972.25" gradientUnits="userSpaceOnUse" spreadMethod="reflect" id="fill1"><stop offset="0" stop-color="#ED7D31"/><stop offset="0.00806452" stop-color="#EC7D31"/><stop offset="0.016129" stop-color="#EC7E31"/><stop offset="0.0241935" stop-color="#EC7F31"/><stop offset="0.0322581" stop-color="#EC7F32"/><stop offset="0.0403226" stop-color="#EC8032"/><stop offset="0.0483871" stop-color="#EC8132"/><stop offset="0.0564516" stop-color="#EC8133"/><stop offset="0.0645161" stop-color="#EC8233"/><stop offset="0.0725806" stop-color="#EC8333"/><stop offset="0.0806452" stop-color="#EB8434"/><stop offset="0.0887097" stop-color="#EB8434"/><stop offset="0.0967742" stop-color="#EB8534"/><stop offset="0.104839" stop-color="#EB8635"/><stop offset="0.112903" stop-color="#EA8635"/><stop offset="0.120968" stop-color="#EA8735"/><stop offset="0.129032" stop-color="#EA8736"/><stop offset="0.137097" stop-color="#E98836"/><stop offset="0.145161" stop-color="#E98936"/><stop offset="0.153226" stop-color="#E98936"/><stop offset="0.16129" stop-color="#E88A37"/><stop offset="0.169355" stop-color="#E88B37"/><stop offset="0.177419" stop-color="#E88B37"/><stop offset="0.185484" stop-color="#E78C38"/><stop offset="0.193548" stop-color="#E78C38"/><stop offset="0.201613" stop-color="#E68D38"/><stop offset="0.209677" stop-color="#E68E38"/><stop offset="0.217742" stop-color="#E58E39"/><stop offset="0.225806" stop-color="#E58F39"/><stop offset="0.233871" stop-color="#E48F39"/><stop offset="0.241935" stop-color="#E49039"/><stop offset="0.25" stop-color="#E3913A"/><stop offset="0.258065" stop-color="#E3913A"/><stop offset="0.266129" stop-color="#E2923A"/><stop offset="0.274194" stop-color="#E1923A"/><stop offset="0.282258" stop-color="#E1933B"/><stop offset="0.290323" stop-color="#E0933B"/><stop offset="0.298387" stop-color="#E0943B"/><stop offset="0.306452" stop-color="#DF943B"/><stop offset="0.314516" stop-color="#DE953C"/><stop offset="0.322581" stop-color="#DE953C"/><stop offset="0.330645" stop-color="#DD963C"/><stop offset="0.33871" stop-color="#DC963C"/><stop offset="0.346774" stop-color="#DB973D"/><stop offset="0.354839" stop-color="#DB973D"/><stop offset="0.362903" stop-color="#DA983D"/><stop offset="0.370968" stop-color="#D9983D"/><stop offset="0.379032" stop-color="#D8993D"/><stop offset="0.387097" stop-color="#D7993E"/><stop offset="0.395161" stop-color="#D79A3E"/><stop offset="0.403226" stop-color="#D69A3E"/><stop offset="0.41129" stop-color="#D59B3E"/><stop offset="0.419355" stop-color="#D49B3F"/><stop offset="0.427419" stop-color="#D39C3F"/><stop offset="0.435484" stop-color="#D29C3F"/><stop offset="0.443548" stop-color="#D19D3F"/><stop offset="0.451613" stop-color="#D09D3F"/><stop offset="0.459677" stop-color="#CF9D40"/><stop offset="0.467742" stop-color="#CE9E40"/><stop offset="0.475806" stop-color="#CD9E40"/><stop offset="0.483871" stop-color="#CC9F40"/><stop offset="0.491935" stop-color="#CB9F40"/><stop offset="0.5" stop-color="#CA9F41"/><stop offset="0.508065" stop-color="#C9A041"/><stop offset="0.516129" stop-color="#C8A041"/><stop offset="0.524194" stop-color="#C7A141"/><stop offset="0.532258" stop-color="#C6A141"/><stop offset="0.540323" stop-color="#C5A141"/><stop offset="0.548387" stop-color="#C4A242"/><stop offset="0.556452" stop-color="#C3A242"/><stop offset="0.564516" stop-color="#C2A242"/><stop offset="0.572581" stop-color="#C1A342"/><stop offset="0.580645" stop-color="#BFA342"/><stop offset="0.58871" stop-color="#BEA342"/><stop offset="0.596774" stop-color="#BDA442"/><stop offset="0.604839" stop-color="#BCA443"/><stop offset="0.612903" stop-color="#BBA443"/><stop offset="0.620968" stop-color="#B9A543"/><stop offset="0.629032" stop-color="#B8A543"/><stop offset="0.637097" stop-color="#B7A543"/><stop offset="0.645161" stop-color="#B6A643"/><stop offset="0.653226" stop-color="#B4A643"/><stop offset="0.66129" stop-color="#B3A644"/><stop offset="0.669355" stop-color="#B2A644"/><stop offset="0.677419" stop-color="#B0A744"/><stop offset="0.685484" stop-color="#AFA744"/><stop offset="0.693548" stop-color="#AEA744"/><stop offset="0.701613" stop-color="#ACA844"/><stop offset="0.709677" stop-color="#ABA844"/><stop offset="0.717742" stop-color="#A9A844"/><stop offset="0.725806" stop-color="#A8A845"/><stop offset="0.733871" stop-color="#A7A845"/><stop offset="0.741935" stop-color="#A5A945"/><stop offset="0.75" stop-color="#A4A945"/><stop offset="0.758065" stop-color="#A2A945"/><stop offset="0.766129" stop-color="#A1A945"/><stop offset="0.774194" stop-color="#9FAA45"/><stop offset="0.782258" stop-color="#9EAA45"/><stop offset="0.790323" stop-color="#9CAA45"/><stop offset="0.798387" stop-color="#9BAA45"/><stop offset="0.806452" stop-color="#99AA45"/><stop offset="0.814516" stop-color="#97AA46"/><stop offset="0.822581" stop-color="#96AB46"/><stop offset="0.830645" stop-color="#94AB46"/><stop offset="0.83871" stop-color="#93AB46"/><stop offset="0.846774" stop-color="#91AB46"/><stop offset="0.854839" stop-color="#8FAB46"/><stop offset="0.862903" stop-color="#8EAB46"/><stop offset="0.870968" stop-color="#8CAB46"/><stop offset="0.879032" stop-color="#8AAC46"/><stop offset="0.887097" stop-color="#89AC46"/><stop offset="0.895161" stop-color="#87AC46"/><stop offset="0.903226" stop-color="#85AC46"/><stop offset="0.91129" stop-color="#83AC46"/><stop offset="0.919355" stop-color="#82AC46"/><stop offset="0.927419" stop-color="#80AC46"/><stop offset="0.935484" stop-color="#7EAC46"/><stop offset="0.943548" stop-color="#7CAC46"/><stop offset="0.951613" stop-color="#7BAC46"/><stop offset="0.959677" stop-color="#79AC46"/><stop offset="0.967742" stop-color="#77AC46"/><stop offset="0.975806" stop-color="#75AC46"/><stop offset="0.983871" stop-color="#73AC46"/><stop offset="0.991935" stop-color="#71AC46"/><stop offset="1" stop-color="#70AD47"/></linearGradient><linearGradient x1="1721" y1="1123.88" x2="1721" y2="1972.69" gradientUnits="userSpaceOnUse" spreadMethod="reflect" id="fill2"><stop offset="0" stop-color="#4472C4"/><stop offset="0.00806452" stop-color="#4472C3"/><stop offset="0.016129" stop-color="#4573C3"/><stop offset="0.0241935" stop-color="#4574C3"/><stop offset="0.0322581" stop-color="#4675C3"/><stop offset="0.0403226" stop-color="#4776C3"/><stop offset="0.0483871" stop-color="#4777C3"/><stop offset="0.0564516" stop-color="#4878C3"/><stop offset="0.0645161" stop-color="#4978C3"/><stop offset="0.0725806" stop-color="#4979C3"/><stop offset="0.0806452" stop-color="#4A7AC2"/><stop offset="0.0887097" stop-color="#4B7BC2"/><stop offset="0.0967742" stop-color="#4B7CC2"/><stop offset="0.104839" stop-color="#4C7DC2"/><stop offset="0.112903" stop-color="#4C7DC1"/><stop offset="0.120968" stop-color="#4D7EC1"/><stop offset="0.129032" stop-color="#4E7FC1"/><stop offset="0.137097" stop-color="#4E80C0"/><stop offset="0.145161" stop-color="#4F81C0"/><stop offset="0.153226" stop-color="#4F81C0"/><stop offset="0.16129" stop-color="#5082BF"/><stop offset="0.169355" stop-color="#5083BF"/><stop offset="0.177419" stop-color="#5184BF"/><stop offset="0.185484" stop-color="#5284BE"/><stop offset="0.193548" stop-color="#5285BE"/><stop offset="0.201613" stop-color="#5386BD"/><stop offset="0.209677" stop-color="#5387BD"/><stop offset="0.217742" stop-color="#5487BC"/><stop offset="0.225806" stop-color="#5488BC"/><stop offset="0.233871" stop-color="#5589BB"/><stop offset="0.241935" stop-color="#5589BB"/><stop offset="0.25" stop-color="#568ABA"/><stop offset="0.258065" stop-color="#568BBA"/><stop offset="0.266129" stop-color="#578BB9"/><stop offset="0.274194" stop-color="#578CB8"/><stop offset="0.282258" stop-color="#588DB8"/><stop offset="0.290323" stop-color="#588DB7"/><stop offset="0.298387" stop-color="#598EB7"/><stop offset="0.306452" stop-color="#598FB6"/><stop offset="0.314516" stop-color="#5A8FB5"/><stop offset="0.322581" stop-color="#5A90B5"/><stop offset="0.330645" stop-color="#5B91B4"/><stop offset="0.33871" stop-color="#5B91B3"/><stop offset="0.346774" stop-color="#5C92B2"/><stop offset="0.354839" stop-color="#5C93B2"/><stop offset="0.362903" stop-color="#5D93B1"/><stop offset="0.370968" stop-color="#5D94B0"/><stop offset="0.379032" stop-color="#5D94AF"/><stop offset="0.387097" stop-color="#5E95AE"/><stop offset="0.395161" stop-color="#5E96AE"/><stop offset="0.403226" stop-color="#5F96AD"/><stop offset="0.41129" stop-color="#5F97AC"/><stop offset="0.419355" stop-color="#6097AB"/><stop offset="0.427419" stop-color="#6098AA"/><stop offset="0.435484" stop-color="#6098A9"/><stop offset="0.443548" stop-color="#6199A8"/><stop offset="0.451613" stop-color="#6199A7"/><stop offset="0.459677" stop-color="#629AA6"/><stop offset="0.467742" stop-color="#629AA5"/><stop offset="0.475806" stop-color="#629BA4"/><stop offset="0.483871" stop-color="#639BA3"/><stop offset="0.491935" stop-color="#639CA2"/><stop offset="0.5" stop-color="#649CA1"/><stop offset="0.508065" stop-color="#649DA0"/><stop offset="0.516129" stop-color="#649D9F"/><stop offset="0.524194" stop-color="#659E9E"/><stop offset="0.532258" stop-color="#659E9D"/><stop offset="0.540323" stop-color="#659F9C"/><stop offset="0.548387" stop-color="#669F9B"/><stop offset="0.556452" stop-color="#66A09A"/><stop offset="0.564516" stop-color="#66A099"/><stop offset="0.572581" stop-color="#67A198"/><stop offset="0.580645" stop-color="#67A196"/><stop offset="0.58871" stop-color="#67A195"/><stop offset="0.596774" stop-color="#67A294"/><stop offset="0.604839" stop-color="#68A293"/><stop offset="0.612903" stop-color="#68A392"/><stop offset="0.620968" stop-color="#68A390"/><stop offset="0.629032" stop-color="#69A38F"/><stop offset="0.637097" stop-color="#69A48E"/><stop offset="0.645161" stop-color="#69A48D"/><stop offset="0.653226" stop-color="#69A48B"/><stop offset="0.66129" stop-color="#6AA58A"/><stop offset="0.669355" stop-color="#6AA589"/><stop offset="0.677419" stop-color="#6AA587"/><stop offset="0.685484" stop-color="#6AA686"/><stop offset="0.693548" stop-color="#6BA685"/><stop offset="0.701613" stop-color="#6BA683"/><stop offset="0.709677" stop-color="#6BA782"/><stop offset="0.717742" stop-color="#6BA780"/><stop offset="0.725806" stop-color="#6CA77F"/><stop offset="0.733871" stop-color="#6CA87E"/><stop offset="0.741935" stop-color="#6CA87C"/><stop offset="0.75" stop-color="#6CA87B"/><stop offset="0.758065" stop-color="#6CA879"/><stop offset="0.766129" stop-color="#6DA978"/><stop offset="0.774194" stop-color="#6DA976"/><stop offset="0.782258" stop-color="#6DA975"/><stop offset="0.790323" stop-color="#6DA973"/><stop offset="0.798387" stop-color="#6DAA72"/><stop offset="0.806452" stop-color="#6DAA70"/><stop offset="0.814516" stop-color="#6EAA6E"/><stop offset="0.822581" stop-color="#6EAA6D"/><stop offset="0.830645" stop-color="#6EAA6B"/><stop offset="0.83871" stop-color="#6EAB6A"/><stop offset="0.846774" stop-color="#6EAB68"/><stop offset="0.854839" stop-color="#6EAB66"/><stop offset="0.862903" stop-color="#6EAB65"/><stop offset="0.870968" stop-color="#6FAB63"/><stop offset="0.879032" stop-color="#6FAB61"/><stop offset="0.887097" stop-color="#6FAC60"/><stop offset="0.895161" stop-color="#6FAC5E"/><stop offset="0.903226" stop-color="#6FAC5C"/><stop offset="0.91129" stop-color="#6FAC5A"/><stop offset="0.919355" stop-color="#6FAC59"/><stop offset="0.927419" stop-color="#6FAC57"/><stop offset="0.935484" stop-color="#6FAC55"/><stop offset="0.943548" stop-color="#6FAC53"/><stop offset="0.951613" stop-color="#6FAC52"/><stop offset="0.959677" stop-color="#6FAC50"/><stop offset="0.967742" stop-color="#6FAC4E"/><stop offset="0.975806" stop-color="#6FAC4C"/><stop offset="0.983871" stop-color="#6FAC4A"/><stop offset="0.991935" stop-color="#6FAC48"/><stop offset="1" stop-color="#70AD47"/></linearGradient></defs><g transform="translate(-497 -22)"><text fill="#70AD47" font-family="Calibri,Calibri_MSFontService,sans-serif" font-weight="700" font-size="128" transform="matrix(1 0 0 1 3118.22 2084)">Products</text><text fill="#ED7D31" font-family="Calibri,Calibri_MSFontService,sans-serif" font-weight="700" font-size="128" transform="matrix(1 0 0 1 1742.28 567)">Transition State (‡)</text><text fill="#4472C4" font-family="Calibri,Calibri_MSFontService,sans-serif" font-weight="700" font-size="128" transform="matrix(1 0 0 1 850.188 1307)">Reactants</text><rect x="765.5" y="26.5" width="2938" height="2288" stroke="#000000" stroke-width="9.16667" stroke-miterlimit="8" fill="none"/><text font-family="Calibri,Calibri_MSFontService,sans-serif" font-weight="400" font-size="147" transform="matrix(-1.83697e-16 -1 1 -1.83697e-16 678.374 1712)">Gibbs Free Energy</text><text font-family="Calibri,Calibri_MSFontService,sans-serif" font-weight="400" font-size="147" transform="matrix(1 0 0 1 1634.35 2462)">Reaction Coordinate</text><path d="M856.5 1170.5 1407.71 1170.5" stroke="#000000" stroke-width="6.875" stroke-miterlimit="8" fill="none" fill-rule="evenodd"/><path d="M3085.5 1939.5 3636.71 1939.5" stroke="#000000" stroke-width="6.875" stroke-miterlimit="8" fill="none" fill-rule="evenodd"/><path d="M1719.5 413.5 2782.41 413.5" stroke="#000000" stroke-width="6.875" stroke-miterlimit="8" fill="none" fill-rule="evenodd"/><path d="M0 0 311.885 756.568" stroke="#000000" stroke-width="6.875" stroke-miterlimit="8" stroke-dasharray="6.875 6.875" fill="none" fill-rule="evenodd" transform="matrix(-1 0 0 1 1719.38 413.5)"/><path d="M2782.5 409.5 3085.84 1933.49" stroke="#000000" stroke-width="6.875" stroke-miterlimit="8" stroke-dasharray="6.875 6.875" fill="none" fill-rule="evenodd"/><path d="M1723.01 454.25 1723.01 462.271 1714.99 462.271 1714.99 454.25ZM1723.01 470.291 1723.01 478.312 1714.99 478.312 1714.99 470.291ZM1723.01 486.333 1723.01 494.354 1714.99 494.354 1714.99 486.333ZM1723.01 502.375 1723.01 510.396 1714.99 510.396 1714.99 502.375ZM1723.01 518.416 1723.01 526.437 1714.99 526.437 1714.99 518.416ZM1723.01 534.458 1723.01 542.479 1714.99 542.479 1714.99 534.458ZM1723.01 550.5 1723.01 558.521 1714.99 558.521 1714.99 550.5ZM1723.01 566.541 1723.01 574.562 1714.99 574.562 1714.99 566.541ZM1723.01 582.583 1723.01 590.604 1714.99 590.604 1714.99 582.583ZM1723.01 598.625 1723.01 606.646 1714.99 606.646 1714.99 598.625ZM1723.01 614.666 1723.01 622.687 1714.99 622.687 1714.99 614.666ZM1723.01 630.708 1723.01 638.729 1714.99 638.729 1714.99 630.708ZM1723.01 646.75 1723.01 654.771 1714.99 654.771 1714.99 646.75ZM1723.01 662.791 1723.01 670.812 1714.99 670.812 1714.99 662.791ZM1723.01 678.833 1723.01 686.854 1714.99 686.854 1714.99 678.833ZM1723.01 694.875 1723.01 702.896 1714.99 702.896 1714.99 694.875ZM1723.01 710.916 1723.01 718.937 1714.99 718.937 1714.99 710.916ZM1723.01 726.958 1723.01 734.979 1714.99 734.979 1714.99 726.958ZM1723.01 743 1723.01 751.021 1714.99 751.021 1714.99 743ZM1723.01 759.041 1723.01 767.062 1714.99 767.062 1714.99 759.041ZM1723.01 775.083 1723.01 783.104 1714.99 783.104 1714.99 775.083ZM1723.01 791.125 1723.01 799.146 1714.99 799.146 1714.99 791.125ZM1723.01 807.166 1723.01 815.187 1714.99 815.187 1714.99 807.166ZM1723.01 823.208 1723.01 831.229 1714.99 831.229 1714.99 823.208ZM1723.01 839.25 1723.01 847.271 1714.99 847.271 1714.99 839.25ZM1723.01 855.291 1723.01 863.312 1714.99 863.312 1714.99 855.291ZM1723.01 871.333 1723.01 879.354 1714.99 879.354 1714.99 871.333ZM1723.01 887.375 1723.01 895.396 1714.99 895.396 1714.99 887.375ZM1723.01 903.416 1723.01 911.437 1714.99 911.437 1714.99 903.416ZM1723.01 919.458 1723.01 927.479 1714.99 927.479 1714.99 919.458ZM1723.01 935.5 1723.01 943.521 1714.99 943.521 1714.99 935.5ZM1723.01 951.541 1723.01 959.562 1714.99 959.562 1714.99 951.541ZM1723.01 967.583 1723.01 975.604 1714.99 975.604 1714.99 967.583ZM1723.01 983.625 1723.01 991.646 1714.99 991.646 1714.99 983.625ZM1723.01 999.666 1723.01 1007.69 1714.99 1007.69 1714.99 999.666ZM1723.01 1015.71 1723.01 1023.73 1714.99 1023.73 1714.99 1015.71ZM1723.01 1031.75 1723.01 1039.77 1714.99 1039.77 1714.99 1031.75ZM1723.01 1047.79 1723.01 1055.81 1714.99 1055.81 1714.99 1047.79ZM1723.01 1063.83 1723.01 1071.85 1714.99 1071.85 1714.99 1063.83ZM1723.01 1079.87 1723.01 1087.9 1714.99 1087.9 1714.99 1079.87ZM1723.01 1095.92 1723.01 1103.94 1714.99 1103.94 1714.99 1095.92ZM1723.01 1111.96 1723.01 1119.98 1714.99 1119.98 1714.99 1111.96ZM1723.01 1128 1723.01 1128.32 1714.99 1128.32 1714.99 1128ZM1696.08 458.833 1719 413 1741.92 458.833ZM1741.92 1123.73 1719 1169.57 1696.08 1123.73Z" fill="url(#fill0)"/><text fill="#ED7D31" font-family="Symbol,Symbol_MSFontService,sans-serif" font-weight="700" font-size="128" transform="matrix(1 0 0 1 1756.69 897)"></text><text fill="#ED7D31" font-family="Calibri,Calibri_MSFontService,sans-serif" font-weight="700" font-size="128" transform="matrix(1 0 0 1 1835.18 897)">G</text><text fill="#ED7D31" font-family="Calibri,Calibri_MSFontService,sans-serif" font-weight="700" font-size="86" transform="matrix(1 0 0 1 1917.11 928)">f</text><text fill="#ED7D31" font-family="Calibri,Calibri_MSFontService,sans-serif" font-weight="700" font-size="86" transform="matrix(1 0 0 1 1944.03 858)">‡</text><path d="M2786.01 454.25 2786.01 462.271 2777.99 462.271 2777.99 454.25ZM2786.01 470.292 2786.01 478.313 2777.99 478.313 2777.99 470.292ZM2786.01 486.333 2786.01 494.354 2777.99 494.354 2777.99 486.333ZM2786.01 502.375 2786.01 510.396 2777.99 510.396 2777.99 502.375ZM2786.01 518.417 2786.01 526.438 2777.99 526.438 2777.99 518.417ZM2786.01 534.458 2786.01 542.479 2777.99 542.479 2777.99 534.458ZM2786.01 550.5 2786.01 558.521 2777.99 558.521 2777.99 550.5ZM2786.01 566.542 2786.01 574.563 2777.99 574.563 2777.99 566.542ZM2786.01 582.583 2786.01 590.604 2777.99 590.604 2777.99 582.583ZM2786.01 598.625 2786.01 606.646 2777.99 606.646 2777.99 598.625ZM2786.01 614.667 2786.01 622.688 2777.99 622.688 2777.99 614.667ZM2786.01 630.708 2786.01 638.729 2777.99 638.729 2777.99 630.708ZM2786.01 646.75 2786.01 654.771 2777.99 654.771 2777.99 646.75ZM2786.01 662.792 2786.01 670.813 2777.99 670.813 2777.99 662.792ZM2786.01 678.833 2786.01 686.854 2777.99 686.854 2777.99 678.833ZM2786.01 694.875 2786.01 702.896 2777.99 702.896 2777.99 694.875ZM2786.01 710.917 2786.01 718.938 2777.99 718.938 2777.99 710.917ZM2786.01 726.958 2786.01 734.979 2777.99 734.979 2777.99 726.958ZM2786.01 743 2786.01 751.021 2777.99 751.021 2777.99 743ZM2786.01 759.042 2786.01 767.063 2777.99 767.063 2777.99 759.042ZM2786.01 775.083 2786.01 783.104 2777.99 783.104 2777.99 775.083ZM2786.01 791.125 2786.01 799.146 2777.99 799.146 2777.99 791.125ZM2786.01 807.167 2786.01 815.188 2777.99 815.188 2777.99 807.167ZM2786.01 823.208 2786.01 831.229 2777.99 831.229 2777.99 823.208ZM2786.01 839.25 2786.01 847.271 2777.99 847.271 2777.99 839.25ZM2786.01 855.292 2786.01 863.313 2777.99 863.313 2777.99 855.292ZM2786.01 871.333 2786.01 879.354 2777.99 879.354 2777.99 871.333ZM2786.01 887.375 2786.01 895.396 2777.99 895.396 2777.99 887.375ZM2786.01 903.417 2786.01 911.438 2777.99 911.438 2777.99 903.417ZM2786.01 919.458 2786.01 927.479 2777.99 927.479 2777.99 919.458ZM2786.01 935.5 2786.01 943.521 2777.99 943.521 2777.99 935.5ZM2786.01 951.542 2786.01 959.563 2777.99 959.563 2777.99 951.542ZM2786.01 967.583 2786.01 975.604 2777.99 975.604 2777.99 967.583ZM2786.01 983.625 2786.01 991.646 2777.99 991.646 2777.99 983.625ZM2786.01 999.667 2786.01 1007.69 2777.99 1007.69 2777.99 999.667ZM2786.01 1015.71 2786.01 1023.73 2777.99 1023.73 2777.99 1015.71ZM2786.01 1031.75 2786.01 1039.77 2777.99 1039.77 2777.99 1031.75ZM2786.01 1047.79 2786.01 1055.81 2777.99 1055.81 2777.99 1047.79ZM2786.01 1063.83 2786.01 1071.85 2777.99 1071.85 2777.99 1063.83ZM2786.01 1079.88 2786.01 1087.9 2777.99 1087.9 2777.99 1079.88ZM2786.01 1095.92 2786.01 1103.94 2777.99 1103.94 2777.99 1095.92ZM2786.01 1111.96 2786.01 1119.98 2777.99 1119.98 2777.99 1111.96ZM2786.01 1128 2786.01 1136.02 2777.99 1136.02 2777.99 1128ZM2786.01 1144.04 2786.01 1152.06 2777.99 1152.06 2777.99 1144.04ZM2786.01 1160.08 2786.01 1168.1 2777.99 1168.1 2777.99 1160.08ZM2786.01 1176.13 2786.01 1184.15 2777.99 1184.15 2777.99 1176.13ZM2786.01 1192.17 2786.01 1200.19 2777.99 1200.19 2777.99 1192.17ZM2786.01 1208.21 2786.01 1216.23 2777.99 1216.23 2777.99 1208.21ZM2786.01 1224.25 2786.01 1232.27 2777.99 1232.27 2777.99 1224.25ZM2786.01 1240.29 2786.01 1248.31 2777.99 1248.31 2777.99 1240.29ZM2786.01 1256.33 2786.01 1264.35 2777.99 1264.35 2777.99 1256.33ZM2786.01 1272.38 2786.01 1280.4 2777.99 1280.4 2777.99 1272.38ZM2786.01 1288.42 2786.01 1296.44 2777.99 1296.44 2777.99 1288.42ZM2786.01 1304.46 2786.01 1312.48 2777.99 1312.48 2777.99 1304.46ZM2786.01 1320.5 2786.01 1328.52 2777.99 1328.52 2777.99 1320.5ZM2786.01 1336.54 2786.01 1344.56 2777.99 1344.56 2777.99 1336.54ZM2786.01 1352.58 2786.01 1360.6 2777.99 1360.6 2777.99 1352.58ZM2786.01 1368.63 2786.01 1376.65 2777.99 1376.65 2777.99 1368.63ZM2786.01 1384.67 2786.01 1392.69 2777.99 1392.69 2777.99 1384.67ZM2786.01 1400.71 2786.01 1408.73 2777.99 1408.73 2777.99 1400.71ZM2786.01 1416.75 2786.01 1424.77 2777.99 1424.77 2777.99 1416.75ZM2786.01 1432.79 2786.01 1440.81 2777.99 1440.81 2777.99 1432.79ZM2786.01 1448.83 2786.01 1456.85 2777.99 1456.85 2777.99 1448.83ZM2786.01 1464.88 2786.01 1472.9 2777.99 1472.9 2777.99 1464.88ZM2786.01 1480.92 2786.01 1488.94 2777.99 1488.94 2777.99 1480.92ZM2786.01 1496.96 2786.01 1504.98 2777.99 1504.98 2777.99 1496.96ZM2786.01 1513 2786.01 1521.02 2777.99 1521.02 2777.99 1513ZM2786.01 1529.04 2786.01 1537.06 2777.99 1537.06 2777.99 1529.04ZM2786.01 1545.08 2786.01 1553.1 2777.99 1553.1 2777.99 1545.08ZM2786.01 1561.13 2786.01 1569.15 2777.99 1569.15 2777.99 1561.13ZM2786.01 1577.17 2786.01 1585.19 2777.99 1585.19 2777.99 1577.17ZM2786.01 1593.21 2786.01 1601.23 2777.99 1601.23 2777.99 1593.21ZM2786.01 1609.25 2786.01 1617.27 2777.99 1617.27 2777.99 1609.25ZM2786.01 1625.29 2786.01 1633.31 2777.99 1633.31 2777.99 1625.29ZM2786.01 1641.33 2786.01 1649.35 2777.99 1649.35 2777.99 1641.33ZM2786.01 1657.38 2786.01 1665.4 2777.99 1665.4 2777.99 1657.38ZM2786.01 1673.42 2786.01 1681.44 2777.99 1681.44 2777.99 1673.42ZM2786.01 1689.46 2786.01 1697.48 2777.99 1697.48 2777.99 1689.46ZM2786.01 1705.5 2786.01 1713.52 2777.99 1713.52 2777.99 1705.5ZM2786.01 1721.54 2786.01 1729.56 2777.99 1729.56 2777.99 1721.54ZM2786.01 1737.58 2786.01 1745.6 2777.99 1745.6 2777.99 1737.58ZM2786.01 1753.63 2786.01 1761.65 2777.99 1761.65 2777.99 1753.63ZM2786.01 1769.67 2786.01 1777.69 2777.99 1777.69 2777.99 1769.67ZM2786.01 1785.71 2786.01 1793.73 2777.99 1793.73 2777.99 1785.71ZM2786.01 1801.75 2786.01 1809.77 2777.99 1809.77 2777.99 1801.75ZM2786.01 1817.79 2786.01 1825.81 2777.99 1825.81 2777.99 1817.79ZM2786.01 1833.83 2786.01 1841.85 2777.99 1841.85 2777.99 1833.83ZM2786.01 1849.88 2786.01 1857.9 2777.99 1857.9 2777.99 1849.88ZM2786.01 1865.92 2786.01 1873.94 2777.99 1873.94 2777.99 1865.92ZM2786.01 1881.96 2786.01 1884.89 2777.99 1884.89 2777.99 1881.96ZM2759.08 458.833 2782 413 2804.92 458.833ZM2804.92 1880.3 2782 1926.14 2759.08 1880.3Z" fill="url(#fill1)"/><text fill="#ED7D31" font-family="Symbol,Symbol_MSFontService,sans-serif" font-weight="700" font-size="128" transform="matrix(1 0 0 1 2511.08 896)"></text><text fill="#ED7D31" font-family="Calibri,Calibri_MSFontService,sans-serif" font-weight="700" font-size="128" transform="matrix(1 0 0 1 2589.57 896)">G</text><text fill="#ED7D31" font-family="Calibri,Calibri_MSFontService,sans-serif" font-weight="700" font-size="86" transform="matrix(1 0 0 1 2671.49 927)">r</text><text fill="#ED7D31" font-family="Calibri,Calibri_MSFontService,sans-serif" font-weight="700" font-size="86" transform="matrix(1 0 0 1 2701.86 857)">‡</text><path d="M1725.01 1211.25 1725.01 1219.27 1716.99 1219.27 1716.99 1211.25ZM1725.01 1227.29 1725.01 1235.31 1716.99 1235.31 1716.99 1227.29ZM1725.01 1243.33 1725.01 1251.35 1716.99 1251.35 1716.99 1243.33ZM1725.01 1259.38 1725.01 1267.4 1716.99 1267.4 1716.99 1259.38ZM1725.01 1275.42 1725.01 1283.44 1716.99 1283.44 1716.99 1275.42ZM1725.01 1291.46 1725.01 1299.48 1716.99 1299.48 1716.99 1291.46ZM1725.01 1307.5 1725.01 1315.52 1716.99 1315.52 1716.99 1307.5ZM1725.01 1323.54 1725.01 1331.56 1716.99 1331.56 1716.99 1323.54ZM1725.01 1339.58 1725.01 1347.6 1716.99 1347.6 1716.99 1339.58ZM1725.01 1355.62 1725.01 1363.65 1716.99 1363.65 1716.99 1355.62ZM1725.01 1371.67 1725.01 1379.69 1716.99 1379.69 1716.99 1371.67ZM1725.01 1387.71 1725.01 1395.73 1716.99 1395.73 1716.99 1387.71ZM1725.01 1403.75 1725.01 1411.77 1716.99 1411.77 1716.99 1403.75ZM1725.01 1419.79 1725.01 1427.81 1716.99 1427.81 1716.99 1419.79ZM1725.01 1435.83 1725.01 1443.85 1716.99 1443.85 1716.99 1435.83ZM1725.01 1451.88 1725.01 1459.9 1716.99 1459.9 1716.99 1451.88ZM1725.01 1467.92 1725.01 1475.94 1716.99 1475.94 1716.99 1467.92ZM1725.01 1483.96 1725.01 1491.98 1716.99 1491.98 1716.99 1483.96ZM1725.01 1500 1725.01 1508.02 1716.99 1508.02 1716.99 1500ZM1725.01 1516.04 1725.01 1524.06 1716.99 1524.06 1716.99 1516.04ZM1725.01 1532.08 1725.01 1540.1 1716.99 1540.1 1716.99 1532.08ZM1725.01 1548.12 1725.01 1556.15 1716.99 1556.15 1716.99 1548.12ZM1725.01 1564.17 1725.01 1572.19 1716.99 1572.19 1716.99 1564.17ZM1725.01 1580.21 1725.01 1588.23 1716.99 1588.23 1716.99 1580.21ZM1725.01 1596.25 1725.01 1604.27 1716.99 1604.27 1716.99 1596.25ZM1725.01 1612.29 1725.01 1620.31 1716.99 1620.31 1716.99 1612.29ZM1725.01 1628.33 1725.01 1636.35 1716.99 1636.35 1716.99 1628.33ZM1725.01 1644.38 1725.01 1652.4 1716.99 1652.4 1716.99 1644.38ZM1725.01 1660.42 1725.01 1668.44 1716.99 1668.44 1716.99 1660.42ZM1725.01 1676.46 1725.01 1684.48 1716.99 1684.48 1716.99 1676.46ZM1725.01 1692.5 1725.01 1700.52 1716.99 1700.52 1716.99 1692.5ZM1725.01 1708.54 1725.01 1716.56 1716.99 1716.56 1716.99 1708.54ZM1725.01 1724.58 1725.01 1732.6 1716.99 1732.6 1716.99 1724.58ZM1725.01 1740.62 1725.01 1748.65 1716.99 1748.65 1716.99 1740.62ZM1725.01 1756.67 1725.01 1764.69 1716.99 1764.69 1716.99 1756.67ZM1725.01 1772.71 1725.01 1780.73 1716.99 1780.73 1716.99 1772.71ZM1725.01 1788.75 1725.01 1796.77 1716.99 1796.77 1716.99 1788.75ZM1725.01 1804.79 1725.01 1812.81 1716.99 1812.81 1716.99 1804.79ZM1725.01 1820.83 1725.01 1828.85 1716.99 1828.85 1716.99 1820.83ZM1725.01 1836.88 1725.01 1844.9 1716.99 1844.9 1716.99 1836.88ZM1725.01 1852.92 1725.01 1860.94 1716.99 1860.94 1716.99 1852.92ZM1725.01 1868.96 1725.01 1876.98 1716.99 1876.98 1716.99 1868.96ZM1725.01 1885 1725.01 1885.32 1716.99 1885.32 1716.99 1885ZM1698.08 1215.83 1721 1170 1743.92 1215.83ZM1743.92 1880.73 1721 1926.57 1698.08 1880.73Z" fill="url(#fill2)"/><path d="M1407 1169 2926.3 1169" stroke="#000000" stroke-width="2.29167" stroke-miterlimit="8" stroke-dasharray="2.29167 2.29167" fill="none" fill-rule="evenodd"/><text fill="#4472C4" font-family="Symbol,Symbol_MSFontService,sans-serif" font-weight="700" font-size="128" transform="matrix(1 0 0 1 1389.4 1587)"></text><text fill="#4472C4" font-family="Calibri,Calibri_MSFontService,sans-serif" font-weight="700" font-size="128" transform="matrix(1 0 0 1 1467.89 1587)">G</text><text fill="#4472C4" font-family="Calibri,Calibri_MSFontService,sans-serif" font-weight="700" font-size="128" transform="matrix(1 0 0 1 1549.82 1587)">°</text><path d="M856 1927 3085.36 1938.64" stroke="#000000" stroke-width="2.29167" stroke-miterlimit="8" stroke-dasharray="2.29167 2.29167" fill="none" fill-rule="evenodd"/></g></svg>