<svg width="2489" height="1671" xmlns="http://www.w3.org/2000/svg" xmlns:xlink="http://www.w3.org/1999/xlink" xml:space="preserve" overflow="hidden"><g transform="translate(-112 -427)"><path d="M1936.75 885C1911.76 885 1891.5 803.964 1891.5 703.999 1891.5 604.035 1911.76 522.999 1936.75 522.999 1961.74 522.999 1982 604.035 1982 703.999 1982 803.964 1961.74 885 1936.75 885L761.25 885C736.259 885 716 803.964 716 703.999 716 604.035 736.259 522.999 761.25 522.999L1936.75 523" stroke="#000000" stroke-width="13.75" stroke-miterlimit="8" fill="none" fill-rule="evenodd"/><path d="M882.5 885.5C865.379 885.5 851.5 804.463 851.5 704.5 851.5 604.536 865.379 523.5 882.5 523.5 899.621 523.5 913.5 604.536 913.5 704.5 913.5 804.463 899.621 885.5 882.5 885.5L820.5 885.5C803.379 885.5 789.5 804.463 789.5 704.5 789.5 604.536 803.379 523.5 820.5 523.5L882.5 523.5" stroke="#000000" stroke-width="4.58333" stroke-miterlimit="8" fill="none" fill-rule="evenodd"/><path d="M1078.5 880.5C1061.38 880.5 1047.5 799.463 1047.5 699.5 1047.5 599.536 1061.38 518.5 1078.5 518.5 1095.62 518.5 1109.5 599.536 1109.5 699.5 1109.5 799.463 1095.62 880.5 1078.5 880.5L1016.5 880.5C999.38 880.5 985.5 799.463 985.5 699.5 985.5 599.536 999.38 518.5 1016.5 518.5L1078.5 518.5" stroke="#000000" stroke-width="4.58333" stroke-miterlimit="8" fill="none" fill-rule="evenodd"/><path d="M1315.5 886.5C1298.38 886.5 1284.5 805.687 1284.5 706 1284.5 606.312 1298.38 525.5 1315.5 525.5 1332.62 525.5 1346.5 606.312 1346.5 706 1346.5 805.687 1332.62 886.5 1315.5 886.5L1253.5 886.5C1236.38 886.5 1222.5 805.687 1222.5 706 1222.5 606.312 1236.38 525.5 1253.5 525.5L1315.5 525.5" stroke="#000000" stroke-width="4.58333" stroke-miterlimit="8" fill="none" fill-rule="evenodd"/><path d="M1529.5 885.5C1512.38 885.5 1498.5 804.464 1498.5 704.5 1498.5 604.536 1512.38 523.5 1529.5 523.5 1546.62 523.5 1560.5 604.536 1560.5 704.5 1560.5 804.464 1546.62 885.5 1529.5 885.5L1467.5 885.5C1450.38 885.5 1436.5 804.464 1436.5 704.5 1436.5 604.536 1450.38 523.5 1467.5 523.5L1529.5 523.5" stroke="#000000" stroke-width="4.58333" stroke-miterlimit="8" fill="none" fill-rule="evenodd"/><path d="M796.147 963.891 775.684 1017.6 813.066 1017.6ZM794.268 952.021 802.217 952.021 824.883 1022.76 824.883 1026.2 766.177 1026.2 766.177 1022.76Z" fill-rule="evenodd"/><text fill="#000000" fill-opacity="0" font-family="Arial,Arial_MSFontService,sans-serif" font-size="74.1748" x="766.177" y="1016.92">Δ</text><path d="M834.443 952.88 856.68 952.88 856.089 955.512C854.513 955.691 853.287 956.156 852.41 956.908 851.532 957.66 850.915 958.708 850.557 960.05 850.199 961.393 850.02 963.192 850.02 965.448 850.02 965.985 850.073 967.597 850.181 970.282L851.685 1009.6 851.685 1013.9 852.222 1013.9 875.479 971.947C876.839 969.477 877.86 967.355 878.54 965.583 879.22 963.81 879.561 962.243 879.561 960.883 879.561 957.875 877.77 956.085 874.189 955.512L874.78 952.88 896.748 952.88 896.157 955.512C895.19 955.655 894.268 956.022 893.391 956.613 892.514 957.204 891.529 958.188 890.437 959.567 889.345 960.945 887.653 963.604 885.361 967.543L850.986 1027.05 843.843 1027.05 840.244 967.167C840.101 964.84 839.841 962.843 839.465 961.178 839.089 959.513 838.499 958.215 837.693 957.284 836.887 956.353 835.607 955.762 833.853 955.512Z" fill-rule="evenodd"/><text fill="#000000" fill-opacity="0" font-family="Arial,Arial_MSFontService,sans-serif" font-size="74.1748" x="833.853" y="1017.78">𝑉</text><path d="M920.526 1003.97 922.487 1003.97C922.344 1006.25 922.273 1009.41 922.273 1013.45L922.273 1043.89C922.273 1045.27 922.35 1046.31 922.505 1047.01 922.659 1047.71 922.932 1048.28 923.324 1048.72 923.717 1049.16 924.281 1049.5 925.018 1049.75 925.754 1050 926.681 1050.19 927.798 1050.32 928.915 1050.45 930.388 1050.54 932.218 1050.59L932.218 1053.19 905.876 1053.19 905.876 1050.59C908.514 1050.47 910.397 1050.31 911.526 1050.11 912.655 1049.91 913.516 1049.6 914.11 1049.2 914.704 1048.8 915.138 1048.22 915.411 1047.49 915.685 1046.75 915.821 1045.55 915.821 1043.89L915.821 1014.98C915.821 1014.03 915.655 1013.33 915.322 1012.9 914.99 1012.46 914.502 1012.24 913.861 1012.24 913.1 1012.24 912.019 1012.63 910.617 1013.41 909.215 1014.2 907.48 1015.28 905.413 1016.66L903.845 1013.91Z" fill-rule="evenodd"/><text fill="#000000" fill-opacity="0" font-family="Arial,Arial_MSFontService,sans-serif" font-size="49.2251" x="903.845" y="1047.04">1</text><path d="M1006.28 963.891 985.813 1017.6 1023.2 1017.6ZM1004.4 952.021 1012.35 952.021 1035.01 1022.76 1035.01 1026.2 976.306 1026.2 976.306 1022.76Z" fill-rule="evenodd"/><text fill="#000000" fill-opacity="0" font-family="Arial,Arial_MSFontService,sans-serif" font-size="74.1748" x="976.306" y="1016.92">Δ</text><path d="M1044.57 952.88 1066.81 952.88 1066.22 955.512C1064.64 955.691 1063.42 956.156 1062.54 956.908 1061.66 957.66 1061.04 958.708 1060.69 960.05 1060.33 961.393 1060.15 963.192 1060.15 965.448 1060.15 965.985 1060.2 967.597 1060.31 970.282L1061.81 1009.6 1061.81 1013.9 1062.35 1013.9 1085.61 971.947C1086.97 969.477 1087.99 967.355 1088.67 965.583 1089.35 963.81 1089.69 962.243 1089.69 960.883 1089.69 957.875 1087.9 956.085 1084.32 955.512L1084.91 952.88 1106.88 952.88 1106.29 955.512C1105.32 955.655 1104.4 956.022 1103.52 956.613 1102.64 957.204 1101.66 958.188 1100.57 959.567 1099.47 960.945 1097.78 963.604 1095.49 967.543L1061.12 1027.05 1053.97 1027.05 1050.37 967.167C1050.23 964.84 1049.97 962.843 1049.59 961.178 1049.22 959.513 1048.63 958.215 1047.82 957.284 1047.02 956.353 1045.74 955.762 1043.98 955.512Z" fill-rule="evenodd"/><text fill="#000000" fill-opacity="0" font-family="Arial,Arial_MSFontService,sans-serif" font-size="74.1748" x="1043.98" y="1017.78">𝑉</text><path d="M1128.12 1003.97C1132.54 1003.97 1135.88 1004.93 1138.14 1006.87 1140.4 1008.81 1141.53 1011.62 1141.53 1015.3 1141.53 1016.56 1141.4 1017.72 1141.15 1018.78 1140.9 1019.83 1140.51 1020.88 1139.98 1021.91 1139.44 1022.95 1138.72 1024.06 1137.82 1025.25 1136.92 1026.43 1135.92 1027.64 1134.83 1028.86 1133.73 1030.09 1131.84 1032.13 1129.16 1034.98 1124.64 1039.75 1121.33 1043.92 1119.21 1047.49L1132.65 1047.49C1133.82 1047.49 1134.75 1047.42 1135.47 1047.27 1136.18 1047.13 1136.75 1046.89 1137.18 1046.56 1137.61 1046.23 1137.94 1045.79 1138.19 1045.26 1138.44 1044.73 1138.76 1043.9 1139.14 1042.78L1142.17 1042.78 1141.56 1053.19 1112.23 1053.19 1112.23 1051.48C1113.25 1048.99 1114.63 1046.43 1116.36 1043.82 1118.1 1041.2 1120.56 1038.13 1123.74 1034.58 1126.5 1031.54 1128.48 1029.24 1129.69 1027.67 1131.02 1025.96 1132.02 1024.48 1132.67 1023.23 1133.32 1021.98 1133.79 1020.81 1134.08 1019.7 1134.36 1018.6 1134.51 1017.49 1134.51 1016.37 1134.51 1014.59 1134.22 1013.01 1133.65 1011.65 1133.08 1010.28 1132.21 1009.21 1131.03 1008.42 1129.85 1007.64 1128.37 1007.25 1126.59 1007.25 1122.15 1007.25 1119.15 1009.72 1117.61 1014.66L1113.3 1014.66 1113.3 1007.82C1116.17 1006.46 1118.86 1005.48 1121.37 1004.88 1123.88 1004.27 1126.13 1003.97 1128.12 1003.97Z" fill-rule="evenodd"/><text fill="#000000" fill-opacity="0" font-family="Arial,Arial_MSFontService,sans-serif" font-size="49.2251" x="1112.23" y="1047.04">2</text><path d="M1231.31 963.891 1210.85 1017.6 1248.23 1017.6ZM1229.43 952.021 1237.38 952.021 1260.05 1022.76 1260.05 1026.2 1201.34 1026.2 1201.34 1022.76Z" fill-rule="evenodd"/><text fill="#000000" fill-opacity="0" font-family="Arial,Arial_MSFontService,sans-serif" font-size="74.1748" x="1201.34" y="1016.92">Δ</text><path d="M1269.61 952.88 1291.84 952.88 1291.25 955.512C1289.68 955.691 1288.45 956.156 1287.57 956.908 1286.7 957.66 1286.08 958.708 1285.72 960.05 1285.36 961.393 1285.18 963.192 1285.18 965.448 1285.18 965.985 1285.24 967.597 1285.34 970.282L1286.85 1009.6 1286.85 1013.9 1287.39 1013.9 1310.64 971.947C1312 969.477 1313.02 967.355 1313.7 965.583 1314.38 963.81 1314.72 962.243 1314.72 960.883 1314.72 957.875 1312.93 956.085 1309.35 955.512L1309.94 952.88 1331.91 952.88 1331.32 955.512C1330.35 955.655 1329.43 956.022 1328.55 956.613 1327.68 957.204 1326.69 958.188 1325.6 959.567 1324.51 960.945 1322.82 963.604 1320.53 967.543L1286.15 1027.05 1279.01 1027.05 1275.41 967.167C1275.26 964.84 1275.01 962.843 1274.63 961.178 1274.25 959.513 1273.66 958.215 1272.86 957.284 1272.05 956.353 1270.77 955.762 1269.02 955.512Z" fill-rule="evenodd"/><text fill="#000000" fill-opacity="0" font-family="Arial,Arial_MSFontService,sans-serif" font-size="74.1748" x="1269.02" y="1017.78">𝑉</text><path d="M1353.02 1003.97C1355.7 1003.97 1358.05 1004.38 1360.07 1005.21 1362.09 1006.05 1363.64 1007.24 1364.71 1008.8 1365.78 1010.35 1366.31 1012.21 1366.31 1014.37 1366.31 1016.39 1365.91 1018.17 1365.1 1019.7 1364.29 1021.24 1363.16 1022.57 1361.7 1023.71 1360.23 1024.85 1358.34 1025.97 1356.01 1027.06L1356.01 1027.38C1357.46 1027.65 1358.86 1028.09 1360.2 1028.72 1361.54 1029.35 1362.74 1030.16 1363.78 1031.16 1364.83 1032.16 1365.66 1033.35 1366.29 1034.75 1366.92 1036.14 1367.24 1037.72 1367.24 1039.5 1367.24 1042.26 1366.64 1044.71 1365.44 1046.85 1364.24 1048.99 1362.4 1050.67 1359.93 1051.91 1357.46 1053.14 1354.45 1053.76 1350.91 1053.76 1348.87 1053.76 1346.67 1053.53 1344.3 1053.07 1341.94 1052.6 1339.77 1051.99 1337.8 1051.23L1337.8 1043.67 1342.07 1043.67C1342.91 1046.15 1344 1047.94 1345.37 1049.06 1346.74 1050.17 1348.6 1050.73 1350.95 1050.73 1354.04 1050.73 1356.37 1049.89 1357.95 1048.2 1359.53 1046.51 1360.32 1044.02 1360.32 1040.72 1360.32 1037.25 1359.28 1034.6 1357.19 1032.77 1355.1 1030.94 1352.03 1030.02 1347.99 1030.02L1344.78 1030.02 1344.78 1026.89C1347.99 1026.7 1350.69 1026.08 1352.89 1025.03 1355.09 1023.99 1356.72 1022.64 1357.79 1021 1358.86 1019.36 1359.4 1017.52 1359.4 1015.48 1359.4 1012.84 1358.7 1010.81 1357.29 1009.38 1355.89 1007.96 1353.85 1007.25 1351.16 1007.25 1348.93 1007.25 1347.11 1007.85 1345.71 1009.06 1344.31 1010.28 1343.27 1012.13 1342.61 1014.62L1338.33 1014.62 1338.33 1007.85C1341.09 1006.54 1343.67 1005.57 1346.07 1004.93 1348.47 1004.29 1350.78 1003.97 1353.02 1003.97Z" fill-rule="evenodd"/><text fill="#000000" fill-opacity="0" font-family="Arial,Arial_MSFontService,sans-serif" font-size="49.7954" x="1337.8" y="1047.54">3</text><path d="M1469.94 967.209 1449.47 1020.92 1486.86 1020.92ZM1468.06 955.339 1476.01 955.339 1498.67 1026.08 1498.67 1029.51 1439.97 1029.51 1439.97 1026.08Z" fill-rule="evenodd"/><text fill="#000000" fill-opacity="0" font-family="Arial,Arial_MSFontService,sans-serif" font-size="74.1748" x="1439.97" y="1020.24">Δ</text><path d="M1508.23 956.198 1530.47 956.198 1529.88 958.83C1528.3 959.009 1527.08 959.474 1526.2 960.226 1525.32 960.978 1524.7 962.026 1524.35 963.368 1523.99 964.711 1523.81 966.51 1523.81 968.766 1523.81 969.303 1523.86 970.915 1523.97 973.6L1525.47 1012.92 1525.47 1017.21 1526.01 1017.21 1549.27 975.265C1550.63 972.795 1551.65 970.673 1552.33 968.901 1553.01 967.128 1553.35 965.561 1553.35 964.201 1553.35 961.193 1551.56 959.403 1547.98 958.83L1548.57 956.198 1570.54 956.198 1569.95 958.83C1568.98 958.973 1568.06 959.34 1567.18 959.931 1566.3 960.522 1565.32 961.506 1564.23 962.885 1563.13 964.263 1561.44 966.922 1559.15 970.861L1524.78 1030.37 1517.63 1030.37 1514.03 970.485C1513.89 968.158 1513.63 966.161 1513.25 964.496 1512.88 962.831 1512.29 961.533 1511.48 960.602 1510.68 959.671 1509.4 959.08 1507.64 958.83Z" fill-rule="evenodd"/><text fill="#000000" fill-opacity="0" font-family="Arial,Arial_MSFontService,sans-serif" font-size="74.1748" x="1507.64" y="1021.1">𝑉</text><path d="M1589.86 1005.54 1591.93 1005.54 1584.94 1036.66 1586.08 1036.66C1587.86 1036.66 1589.87 1035.88 1592.09 1034.32 1594.31 1032.76 1596.09 1031.32 1597.42 1029.99 1598.75 1028.66 1599.41 1027.38 1599.41 1026.14 1599.41 1024.98 1598.6 1024.32 1596.99 1024.18L1597.38 1022.43 1608.93 1022.43 1609.61 1024.18C1607.63 1025.96 1605.54 1027.71 1603.33 1029.42L1594.49 1036.26 1597.99 1049.13C1598.27 1050.22 1598.53 1051.01 1598.75 1051.5 1598.98 1051.99 1599.24 1052.35 1599.54 1052.59 1599.83 1052.83 1600.23 1052.94 1600.73 1052.94 1601.35 1052.94 1602.09 1052.61 1602.94 1051.95 1603.8 1051.28 1604.77 1050.32 1605.86 1049.06L1607.9 1051.06C1605.76 1053.31 1603.99 1054.88 1602.58 1055.76 1601.18 1056.64 1599.83 1057.08 1598.52 1057.08 1596.91 1057.08 1595.62 1056.62 1594.67 1055.71 1593.72 1054.79 1592.97 1053.27 1592.43 1051.13L1590.07 1041.86C1589.84 1040.93 1589.6 1040.29 1589.36 1039.93 1589.12 1039.58 1588.85 1039.34 1588.54 1039.22 1588.23 1039.1 1587.69 1039.04 1586.9 1039.04L1584.44 1039.04 1580.73 1056.51 1574.57 1056.51 1583.73 1015.77C1584.04 1014.39 1584.26 1013.31 1584.39 1012.54 1584.52 1011.77 1584.58 1011.09 1584.58 1010.49 1584.58 1009.49 1584.28 1008.79 1583.68 1008.39 1583.07 1007.99 1581.98 1007.76 1580.41 1007.71L1580.84 1005.86Z" fill-rule="evenodd"/><text fill="#000000" fill-opacity="0" font-family="Arial,Arial_MSFontService,sans-serif" font-size="51.542" x="1574.57" y="1050.64">𝑘</text><path d="M0 0 433.323 519.521" stroke="#000000" stroke-width="4.58333" stroke-linecap="square" stroke-miterlimit="8" stroke-dasharray="13.75 4.58333" fill="none" fill-rule="evenodd" transform="matrix(-1 0 0 1 1222.82 885.5)"/><path d="M1346.5 885.5 1664.45 1405.02" stroke="#000000" stroke-width="4.58333" stroke-linecap="square" stroke-miterlimit="8" stroke-dasharray="13.75 4.58333" fill="none" fill-rule="evenodd"/><path d="M1648.25 1761.5C1598.41 1761.5 1558 1680.69 1558 1581 1558 1481.31 1598.41 1400.5 1648.25 1400.5 1698.09 1400.5 1738.5 1481.31 1738.5 1581 1738.5 1680.69 1698.09 1761.5 1648.25 1761.5L806.75 1761.5C756.906 1761.5 716.5 1680.69 716.5 1581 716.5 1481.31 756.906 1400.5 806.75 1400.5L1648.25 1400.5" stroke="#000000" stroke-width="4.58333" stroke-miterlimit="8" fill="none" fill-rule="evenodd"/><path d="M1153.16 1544.15 1132.69 1597.86 1170.08 1597.86ZM1151.28 1532.28 1159.23 1532.28 1181.89 1603.01 1181.89 1606.45 1123.19 1606.45 1123.19 1603.01Z" fill-rule="evenodd"/><text fill="#000000" fill-opacity="0" font-family="Arial,Arial_MSFontService,sans-serif" font-size="74.1748" x="1123.19" y="1597.18">Δ</text><path d="M1191.45 1533.13 1213.69 1533.13 1213.1 1535.77C1211.52 1535.95 1210.3 1536.41 1209.42 1537.16 1208.54 1537.91 1207.92 1538.96 1207.57 1540.3 1207.21 1541.65 1207.03 1543.45 1207.03 1545.7 1207.03 1546.24 1207.08 1547.85 1207.19 1550.54L1208.69 1589.85 1208.69 1594.15 1209.23 1594.15 1232.49 1552.2C1233.85 1549.73 1234.87 1547.61 1235.55 1545.84 1236.23 1544.06 1236.57 1542.5 1236.57 1541.14 1236.57 1538.13 1234.78 1536.34 1231.2 1535.77L1231.79 1533.13 1253.76 1533.13 1253.17 1535.77C1252.2 1535.91 1251.28 1536.28 1250.4 1536.87 1249.52 1537.46 1248.54 1538.44 1247.45 1539.82 1246.35 1541.2 1244.66 1543.86 1242.37 1547.8L1208 1607.31 1200.85 1607.31 1197.25 1547.42C1197.11 1545.09 1196.85 1543.1 1196.48 1541.43 1196.1 1539.77 1195.51 1538.47 1194.7 1537.54 1193.9 1536.61 1192.62 1536.02 1190.86 1535.77Z" fill-rule="evenodd"/><text fill="#000000" fill-opacity="0" font-family="Arial,Arial_MSFontService,sans-serif" font-size="74.1748" x="1190.86" y="1598.04">𝑉</text><path d="M249.5 694.917 675.441 694.917 675.441 704.084 249.5 704.083ZM670.857 676.584 716.691 699.5 670.857 722.417Z"/><path d="M3.04324e-06-4.58333 502.279-4.583 502.279 4.58367-3.04324e-06 4.58333ZM497.695-22.9163 543.529 0.000360892 497.695 22.917Z" transform="matrix(1 0 0 -1 1982.5 704.5)"/><path d="M366.552 510.266 431.295 510.266 426.342 532.302 419.452 532.302C419.26 528.617 418.961 525.71 418.554 523.581 418.148 521.451 417.573 519.92 416.832 518.987 416.09 518.054 415.193 517.42 414.14 517.085 413.087 516.75 411.508 516.583 409.403 516.583L387.295 516.583 378.754 555.629 392.176 555.629C394.282 555.629 396.028 555.342 397.416 554.768 398.804 554.194 400.096 553.153 401.292 551.646 402.488 550.138 403.972 547.566 405.742 543.93L412.274 543.93 405.311 574.22 398.995 574.22C398.995 569.387 398.84 566.36 398.528 565.14 398.217 563.92 397.619 563.082 396.734 562.628 395.849 562.173 394.09 561.946 391.458 561.946L377.39 561.946 371.72 587.355C370.715 591.853 370.212 595.586 370.212 598.552 370.212 600.036 370.452 601.196 370.93 602.034 371.409 602.871 372.126 603.481 373.083 603.864 374.04 604.247 375.691 604.534 378.036 604.725L377.246 608.242 347.746 608.242 348.536 604.725C350.354 604.438 351.718 603.971 352.627 603.326 353.536 602.68 354.302 601.782 354.924 600.634 355.546 599.485 356.12 598.086 356.646 596.435 357.173 594.784 357.962 591.59 359.015 586.853L371.217 531.584C372.27 526.799 372.796 523.019 372.796 520.243 372.796 517.898 372.246 516.272 371.145 515.362 370.045 514.453 368.25 513.927 365.762 513.783Z" fill-rule="evenodd"/><text fill="#000000" fill-opacity="0" font-family="Arial,Arial_MSFontService,sans-serif" font-size="97.9761" x="347.746" y="595.995">𝐹</text><text font-family="Calibri,Calibri_MSFontService,sans-serif" font-weight="400" font-size="98" transform="matrix(1 0 0 1 438.759 644)">f </text><text font-family="Calibri,Calibri_MSFontService,sans-serif" font-weight="400" font-size="147" transform="matrix(1 0 0 1 490.894 608)">,</text><text font-family="Calibri,Calibri_MSFontService,sans-serif" font-weight="400" font-size="147" transform="matrix(1 0 0 1 527.561 608)">E</text><text font-family="Calibri,Calibri_MSFontService,sans-serif" font-weight="400" font-size="98" transform="matrix(1 0 0 1 594.592 644)">f</text><path d="M225.5 1578.06 651.441 1578.06 651.441 1584.94 225.5 1584.94ZM646.857 1558.58 692.691 1581.5 646.857 1604.42Z"/><path d="M1738.5 1564.06 2164.44 1564.06 2164.44 1570.94 1738.5 1570.94ZM2159.86 1544.58 2205.69 1567.5 2159.86 1590.42Z"/><path d="M379.5 1630.09 444.243 1630.09 439.29 1652.13 432.4 1652.13C432.208 1648.44 431.909 1645.53 431.502 1643.4 431.096 1641.28 430.521 1639.74 429.78 1638.81 429.038 1637.88 428.141 1637.24 427.088 1636.91 426.035 1636.57 424.456 1636.41 422.351 1636.41L400.243 1636.41 391.702 1675.45 405.124 1675.45C407.23 1675.45 408.976 1675.17 410.364 1674.59 411.752 1674.02 413.044 1672.98 414.24 1671.47 415.436 1669.96 416.92 1667.39 418.69 1663.75L425.222 1663.75 418.259 1694.04 411.943 1694.04C411.943 1689.21 411.787 1686.18 411.476 1684.96 411.165 1683.74 410.567 1682.91 409.682 1682.45 408.797 1682 407.038 1681.77 404.406 1681.77L390.338 1681.77 384.668 1707.18C383.663 1711.68 383.16 1715.41 383.16 1718.38 383.16 1719.86 383.4 1721.02 383.878 1721.86 384.357 1722.69 385.074 1723.3 386.031 1723.69 386.988 1724.07 388.639 1724.36 390.984 1724.55L390.194 1728.07 360.694 1728.07 361.483 1724.55C363.302 1724.26 364.666 1723.8 365.575 1723.15 366.484 1722.5 367.25 1721.61 367.872 1720.46 368.494 1719.31 369.068 1717.91 369.594 1716.26 370.121 1714.61 370.91 1711.41 371.963 1706.68L384.165 1651.41C385.218 1646.62 385.744 1642.84 385.744 1640.07 385.744 1637.72 385.194 1636.1 384.093 1635.19 382.993 1634.28 381.198 1633.75 378.71 1633.61Z" fill-rule="evenodd"/><text fill="#000000" fill-opacity="0" font-family="Arial,Arial_MSFontService,sans-serif" font-size="97.9761" x="360.694" y="1715.82">𝐹</text><path d="M461.325 1711.41 473.886 1711.41C474.556 1714.76 474.891 1718.06 474.891 1721.32 474.891 1724.67 474.317 1727.73 473.168 1730.51 472.02 1733.28 470.189 1736.05 467.677 1738.8 465.165 1741.55 461.708 1744.57 457.305 1747.88L453.429 1743.5C455.87 1741.2 457.64 1739.13 458.741 1737.29 459.842 1735.45 460.631 1733.35 461.11 1731.01 461.588 1728.66 461.827 1725.72 461.827 1722.18 461.827 1718.54 461.66 1714.95 461.325 1711.41Z" fill-rule="evenodd"/><text fill="#000000" fill-opacity="0" font-family="Arial,Arial_MSFontService,sans-serif" font-size="36.4629" x="453.429" y="1743.32">,</text><path d="M529.42 1630.09 595.456 1630.09 590.503 1652.13 583.612 1652.13C583.421 1647.96 583.062 1644.83 582.536 1642.72 582.009 1640.62 581.375 1639.17 580.634 1638.38 579.892 1637.59 579.007 1637.06 577.978 1636.8 576.949 1636.54 575.478 1636.41 573.563 1636.41L550.164 1636.41 541.981 1674.02 555.691 1674.02C559.088 1674.02 561.684 1673.22 563.479 1671.61 565.273 1670.01 567.08 1667.37 568.898 1663.68L575.43 1663.68 568.97 1691.24 562.869 1691.24C562.869 1687.42 562.629 1684.82 562.151 1683.46 561.672 1682.09 560.967 1681.23 560.033 1680.87 559.1 1680.51 557.414 1680.33 554.973 1680.33L540.618 1680.33 531.43 1721.75 552.676 1721.75C555.5 1721.75 557.737 1721.46 559.387 1720.89 561.038 1720.31 562.594 1719.38 564.053 1718.09 565.512 1716.8 566.972 1714.99 568.431 1712.67 569.891 1710.35 571.625 1707.2 573.635 1703.23L580.598 1703.23 574.281 1728.07 510.615 1728.07 511.404 1724.55C513.223 1724.26 514.586 1723.8 515.496 1723.15 516.405 1722.5 517.17 1721.61 517.792 1720.46 518.415 1719.31 518.989 1717.91 519.515 1716.26 520.042 1714.61 520.831 1711.41 521.884 1706.68L534.086 1651.41C535.139 1646.62 535.665 1642.77 535.665 1639.85 535.665 1637.6 535.103 1636.04 533.978 1635.15 532.854 1634.26 531.071 1633.75 528.631 1633.61Z" fill-rule="evenodd"/><text fill="#000000" fill-opacity="0" font-family="Arial,Arial_MSFontService,sans-serif" font-size="97.9761" x="510.615" y="1715.82">𝐸</text><path d="M621.648 1619.3 632.702 1619.3 632.702 1752.88 621.648 1752.88Z" fill-rule="evenodd"/><text fill="#000000" fill-opacity="0" font-family="Arial,Arial_MSFontService,sans-serif" font-size="133.578" x="621.648" y="1736.18">ȁ</text><path d="M655.398 1698.75 675.208 1698.75 674.682 1701.1C673.278 1701.25 672.186 1701.67 671.404 1702.34 670.623 1703.01 670.072 1703.94 669.753 1705.14 669.434 1706.33 669.275 1707.94 669.275 1709.95 669.275 1710.43 669.323 1711.86 669.418 1714.25L670.758 1749.28 670.758 1753.11 671.237 1753.11 691.956 1715.74C693.169 1713.54 694.078 1711.65 694.684 1710.07 695.29 1708.49 695.593 1707.09 695.593 1705.88 695.593 1703.2 693.998 1701.61 690.808 1701.1L691.334 1698.75 710.906 1698.75 710.379 1701.1C709.518 1701.22 708.696 1701.55 707.915 1702.08 707.133 1702.6 706.256 1703.48 705.283 1704.71 704.31 1705.94 702.803 1708.3 700.761 1711.81L670.136 1764.83 663.772 1764.83 660.566 1711.48C660.438 1709.41 660.207 1707.63 659.872 1706.14 659.537 1704.66 659.011 1703.5 658.293 1702.67 657.575 1701.84 656.435 1701.32 654.871 1701.1Z" fill-rule="evenodd"/><text fill="#000000" fill-opacity="0" font-family="Arial,Arial_MSFontService,sans-serif" font-size="66.083" x="654.871" y="1756.57">𝑉</text><path d="M1826.3 1630.09 1891.04 1630.09 1886.09 1652.13 1879.2 1652.13C1879.01 1648.44 1878.71 1645.53 1878.3 1643.4 1877.89 1641.28 1877.32 1639.74 1876.58 1638.81 1875.84 1637.88 1874.94 1637.24 1873.89 1636.91 1872.83 1636.57 1871.26 1636.41 1869.15 1636.41L1847.04 1636.41 1838.5 1675.45 1851.92 1675.45C1854.03 1675.45 1855.78 1675.17 1857.16 1674.59 1858.55 1674.02 1859.84 1672.98 1861.04 1671.47 1862.23 1669.96 1863.72 1667.39 1865.49 1663.75L1872.02 1663.75 1865.06 1694.04 1858.74 1694.04C1858.74 1689.21 1858.59 1686.18 1858.28 1684.96 1857.96 1683.74 1857.37 1682.91 1856.48 1682.45 1855.6 1682 1853.84 1681.77 1851.21 1681.77L1837.14 1681.77 1831.47 1707.18C1830.46 1711.68 1829.96 1715.41 1829.96 1718.38 1829.96 1719.86 1830.2 1721.02 1830.68 1721.86 1831.16 1722.69 1831.87 1723.3 1832.83 1723.69 1833.79 1724.07 1835.44 1724.36 1837.78 1724.55L1836.99 1728.07 1807.49 1728.07 1808.28 1724.55C1810.1 1724.26 1811.46 1723.8 1812.37 1723.15 1813.28 1722.5 1814.05 1721.61 1814.67 1720.46 1815.29 1719.31 1815.87 1717.91 1816.39 1716.26 1816.92 1714.61 1817.71 1711.41 1818.76 1706.68L1830.96 1651.41C1832.02 1646.62 1832.54 1642.84 1832.54 1640.07 1832.54 1637.72 1831.99 1636.1 1830.89 1635.19 1829.79 1634.28 1828 1633.75 1825.51 1633.61Z" fill-rule="evenodd"/><text fill="#000000" fill-opacity="0" font-family="Arial,Arial_MSFontService,sans-serif" font-size="97.9761" x="1807.49" y="1715.82">𝐹</text><path d="M1908.12 1711.41 1920.68 1711.41C1921.35 1714.76 1921.69 1718.06 1921.69 1721.32 1921.69 1724.67 1921.12 1727.73 1919.97 1730.51 1918.82 1733.28 1916.99 1736.05 1914.48 1738.8 1911.96 1741.55 1908.51 1744.57 1904.1 1747.88L1900.23 1743.5C1902.67 1741.2 1904.44 1739.13 1905.54 1737.29 1906.64 1735.45 1907.43 1733.35 1907.91 1731.01 1908.39 1728.66 1908.63 1725.72 1908.63 1722.18 1908.63 1718.54 1908.46 1714.95 1908.12 1711.41Z" fill-rule="evenodd"/><text fill="#000000" fill-opacity="0" font-family="Arial,Arial_MSFontService,sans-serif" font-size="36.4629" x="1900.23" y="1743.32">,</text><path d="M1976.22 1630.09 2042.25 1630.09 2037.3 1652.13 2030.41 1652.13C2030.22 1647.96 2029.86 1644.83 2029.33 1642.72 2028.81 1640.62 2028.17 1639.17 2027.43 1638.38 2026.69 1637.59 2025.81 1637.06 2024.78 1636.8 2023.75 1636.54 2022.28 1636.41 2020.36 1636.41L1996.96 1636.41 1988.78 1674.02 2002.49 1674.02C2005.89 1674.02 2008.48 1673.22 2010.28 1671.61 2012.07 1670.01 2013.88 1667.37 2015.7 1663.68L2022.23 1663.68 2015.77 1691.24 2009.67 1691.24C2009.67 1687.42 2009.43 1684.82 2008.95 1683.46 2008.47 1682.09 2007.77 1681.23 2006.83 1680.87 2005.9 1680.51 2004.21 1680.33 2001.77 1680.33L1987.42 1680.33 1978.23 1721.75 1999.48 1721.75C2002.3 1721.75 2004.54 1721.46 2006.19 1720.89 2007.84 1720.31 2009.39 1719.38 2010.85 1718.09 2012.31 1716.8 2013.77 1714.99 2015.23 1712.67 2016.69 1710.35 2018.42 1707.2 2020.43 1703.23L2027.4 1703.23 2021.08 1728.07 1957.41 1728.07 1958.2 1724.55C1960.02 1724.26 1961.39 1723.8 1962.29 1723.15 1963.2 1722.5 1963.97 1721.61 1964.59 1720.46 1965.21 1719.31 1965.79 1717.91 1966.31 1716.26 1966.84 1714.61 1967.63 1711.41 1968.68 1706.68L1980.88 1651.41C1981.94 1646.62 1982.46 1642.77 1982.46 1639.85 1982.46 1637.6 1981.9 1636.04 1980.78 1635.15 1979.65 1634.26 1977.87 1633.75 1975.43 1633.61Z" fill-rule="evenodd"/><text fill="#000000" fill-opacity="0" font-family="Arial,Arial_MSFontService,sans-serif" font-size="97.9761" x="1957.41" y="1715.82">𝐸</text><path d="M2068.45 1619.3 2079.5 1619.3 2079.5 1752.88 2068.45 1752.88Z" fill-rule="evenodd"/><text fill="#000000" fill-opacity="0" font-family="Arial,Arial_MSFontService,sans-serif" font-size="133.578" x="2068.45" y="1736.18">ȁ</text><path d="M2102.2 1698.75 2122.01 1698.75 2121.48 1701.1C2120.08 1701.25 2118.98 1701.67 2118.2 1702.34 2117.42 1703.01 2116.87 1703.94 2116.55 1705.14 2116.23 1706.33 2116.07 1707.94 2116.07 1709.95 2116.07 1710.43 2116.12 1711.86 2116.22 1714.25L2117.56 1749.28 2117.56 1753.11 2118.04 1753.11 2138.76 1715.74C2139.97 1713.54 2140.88 1711.65 2141.48 1710.07 2142.09 1708.49 2142.39 1707.09 2142.39 1705.88 2142.39 1703.2 2140.8 1701.61 2137.61 1701.1L2138.13 1698.75 2157.7 1698.75 2157.18 1701.1C2156.32 1701.22 2155.5 1701.55 2154.71 1702.08 2153.93 1702.6 2153.05 1703.48 2152.08 1704.71 2151.11 1705.94 2149.6 1708.3 2147.56 1711.81L2116.94 1764.83 2110.57 1764.83 2107.36 1711.48C2107.24 1709.41 2107.01 1707.63 2106.67 1706.14 2106.34 1704.66 2105.81 1703.5 2105.09 1702.67 2104.37 1701.84 2103.23 1701.32 2101.67 1701.1Z" fill-rule="evenodd"/><text fill="#000000" fill-opacity="0" font-family="Arial,Arial_MSFontService,sans-serif" font-size="66.083" x="2101.67" y="1756.57">𝑉</text><path d="M2228.88 1741.31 2235.67 1741.31 2235.67 1768.87 2261.75 1768.87 2261.75 1775.23 2235.67 1775.23 2235.67 1802.8 2228.88 1802.8 2228.88 1775.23 2202.8 1775.23 2202.8 1768.87 2228.88 1768.87Z" fill-rule="evenodd"/><text fill="#000000" fill-opacity="0" font-family="Arial,Arial_MSFontService,sans-serif" font-size="61.4893" x="2202.8" y="1795.11">+</text><path d="M2330.73 1708.56 2312.5 1756.41 2345.8 1756.41ZM2329.05 1697.98 2336.14 1697.98 2356.33 1761.01 2356.33 1764.07 2304.03 1764.07 2304.03 1761.01Z" fill-rule="evenodd"/><text fill="#000000" fill-opacity="0" font-family="Arial,Arial_MSFontService,sans-serif" font-size="66.083" x="2304.03" y="1755.81">Δ</text><path d="M2365.1 1698.75 2384.91 1698.75 2384.38 1701.1C2382.98 1701.25 2381.88 1701.67 2381.1 1702.34 2380.32 1703.01 2379.77 1703.94 2379.45 1705.14 2379.13 1706.33 2378.97 1707.94 2378.97 1709.95 2378.97 1710.43 2379.02 1711.86 2379.12 1714.25L2380.46 1749.28 2380.46 1753.11 2380.94 1753.11 2401.66 1715.74C2402.87 1713.54 2403.78 1711.65 2404.38 1710.07 2404.99 1708.49 2405.29 1707.09 2405.29 1705.88 2405.29 1703.2 2403.7 1701.61 2400.51 1701.1L2401.03 1698.75 2420.6 1698.75 2420.08 1701.1C2419.22 1701.22 2418.4 1701.55 2417.61 1702.08 2416.83 1702.6 2415.95 1703.48 2414.98 1704.71 2414.01 1705.94 2412.5 1708.3 2410.46 1711.81L2379.83 1764.83 2373.47 1764.83 2370.26 1711.48C2370.14 1709.41 2369.91 1707.63 2369.57 1706.14 2369.24 1704.66 2368.71 1703.5 2367.99 1702.67 2367.27 1701.84 2366.13 1701.32 2364.57 1701.1Z" fill-rule="evenodd"/><text fill="#000000" fill-opacity="0" font-family="Arial,Arial_MSFontService,sans-serif" font-size="66.083" x="2364.57" y="1756.57">𝑉</text><path d="M2132.1 510.266 2196.84 510.266 2191.89 532.302 2185 532.302C2184.81 528.617 2184.51 525.71 2184.1 523.581 2183.7 521.451 2183.12 519.92 2182.38 518.987 2181.64 518.054 2180.74 517.42 2179.69 517.085 2178.64 516.75 2177.06 516.583 2174.95 516.583L2152.84 516.583 2144.3 555.629 2157.73 555.629C2159.83 555.629 2161.58 555.342 2162.97 554.768 2164.35 554.194 2165.65 553.153 2166.84 551.646 2168.04 550.138 2169.52 547.566 2171.29 543.93L2177.82 543.93 2170.86 574.22 2164.54 574.22C2164.54 569.387 2164.39 566.36 2164.08 565.14 2163.77 563.92 2163.17 563.082 2162.28 562.628 2161.4 562.173 2159.64 561.946 2157.01 561.946L2142.94 561.946 2137.27 587.355C2136.26 591.853 2135.76 595.586 2135.76 598.552 2135.76 600.036 2136 601.196 2136.48 602.034 2136.96 602.871 2137.68 603.481 2138.63 603.864 2139.59 604.247 2141.24 604.534 2143.59 604.725L2142.8 608.242 2113.3 608.242 2114.09 604.725C2115.9 604.438 2117.27 603.971 2118.18 603.326 2119.09 602.68 2119.85 601.782 2120.47 600.634 2121.1 599.485 2121.67 598.086 2122.2 596.435 2122.72 594.784 2123.51 591.59 2124.56 586.853L2136.77 531.584C2137.82 526.799 2138.35 523.019 2138.35 520.243 2138.35 517.898 2137.8 516.272 2136.7 515.362 2135.59 514.453 2133.8 513.927 2131.31 513.783Z" fill-rule="evenodd"/><text fill="#000000" fill-opacity="0" font-family="Arial,Arial_MSFontService,sans-serif" font-size="97.9761" x="2113.3" y="595.995">𝐹</text><text font-family="Calibri,Calibri_MSFontService,sans-serif" font-weight="400" font-size="147" transform="matrix(1 0 0 1 2204.31 608)">,E</text><path d="M168.685 745.813 170.622 751.34C159.425 755.025 151.135 762.214 145.752 772.909 140.368 783.604 137.677 797.038 137.677 813.212 137.677 829.96 140.368 843.765 145.752 854.628 151.135 865.49 159.353 872.763 170.407 876.448L168.685 881.975C154.664 878.29 143.921 870.359 136.456 858.181 128.992 846.002 125.259 831.252 125.259 813.93 125.259 796.655 129.004 781.905 136.492 769.679 143.981 757.453 154.712 749.498 168.685 745.813Z" fill-rule="evenodd"/><text fill="#000000" fill-opacity="0" font-family="Arial,Arial_MSFontService,sans-serif" font-size="136.162" x="125.259" y="864.955">(</text><path d="M183.476 751.555 258.412 751.555 252.813 776.821 245.922 776.821C245.922 772.179 245.803 768.698 245.564 766.377 245.324 764.057 244.87 762.286 244.2 761.066 243.53 759.846 242.704 759.008 241.723 758.554 240.743 758.099 239.008 757.872 236.52 757.872L225.897 757.872 210.321 828.644C209.89 830.51 209.591 831.994 209.424 833.094 209.256 834.195 209.113 835.355 208.993 836.576 208.873 837.796 208.814 838.884 208.814 839.841 208.814 841.325 209.053 842.485 209.531 843.323 210.01 844.16 210.728 844.77 211.685 845.153 212.642 845.536 214.293 845.823 216.637 846.014L215.848 849.531 185.63 849.531 186.419 846.014C188.333 845.727 189.745 845.344 190.654 844.866 191.563 844.387 192.365 843.646 193.058 842.641 193.752 841.636 194.446 840.057 195.14 837.904 195.834 835.75 196.659 832.496 197.616 828.142L212.977 757.872 203.861 757.872C200.894 757.872 198.525 758.302 196.755 759.164 194.984 760.025 193.214 761.628 191.443 763.973 189.673 766.318 187.52 770.241 184.984 775.744L178.093 775.744Z" fill-rule="evenodd"/><text fill="#000000" fill-opacity="0" font-family="Arial,Arial_MSFontService,sans-serif" font-size="97.9761" x="178.093" y="837.284">𝑇</text><path d="M273.001 832.879 285.562 832.879C286.232 836.229 286.567 839.53 286.567 842.784 286.567 846.134 285.993 849.196 284.844 851.972 283.696 854.747 281.866 857.511 279.354 860.262 276.841 863.014 273.384 866.04 268.982 869.342L265.106 864.964C267.546 862.667 269.317 860.597 270.417 858.755 271.518 856.913 272.307 854.819 272.786 852.474 273.264 850.13 273.504 847.187 273.504 843.646 273.504 840.009 273.336 836.42 273.001 832.879Z" fill-rule="evenodd"/><text fill="#000000" fill-opacity="0" font-family="Arial,Arial_MSFontService,sans-serif" font-size="36.4629" x="265.106" y="864.784">,</text><path d="M371.171 757.872C368.205 757.872 365.094 757.944 361.84 758.087L352.079 801.584 359.543 801.584C365.333 801.584 370.011 800.986 373.576 799.79 377.141 798.593 380.06 796.739 382.333 794.227 384.606 791.715 386.364 788.736 387.608 785.291 388.853 781.845 389.475 778.065 389.475 773.95 389.475 768.399 388.063 764.332 385.24 761.748 382.417 759.164 377.727 757.872 371.171 757.872ZM341.097 751.555 372.75 751.555C378.445 751.555 383.122 751.998 386.783 752.883 390.444 753.768 393.458 755.132 395.827 756.975 398.196 758.817 399.966 761.15 401.138 763.973 402.311 766.796 402.897 770.074 402.897 773.806 402.897 780.984 401.198 787.205 397.801 792.468 394.403 797.732 389.798 801.608 383.984 804.096 378.17 806.585 371.195 807.829 363.061 807.829 358.18 807.829 354.112 807.733 350.858 807.542L346.265 828.644C345.834 830.606 345.535 832.113 345.367 833.166 345.2 834.219 345.056 835.355 344.937 836.576 344.817 837.796 344.757 838.884 344.757 839.841 344.757 841.325 344.997 842.485 345.475 843.323 345.954 844.16 346.671 844.77 347.628 845.153 348.585 845.536 350.236 845.823 352.581 846.014L351.792 849.531 322.291 849.531 323.081 846.014C324.899 845.727 326.263 845.261 327.172 844.615 328.081 843.969 328.847 843.071 329.469 841.923 330.091 840.775 330.665 839.375 331.191 837.724 331.718 836.073 332.507 832.879 333.56 828.142L345.762 772.873C346.815 768.088 347.341 764.308 347.341 761.532 347.341 759.188 346.791 757.561 345.69 756.652 344.59 755.742 342.795 755.216 340.307 755.072Z" fill-rule="evenodd"/><text fill="#000000" fill-opacity="0" font-family="Arial,Arial_MSFontService,sans-serif" font-size="97.9761" x="322.291" y="837.284">𝑃</text><path d="M422.487 832.879 435.048 832.879C435.718 836.229 436.053 839.53 436.053 842.784 436.053 846.134 435.478 849.196 434.33 851.972 433.181 854.747 431.351 857.511 428.839 860.262 426.327 863.014 422.869 866.04 418.467 869.342L414.591 864.964C417.032 862.667 418.802 860.597 419.903 858.755 421.003 856.913 421.793 854.819 422.271 852.474 422.75 850.13 422.989 847.187 422.989 843.646 422.989 840.009 422.822 836.42 422.487 832.879Z" fill-rule="evenodd"/><text fill="#000000" fill-opacity="0" font-family="Arial,Arial_MSFontService,sans-serif" font-size="36.4629" x="414.591" y="864.784">,</text><path d="M487.855 751.555 516.853 751.555 516.063 755.072C514.005 755.407 512.367 756.113 511.146 757.19 509.926 758.267 509.316 759.834 509.316 761.891 509.316 764.954 510.106 768.806 511.685 773.447L517.642 790.818 530.921 774.022C532.979 771.438 534.582 769.32 535.73 767.669 536.878 766.018 537.704 764.559 538.206 763.291 538.709 762.023 538.96 760.91 538.96 759.953 538.96 758.661 538.577 757.561 537.812 756.652 537.046 755.742 535.73 755.216 533.864 755.072L534.653 751.555 561.426 751.555 560.637 755.072C559.201 755.503 557.849 756.197 556.581 757.154 555.313 758.111 553.806 759.547 552.059 761.461 550.313 763.375 547.071 767.155 542.334 772.801L520.944 798.354 531.423 827.496C533.003 831.898 534.294 835.26 535.299 837.581 536.304 839.901 537.19 841.612 537.955 842.713 538.577 843.526 539.223 844.16 539.893 844.615 540.563 845.069 541.688 845.536 543.267 846.014L542.549 849.531 513.551 849.531 514.269 846.014C516.47 845.679 518.157 844.926 519.329 843.753 520.501 842.581 521.087 841.062 521.087 839.195 521.087 836.372 520.513 833.238 519.365 829.793L511.9 807.901 495.535 828.357C493.094 831.42 491.324 833.92 490.223 835.858 489.123 837.796 488.572 839.459 488.572 840.846 488.572 842.713 489.015 843.993 489.9 844.686 490.785 845.38 492.042 845.823 493.669 846.014L492.879 849.531 466.178 849.531 466.896 846.014C468.379 845.536 469.731 844.842 470.951 843.933 472.171 843.024 473.75 841.48 475.688 839.303 477.626 837.126 481.012 833.166 485.845 827.424L508.598 800.364 497.975 770.863C496.205 765.935 494.817 762.525 493.812 760.635 492.807 758.745 491.814 757.417 490.833 756.652 489.852 755.886 488.596 755.36 487.065 755.072Z" fill-rule="evenodd"/><text fill="#000000" fill-opacity="0" font-family="Arial,Arial_MSFontService,sans-serif" font-size="97.9761" x="466.178" y="837.284">𝑋</text><path d="M580.593 826.64 584.198 826.64 573.331 877.841C572.46 881.812 571.336 885.216 569.961 888.055 568.585 890.894 566.904 893.219 564.919 895.03 562.934 896.841 560.617 898.173 557.97 899.027 555.323 899.88 552.293 900.307 548.879 900.307 547.974 900.307 547.103 900.263 546.267 900.176 545.431 900.089 544.682 899.958 544.02 899.784L545.327 894.298C545.745 894.473 546.302 894.586 546.998 894.638 547.695 894.69 548.496 894.716 549.402 894.716 551.109 894.716 552.632 894.49 553.973 894.037 555.314 893.584 556.516 892.766 557.578 891.582 558.641 890.397 559.599 888.769 560.452 886.697 561.305 884.624 562.098 881.968 562.829 878.729 564.048 873.087 565.215 867.792 566.33 862.846 567.444 857.9 568.358 853.755 569.072 850.412 569.786 847.068 570.352 844.403 570.77 842.418 571.188 840.433 571.493 838.9 571.685 837.82 571.876 836.741 571.99 835.974 572.024 835.522 572.059 835.069 572.077 834.703 572.077 834.424 572.077 833.205 571.615 832.308 570.692 831.734 569.769 831.159 568.141 830.837 565.807 830.767L566.591 827.214ZM578.66 805.585 589.161 805.585 586.601 816.818 576.1 816.818Z" fill-rule="evenodd"/><text fill="#000000" fill-opacity="0" font-family="Arial,Arial_MSFontService,sans-serif" font-size="94.7222" x="544.02" y="888.466">𝑗</text><path d="M607.559 745.813C621.532 749.498 632.262 757.453 639.751 769.679 647.24 781.905 650.984 796.655 650.984 813.93 650.984 831.252 647.252 846.002 639.787 858.181 632.322 870.359 621.579 878.29 607.559 881.975L605.836 876.448C616.89 872.763 625.109 865.49 630.492 854.628 635.875 843.765 638.567 829.96 638.567 813.212 638.567 797.038 635.887 783.604 630.528 772.909 625.168 762.214 616.866 755.025 605.621 751.34Z" fill-rule="evenodd"/><text fill="#000000" fill-opacity="0" font-family="Arial,Arial_MSFontService,sans-serif" font-size="136.162" x="605.621" y="864.955">)</text><text font-family="Calibri,Calibri_MSFontService,sans-serif" font-weight="400" font-size="98" transform="matrix(1 0 0 1 663.623 886)">f</text><path d="M2087.99 739.207 2089.92 744.734C2078.73 748.419 2070.44 755.609 2065.05 766.303 2059.67 776.998 2056.98 790.432 2056.98 806.606 2056.98 823.354 2059.67 837.16 2065.05 848.022 2070.44 858.884 2078.66 866.158 2089.71 869.842L2087.99 875.369C2073.97 871.684 2063.22 863.753 2055.76 851.575 2048.29 839.397 2044.56 824.646 2044.56 807.324 2044.56 790.05 2048.31 775.299 2055.79 763.073 2063.28 750.847 2074.01 742.892 2087.99 739.207Z" fill-rule="evenodd"/><text fill="#000000" fill-opacity="0" font-family="Arial,Arial_MSFontService,sans-serif" font-size="136.162" x="2044.56" y="858.349">(</text><path d="M2102.78 744.95 2177.71 744.95 2172.11 770.215 2165.22 770.215C2165.22 765.574 2165.1 762.092 2164.87 759.772 2164.63 757.451 2164.17 755.68 2163.5 754.46 2162.83 753.24 2162.01 752.402 2161.03 751.948 2160.04 751.493 2158.31 751.266 2155.82 751.266L2145.2 751.266 2129.62 822.038C2129.19 823.905 2128.89 825.388 2128.73 826.489 2128.56 827.589 2128.41 828.75 2128.29 829.97 2128.18 831.19 2128.12 832.279 2128.12 833.236 2128.12 834.719 2128.35 835.88 2128.83 836.717 2129.31 837.554 2130.03 838.164 2130.99 838.547 2131.94 838.93 2133.59 839.217 2135.94 839.409L2135.15 842.926 2104.93 842.926 2105.72 839.409C2107.63 839.121 2109.05 838.739 2109.96 838.26 2110.86 837.782 2111.67 837.04 2112.36 836.035 2113.05 835.03 2113.75 833.451 2114.44 831.298 2115.14 829.144 2115.96 825.891 2116.92 821.536L2132.28 751.266 2123.16 751.266C2120.2 751.266 2117.83 751.697 2116.06 752.558 2114.29 753.419 2112.52 755.022 2110.75 757.367 2108.97 759.712 2106.82 763.636 2104.29 769.139L2097.39 769.139Z" fill-rule="evenodd"/><text fill="#000000" fill-opacity="0" font-family="Arial,Arial_MSFontService,sans-serif" font-size="97.9761" x="2097.39" y="830.679">𝑇</text><path d="M2192.3 826.273 2204.86 826.273C2205.53 829.623 2205.87 832.925 2205.87 836.179 2205.87 839.528 2205.29 842.591 2204.15 845.366 2203 848.141 2201.17 850.905 2198.66 853.656 2196.14 856.408 2192.69 859.434 2188.28 862.736L2184.41 858.358C2186.85 856.061 2188.62 853.991 2189.72 852.149 2190.82 850.307 2191.61 848.213 2192.09 845.869 2192.57 843.524 2192.81 840.581 2192.81 837.04 2192.81 833.403 2192.64 829.814 2192.3 826.273Z" fill-rule="evenodd"/><text fill="#000000" fill-opacity="0" font-family="Arial,Arial_MSFontService,sans-serif" font-size="36.4629" x="2184.41" y="858.178">,</text><path d="M2290.47 751.266C2287.51 751.266 2284.4 751.338 2281.14 751.481L2271.38 794.978 2278.85 794.978C2284.64 794.978 2289.31 794.38 2292.88 793.184 2296.44 791.988 2299.36 790.133 2301.63 787.621 2303.91 785.109 2305.67 782.13 2306.91 778.685 2308.15 775.24 2308.78 771.459 2308.78 767.344 2308.78 761.793 2307.36 757.726 2304.54 755.142 2301.72 752.558 2297.03 751.266 2290.47 751.266ZM2260.4 744.95 2292.05 744.95C2297.75 744.95 2302.42 745.392 2306.08 746.277 2309.75 747.163 2312.76 748.526 2315.13 750.369 2317.5 752.211 2319.27 754.544 2320.44 757.367 2321.61 760.19 2322.2 763.468 2322.2 767.201 2322.2 774.378 2320.5 780.599 2317.1 785.863 2313.71 791.126 2309.1 795.002 2303.29 797.491 2297.47 799.979 2290.5 801.223 2282.36 801.223 2277.48 801.223 2273.41 801.127 2270.16 800.936L2265.57 822.038C2265.14 824 2264.84 825.508 2264.67 826.56 2264.5 827.613 2264.36 828.75 2264.24 829.97 2264.12 831.19 2264.06 832.279 2264.06 833.236 2264.06 834.719 2264.3 835.88 2264.78 836.717 2265.26 837.554 2265.97 838.164 2266.93 838.547 2267.89 838.93 2269.54 839.217 2271.88 839.409L2271.09 842.926 2241.59 842.926 2242.38 839.409C2244.2 839.121 2245.56 838.655 2246.47 838.009 2247.38 837.363 2248.15 836.466 2248.77 835.317 2249.39 834.169 2249.97 832.769 2250.49 831.118 2251.02 829.467 2251.81 826.273 2252.86 821.536L2265.06 766.267C2266.12 761.482 2266.64 757.702 2266.64 754.927 2266.64 752.582 2266.09 750.955 2264.99 750.046 2263.89 749.137 2262.1 748.61 2259.61 748.467Z" fill-rule="evenodd"/><text fill="#000000" fill-opacity="0" font-family="Arial,Arial_MSFontService,sans-serif" font-size="97.9761" x="2241.59" y="830.679">𝑃</text><path d="M2341.79 826.273 2354.35 826.273C2355.02 829.623 2355.35 832.925 2355.35 836.179 2355.35 839.528 2354.78 842.591 2353.63 845.366 2352.48 848.141 2350.65 850.905 2348.14 853.656 2345.63 856.408 2342.17 859.434 2337.77 862.736L2333.89 858.358C2336.33 856.061 2338.1 853.991 2339.2 852.149 2340.3 850.307 2341.09 848.213 2341.57 845.869 2342.05 843.524 2342.29 840.581 2342.29 837.04 2342.29 833.403 2342.12 829.814 2341.79 826.273Z" fill-rule="evenodd"/><text fill="#000000" fill-opacity="0" font-family="Arial,Arial_MSFontService,sans-serif" font-size="36.4629" x="2333.89" y="858.178">,</text><path d="M2407.16 744.95 2436.15 744.95 2435.36 748.467C2433.31 748.802 2431.67 749.507 2430.45 750.584 2429.23 751.661 2428.62 753.228 2428.62 755.286 2428.62 758.348 2429.41 762.2 2430.99 766.842L2436.94 784.212 2450.22 767.416C2452.28 764.832 2453.88 762.714 2455.03 761.064 2456.18 759.413 2457.01 757.953 2457.51 756.685 2458.01 755.417 2458.26 754.305 2458.26 753.348 2458.26 752.056 2457.88 750.955 2457.11 750.046 2456.35 749.137 2455.03 748.61 2453.17 748.467L2453.96 744.95 2480.73 744.95 2479.94 748.467C2478.5 748.897 2477.15 749.591 2475.88 750.548 2474.61 751.505 2473.11 752.941 2471.36 754.855 2469.61 756.769 2466.37 760.549 2461.64 766.196L2440.25 791.748 2450.73 820.89C2452.3 825.292 2453.6 828.654 2454.6 830.975 2455.61 833.296 2456.49 835.006 2457.26 836.107 2457.88 836.92 2458.52 837.554 2459.19 838.009 2459.86 838.464 2460.99 838.93 2462.57 839.409L2461.85 842.926 2432.85 842.926 2433.57 839.409C2435.77 839.074 2437.46 838.32 2438.63 837.148 2439.8 835.975 2440.39 834.456 2440.39 832.59 2440.39 829.766 2439.81 826.632 2438.67 823.187L2431.2 801.295 2414.84 821.751C2412.4 824.814 2410.63 827.314 2409.52 829.252 2408.42 831.19 2407.87 832.853 2407.87 834.241 2407.87 836.107 2408.32 837.387 2409.2 838.081 2410.09 838.775 2411.34 839.217 2412.97 839.409L2412.18 842.926 2385.48 842.926 2386.2 839.409C2387.68 838.93 2389.03 838.236 2390.25 837.327 2391.47 836.418 2393.05 834.875 2394.99 832.697 2396.93 830.52 2400.31 826.56 2405.15 820.818L2427.9 793.758 2417.28 764.258C2415.51 759.329 2414.12 755.92 2413.11 754.029 2412.11 752.139 2411.12 750.811 2410.14 750.046 2409.15 749.28 2407.9 748.754 2406.37 748.467Z" fill-rule="evenodd"/><text fill="#000000" fill-opacity="0" font-family="Arial,Arial_MSFontService,sans-serif" font-size="97.9761" x="2385.48" y="830.679">𝑋</text><path d="M2499.89 820.034 2503.5 820.034 2492.63 871.235C2491.76 875.206 2490.64 878.611 2489.26 881.449 2487.89 884.288 2486.21 886.613 2484.22 888.424 2482.24 890.235 2479.92 891.568 2477.27 892.421 2474.62 893.274 2471.59 893.701 2468.18 893.701 2467.28 893.701 2466.4 893.657 2465.57 893.57 2464.73 893.483 2463.98 893.353 2463.32 893.179L2464.63 887.693C2465.05 887.867 2465.6 887.98 2466.3 888.032 2467 888.085 2467.8 888.111 2468.7 888.111 2470.41 888.111 2471.93 887.884 2473.28 887.431 2474.62 886.979 2475.82 886.16 2476.88 884.976 2477.94 883.792 2478.9 882.163 2479.75 880.091 2480.61 878.018 2481.4 875.363 2482.13 872.123 2483.35 866.481 2484.52 861.187 2485.63 856.241 2486.75 851.295 2487.66 847.15 2488.37 843.806 2489.09 840.462 2489.65 837.798 2490.07 835.812 2490.49 833.827 2490.79 832.294 2490.99 831.215 2491.18 830.135 2491.29 829.369 2491.33 828.916 2491.36 828.463 2491.38 828.097 2491.38 827.819 2491.38 826.6 2490.92 825.703 2489.99 825.128 2489.07 824.553 2487.44 824.231 2485.11 824.161L2485.89 820.609ZM2497.96 798.979 2508.46 798.979 2505.9 810.212 2495.4 810.212Z" fill-rule="evenodd"/><text fill="#000000" fill-opacity="0" font-family="Arial,Arial_MSFontService,sans-serif" font-size="94.7222" x="2463.32" y="881.861">𝑗</text><path d="M2526.86 739.207C2540.83 742.892 2551.56 750.847 2559.05 763.073 2566.54 775.299 2570.29 790.05 2570.29 807.324 2570.29 824.646 2566.55 839.397 2559.09 851.575 2551.62 863.753 2540.88 871.684 2526.86 875.369L2525.14 869.842C2536.19 866.158 2544.41 858.884 2549.79 848.022 2555.18 837.16 2557.87 823.354 2557.87 806.606 2557.87 790.432 2555.19 776.998 2549.83 766.303 2544.47 755.609 2536.17 748.419 2524.92 744.734Z" fill-rule="evenodd"/><text fill="#000000" fill-opacity="0" font-family="Arial,Arial_MSFontService,sans-serif" font-size="136.162" x="2524.92" y="858.349">)</text><path d="M1984.04 1996.35 1970.91 2000.43 1966.83 1987.3 1979.96 1983.22ZM1957.79 2004.52 1944.66 2008.61 1940.57 1995.48 1953.7 1991.39ZM1931.53 2012.69 1918.4 2016.78 1914.31 2003.65 1927.44 1999.56ZM1905.27 2020.87 1903.53 2021.41 1892.07 2024.88 1888.08 2011.73 1899.51 2008.26 1899.47 2008.27 1901.18 2007.74ZM1878.91 2028.88 1865.75 2032.87 1861.76 2019.71 1874.92 2015.72ZM1852.51 2036.77 1839.31 2040.65 1835.44 2027.45 1848.63 2023.58ZM1826.12 2044.52 1824.15 2045.1 1812.8 2048.27 1809.09 2035.03 1820.4 2031.87 1820.32 2031.89 1822.25 2031.33ZM1799.56 2051.98 1786.32 2055.69 1782.61 2042.45 1795.85 2038.74ZM1772.92 2059.23 1759.62 2062.72 1756.13 2049.42 1769.43 2045.93ZM1746.18 2066.23 1732.81 2069.45 1729.59 2056.08 1742.96 2052.86ZM1719.45 2072.67 1709.9 2074.97 1705.88 2075.83 1703.01 2062.38 1706.94 2061.54 1706.77 2061.58 1716.23 2059.3ZM1692.44 2078.71 1678.99 2081.58 1676.11 2068.14 1689.56 2065.26ZM1665.35 2084.3 1656.04 2086.07 1651.71 2086.82 1649.38 2073.27 1653.65 2072.53 1653.53 2072.55 1662.79 2070.79ZM1638.03 2089.16 1624.44 2091.23 1622.37 2077.63 1635.96 2075.56ZM1610.66 2093.08 1605.01 2093.82 1596.85 2094.69 1595.39 2081.02 1603.48 2080.16 1603.32 2080.18 1608.89 2079.45ZM1582.98 2096.01 1572.8 2096.82 1569.06 2097.01 1568.37 2083.28 1572.01 2083.09 1571.81 2083.11 1581.88 2082.3ZM1555.11 2097.64 1542.2 2097.88 1541.11 2097.86 1541.36 2084.11 1542.33 2084.13 1542.08 2084.13 1554.86 2083.9ZM1527.09 2097.59 1513.35 2096.79 1513.06 2096.76 1514.46 2083.08 1514.6 2083.1 1514.3 2083.07 1527.89 2083.86ZM1499.05 2095.29 1486.38 2093.36 1485.1 2093.09 1487.91 2079.63 1489.01 2079.86 1488.64 2079.79 1501.12 2081.7ZM1471.27 2090.05 1461.43 2087.36 1457.64 2086.05 1462.13 2073.06 1465.7 2074.29 1465.27 2074.16 1474.89 2076.78ZM1444.33 2081 1438.57 2078.53 1431.4 2074.47 1438.17 2062.5 1445.01 2066.37 1444.34 2066.04 1449.75 2068.36ZM1419.41 2066.07 1417.9 2064.93 1408.71 2056.07 1408.3 2055.59 1418.83 2046.74 1419 2046.94 1418.51 2046.42 1427.15 2054.75 1426.52 2054.21 1427.71 2055.11ZM1399.19 2044.49 1392.51 2034.91 1391.19 2032.66 1403.04 2025.69 1404.23 2027.71 1403.94 2027.26 1410.47 2036.62ZM1384.15 2020.33 1378.9 2009.89 1377.93 2007.64 1390.54 2002.17 1391.44 2004.24 1391.28 2003.89 1396.44 2014.16ZM1372.4 1994.69 1367.53 1981.77 1367.46 1981.55 1380.52 1977.24 1380.54 1977.32 1380.45 1977.05 1385.26 1989.84ZM1363.15 1968.49 1362.59 1966.77 1359.19 1955.06 1372.39 1951.23 1375.76 1962.82 1375.68 1962.59 1376.21 1964.18ZM1355.6 1941.57 1354 1935.34 1352.4 1927.92 1365.84 1925.03 1367.41 1932.31 1367.35 1932.05 1368.92 1938.15ZM1349.51 1914.48 1346.98 1902.74 1346.63 1900.75 1360.18 1898.41 1360.5 1900.26 1360.45 1899.98 1362.95 1911.59ZM1344.29 1887.2 1341.95 1873.65 1355.5 1871.31 1357.84 1884.86ZM1339.87 1859.85 1337.95 1846.23 1351.56 1844.31 1353.49 1857.92ZM1336.07 1832.49 1334.59 1820.5 1334.39 1818.78 1348.05 1817.21 1348.25 1818.9 1348.24 1818.84 1349.72 1830.8ZM1332.82 1805.12 1332.78 1804.71 1331.34 1791.41 1345.01 1789.93 1346.44 1803.21 1346.44 1803.16 1346.48 1803.55ZM1329.91 1777.7 1329.59 1774.57 1328.52 1764 1342.2 1762.62 1343.26 1773.15 1343.59 1776.28ZM1327.14 1750.32 1326.79 1746.94 1326.84 1747.28 1325.44 1738.05 1339.04 1736 1340.46 1745.39 1340.82 1748.94ZM1299.48 1749.49 1322 1676 1367.28 1738.11Z"/><path d="M2092.47 1940.38C2087.3 1940.38 2082.48 1942.22 2078 1945.91 2073.53 1949.59 2069.6 1954.86 2066.23 1961.7 2062.86 1968.54 2060.24 1976.06 2058.37 1984.24 2056.51 1992.42 2055.57 1999.65 2055.57 2005.92 2055.57 2020.7 2060.96 2028.09 2071.72 2028.09 2078.37 2028.09 2084.47 2025 2090.03 2018.8 2095.58 2012.6 2100.05 2004.03 2103.45 1993.07 2106.85 1982.11 2108.54 1971.87 2108.54 1962.35 2108.54 1955.22 2107.23 1949.77 2104.6 1946.02 2101.96 1942.26 2097.92 1940.38 2092.47 1940.38ZM2093.26 1934.07C2102.49 1934.07 2109.61 1936.75 2114.61 1942.11 2119.61 1947.46 2122.11 1955.22 2122.11 1965.36 2122.11 1972.06 2121.06 1979.55 2118.95 1987.83 2116.85 1996.11 2113.95 2003.41 2110.27 2009.76 2106.58 2016.1 2102.31 2021.2 2097.45 2025.08 2092.6 2028.96 2087.32 2031.64 2081.63 2033.12 2082.73 2036.61 2083.76 2039.49 2084.71 2041.77 2085.67 2044.04 2086.59 2045.88 2087.48 2047.29 2088.36 2048.71 2089.24 2049.76 2090.1 2050.45 2090.96 2051.15 2091.82 2051.61 2092.68 2051.85 2093.54 2052.09 2094.55 2052.21 2095.7 2052.21 2097.51 2052.21 2099.36 2051.69 2101.22 2050.63 2103.09 2049.58 2105.17 2047.76 2107.47 2045.18L2111.2 2049.2C2107.37 2053.36 2103.81 2056.3 2100.51 2058.03 2097.2 2059.75 2093.81 2060.61 2090.31 2060.61 2086.34 2060.61 2083.1 2059.72 2080.59 2057.95 2078.07 2056.18 2075.9 2053.36 2074.06 2049.48 2072.21 2045.61 2070.43 2040.54 2068.71 2034.27 2060.05 2033.79 2053.44 2030.92 2048.9 2025.65 2044.35 2020.39 2042.08 2012.97 2042.08 2003.4 2042.08 1996.23 2043.29 1988.11 2045.7 1979.07 2048.12 1970.03 2051.61 1962.05 2056.18 1955.13 2060.75 1948.22 2066.21 1942.98 2072.55 1939.41 2078.89 1935.85 2085.79 1934.07 2093.26 1934.07Z" fill-rule="evenodd"/><text fill="#000000" fill-opacity="0" font-family="Arial,Arial_MSFontService,sans-serif" font-size="126.543" x="2042.08" y="2044.79">𝑄</text><path d="M2093.94 1904.34C2096.19 1904.34 2098.08 1905.14 2099.61 1906.74 2101.14 1908.34 2101.91 1910.37 2101.91 1912.81 2101.91 1915.25 2101.14 1917.27 2099.61 1918.87 2098.08 1920.47 2096.19 1921.28 2093.94 1921.28 2091.64 1921.28 2089.73 1920.47 2088.2 1918.87 2086.67 1917.27 2085.9 1915.25 2085.9 1912.81 2085.9 1910.37 2086.67 1908.34 2088.2 1906.74 2089.73 1905.14 2091.64 1904.34 2093.94 1904.34Z" fill-rule="evenodd"/><text fill="#000000" fill-opacity="0" font-family="Arial,Arial_MSFontService,sans-serif" font-size="16.9395" x="2085.9" y="1919.16">ሶ</text></g></svg>