<svg width="1280" height="546" xmlns="http://www.w3.org/2000/svg" xmlns:xlink="http://www.w3.org/1999/xlink" overflow="hidden"><defs><clipPath id="clip0"><rect x="709" y="512" width="1280" height="546"/></clipPath></defs><g clip-path="url(#clip0)" transform="translate(-709 -512)"><path d="M1936.75 885C1911.76 885 1891.5 803.964 1891.5 703.999 1891.5 604.035 1911.76 522.999 1936.75 522.999 1961.74 522.999 1982 604.035 1982 703.999 1982 803.964 1961.74 885 1936.75 885L761.25 885C736.259 885 716 803.964 716 703.999 716 604.035 736.259 522.999 761.25 522.999L1936.75 523" stroke="#000000" stroke-width="13.75" stroke-miterlimit="8" fill="none" fill-rule="evenodd"/><path d="M882.5 885.5C865.379 885.5 851.5 804.463 851.5 704.5 851.5 604.536 865.379 523.5 882.5 523.5 899.621 523.5 913.5 604.536 913.5 704.5 913.5 804.463 899.621 885.5 882.5 885.5L820.5 885.5C803.379 885.5 789.5 804.463 789.5 704.5 789.5 604.536 803.379 523.5 820.5 523.5L882.5 523.5" stroke="#000000" stroke-width="4.58333" stroke-miterlimit="8" fill="none" fill-rule="evenodd"/><path d="M1078.5 876.5C1061.38 876.5 1047.5 795.464 1047.5 695.5 1047.5 595.537 1061.38 514.5 1078.5 514.5 1095.62 514.5 1109.5 595.537 1109.5 695.5 1109.5 795.464 1095.62 876.5 1078.5 876.5L1016.5 876.5C999.38 876.5 985.5 795.464 985.5 695.5 985.5 595.537 999.38 514.5 1016.5 514.5L1078.5 514.5" stroke="#000000" stroke-width="4.58333" stroke-miterlimit="8" fill="none" fill-rule="evenodd"/><path d="M1315.5 886.5C1298.38 886.5 1284.5 805.687 1284.5 706 1284.5 606.312 1298.38 525.5 1315.5 525.5 1332.62 525.5 1346.5 606.312 1346.5 706 1346.5 805.687 1332.62 886.5 1315.5 886.5L1253.5 886.5C1236.38 886.5 1222.5 805.687 1222.5 706 1222.5 606.312 1236.38 525.5 1253.5 525.5L1315.5 525.5" stroke="#000000" stroke-width="4.58333" stroke-miterlimit="8" fill="none" fill-rule="evenodd"/><path d="M1529.5 885.5C1512.38 885.5 1498.5 804.464 1498.5 704.5 1498.5 604.536 1512.38 523.5 1529.5 523.5 1546.62 523.5 1560.5 604.536 1560.5 704.5 1560.5 804.464 1546.62 885.5 1529.5 885.5L1467.5 885.5C1450.38 885.5 1436.5 804.464 1436.5 704.5 1436.5 604.536 1450.38 523.5 1467.5 523.5L1529.5 523.5" stroke="#000000" stroke-width="4.58333" stroke-miterlimit="8" fill="none" fill-rule="evenodd"/><path d="M796.147 963.891 775.684 1017.6 813.066 1017.6ZM794.268 952.021 802.217 952.021 824.883 1022.76 824.883 1026.2 766.177 1026.2 766.177 1022.76Z" fill-rule="evenodd"/><text fill="#000000" fill-opacity="0" font-family="Arial,Arial_MSFontService,sans-serif" font-size="74.1748" x="766.177" y="1016.92">Δ</text><path d="M834.443 952.88 856.68 952.88 856.089 955.512C854.513 955.691 853.287 956.156 852.41 956.908 851.532 957.66 850.915 958.708 850.557 960.05 850.199 961.393 850.02 963.192 850.02 965.448 850.02 965.985 850.073 967.597 850.181 970.282L851.685 1009.6 851.685 1013.9 852.222 1013.9 875.479 971.947C876.839 969.477 877.86 967.355 878.54 965.583 879.22 963.81 879.561 962.243 879.561 960.883 879.561 957.875 877.77 956.085 874.189 955.512L874.78 952.88 896.748 952.88 896.157 955.512C895.19 955.655 894.268 956.022 893.391 956.613 892.514 957.204 891.529 958.188 890.437 959.567 889.345 960.945 887.653 963.604 885.361 967.543L850.986 1027.05 843.843 1027.05 840.244 967.167C840.101 964.84 839.841 962.843 839.465 961.178 839.089 959.513 838.499 958.215 837.693 957.284 836.887 956.353 835.607 955.762 833.853 955.512Z" fill-rule="evenodd"/><text fill="#000000" fill-opacity="0" font-family="Arial,Arial_MSFontService,sans-serif" font-size="74.1748" x="833.853" y="1017.78">𝑉</text><path d="M920.526 1003.97 922.487 1003.97C922.344 1006.25 922.273 1009.41 922.273 1013.45L922.273 1043.89C922.273 1045.27 922.35 1046.31 922.505 1047.01 922.659 1047.71 922.932 1048.28 923.324 1048.72 923.717 1049.16 924.281 1049.5 925.018 1049.75 925.754 1050 926.681 1050.19 927.798 1050.32 928.915 1050.45 930.388 1050.54 932.218 1050.59L932.218 1053.19 905.876 1053.19 905.876 1050.59C908.514 1050.47 910.397 1050.31 911.526 1050.11 912.655 1049.91 913.516 1049.6 914.11 1049.2 914.704 1048.8 915.138 1048.22 915.411 1047.49 915.685 1046.75 915.821 1045.55 915.821 1043.89L915.821 1014.98C915.821 1014.03 915.655 1013.33 915.322 1012.9 914.99 1012.46 914.502 1012.24 913.861 1012.24 913.1 1012.24 912.019 1012.63 910.617 1013.41 909.215 1014.2 907.48 1015.28 905.413 1016.66L903.845 1013.91Z" fill-rule="evenodd"/><text fill="#000000" fill-opacity="0" font-family="Arial,Arial_MSFontService,sans-serif" font-size="49.2251" x="903.845" y="1047.04">1</text><path d="M1006.28 963.891 985.813 1017.6 1023.2 1017.6ZM1004.4 952.021 1012.35 952.021 1035.01 1022.76 1035.01 1026.2 976.306 1026.2 976.306 1022.76Z" fill-rule="evenodd"/><text fill="#000000" fill-opacity="0" font-family="Arial,Arial_MSFontService,sans-serif" font-size="74.1748" x="976.306" y="1016.92">Δ</text><path d="M1044.57 952.88 1066.81 952.88 1066.22 955.512C1064.64 955.691 1063.42 956.156 1062.54 956.908 1061.66 957.66 1061.04 958.708 1060.69 960.05 1060.33 961.393 1060.15 963.192 1060.15 965.448 1060.15 965.985 1060.2 967.597 1060.31 970.282L1061.81 1009.6 1061.81 1013.9 1062.35 1013.9 1085.61 971.947C1086.97 969.477 1087.99 967.355 1088.67 965.583 1089.35 963.81 1089.69 962.243 1089.69 960.883 1089.69 957.875 1087.9 956.085 1084.32 955.512L1084.91 952.88 1106.88 952.88 1106.29 955.512C1105.32 955.655 1104.4 956.022 1103.52 956.613 1102.64 957.204 1101.66 958.188 1100.57 959.567 1099.47 960.945 1097.78 963.604 1095.49 967.543L1061.12 1027.05 1053.97 1027.05 1050.37 967.167C1050.23 964.84 1049.97 962.843 1049.59 961.178 1049.22 959.513 1048.63 958.215 1047.82 957.284 1047.02 956.353 1045.74 955.762 1043.98 955.512Z" fill-rule="evenodd"/><text fill="#000000" fill-opacity="0" font-family="Arial,Arial_MSFontService,sans-serif" font-size="74.1748" x="1043.98" y="1017.78">𝑉</text><path d="M1128.12 1003.97C1132.54 1003.97 1135.88 1004.93 1138.14 1006.87 1140.4 1008.81 1141.53 1011.62 1141.53 1015.3 1141.53 1016.56 1141.4 1017.72 1141.15 1018.78 1140.9 1019.83 1140.51 1020.88 1139.98 1021.91 1139.44 1022.95 1138.72 1024.06 1137.82 1025.25 1136.92 1026.43 1135.92 1027.64 1134.83 1028.86 1133.73 1030.09 1131.84 1032.13 1129.16 1034.98 1124.64 1039.75 1121.33 1043.92 1119.21 1047.49L1132.65 1047.49C1133.82 1047.49 1134.75 1047.42 1135.47 1047.27 1136.18 1047.13 1136.75 1046.89 1137.18 1046.56 1137.61 1046.23 1137.94 1045.79 1138.19 1045.26 1138.44 1044.73 1138.76 1043.9 1139.14 1042.78L1142.17 1042.78 1141.56 1053.19 1112.23 1053.19 1112.23 1051.48C1113.25 1048.99 1114.63 1046.43 1116.36 1043.82 1118.1 1041.2 1120.56 1038.13 1123.74 1034.58 1126.5 1031.54 1128.48 1029.24 1129.69 1027.67 1131.02 1025.96 1132.02 1024.48 1132.67 1023.23 1133.32 1021.98 1133.79 1020.81 1134.08 1019.7 1134.36 1018.6 1134.51 1017.49 1134.51 1016.37 1134.51 1014.59 1134.22 1013.01 1133.65 1011.65 1133.08 1010.28 1132.21 1009.21 1131.03 1008.42 1129.85 1007.64 1128.37 1007.25 1126.59 1007.25 1122.15 1007.25 1119.15 1009.72 1117.61 1014.66L1113.3 1014.66 1113.3 1007.82C1116.17 1006.46 1118.86 1005.48 1121.37 1004.88 1123.88 1004.27 1126.13 1003.97 1128.12 1003.97Z" fill-rule="evenodd"/><text fill="#000000" fill-opacity="0" font-family="Arial,Arial_MSFontService,sans-serif" font-size="49.2251" x="1112.23" y="1047.04">2</text><path d="M1231.31 963.891 1210.85 1017.6 1248.23 1017.6ZM1229.43 952.021 1237.38 952.021 1260.05 1022.76 1260.05 1026.2 1201.34 1026.2 1201.34 1022.76Z" fill-rule="evenodd"/><text fill="#000000" fill-opacity="0" font-family="Arial,Arial_MSFontService,sans-serif" font-size="74.1748" x="1201.34" y="1016.92">Δ</text><path d="M1269.61 952.88 1291.84 952.88 1291.25 955.512C1289.68 955.691 1288.45 956.156 1287.57 956.908 1286.7 957.66 1286.08 958.708 1285.72 960.05 1285.36 961.393 1285.18 963.192 1285.18 965.448 1285.18 965.985 1285.24 967.597 1285.34 970.282L1286.85 1009.6 1286.85 1013.9 1287.39 1013.9 1310.64 971.947C1312 969.477 1313.02 967.355 1313.7 965.583 1314.38 963.81 1314.72 962.243 1314.72 960.883 1314.72 957.875 1312.93 956.085 1309.35 955.512L1309.94 952.88 1331.91 952.88 1331.32 955.512C1330.35 955.655 1329.43 956.022 1328.55 956.613 1327.68 957.204 1326.69 958.188 1325.6 959.567 1324.51 960.945 1322.82 963.604 1320.53 967.543L1286.15 1027.05 1279.01 1027.05 1275.41 967.167C1275.26 964.84 1275.01 962.843 1274.63 961.178 1274.25 959.513 1273.66 958.215 1272.86 957.284 1272.05 956.353 1270.77 955.762 1269.02 955.512Z" fill-rule="evenodd"/><text fill="#000000" fill-opacity="0" font-family="Arial,Arial_MSFontService,sans-serif" font-size="74.1748" x="1269.02" y="1017.78">𝑉</text><path d="M1353.02 1003.97C1355.7 1003.97 1358.05 1004.38 1360.07 1005.21 1362.09 1006.05 1363.64 1007.24 1364.71 1008.8 1365.78 1010.35 1366.31 1012.21 1366.31 1014.37 1366.31 1016.39 1365.91 1018.17 1365.1 1019.7 1364.29 1021.24 1363.16 1022.57 1361.7 1023.71 1360.23 1024.85 1358.34 1025.97 1356.01 1027.06L1356.01 1027.38C1357.46 1027.65 1358.86 1028.09 1360.2 1028.72 1361.54 1029.35 1362.74 1030.16 1363.78 1031.16 1364.83 1032.16 1365.66 1033.35 1366.29 1034.75 1366.92 1036.14 1367.24 1037.72 1367.24 1039.5 1367.24 1042.26 1366.64 1044.71 1365.44 1046.85 1364.24 1048.99 1362.4 1050.67 1359.93 1051.91 1357.46 1053.14 1354.45 1053.76 1350.91 1053.76 1348.87 1053.76 1346.67 1053.53 1344.3 1053.07 1341.94 1052.6 1339.77 1051.99 1337.8 1051.23L1337.8 1043.67 1342.07 1043.67C1342.91 1046.15 1344 1047.94 1345.37 1049.06 1346.74 1050.17 1348.6 1050.73 1350.95 1050.73 1354.04 1050.73 1356.37 1049.89 1357.95 1048.2 1359.53 1046.51 1360.32 1044.02 1360.32 1040.72 1360.32 1037.25 1359.28 1034.6 1357.19 1032.77 1355.1 1030.94 1352.03 1030.02 1347.99 1030.02L1344.78 1030.02 1344.78 1026.89C1347.99 1026.7 1350.69 1026.08 1352.89 1025.03 1355.09 1023.99 1356.72 1022.64 1357.79 1021 1358.86 1019.36 1359.4 1017.52 1359.4 1015.48 1359.4 1012.84 1358.7 1010.81 1357.29 1009.38 1355.89 1007.96 1353.85 1007.25 1351.16 1007.25 1348.93 1007.25 1347.11 1007.85 1345.71 1009.06 1344.31 1010.28 1343.27 1012.13 1342.61 1014.62L1338.33 1014.62 1338.33 1007.85C1341.09 1006.54 1343.67 1005.57 1346.07 1004.93 1348.47 1004.29 1350.78 1003.97 1353.02 1003.97Z" fill-rule="evenodd"/><text fill="#000000" fill-opacity="0" font-family="Arial,Arial_MSFontService,sans-serif" font-size="49.7954" x="1337.8" y="1047.54">3</text><path d="M1469.94 967.209 1449.47 1020.92 1486.86 1020.92ZM1468.06 955.339 1476.01 955.339 1498.67 1026.08 1498.67 1029.51 1439.97 1029.51 1439.97 1026.08Z" fill-rule="evenodd"/><text fill="#000000" fill-opacity="0" font-family="Arial,Arial_MSFontService,sans-serif" font-size="74.1748" x="1439.97" y="1020.24">Δ</text><path d="M1508.23 956.198 1530.47 956.198 1529.88 958.83C1528.3 959.009 1527.08 959.474 1526.2 960.226 1525.32 960.978 1524.7 962.026 1524.35 963.368 1523.99 964.711 1523.81 966.51 1523.81 968.766 1523.81 969.303 1523.86 970.915 1523.97 973.6L1525.47 1012.92 1525.47 1017.21 1526.01 1017.21 1549.27 975.265C1550.63 972.795 1551.65 970.673 1552.33 968.901 1553.01 967.128 1553.35 965.561 1553.35 964.201 1553.35 961.193 1551.56 959.403 1547.98 958.83L1548.57 956.198 1570.54 956.198 1569.95 958.83C1568.98 958.973 1568.06 959.34 1567.18 959.931 1566.3 960.522 1565.32 961.506 1564.23 962.885 1563.13 964.263 1561.44 966.922 1559.15 970.861L1524.78 1030.37 1517.63 1030.37 1514.03 970.485C1513.89 968.158 1513.63 966.161 1513.25 964.496 1512.88 962.831 1512.29 961.533 1511.48 960.602 1510.68 959.671 1509.4 959.08 1507.64 958.83Z" fill-rule="evenodd"/><text fill="#000000" fill-opacity="0" font-family="Arial,Arial_MSFontService,sans-serif" font-size="74.1748" x="1507.64" y="1021.1">𝑉</text><path d="M1589.86 1005.54 1591.93 1005.54 1584.94 1036.66 1586.08 1036.66C1587.86 1036.66 1589.87 1035.88 1592.09 1034.32 1594.31 1032.76 1596.09 1031.32 1597.42 1029.99 1598.75 1028.66 1599.41 1027.38 1599.41 1026.14 1599.41 1024.98 1598.6 1024.32 1596.99 1024.18L1597.38 1022.43 1608.93 1022.43 1609.61 1024.18C1607.63 1025.96 1605.54 1027.71 1603.33 1029.42L1594.49 1036.26 1597.99 1049.13C1598.27 1050.22 1598.53 1051.01 1598.75 1051.5 1598.98 1051.99 1599.24 1052.35 1599.54 1052.59 1599.83 1052.83 1600.23 1052.94 1600.73 1052.94 1601.35 1052.94 1602.09 1052.61 1602.94 1051.95 1603.8 1051.28 1604.77 1050.32 1605.86 1049.06L1607.9 1051.06C1605.76 1053.31 1603.99 1054.88 1602.58 1055.76 1601.18 1056.64 1599.83 1057.08 1598.52 1057.08 1596.91 1057.08 1595.62 1056.62 1594.67 1055.71 1593.72 1054.79 1592.97 1053.27 1592.43 1051.13L1590.07 1041.86C1589.84 1040.93 1589.6 1040.29 1589.36 1039.93 1589.12 1039.58 1588.85 1039.34 1588.54 1039.22 1588.23 1039.1 1587.69 1039.04 1586.9 1039.04L1584.44 1039.04 1580.73 1056.51 1574.57 1056.51 1583.73 1015.77C1584.04 1014.39 1584.26 1013.31 1584.39 1012.54 1584.52 1011.77 1584.58 1011.09 1584.58 1010.49 1584.58 1009.49 1584.28 1008.79 1583.68 1008.39 1583.07 1007.99 1581.98 1007.76 1580.41 1007.71L1580.84 1005.86Z" fill-rule="evenodd"/><text fill="#000000" fill-opacity="0" font-family="Arial,Arial_MSFontService,sans-serif" font-size="51.542" x="1574.57" y="1050.64">𝑘</text></g></svg>