<svg width="4373" height="337" xmlns="http://www.w3.org/2000/svg" xmlns:xlink="http://www.w3.org/1999/xlink" overflow="hidden"><defs><clipPath id="clip0"><rect x="0" y="579" width="4373" height="337"/></clipPath><clipPath id="clip1"><rect x="0" y="588" width="990" height="327"/></clipPath><clipPath id="clip2"><rect x="0" y="588" width="991" height="327"/></clipPath><clipPath id="clip3"><rect x="0" y="588" width="991" height="327"/></clipPath><clipPath id="clip4"><rect x="0" y="588" width="991" height="327"/></clipPath><clipPath id="clip5"><rect x="1002" y="588" width="991" height="327"/></clipPath><clipPath id="clip6"><rect x="1002" y="588" width="991" height="327"/></clipPath><clipPath id="clip7"><rect x="1002" y="588" width="991" height="327"/></clipPath><clipPath id="clip8"><rect x="1002" y="588" width="991" height="327"/></clipPath><clipPath id="clip9"><rect x="2005" y="588" width="991" height="327"/></clipPath><clipPath id="clip10"><rect x="2005" y="588" width="991" height="327"/></clipPath><clipPath id="clip11"><rect x="2005" y="588" width="991" height="327"/></clipPath><clipPath id="clip12"><rect x="2005" y="588" width="991" height="327"/></clipPath><clipPath id="clip13"><rect x="3007" y="588" width="991" height="327"/></clipPath><clipPath id="clip14"><rect x="3007" y="588" width="991" height="327"/></clipPath><clipPath id="clip15"><rect x="3007" y="588" width="991" height="327"/></clipPath><clipPath id="clip16"><rect x="3007" y="588" width="991" height="327"/></clipPath><clipPath id="clip17"><rect x="4009" y="588" width="364" height="327"/></clipPath><clipPath id="clip18"><rect x="4010" y="588" width="363" height="327"/></clipPath><clipPath id="clip19"><rect x="4010" y="588" width="991" height="327"/></clipPath><clipPath id="clip20"><rect x="4010" y="588" width="991" height="327"/></clipPath></defs><g clip-path="url(#clip0)" transform="matrix(1 0 0 1 0 -579)"><g clip-path="url(#clip1)"><g clip-path="url(#clip2)"><g clip-path="url(#clip3)"><g clip-path="url(#clip4)"><path d="M622.404 14.4985C549.445-15.785 446.745 38.0852 447.46 70.5107 447.854 88.9022 481.389 94.59 479.985 112.834 478.137 136.864 419.37 134.033 398.673 172.687 384.652 198.883 390.738 239.336 411.928 261.174 441.054 291.113 475.353 261.937 547.129 289.365 590.619 306.009 599.637 324.967 626.692 320.584 659.242 315.29 658.379 285.844 694.723 270.136 714.435 261.667 727.963 264.449 826.473 281.683 889.704 292.738 921.536 298.031 931.713 285.967 945.287 269.865 921.536 250.243 931.29 214.148 942.062 174.238 977.542 174.164 992.471 127.779 995.059 119.752 1005.38 87.6715 990.013 69.649 983.183 61.6966 972.54 57.905 927.97 58.1019 852.271 58.4465 842.515 69.5751 819.303 58.5451 790.647 44.9298 794.417 22.7218 763.691 14.08 744.2 8.58952 717.22 10.3622 706.353 25.2086 697.434 37.2726 657.886 29.2217 622.404 14.4985Z" stroke="#231F20" stroke-width="9.85641" stroke-miterlimit="8" fill="none" fill-rule="evenodd" transform="matrix(1.0008 0 0 1 -13.8099 588)"/><path d="M13.7989 163 346.698 163" stroke="#231F20" stroke-width="4.9282" stroke-miterlimit="8" fill="none" fill-rule="evenodd" transform="matrix(1.0008 0 0 1 -13.8099 588)"/><path d="M376.02 162.968C361.983 168.134 344.561 176.925 333.761 186.254L342.263 162.968 333.761 139.682C344.561 149.011 361.983 157.801 376.02 162.968Z" fill="#231F20" fill-rule="evenodd" transform="matrix(1.0008 0 0 1 -13.8099 588)"/></g></g></g></g><g clip-path="url(#clip5)"><g clip-path="url(#clip6)"><g clip-path="url(#clip7)"><g clip-path="url(#clip8)"><path d="M622.404 14.4985C549.445-15.785 446.745 38.0852 447.46 70.5107 447.854 88.9022 481.389 94.59 479.985 112.834 478.137 136.864 419.37 134.033 398.673 172.687 384.652 198.883 390.738 239.336 411.928 261.174 441.054 291.113 475.353 261.937 547.129 289.365 590.619 306.009 599.637 324.967 626.692 320.584 659.242 315.29 658.379 285.844 694.723 270.136 714.435 261.667 727.963 264.449 826.473 281.683 889.704 292.738 921.536 298.031 931.713 285.967 945.287 269.865 921.536 250.243 931.29 214.148 942.062 174.238 977.542 174.164 992.471 127.779 995.059 119.752 1005.38 87.6715 990.013 69.649 983.183 61.6966 972.54 57.905 927.97 58.1019 852.271 58.4465 842.515 69.5751 819.303 58.5451 790.647 44.9298 794.417 22.7218 763.691 14.08 744.2 8.58952 717.22 10.3622 706.353 25.2086 697.434 37.2726 657.886 29.2217 622.404 14.4985Z" stroke="#231F20" stroke-width="9.85641" stroke-miterlimit="8" fill="none" fill-rule="evenodd" transform="matrix(1.0008 0 0 1 988.19 588)"/><path d="M13.7989 163 346.698 163" stroke="#231F20" stroke-width="4.9282" stroke-miterlimit="8" fill="none" fill-rule="evenodd" transform="matrix(1.0008 0 0 1 988.19 588)"/><path d="M376.02 162.968C361.983 168.134 344.561 176.925 333.761 186.254L342.263 162.968 333.761 139.682C344.561 149.011 361.983 157.801 376.02 162.968Z" fill="#231F20" fill-rule="evenodd" transform="matrix(1.0008 0 0 1 988.19 588)"/></g></g></g></g><g clip-path="url(#clip9)"><g clip-path="url(#clip10)"><g clip-path="url(#clip11)"><g clip-path="url(#clip12)"><path d="M622.404 14.4985C549.445-15.785 446.745 38.0852 447.46 70.5107 447.854 88.9022 481.389 94.59 479.985 112.834 478.137 136.864 419.37 134.033 398.673 172.687 384.652 198.883 390.738 239.336 411.928 261.174 441.054 291.113 475.353 261.937 547.129 289.365 590.619 306.009 599.637 324.967 626.692 320.584 659.242 315.29 658.379 285.844 694.723 270.136 714.435 261.667 727.963 264.449 826.473 281.683 889.704 292.738 921.536 298.031 931.713 285.967 945.287 269.865 921.536 250.243 931.29 214.148 942.062 174.238 977.542 174.164 992.471 127.779 995.059 119.752 1005.38 87.6715 990.013 69.649 983.183 61.6966 972.54 57.905 927.97 58.1019 852.271 58.4465 842.515 69.5751 819.303 58.5451 790.647 44.9298 794.417 22.7218 763.691 14.08 744.2 8.58952 717.22 10.3622 706.353 25.2086 697.434 37.2726 657.886 29.2217 622.404 14.4985Z" stroke="#231F20" stroke-width="9.85641" stroke-miterlimit="8" fill="none" fill-rule="evenodd" transform="matrix(1.0008 0 0 1 1991.19 588)"/><path d="M13.7989 163 346.698 163" stroke="#231F20" stroke-width="4.9282" stroke-miterlimit="8" fill="none" fill-rule="evenodd" transform="matrix(1.0008 0 0 1 1991.19 588)"/><path d="M376.02 162.968C361.983 168.134 344.561 176.925 333.761 186.254L342.263 162.968 333.761 139.682C344.561 149.011 361.983 157.801 376.02 162.968Z" fill="#231F20" fill-rule="evenodd" transform="matrix(1.0008 0 0 1 1991.19 588)"/></g></g></g></g><g clip-path="url(#clip13)"><g clip-path="url(#clip14)"><g clip-path="url(#clip15)"><g clip-path="url(#clip16)"><path d="M622.404 14.4985C549.445-15.785 446.745 38.0852 447.46 70.5107 447.854 88.9022 481.389 94.59 479.985 112.834 478.137 136.864 419.37 134.033 398.673 172.687 384.652 198.883 390.738 239.336 411.928 261.174 441.054 291.113 475.353 261.937 547.129 289.365 590.619 306.009 599.637 324.967 626.692 320.584 659.242 315.29 658.379 285.844 694.723 270.136 714.435 261.667 727.963 264.449 826.473 281.683 889.704 292.738 921.536 298.031 931.713 285.967 945.287 269.865 921.536 250.243 931.29 214.148 942.062 174.238 977.542 174.164 992.471 127.779 995.059 119.752 1005.38 87.6715 990.013 69.649 983.183 61.6966 972.54 57.905 927.97 58.1019 852.271 58.4465 842.515 69.5751 819.303 58.5451 790.647 44.9298 794.417 22.7218 763.691 14.08 744.2 8.58952 717.22 10.3622 706.353 25.2086 697.434 37.2726 657.886 29.2217 622.404 14.4985Z" stroke="#231F20" stroke-width="9.85641" stroke-miterlimit="8" fill="none" fill-rule="evenodd" transform="matrix(1.0008 0 0 1 2993.19 588)"/><path d="M13.7989 163 346.698 163" stroke="#231F20" stroke-width="4.9282" stroke-miterlimit="8" fill="none" fill-rule="evenodd" transform="matrix(1.0008 0 0 1 2993.19 588)"/><path d="M376.02 162.968C361.983 168.134 344.561 176.925 333.761 186.254L342.263 162.968 333.761 139.682C344.561 149.011 361.983 157.801 376.02 162.968Z" fill="#231F20" fill-rule="evenodd" transform="matrix(1.0008 0 0 1 2993.19 588)"/></g></g></g></g><g clip-path="url(#clip17)"><g clip-path="url(#clip18)"><g clip-path="url(#clip19)"><g clip-path="url(#clip20)"><path d="M622.404 14.4985C549.445-15.785 446.745 38.0852 447.46 70.5107 447.854 88.9022 481.389 94.59 479.985 112.834 478.137 136.864 419.37 134.033 398.673 172.687 384.652 198.883 390.738 239.336 411.928 261.174 441.054 291.113 475.353 261.937 547.129 289.365 590.619 306.009 599.637 324.967 626.692 320.584 659.242 315.29 658.379 285.844 694.723 270.136 714.435 261.667 727.963 264.449 826.473 281.683 889.704 292.738 921.536 298.031 931.713 285.967 945.287 269.865 921.536 250.243 931.29 214.148 942.062 174.238 977.542 174.164 992.471 127.779 995.059 119.752 1005.38 87.6715 990.013 69.649 983.183 61.6966 972.54 57.905 927.97 58.1019 852.271 58.4465 842.515 69.5751 819.303 58.5451 790.647 44.9298 794.417 22.7218 763.691 14.08 744.2 8.58952 717.22 10.3622 706.353 25.2086 697.434 37.2726 657.886 29.2217 622.404 14.4985Z" stroke="#231F20" stroke-width="9.85641" stroke-miterlimit="8" fill="none" fill-rule="evenodd" transform="matrix(1.00079 0 0 1 3996.2 588)"/><path d="M13.7989 163 346.698 163" stroke="#231F20" stroke-width="4.9282" stroke-miterlimit="8" fill="none" fill-rule="evenodd" transform="matrix(1.00079 0 0 1 3996.2 588)"/><path d="M376.02 162.968C361.983 168.134 344.561 176.925 333.761 186.254L342.263 162.968 333.761 139.682C344.561 149.011 361.983 157.801 376.02 162.968Z" fill="#231F20" fill-rule="evenodd" transform="matrix(1.00079 0 0 1 3996.2 588)"/></g></g></g></g><text font-family="Arial,Arial_MSFontService,sans-serif" font-weight="400" font-size="83" transform="matrix(1 0 0 1 105.945 684)">F<tspan font-size="55" x="50.4167" y="20">A0</tspan><tspan font-size="83" x="0.845932" y="163">X</tspan><tspan font-size="55" x="55.8459" y="183">A0</tspan><tspan font-size="83" x="1008.56" y="0">F</tspan><tspan font-size="55" x="1058.97" y="20">A1</tspan><tspan font-size="83" x="1009.4" y="163">X</tspan><tspan font-size="55" x="1064.4" y="183">A1</tspan><tspan font-size="83" x="2030.82" y="0">F</tspan><tspan font-size="55" x="2081.24" y="20">A2</tspan><tspan font-size="83" x="2031.67" y="163">X</tspan><tspan font-size="55" x="2086.67" y="183">A2</tspan><tspan font-size="83" x="3039.38" y="0">F</tspan><tspan font-size="55" x="3089.8" y="20">A3</tspan><tspan font-size="83" x="3040.23" y="163">X</tspan><tspan font-size="55" x="3095.23" y="183">A3</tspan><tspan font-size="83" x="4023.34" y="0">F</tspan><tspan font-size="55" x="4073.75" y="20">A4</tspan><tspan font-size="83" x="4024.18" y="163">X</tspan><tspan font-size="55" x="4079.18" y="183">A4</tspan><tspan font-size="83" x="419.855" y="97">Reactor 1</tspan><tspan font-size="83" x="1424.11" y="97">Reactor 2</tspan><tspan font-size="83" x="2441.24" y="97">Reactor 3</tspan><tspan font-size="83" x="3445.91" y="97">Reactor 4</tspan></text></g></svg>