<svg width="3000" height="1386" xmlns="http://www.w3.org/2000/svg" xmlns:xlink="http://www.w3.org/1999/xlink" overflow="hidden"><defs><clipPath id="clip0"><rect x="181" y="504" width="3000" height="1386"/></clipPath></defs><g clip-path="url(#clip0)" transform="translate(-181 -504)"><rect x="713.5" y="1012.5" width="446" height="606" stroke="#000000" stroke-width="12.6042" stroke-miterlimit="8" fill="none"/><path d="M181 703.844 941.901 703.844 941.901 965.925 931.589 965.925 931.589 709 936.745 714.156 181 714.156ZM962.526 960.768 936.745 1012.33 910.964 960.768Z"/><path d="M213.615 541.192 269.99 541.192 265.677 560.38 259.677 560.38C259.511 557.172 259.25 554.64 258.896 552.786 258.542 550.932 258.042 549.599 257.396 548.786 256.75 547.974 255.969 547.422 255.052 547.13 254.136 546.838 252.761 546.692 250.927 546.692L231.677 546.692 224.24 580.692 235.927 580.692C237.761 580.692 239.282 580.442 240.49 579.942 241.698 579.442 242.823 578.536 243.865 577.224 244.907 575.911 246.198 573.672 247.74 570.505L253.427 570.505 247.365 596.88 241.865 596.88C241.865 592.672 241.729 590.036 241.459 588.974 241.188 587.911 240.667 587.182 239.896 586.786 239.125 586.39 237.594 586.192 235.302 586.192L223.052 586.192 218.115 608.317C217.24 612.234 216.802 615.484 216.802 618.067 216.802 619.359 217.011 620.369 217.427 621.099 217.844 621.828 218.469 622.359 219.302 622.692 220.136 623.026 221.573 623.276 223.615 623.442L222.927 626.505 197.24 626.505 197.927 623.442C199.511 623.192 200.698 622.786 201.49 622.224 202.282 621.661 202.948 620.88 203.49 619.88 204.032 618.88 204.532 617.661 204.99 616.224 205.448 614.786 206.136 612.005 207.052 607.88L217.677 559.755C218.594 555.588 219.052 552.297 219.052 549.88 219.052 547.838 218.573 546.422 217.615 545.63 216.657 544.838 215.094 544.38 212.927 544.255Z" fill-rule="evenodd"/><text fill="#000000" fill-opacity="0" font-family="Arial,Arial_MSFontService,sans-serif" font-size="85.3125" x="197.24" y="615.841">𝐹</text><path d="M274.938 617.367 285.94 617.367 288.46 650.498C292.407 644.06 295.256 639.16 297.005 635.801 298.755 632.442 300.05 629.537 300.89 627.088 301.729 624.638 302.373 622.084 302.821 619.424L303.283 617.367 309.33 617.367 312.396 650.54C316.763 644.326 320.087 638.901 322.369 634.268 324.65 629.635 325.791 625.863 325.791 622.951 325.791 621.636 325.511 620.74 324.951 620.264 324.391 619.788 323.439 619.508 322.096 619.424L322.516 617.367 333.35 617.367 334.483 619.466C333.504 621.958 332.72 623.875 332.132 625.219 331.544 626.563 330.774 628.18 329.822 630.069 328.87 631.959 327.863 633.841 326.799 635.717 325.735 637.593 324.482 639.657 323.041 641.911 321.599 644.165 319.982 646.614 318.19 649.26 316.399 651.905 314.285 654.88 311.85 658.183L306.853 658.183 305.131 640.63C304.991 639.258 304.844 637.467 304.69 635.255 304.536 633.044 304.431 631.336 304.375 630.132L303.913 630.09C302.401 633.813 300.344 637.957 297.74 642.52 295.137 647.083 291.917 652.304 288.082 658.183L282.455 658.183 279.264 626.563C279.096 624.939 278.886 623.623 278.634 622.616 278.382 621.608 277.962 620.852 277.374 620.348 276.786 619.844 275.82 619.536 274.477 619.424ZM374.724 597.21C377.467 597.21 379.833 597.434 381.82 597.882L380.183 605.021 376.487 605.021C376.095 603.425 375.584 602.277 374.955 601.577 374.325 600.878 373.394 600.528 372.162 600.528 370.566 600.528 369.216 600.969 368.11 601.85 367.004 602.732 366.059 604.041 365.275 605.777 364.492 607.512 363.764 609.85 363.092 612.789L362.042 617.367 372.834 617.367 371.91 621.608 361.076 621.608 353.266 658.225C351.978 664.3 350.004 668.828 347.345 671.809 344.685 674.791 341.34 676.282 337.309 676.282 336.133 676.282 335.209 676.212 334.537 676.072L335.251 672.376C335.531 672.46 336.189 672.502 337.225 672.502 338.484 672.502 339.562 672.18 340.458 671.536 341.354 670.893 342.187 669.773 342.957 668.177 343.726 666.581 344.433 664.37 345.077 661.542L354.105 621.608 347.009 621.608 347.639 618.71C349.514 618.598 350.865 618.444 351.691 618.248 352.517 618.052 353.161 617.758 353.623 617.367 354.084 616.975 354.476 616.464 354.798 615.834 355.12 615.204 355.533 614.049 356.037 612.369 357.521 607.33 359.809 603.544 362.903 601.011 365.996 598.477 369.937 597.21 374.724 597.21Z" fill-rule="evenodd"/><text fill="#000000" fill-opacity="0" font-family="Arial,Arial_MSFontService,sans-serif" font-size="79.0713" x="274.477" y="666.398">𝑤𝑓</text><path d="M430.896 598.755 507.896 598.755 507.896 607.067 430.896 607.067ZM430.896 572.817 507.896 572.817 507.896 581.13 430.896 581.13Z" fill-rule="evenodd"/><text fill="#000000" fill-opacity="0" font-family="Arial,Arial_MSFontService,sans-serif" font-size="34.25" x="430.896" y="602.786">=</text><path d="M606.107 540.192C609.898 540.192 613.409 540.422 616.638 540.88 619.867 541.338 623.461 542.172 627.419 543.38L623.669 560.317 617.669 560.317C617.336 555.192 616.221 551.494 614.325 549.224 612.43 546.953 609.377 545.817 605.169 545.817 599.419 545.817 594.075 548.692 589.138 554.442 584.2 560.192 580.294 567.786 577.419 577.224 574.544 586.661 573.107 595.422 573.107 603.505 573.107 609.838 574.232 614.505 576.482 617.505 578.732 620.505 582.19 622.005 586.857 622.005 589.982 622.005 592.711 621.536 595.044 620.599 597.377 619.661 599.565 618.078 601.607 615.849 603.648 613.619 605.669 610.505 607.669 606.505L613.669 606.505 609.857 624.255C602.065 626.422 593.898 627.505 585.357 627.505 577.523 627.505 571.565 625.255 567.482 620.755 563.398 616.255 561.357 609.672 561.357 601.005 561.357 594.88 562.45 587.817 564.638 579.817 566.825 571.817 569.919 564.797 573.919 558.755 577.919 552.713 582.648 548.109 588.107 544.942 593.565 541.776 599.565 540.192 606.107 540.192Z" fill-rule="evenodd"/><text fill="#000000" fill-opacity="0" font-family="Arial,Arial_MSFontService,sans-serif" font-size="87.3125" x="561.357" y="616.591">𝐶</text><path d="M632.461 617.367 643.463 617.367 645.983 650.498C649.93 644.06 652.779 639.16 654.528 635.801 656.278 632.442 657.573 629.537 658.413 627.088 659.252 624.638 659.896 622.084 660.344 619.424L660.806 617.367 666.853 617.367 669.918 650.54C674.286 644.326 677.61 638.901 679.892 634.268 682.173 629.635 683.314 625.863 683.314 622.951 683.314 621.636 683.034 620.74 682.474 620.264 681.914 619.788 680.962 619.508 679.619 619.424L680.039 617.367 690.872 617.367 692.006 619.466C691.026 621.958 690.243 623.875 689.655 625.219 689.067 626.563 688.297 628.18 687.345 630.069 686.393 631.959 685.385 633.841 684.322 635.717 683.258 637.593 682.005 639.657 680.563 641.911 679.122 644.165 677.505 646.614 675.713 649.26 673.922 651.905 671.808 654.88 669.372 658.183L664.375 658.183 662.654 640.63C662.514 639.258 662.367 637.467 662.213 635.255 662.059 633.044 661.954 631.336 661.898 630.132L661.436 630.09C659.924 633.813 657.867 637.957 655.263 642.52 652.66 647.083 649.44 652.304 645.605 658.183L639.978 658.183 636.787 626.563C636.619 624.939 636.409 623.623 636.157 622.616 635.905 621.608 635.485 620.852 634.897 620.348 634.309 619.844 633.343 619.536 631.999 619.424ZM732.247 597.21C734.99 597.21 737.356 597.434 739.343 597.882L737.706 605.021 734.01 605.021C733.618 603.425 733.107 602.277 732.477 601.577 731.848 600.878 730.917 600.528 729.685 600.528 728.089 600.528 726.739 600.969 725.633 601.85 724.527 602.732 723.582 604.041 722.798 605.777 722.014 607.512 721.287 609.85 720.615 612.789L719.565 617.367 730.357 617.367 729.433 621.608 718.599 621.608 710.789 658.225C709.501 664.3 707.527 668.828 704.868 671.809 702.208 674.791 698.863 676.282 694.831 676.282 693.656 676.282 692.732 676.212 692.06 676.072L692.774 672.376C693.054 672.46 693.712 672.502 694.747 672.502 696.007 672.502 697.085 672.18 697.981 671.536 698.877 670.893 699.71 669.773 700.479 668.177 701.249 666.581 701.956 664.37 702.6 661.542L711.628 621.608 704.532 621.608 705.162 618.71C707.037 618.598 708.388 618.444 709.214 618.248 710.04 618.052 710.684 617.758 711.145 617.367 711.607 616.975 711.999 616.464 712.321 615.834 712.643 615.204 713.056 614.049 713.56 612.369 715.044 607.33 717.332 603.544 720.426 601.011 723.519 598.477 727.459 597.21 732.247 597.21Z" fill-rule="evenodd"/><text fill="#000000" fill-opacity="0" font-family="Arial,Arial_MSFontService,sans-serif" font-size="79.0713" x="631.999" y="666.398">𝑤𝑓</text><path d="M814.667 545.692C810.167 545.692 805.969 547.297 802.073 550.505 798.177 553.713 794.761 558.297 791.823 564.255 788.886 570.213 786.604 576.755 784.979 583.88 783.354 591.005 782.542 597.297 782.542 602.755 782.542 615.63 787.229 622.067 796.604 622.067 802.396 622.067 807.709 619.369 812.542 613.974 817.375 608.578 821.271 601.109 824.229 591.567 827.188 582.026 828.667 573.109 828.667 564.817 828.667 558.609 827.521 553.869 825.229 550.599 822.938 547.328 819.417 545.692 814.667 545.692ZM815.354 540.192C823.396 540.192 829.594 542.526 833.948 547.192 838.302 551.859 840.479 558.609 840.479 567.442 840.479 573.276 839.563 579.797 837.729 587.005 835.896 594.213 833.375 600.578 830.167 606.099 826.959 611.619 823.24 616.067 819.011 619.442 814.782 622.817 810.188 625.151 805.229 626.442 806.188 629.484 807.084 631.994 807.917 633.974 808.75 635.953 809.552 637.557 810.323 638.786 811.094 640.015 811.854 640.932 812.604 641.536 813.354 642.14 814.104 642.547 814.854 642.755 815.604 642.963 816.479 643.067 817.479 643.067 819.063 643.067 820.667 642.609 822.292 641.692 823.917 640.776 825.729 639.192 827.729 636.942L830.979 640.442C827.646 644.067 824.542 646.63 821.667 648.13 818.792 649.63 815.834 650.38 812.792 650.38 809.334 650.38 806.511 649.609 804.323 648.067 802.136 646.526 800.24 644.067 798.636 640.692 797.032 637.317 795.479 632.901 793.979 627.442 786.438 627.026 780.688 624.526 776.729 619.942 772.771 615.359 770.792 608.901 770.792 600.567 770.792 594.317 771.844 587.255 773.948 579.38 776.052 571.505 779.094 564.557 783.073 558.536 787.052 552.515 791.802 547.953 797.323 544.849 802.844 541.744 808.854 540.192 815.354 540.192Z" fill-rule="evenodd"/><text fill="#000000" fill-opacity="0" font-family="Arial,Arial_MSFontService,sans-serif" font-size="110.188" x="770.792" y="636.606">𝑄</text><path d="M888.422 597.21C891.165 597.21 893.531 597.434 895.518 597.882L893.88 605.021 890.185 605.021C889.793 603.425 889.282 602.277 888.652 601.577 888.023 600.878 887.092 600.528 885.86 600.528 884.264 600.528 882.914 600.969 881.808 601.85 880.702 602.732 879.757 604.041 878.973 605.777 878.189 607.512 877.462 609.85 876.79 612.789L875.74 617.367 886.532 617.367 885.608 621.608 874.774 621.608 866.964 658.225C865.676 664.3 863.702 668.828 861.043 671.809 858.383 674.791 855.038 676.282 851.006 676.282 849.831 676.282 848.907 676.212 848.235 676.072L848.949 672.376C849.229 672.46 849.887 672.502 850.922 672.502 852.182 672.502 853.26 672.18 854.156 671.536 855.052 670.893 855.885 669.773 856.654 668.177 857.424 666.581 858.131 664.37 858.775 661.542L867.803 621.608 860.707 621.608 861.337 618.71C863.212 618.598 864.563 618.444 865.389 618.248 866.215 618.052 866.859 617.758 867.32 617.367 867.782 616.975 868.174 616.464 868.496 615.834 868.818 615.204 869.231 614.049 869.735 612.369 871.219 607.33 873.507 603.544 876.601 601.011 879.694 598.477 883.634 597.21 888.422 597.21Z" fill-rule="evenodd"/><text fill="#000000" fill-opacity="0" font-family="Arial,Arial_MSFontService,sans-serif" font-size="79.0713" x="848.235" y="666.398">𝑓</text><text font-family="Arial,Arial_MSFontService,sans-serif" font-weight="400" font-size="110" transform="matrix(1 0 0 1 775.107 1798)">At t = 0</text><rect x="2666.5" y="1012.5" width="446" height="606" stroke="#000000" stroke-width="12.6042" stroke-miterlimit="8" fill="none"/><path d="M2133 703.844 2893.9 703.844 2893.9 965.925 2883.59 965.925 2883.59 709 2888.74 714.156 2133 714.156ZM2914.53 960.768 2888.74 1012.33 2862.96 960.768Z"/><path d="M2166.11 541.192 2222.49 541.192 2218.18 560.38 2212.18 560.38C2212.01 557.172 2211.75 554.64 2211.4 552.786 2211.04 550.932 2210.54 549.599 2209.9 548.786 2209.25 547.974 2208.47 547.422 2207.55 547.13 2206.64 546.838 2205.26 546.692 2203.43 546.692L2184.18 546.692 2176.74 580.692 2188.43 580.692C2190.26 580.692 2191.78 580.442 2192.99 579.942 2194.2 579.442 2195.32 578.536 2196.36 577.224 2197.41 575.911 2198.7 573.672 2200.24 570.505L2205.93 570.505 2199.86 596.88 2194.36 596.88C2194.36 592.672 2194.23 590.036 2193.96 588.974 2193.69 587.911 2193.17 587.182 2192.4 586.786 2191.63 586.39 2190.09 586.192 2187.8 586.192L2175.55 586.192 2170.61 608.317C2169.74 612.234 2169.3 615.484 2169.3 618.067 2169.3 619.359 2169.51 620.369 2169.93 621.099 2170.34 621.828 2170.97 622.359 2171.8 622.692 2172.64 623.026 2174.07 623.276 2176.11 623.442L2175.43 626.505 2149.74 626.505 2150.43 623.442C2152.01 623.192 2153.2 622.786 2153.99 622.224 2154.78 621.661 2155.45 620.88 2155.99 619.88 2156.53 618.88 2157.03 617.661 2157.49 616.224 2157.95 614.786 2158.64 612.005 2159.55 607.88L2170.18 559.755C2171.09 555.588 2171.55 552.297 2171.55 549.88 2171.55 547.838 2171.07 546.422 2170.11 545.63 2169.16 544.838 2167.59 544.38 2165.43 544.255Z" fill-rule="evenodd"/><text fill="#000000" fill-opacity="0" font-family="Arial,Arial_MSFontService,sans-serif" font-size="85.3125" x="2149.74" y="615.841">𝐹</text><path d="M2227.44 617.367 2238.44 617.367 2240.96 650.498C2244.91 644.06 2247.76 639.16 2249.51 635.801 2251.26 632.442 2252.55 629.537 2253.39 627.088 2254.23 624.638 2254.87 622.084 2255.32 619.424L2255.78 617.367 2261.83 617.367 2264.9 650.54C2269.26 644.326 2272.59 638.901 2274.87 634.268 2277.15 629.635 2278.29 625.863 2278.29 622.951 2278.29 621.636 2278.01 620.74 2277.45 620.264 2276.89 619.788 2275.94 619.508 2274.6 619.424L2275.02 617.367 2285.85 617.367 2286.98 619.466C2286 621.958 2285.22 623.875 2284.63 625.219 2284.04 626.563 2283.27 628.18 2282.32 630.069 2281.37 631.959 2280.36 633.841 2279.3 635.717 2278.24 637.593 2276.98 639.657 2275.54 641.911 2274.1 644.165 2272.48 646.614 2270.69 649.26 2268.9 651.905 2266.79 654.88 2264.35 658.183L2259.35 658.183 2257.63 640.63C2257.49 639.258 2257.34 637.467 2257.19 635.255 2257.04 633.044 2256.93 631.336 2256.88 630.132L2256.41 630.09C2254.9 633.813 2252.84 637.957 2250.24 642.52 2247.64 647.083 2244.42 652.304 2240.58 658.183L2234.96 658.183 2231.76 626.563C2231.6 624.939 2231.39 623.623 2231.13 622.616 2230.88 621.608 2230.46 620.852 2229.87 620.348 2229.29 619.844 2228.32 619.536 2226.98 619.424ZM2327.22 597.21C2329.97 597.21 2332.33 597.434 2334.32 597.882L2332.68 605.021 2328.99 605.021C2328.6 603.425 2328.08 602.277 2327.45 601.577 2326.82 600.878 2325.89 600.528 2324.66 600.528 2323.07 600.528 2321.72 600.969 2320.61 601.85 2319.5 602.732 2318.56 604.041 2317.78 605.777 2316.99 607.512 2316.26 609.85 2315.59 612.789L2314.54 617.367 2325.33 617.367 2324.41 621.608 2313.58 621.608 2305.77 658.225C2304.48 664.3 2302.5 668.828 2299.84 671.809 2297.19 674.791 2293.84 676.282 2289.81 676.282 2288.63 676.282 2287.71 676.212 2287.04 676.072L2287.75 672.376C2288.03 672.46 2288.69 672.502 2289.72 672.502 2290.98 672.502 2292.06 672.18 2292.96 671.536 2293.85 670.893 2294.69 669.773 2295.46 668.177 2296.23 666.581 2296.93 664.37 2297.58 661.542L2306.61 621.608 2299.51 621.608 2300.14 618.71C2302.01 618.598 2303.36 618.444 2304.19 618.248 2305.02 618.052 2305.66 617.758 2306.12 617.367 2306.58 616.975 2306.98 616.464 2307.3 615.834 2307.62 615.204 2308.03 614.049 2308.54 612.369 2310.02 607.33 2312.31 603.544 2315.4 601.011 2318.5 598.477 2322.44 597.21 2327.22 597.21Z" fill-rule="evenodd"/><text fill="#000000" fill-opacity="0" font-family="Arial,Arial_MSFontService,sans-serif" font-size="79.0713" x="2226.98" y="666.398">𝑤𝑓</text><path d="M2383.4 598.755 2460.4 598.755 2460.4 607.067 2383.4 607.067ZM2383.4 572.817 2460.4 572.817 2460.4 581.13 2383.4 581.13Z" fill-rule="evenodd"/><text fill="#000000" fill-opacity="0" font-family="Arial,Arial_MSFontService,sans-serif" font-size="34.25" x="2383.4" y="602.786">=</text><path d="M2558.61 540.192C2562.4 540.192 2565.91 540.422 2569.14 540.88 2572.37 541.338 2575.96 542.172 2579.92 543.38L2576.17 560.317 2570.17 560.317C2569.84 555.192 2568.72 551.494 2566.83 549.224 2564.93 546.953 2561.88 545.817 2557.67 545.817 2551.92 545.817 2546.58 548.692 2541.64 554.442 2536.7 560.192 2532.79 567.786 2529.92 577.224 2527.04 586.661 2525.61 595.422 2525.61 603.505 2525.61 609.838 2526.73 614.505 2528.98 617.505 2531.23 620.505 2534.69 622.005 2539.36 622.005 2542.48 622.005 2545.21 621.536 2547.54 620.599 2549.88 619.661 2552.06 618.078 2554.11 615.849 2556.15 613.619 2558.17 610.505 2560.17 606.505L2566.17 606.505 2562.36 624.255C2554.56 626.422 2546.4 627.505 2537.86 627.505 2530.02 627.505 2524.06 625.255 2519.98 620.755 2515.9 616.255 2513.86 609.672 2513.86 601.005 2513.86 594.88 2514.95 587.817 2517.14 579.817 2519.33 571.817 2522.42 564.797 2526.42 558.755 2530.42 552.713 2535.15 548.109 2540.61 544.942 2546.06 541.776 2552.06 540.192 2558.61 540.192Z" fill-rule="evenodd"/><text fill="#000000" fill-opacity="0" font-family="Arial,Arial_MSFontService,sans-serif" font-size="87.3125" x="2513.86" y="616.591">𝐶</text><path d="M2584.96 617.367 2595.96 617.367 2598.48 650.498C2602.43 644.06 2605.28 639.16 2607.03 635.801 2608.78 632.442 2610.07 629.537 2610.91 627.088 2611.75 624.638 2612.4 622.084 2612.84 619.424L2613.31 617.367 2619.35 617.367 2622.42 650.54C2626.79 644.326 2630.11 638.901 2632.39 634.268 2634.67 629.635 2635.81 625.863 2635.81 622.951 2635.81 621.636 2635.53 620.74 2634.97 620.264 2634.41 619.788 2633.46 619.508 2632.12 619.424L2632.54 617.367 2643.37 617.367 2644.51 619.466C2643.53 621.958 2642.74 623.875 2642.15 625.219 2641.57 626.563 2640.8 628.18 2639.84 630.069 2638.89 631.959 2637.89 633.841 2636.82 635.717 2635.76 637.593 2634.5 639.657 2633.06 641.911 2631.62 644.165 2630 646.614 2628.21 649.26 2626.42 651.905 2624.31 654.88 2621.87 658.183L2616.88 658.183 2615.15 640.63C2615.01 639.258 2614.87 637.467 2614.71 635.255 2614.56 633.044 2614.45 631.336 2614.4 630.132L2613.94 630.09C2612.42 633.813 2610.37 637.957 2607.76 642.52 2605.16 647.083 2601.94 652.304 2598.1 658.183L2592.48 658.183 2589.29 626.563C2589.12 624.939 2588.91 623.623 2588.66 622.616 2588.4 621.608 2587.98 620.852 2587.4 620.348 2586.81 619.844 2585.84 619.536 2584.5 619.424ZM2684.75 597.21C2687.49 597.21 2689.86 597.434 2691.84 597.882L2690.21 605.021 2686.51 605.021C2686.12 603.425 2685.61 602.277 2684.98 601.577 2684.35 600.878 2683.42 600.528 2682.18 600.528 2680.59 600.528 2679.24 600.969 2678.13 601.85 2677.03 602.732 2676.08 604.041 2675.3 605.777 2674.51 607.512 2673.79 609.85 2673.11 612.789L2672.06 617.367 2682.86 617.367 2681.93 621.608 2671.1 621.608 2663.29 658.225C2662 664.3 2660.03 668.828 2657.37 671.809 2654.71 674.791 2651.36 676.282 2647.33 676.282 2646.16 676.282 2645.23 676.212 2644.56 676.072L2645.27 672.376C2645.55 672.46 2646.21 672.502 2647.25 672.502 2648.51 672.502 2649.58 672.18 2650.48 671.536 2651.38 670.893 2652.21 669.773 2652.98 668.177 2653.75 666.581 2654.46 664.37 2655.1 661.542L2664.13 621.608 2657.03 621.608 2657.66 618.71C2659.54 618.598 2660.89 618.444 2661.71 618.248 2662.54 618.052 2663.18 617.758 2663.65 617.367 2664.11 616.975 2664.5 616.464 2664.82 615.834 2665.14 615.204 2665.56 614.049 2666.06 612.369 2667.54 607.33 2669.83 603.544 2672.93 601.011 2676.02 598.477 2679.96 597.21 2684.75 597.21Z" fill-rule="evenodd"/><text fill="#000000" fill-opacity="0" font-family="Arial,Arial_MSFontService,sans-serif" font-size="79.0713" x="2584.5" y="666.398">𝑤𝑓</text><path d="M2767.17 545.692C2762.67 545.692 2758.47 547.297 2754.57 550.505 2750.68 553.713 2747.26 558.297 2744.32 564.255 2741.39 570.213 2739.1 576.755 2737.48 583.88 2735.85 591.005 2735.04 597.297 2735.04 602.755 2735.04 615.63 2739.73 622.067 2749.1 622.067 2754.9 622.067 2760.21 619.369 2765.04 613.974 2769.88 608.578 2773.77 601.109 2776.73 591.567 2779.69 582.026 2781.17 573.109 2781.17 564.817 2781.17 558.609 2780.02 553.869 2777.73 550.599 2775.44 547.328 2771.92 545.692 2767.17 545.692ZM2767.85 540.192C2775.9 540.192 2782.09 542.526 2786.45 547.192 2790.8 551.859 2792.98 558.609 2792.98 567.442 2792.98 573.276 2792.06 579.797 2790.23 587.005 2788.4 594.213 2785.88 600.578 2782.67 606.099 2779.46 611.619 2775.74 616.067 2771.51 619.442 2767.28 622.817 2762.69 625.151 2757.73 626.442 2758.69 629.484 2759.58 631.994 2760.42 633.974 2761.25 635.953 2762.05 637.557 2762.82 638.786 2763.59 640.015 2764.35 640.932 2765.1 641.536 2765.85 642.14 2766.6 642.547 2767.35 642.755 2768.1 642.963 2768.98 643.067 2769.98 643.067 2771.56 643.067 2773.17 642.609 2774.79 641.692 2776.42 640.776 2778.23 639.192 2780.23 636.942L2783.48 640.442C2780.15 644.067 2777.04 646.63 2774.17 648.13 2771.29 649.63 2768.33 650.38 2765.29 650.38 2761.83 650.38 2759.01 649.609 2756.82 648.067 2754.64 646.526 2752.74 644.067 2751.14 640.692 2749.53 637.317 2747.98 632.901 2746.48 627.442 2738.94 627.026 2733.19 624.526 2729.23 619.942 2725.27 615.359 2723.29 608.901 2723.29 600.567 2723.29 594.317 2724.34 587.255 2726.45 579.38 2728.55 571.505 2731.59 564.557 2735.57 558.536 2739.55 552.515 2744.3 547.953 2749.82 544.849 2755.34 541.744 2761.35 540.192 2767.85 540.192Z" fill-rule="evenodd"/><text fill="#000000" fill-opacity="0" font-family="Arial,Arial_MSFontService,sans-serif" font-size="110.188" x="2723.29" y="636.606">𝑄</text><path d="M2840.92 597.21C2843.66 597.21 2846.03 597.434 2848.02 597.882L2846.38 605.021 2842.69 605.021C2842.29 603.425 2841.78 602.277 2841.15 601.577 2840.52 600.878 2839.59 600.528 2838.36 600.528 2836.76 600.528 2835.41 600.969 2834.31 601.85 2833.2 602.732 2832.26 604.041 2831.47 605.777 2830.69 607.512 2829.96 609.85 2829.29 612.789L2828.24 617.367 2839.03 617.367 2838.11 621.608 2827.27 621.608 2819.46 658.225C2818.18 664.3 2816.2 668.828 2813.54 671.809 2810.88 674.791 2807.54 676.282 2803.51 676.282 2802.33 676.282 2801.41 676.212 2800.73 676.072L2801.45 672.376C2801.73 672.46 2802.39 672.502 2803.42 672.502 2804.68 672.502 2805.76 672.18 2806.66 671.536 2807.55 670.893 2808.38 669.773 2809.15 668.177 2809.92 666.581 2810.63 664.37 2811.27 661.542L2820.3 621.608 2813.21 621.608 2813.84 618.71C2815.71 618.598 2817.06 618.444 2817.89 618.248 2818.71 618.052 2819.36 617.758 2819.82 617.367 2820.28 616.975 2820.67 616.464 2821 615.834 2821.32 615.204 2821.73 614.049 2822.23 612.369 2823.72 607.33 2826.01 603.544 2829.1 601.011 2832.19 598.477 2836.13 597.21 2840.92 597.21Z" fill-rule="evenodd"/><text fill="#000000" fill-opacity="0" font-family="Arial,Arial_MSFontService,sans-serif" font-size="79.0713" x="2800.73" y="666.398">𝑓</text><text font-family="Arial,Arial_MSFontService,sans-serif" font-weight="400" font-size="110" transform="matrix(1 0 0 1 2727.61 1798)">At t = <tspan font-family="Symbol,Symbol_MSFontService,sans-serif" font-size="110" x="289.323" y="0">D</tspan>t</text><path d="M1564.5 1294.92 2158.92 1294.92 2158.92 1304.08 1564.5 1304.08ZM2154.34 1276.58 2200.17 1299.5 2154.34 1322.42Z"/><text font-family="Symbol,Symbol_MSFontService,sans-serif" font-weight="400" font-size="110" transform="matrix(1 0 0 1 1829.2 1256)">D<tspan font-family="Arial,Arial_MSFontService,sans-serif" font-size="110" x="67.0313" y="0">t</tspan></text><rect x="2668.5" y="1172.5" width="441" height="446" stroke="#2F528F" stroke-width="4.58333" stroke-miterlimit="8" fill="#4472C4"/></g></svg>